<svg width="80" height="80" viewBox="0 0 80 80" fill="none" xmlns="http://www.w3.org/2000/svg">
<path d="M18.0247 22.8115C18.0247 19.9301 19.94 18.0152 22.822 18.0152H57.1872C60.0692 18.0152 61.9844 19.9301 61.9844 22.8115V28.9574C61.9844 35.6778 59.5858 39.6079 55.3631 39.6079C48.0669 39.6079 39.2385 30.4894 31.8419 30.4894C26.1782 30.4894 21.2806 34.228 18.0247 42.3891V22.8115ZM61.9935 57.1793C61.9935 60.0608 60.0783 61.9757 57.1963 61.9757H22.822C19.94 61.9757 18.0247 60.0608 18.0247 57.1793V51.0334C18.0247 44.3131 20.4233 40.383 24.646 40.383C31.9422 40.383 40.7707 49.5015 48.1672 49.5015C53.8309 49.5015 58.7285 45.7629 61.9935 37.6018V57.1793ZM22.7216 16C18.6905 16 16 18.69 16 22.7204V57.2796C16 61.31 18.6905 64 22.7216 64H57.2784C61.3095 64 64 61.31 64 57.2796V22.7204C64 18.69 61.3095 16 57.2784 16H22.7216V16Z" fill="white"/>
</svg>
