<svg width="80" height="80" viewBox="0 0 80 80" fill="none" xmlns="http://www.w3.org/2000/svg">
<path fill-rule="evenodd" clip-rule="evenodd" d="M41.671 63.3078C41.2278 63.751 40.6267 64.0001 40 64C39.3732 63.9999 38.7722 63.751 38.329 63.3078C36.5508 61.5297 33.9909 58.9698 33.9909 58.9698C33.9909 58.9698 36.7323 58.9698 38.4968 58.9698C39.4282 58.9698 40.3214 58.5998 40.98 57.9412C43.8897 55.0316 51.9696 46.9516 51.9696 46.9516L52.0182 52.9607C52.0182 52.9607 44.9732 60.0056 41.671 63.3078ZM25.5253 52.3527C26.1827 53.01 27.0743 53.3793 28.004 53.3793C32.1166 53.3793 43.5482 53.3793 43.5482 53.3793L39.3335 57.6627H22.3373V49.1646C22.3373 49.1646 24.2777 51.105 25.5253 52.3527ZM57.6627 57.6627H49.1646C49.1646 57.6627 51.105 55.7223 52.3527 54.4747C53.01 53.8173 53.3793 52.9257 53.3793 51.996C53.3793 47.8834 53.3793 36.4518 53.3793 36.4518L57.6627 40.6665V57.6627ZM16.6922 41.671C16.249 41.2278 15.9999 40.6267 16 40C16.0001 39.3732 16.249 38.7722 16.6922 38.329C18.4703 36.5508 21.0302 33.9909 21.0302 33.9909C21.0302 33.9909 21.0302 36.7323 21.0302 38.4968C21.0302 39.4282 21.4002 40.3214 22.0588 40.98C24.9684 43.8897 33.0484 51.9696 33.0484 51.9696L27.0393 52.0182C27.0393 52.0182 19.9944 44.9732 16.6922 41.671ZM40 28.9834C46.0803 28.9834 51.0166 33.9197 51.0166 40C51.0166 46.0803 46.0803 51.0166 40 51.0166C33.9197 51.0166 28.9834 46.0803 28.9834 40C28.9834 33.9197 33.9197 28.9834 40 28.9834ZM63.3078 38.329C63.751 38.7722 64 39.3733 64 40C64 40.6268 63.751 41.2278 63.3078 41.671C61.5297 43.4492 58.9698 46.0091 58.9698 46.0091C58.9698 46.0091 58.9698 43.2677 58.9698 41.5032C58.9698 40.5718 58.5998 39.6786 57.9412 39.02C55.0316 36.1103 46.9516 28.0304 46.9516 28.0304L52.9607 27.9818C52.9607 27.9818 60.0056 35.0268 63.3078 38.329ZM22.3373 22.3373H30.8354C30.8354 22.3373 28.895 24.2777 27.6473 25.5253C26.99 26.1827 26.6207 27.0743 26.6207 28.004C26.6207 32.1166 26.6207 43.5482 26.6207 43.5482L22.3373 39.3335V22.3373ZM46.0091 21.0302C46.0091 21.0302 43.2677 21.0302 41.5032 21.0302C40.5718 21.0302 39.6786 21.4002 39.02 22.0588C36.1103 24.9684 28.0304 33.0484 28.0304 33.0484L27.9818 27.0393C27.9818 27.0393 35.0268 19.9944 38.329 16.6922C38.7722 16.249 39.3733 16 40 16C40.6268 16 41.2278 16.249 41.671 16.6922C43.4492 18.4703 46.0091 21.0302 46.0091 21.0302ZM57.6627 22.3373V30.8354C57.6627 30.8354 55.7223 28.895 54.4747 27.6473C53.8173 26.99 52.9257 26.6207 51.996 26.6207C47.8834 26.6207 36.4518 26.6207 36.4518 26.6207L40.6665 22.3373H57.6627Z" fill="white"/>
</svg>
