<svg width="80" height="80" viewBox="0 0 80 80" fill="none" xmlns="http://www.w3.org/2000/svg">
<path d="M27.411 28.8037C28.4613 28.8037 29.3128 27.9522 29.3128 26.9018C29.3128 25.8515 28.4613 25 27.411 25C26.3606 25 25.5091 25.8515 25.5091 26.9018C25.5091 27.9522 26.3606 28.8037 27.411 28.8037Z" fill="white"/>
<path d="M52.1347 37.2668V46.3005C52.1347 48.2972 53.6149 49.8188 55.558 49.8188C57.4817 49.8188 58.9813 48.297 58.9808 46.3586L58.9812 37.2668C58.9813 35.9539 60.0457 34.8896 61.3586 34.8895H63.7359V46.1103C63.7359 50.6268 60.0745 54.2881 55.558 54.2881C51.0415 54.2881 47.3801 50.6268 47.3801 46.1103V34.8895H49.7574C51.0704 34.8895 52.1347 35.9538 52.1347 37.2668Z" fill="white"/>
<path fill-rule="evenodd" clip-rule="evenodd" d="M41.1992 27.6626H43.5765V51.9109C43.5765 53.2238 42.5121 54.2881 41.1992 54.2881H38.8219V30.0398C38.8219 28.7269 39.8863 27.6626 41.1992 27.6626Z" fill="white"/>
<path d="M20.7546 27.6626L20.7545 36.6898C22.2594 35.3264 24.179 34.5091 26.2699 34.5091C31.1015 34.5091 35.0183 38.873 35.0183 44.256C35.0183 44.2971 35.018 44.3381 35.0176 44.379C35.0181 44.4172 35.0183 44.4554 35.0183 44.4937C35.0176 50.0564 30.7609 54.2881 25.5091 54.2881C20.3501 54.2881 16.1506 50.0564 16.004 44.7791L16 44.779V30.0398C16 28.7188 17.0767 27.6626 18.3773 27.6626H20.7546ZM25.414 38.8833C22.6831 38.8833 20.4693 41.3313 20.4693 44.3511C20.4693 47.3708 22.6831 49.8188 25.414 49.8188C28.145 49.8188 30.3588 47.3708 30.3588 44.3511C30.3588 41.3313 28.145 38.8833 25.414 38.8833Z" fill="white"/>
</svg>
