<svg width="80" height="80" viewBox="0 0 80 80" fill="none" xmlns="http://www.w3.org/2000/svg">
<path fill-rule="evenodd" clip-rule="evenodd" d="M47.1885 34.3721H47.5111C47.6628 34.3721 47.7987 34.2629 47.9187 34.0445C48.1921 34.3146 48.4663 34.4496 48.7414 34.4496C48.8981 34.3346 49.0498 34.0979 49.1965 33.7395C49.1965 33.3977 49.1282 33.1493 48.9915 32.9943C48.8448 32.8309 48.603 32.7492 48.2663 32.7492C48.1663 32.8509 48.0354 33.0468 47.8737 33.3369C47.7436 33.5702 47.647 33.6869 47.5836 33.6869H47.1885C47.1435 33.3919 47.0393 33.1651 46.8759 33.0068C46.7409 32.8751 46.5909 32.8092 46.4258 32.8092C46.2858 32.8859 46.1616 33.0109 46.0532 33.1843C45.8915 33.4444 45.8106 33.762 45.8106 34.1371C45.979 34.2938 46.3383 34.3721 46.8884 34.3721C46.7517 34.6305 46.5883 34.8389 46.3983 34.9973C46.1866 35.174 45.8832 35.3424 45.4881 35.5024C45.6098 35.5841 45.7648 35.655 45.9532 35.715C46.1482 35.7783 46.3158 35.81 46.4558 35.81C46.8743 35.3199 47.1185 34.8406 47.1885 34.3721ZM46.6534 33.5019C46.7301 33.5836 46.7917 33.6753 46.8384 33.777C46.7701 33.812 46.6834 33.8295 46.5783 33.8295C46.4967 33.8295 46.4141 33.8178 46.3308 33.7945C46.2174 33.7628 46.1516 33.7195 46.1332 33.6644C46.1449 33.6078 46.1741 33.5444 46.2208 33.4744C46.2758 33.391 46.3266 33.3494 46.3733 33.3494C46.465 33.3494 46.5583 33.4002 46.6534 33.5019ZM48.8214 33.8545C48.8214 33.8845 48.8198 33.9162 48.8164 33.9495C48.483 33.8728 48.2513 33.7445 48.1212 33.5644C48.1563 33.436 48.2213 33.3394 48.3163 33.2743C48.6531 33.346 48.8214 33.5394 48.8214 33.8545Z" fill="white"/>
<path d="M28.6053 33.1083L28.9182 32.4301C28.7769 32.3725 28.6424 32.3437 28.5148 32.3437C27.9908 32.3437 27.6055 32.7755 27.359 33.6391C27.2883 33.8864 27.2529 34.0557 27.2529 34.1472C27.3288 34.2589 27.4874 34.341 27.7287 34.3935C28.0252 34.4579 28.2459 34.54 28.3907 34.6399C28.2183 34.7466 27.9511 34.8423 27.5891 34.9269C27.2529 35.0048 26.9719 35.0438 26.7461 35.0438C26.1996 35.0438 25.9264 34.8389 25.9264 34.4291C25.9264 34.1819 25.9954 33.9321 26.1333 33.6798C26.0919 33.6121 26.0272 33.5816 25.9393 33.5883C25.8359 33.7594 25.7454 33.9566 25.6678 34.1802C25.5747 34.446 25.5282 34.6729 25.5282 34.8609C25.5282 35.1555 25.6239 35.3782 25.8152 35.5289C25.991 35.6661 26.2324 35.7347 26.5392 35.7347C27.2029 35.7347 27.8503 35.5501 28.4812 35.1809C28.6277 34.7932 28.701 34.4799 28.701 34.2411C28.701 34.1395 28.6105 34.054 28.4295 33.9846L27.9227 33.8423C27.7365 33.7899 27.6391 33.7331 27.6305 33.6722C27.8063 33.2607 28.039 33.0549 28.3286 33.0549C28.4148 33.0549 28.5071 33.0727 28.6053 33.1083Z" fill="white"/>
<path d="M30.0969 35.0229C30.278 34.6707 30.3685 34.393 30.3685 34.1898C30.3685 34.0222 30.3189 33.8283 30.2198 33.6081C30.1206 33.388 30.0073 33.2237 29.8797 33.1154L29.5229 33.7936C29.7642 33.9527 29.9237 34.1382 30.0013 34.3498C29.9478 34.5259 29.7772 34.7232 29.4893 34.9416C29.2445 35.1279 28.9661 35.2913 28.654 35.4319C28.7402 35.5149 28.8833 35.597 29.0833 35.6783C29.2833 35.7595 29.4427 35.8002 29.5617 35.8002C29.7444 35.6207 29.9228 35.3616 30.0969 35.0229Z" fill="white"/>
<path d="M31.9554 35.5721L32.3717 35.186L31.9709 34.7898L31.5468 35.1708L31.9554 35.5721Z" fill="white"/>
<path d="M33.6801 34.1903C33.8008 34.3106 33.931 34.3707 34.0706 34.3707C34.1689 34.3707 34.3861 34.3292 34.7222 34.2462C35.2825 34.1074 35.7324 34.0007 36.072 33.9262L36.372 33.2861L35.3971 33.535C35.0455 33.3877 34.8515 33.1489 34.8153 32.8187C35.0032 32.6782 35.2549 32.6079 35.5704 32.6079C35.7186 32.6079 35.8428 32.6257 35.9427 32.6612C35.9755 32.6731 35.9988 32.679 36.0126 32.679C36.0384 32.679 36.0358 32.6528 36.0048 32.6003C35.8169 32.2853 35.5756 32.1278 35.2808 32.1278C35.0946 32.1278 34.8843 32.2303 34.6498 32.4352C34.3947 32.657 34.2671 32.8848 34.2671 33.1184C34.2671 33.3504 34.3706 33.5282 34.5774 33.6518C34.4326 33.6671 34.3369 33.6747 34.2904 33.6747H34.099C33.9232 33.6747 33.7905 33.607 33.7008 33.4715C33.6232 33.3564 33.5845 33.2082 33.5845 33.027H33.3647C33.3647 33.1828 33.3242 33.3225 33.2431 33.4461C33.1431 33.5985 33.0061 33.6747 32.832 33.6747H32.6794C32.5036 33.6747 32.3708 33.607 32.2812 33.4715C32.2036 33.3564 32.1648 33.2082 32.1648 33.027H31.945C31.945 33.1828 31.9045 33.3225 31.8235 33.4461C31.7235 33.5985 31.5865 33.6747 31.4124 33.6747C31.2365 33.6747 31.1193 33.5841 31.0607 33.4029C31.0279 33.3013 31.0116 33.1388 31.0116 32.9152V32.1659C31.0116 31.8645 31.0081 31.6672 31.0012 31.5741C30.9822 31.3167 30.9331 31.1262 30.8538 31.0026L30.3806 31.4903C30.4616 31.6715 30.5168 31.8789 30.5461 32.1126C30.5616 32.2328 30.5745 32.4479 30.5849 32.7578C30.6073 33.3843 30.6521 33.7882 30.7194 33.9693C30.8193 34.2369 31.034 34.3707 31.3632 34.3707H31.4382C31.5692 34.3707 31.7002 34.3089 31.8313 34.1853C31.9571 34.0667 32.0304 33.9423 32.0511 33.8119C32.0786 33.9524 32.1485 34.0786 32.2605 34.1903C32.3812 34.3106 32.5113 34.3707 32.651 34.3707H32.8578C32.9889 34.3707 33.1199 34.3089 33.2509 34.1853C33.3767 34.0667 33.45 33.9423 33.4707 33.8119C33.4983 33.9524 33.5681 34.0786 33.6801 34.1903Z" fill="white"/>
<path d="M33.7939 32.3767L34.1508 32.0262L33.7706 31.6909L33.4397 32.0237L33.0776 31.7062L32.7208 32.0643L33.1009 32.392L33.4319 32.0643L33.7939 32.3767Z" fill="white"/>
<path d="M36.9327 31.9322C36.9327 31.5275 36.9103 31.2168 36.8655 31L36.2526 31.5233C36.4061 31.9907 36.4828 32.668 36.4828 33.5553L36.4854 34.5104L36.7465 34.1243C36.8707 33.3301 36.9327 32.5994 36.9327 31.9322Z" fill="white"/>
<path fill-rule="evenodd" clip-rule="evenodd" d="M42.3293 34.3721H42.462C42.7038 34.3721 42.9105 34.2029 43.0822 33.8645C43.2172 34.2029 43.4023 34.3721 43.6373 34.3721C43.9574 34.3721 44.1641 34.2021 44.2575 33.862C44.2792 33.997 44.3375 34.1137 44.4326 34.2121C44.5326 34.3188 44.6484 34.3721 44.7801 34.3721C44.9018 34.3721 45.0235 34.3288 45.1452 34.2421C45.2586 34.1621 45.3445 34.0645 45.4028 33.9495C45.4678 33.7911 45.5137 33.6711 45.5403 33.5894C45.5987 33.411 45.6279 33.2902 45.6279 33.2268C45.6279 33.1168 45.5945 32.9801 45.5278 32.8167C45.4678 32.6683 45.4078 32.5625 45.3478 32.4991L44.9627 33.0043C45.1761 33.3127 45.2828 33.4894 45.2828 33.5344C45.1644 33.6361 45.006 33.6869 44.8076 33.6869C44.5392 33.6869 44.405 33.4819 44.405 33.0718H44.18C44.18 33.2168 44.1491 33.3435 44.0875 33.4519C43.9974 33.6103 43.8507 33.6894 43.6473 33.6894C43.3406 33.6894 43.1872 33.4836 43.1872 33.0718H42.9647C42.9647 33.2035 42.9372 33.326 42.8821 33.4394C42.8021 33.6044 42.6779 33.6869 42.5096 33.6869H42.257L42.3968 33.6919H42.3218C42.0334 33.6919 41.8892 33.4844 41.8892 33.0693H41.6642C41.6642 33.2077 41.6316 33.3344 41.5666 33.4494C41.4749 33.6111 41.3374 33.6919 41.154 33.6919C40.9923 33.6919 40.8831 33.6244 40.8264 33.4894C40.7898 33.4027 40.7714 33.2643 40.7714 33.0743H40.5464C40.5464 33.2143 40.518 33.3394 40.4613 33.4494C40.3797 33.6094 40.2505 33.6894 40.0737 33.6894C39.8087 33.6894 39.6761 33.4844 39.6761 33.0743H39.4511C39.4511 33.2193 39.4144 33.3519 39.341 33.4719C39.2527 33.6169 39.1318 33.6894 38.9785 33.6894H38.8809V33.6869H38.8409C38.6942 33.6869 38.5891 33.5769 38.5258 33.3569C38.5091 33.2985 38.4708 33.0626 38.4108 32.6492C38.3658 32.3374 38.2991 32.1174 38.2107 31.989L37.9131 32.4341C37.9565 32.5508 37.9848 32.6408 37.9982 32.7042C37.6181 32.8459 37.3263 33.0076 37.1229 33.1893C37.0713 33.3344 37.0112 33.5344 36.9429 33.7895C37.1129 34.0245 37.4605 34.1421 37.9857 34.1421C38.0823 34.0087 38.1574 33.8436 38.2107 33.6469C38.3157 34.1304 38.5133 34.3721 38.8034 34.3721H38.9359C39.196 34.3721 39.3944 34.2129 39.5311 33.8945C39.5628 34.0112 39.6153 34.1121 39.6886 34.1971C39.7887 34.3121 39.9095 34.3696 40.0512 34.3696C40.2913 34.3696 40.4797 34.2021 40.6164 33.867C40.6897 34.2037 40.8598 34.3721 41.1265 34.3721C41.2932 34.3721 41.4374 34.3088 41.5591 34.1821C41.6625 34.0737 41.7283 33.9487 41.7567 33.807C41.7817 33.952 41.8459 34.0804 41.9492 34.1921C42.0626 34.3121 42.1893 34.3721 42.3293 34.3721ZM38.0782 32.9943L38.1882 33.5494C38.1215 33.5577 38.049 33.5619 37.9707 33.5619C37.6606 33.5619 37.4564 33.5011 37.358 33.3794C37.5814 33.1776 37.8214 33.0493 38.0782 32.9943Z" fill="white"/>
<path d="M30.9642 46.7284H32.5318V47.1852C32.5318 47.7417 32.9829 48.1927 33.5394 48.1928H33.5413C33.6666 48.1927 33.7682 48.0912 33.7681 47.9659V45.6224C33.7681 45.4847 33.6565 45.373 33.5187 45.373H30.0614C29.9368 45.373 29.8358 45.4741 29.8358 45.5987V45.6C29.8358 46.2232 30.341 46.7284 30.9642 46.7284Z" fill="white"/>
<path d="M44.7263 43.1192C44.1239 43.4597 43.4778 43.0251 43.5172 41.9632C44.1735 40.3354 44.8416 38.338 45.1281 37.462C45.162 37.3579 45.144 37.2438 45.0796 37.1553C45.0153 37.0667 44.9124 37.0143 44.8029 37.0143L43.4976 37.0144C43.187 37.0144 42.9157 37.2245 42.838 37.5252C42.7255 37.9593 42.5514 38.6261 42.3573 39.3514C41.9321 40.9408 41.3806 42.8103 40.8341 43.1192C40.2949 43.4239 39.7206 43.1077 39.6344 42.2766C40.3565 40.6091 41.0715 38.3903 41.3629 37.4574C41.3951 37.3536 41.376 37.2406 41.3114 37.1532C41.2469 37.0657 41.1446 37.0142 41.0358 37.0143L39.7232 37.0144C39.4126 37.0144 39.1413 37.2245 39.0636 37.5252C38.9511 37.9593 38.777 38.6261 38.583 39.3514C38.1577 40.9408 37.6171 42.8868 36.8267 43.0965C35.4681 43.4568 34.8107 42.5819 34.8365 41.4467C35.4232 39.9333 35.9865 38.2472 36.2434 37.462C36.2773 37.3579 36.2592 37.2438 36.1949 37.1553C36.1305 37.0667 36.0276 37.0143 35.9181 37.0143L34.6128 37.0144C34.3022 37.0144 34.0309 37.2245 33.9532 37.5252C33.8407 37.9593 33.6666 38.6261 33.4725 39.3514C33.0473 40.9408 32.4958 42.8103 31.9493 43.1192C31.3687 43.4473 30.6622 42.9797 30.6334 41.7041C31.2554 40.1288 31.8694 38.292 32.1409 37.462C32.1748 37.3579 32.1568 37.2438 32.0924 37.1553C32.0281 37.0667 31.9252 37.0143 31.8157 37.0143L30.5104 37.0144C30.1997 37.0144 29.9285 37.2245 29.8507 37.5252C29.7382 37.9593 29.5641 38.6261 29.3701 39.3514C28.9449 40.9408 28.3934 42.8103 27.8469 43.1192C27.2102 43.479 26.422 42.8819 26.5423 41.3117C27.1093 39.8355 27.6463 38.2279 27.8952 37.4669C27.9291 37.3628 27.9111 37.2487 27.8467 37.1601C27.7823 37.0715 27.6794 37.0191 27.5699 37.0192H26.0609C25.7503 37.0192 25.479 37.2293 25.4013 37.5301C25.2888 37.9642 25.1147 38.631 24.9207 39.3562C24.4955 40.9456 23.7662 42.4702 23.4011 43.0717C22.8263 44.0185 22.0483 44.7971 21.1644 45.1864C19.7232 45.821 17.7764 45.6022 17.3734 44.7038C16.4319 42.6051 17.8488 40.4733 18.7414 39.1302C19.0793 38.6218 19.3421 38.2265 19.3735 37.9886C19.3735 37.9886 18.4628 37.7727 18.1838 38.1465C16.7294 40.095 15.8424 42.3648 16.0233 43.9478C16.363 46.9192 19.8908 48.6127 23.1906 46.3425C24.6952 45.3072 25.1934 44.4198 25.827 43.0387C25.927 42.8208 26.0297 42.5846 26.1334 42.3362C26.1623 42.9376 26.365 43.7168 26.7342 44.1303C27.0908 44.5297 27.6481 44.6169 27.7278 44.6182C28.6696 44.6332 29.4391 44.415 30.0728 43.0339C30.1343 42.8998 30.1968 42.7589 30.2599 42.6124C30.3282 43.1597 30.5219 43.7779 30.8366 44.1303C31.1932 44.5297 31.7505 44.6169 31.8302 44.6182C32.772 44.6332 33.5415 44.415 34.1752 43.0339C34.2792 42.8071 34.3862 42.5606 34.4941 42.301C34.5732 42.9135 34.9154 43.7506 35.2989 44.1064C35.904 44.668 36.7143 44.6287 36.9049 44.6195C36.922 44.6187 36.9341 44.6181 36.9406 44.6182C37.8824 44.6332 38.7174 44.1817 39.2856 43.0339C39.2998 43.0052 39.3141 42.9761 39.3283 42.9467C39.3245 43.3626 39.4855 43.8056 39.7214 44.1303C40.0361 44.5634 40.6353 44.6169 40.715 44.6182C41.6568 44.6332 42.4263 44.415 43.06 43.0339C43.1396 42.8603 43.2209 42.6751 43.3031 42.4815C43.2965 42.5026 43.2897 42.5236 43.283 42.5444C43.1175 43.0536 43.299 43.6972 43.6137 44.1303C43.9283 44.5634 44.5276 44.6169 44.6072 44.6182C45.549 44.6332 46.3186 44.415 46.9522 43.0339C47.7294 41.34 48.6663 38.5446 49.0204 37.462C49.0543 37.3579 49.0362 37.2438 48.9719 37.1553C48.9075 37.0667 48.8046 37.0143 48.6951 37.0143L47.3898 37.0144C47.0792 37.0144 46.8079 37.2245 46.7302 37.5252C46.6177 37.9593 46.4436 38.6261 46.2496 39.3514C45.8243 40.9408 45.2729 42.8103 44.7263 43.1192Z" fill="white"/>
<path d="M29.076 45.373C29.2138 45.373 29.3254 45.4847 29.3254 45.6224V46.4791C29.3254 46.6168 29.2138 46.7284 29.076 46.7284H26.2617C25.6385 46.7284 25.1333 46.2232 25.1333 45.6V45.5987C25.1333 45.5389 25.157 45.4815 25.1994 45.4391C25.2417 45.3968 25.2991 45.373 25.359 45.373H29.076Z" fill="white"/>
<path d="M63.5207 33.853C63.3464 34.0866 63.0477 34.1909 62.7659 34.1165C61.872 33.9673 60.207 33.9706 58.453 34.2969C56.4697 34.6658 55.0622 35.7127 54.2419 36.893C59.5903 36.333 58.5574 40.1552 57.4567 41.8887C55.9637 44.2398 53.649 44.6969 52.3663 44.7097C52.0252 44.713 49.8085 44.4893 49.2168 42.6355C48.6151 40.7505 49.1489 38.9146 49.7632 37.0777C50.3106 35.4409 50.9041 34.2114 52.096 32.261C52.3384 31.8611 52.7758 31.6209 53.2434 31.6312L53.304 31.6325C53.8262 31.6436 54.4866 31.6577 54.9158 31.667C54.9966 31.6687 55.0691 31.7169 55.1019 31.7908C55.1347 31.8646 55.1219 31.9507 55.0691 32.0118C52.9836 34.4543 51.3071 37.1902 51.0183 39.1047C50.7408 40.9436 51.649 42.7668 53.6971 42.731C56.4529 42.6829 57.9153 40.4421 57.6051 39.7526C56.938 38.27 54.0753 38.3831 52.7299 38.5368C52.5828 38.5478 52.4409 38.4799 52.3571 38.3585C52.2733 38.2371 52.2601 38.0804 52.3224 37.9467C52.8579 36.8229 53.527 35.822 54.4119 34.9278C55.8148 33.5101 57.9182 32.7357 59.5197 32.2245C60.7366 31.8361 62.7684 31.8311 63.623 31.8501C63.7299 31.8525 63.831 31.8991 63.9021 31.9789C63.9733 32.0586 64.0082 32.1644 63.9984 32.2708C63.9441 32.8927 63.7978 33.4219 63.5207 33.853Z" fill="white"/>
<path d="M23.7888 37.1673C23.8928 37.3158 23.9178 37.5057 23.8558 37.6761L23.399 38.9313C23.1897 39.5064 22.643 39.8893 22.0309 39.8893H21.6933C21.3983 39.8893 21.1218 39.7454 20.9526 39.5037C20.7834 39.2621 20.7427 38.953 20.8436 38.6758L21.1104 37.9427C21.3316 37.3349 21.9093 36.9303 22.5561 36.9303H23.3336C23.5149 36.9303 23.6848 37.0188 23.7888 37.1673Z" fill="white"/>
</svg>
