<svg width="80" height="80" viewBox="0 0 80 80" fill="none" xmlns="http://www.w3.org/2000/svg">
<path d="M25.0378 37.1567C22.9078 37.1567 21.013 38.2382 19.9487 40.0952C18.9036 41.9189 18.8752 44.157 19.9478 45.9762C20.987 47.7391 22.9486 48.6725 24.9578 48.6725C31.1718 48.6725 35.2054 42.3557 38.4723 37.2397C39.2177 36.0724 39.9232 34.9676 40.6055 34.0146C40.9869 33.4819 41.3836 32.9649 41.7999 32.469C42.3609 31.8005 42.9574 31.1697 43.6 30.5914C45.9813 28.4465 48.9895 27.0152 53.1341 27.0005C53.1557 27 53.1778 27 53.1999 27V34.0146C51.3202 34.0146 49.5324 34.7042 47.7873 35.8132C46.9729 36.3307 46.1678 36.9394 45.3672 37.6118C43.5291 39.1558 41.8518 40.8708 40.1743 42.586C38.3819 44.4187 36.5892 46.2516 34.5999 47.8764C33.9775 48.3846 33.3457 48.8633 32.7021 49.3018C32.2289 49.6245 31.7493 49.9262 31.2624 50.2014C29.342 51.2883 27.2267 52 25 52C23.0512 51.9956 21.1583 51.3717 19.5997 50.2014C19.235 49.9277 18.8914 49.6265 18.5728 49.3018C16.9813 47.6797 16 45.4578 16 43.0073C16 42.067 16.1443 41.1611 16.4119 40.3091C16.9823 38.4957 18.1123 36.9296 19.5992 35.8132C21.1544 34.6458 23.0546 34.0146 25 34.0146C27.4039 34.0209 29.6836 34.7135 31.8023 35.8132C32.7591 36.3096 33.6893 36.8874 34.5999 37.5196C34.6441 37.55 34.6883 37.5809 34.7325 37.6118C34.7712 37.639 34.817 37.6668 34.8677 37.6974C34.9231 37.7309 34.9843 37.7679 35.0481 37.8115L35.6932 38.2495L35.7049 38.2578L34.0045 40.7157C31.4528 38.8621 28.2777 37.1567 25.0378 37.1567Z" fill="white"/>
<path d="M53.1999 34.0146L53.1999 40.9359C55.3362 40.9433 57.0701 42.6963 57.0701 44.8054C57.0701 46.9386 55.3353 48.648 53.2156 48.6744L53.1999 48.6749L53.2058 48.6744C53.1956 48.6712 53.1835 48.6717 53.1719 48.6722C53.1679 48.6723 53.1639 48.6725 53.1601 48.6725V48.6749C52.924 48.6749 52.6879 48.6602 52.4527 48.6396C49.2605 48.0314 45.428 44.7485 42.8597 42.5472L42.7866 42.4849L40.5716 44.6985C44.4418 48.1084 49.5555 51.9725 54.9528 52H55.0466C57.0548 51.9897 58.9075 51.3221 60.4003 50.2014C60.765 49.9277 61.1082 49.6265 61.4267 49.3018C63.0187 47.6797 64 45.4578 64 43.0068C64 42.0675 63.8557 41.1611 63.5881 40.3091C63.0177 38.4957 61.8877 36.9296 60.4003 35.8132C58.9075 34.6924 57.0548 34.0249 55.0466 34.0146H53.1999Z" fill="white"/>
</svg>
