<svg width="80" height="80" viewBox="0 0 80 80" fill="none" xmlns="http://www.w3.org/2000/svg">
<path fill-rule="evenodd" clip-rule="evenodd" d="M56.785 48.767C60.768 48.767 64 52 64 55.982C64 59.964 60.768 63.197 56.785 63.197C52.803 63.197 49.57 59.964 49.57 55.982C49.57 52 52.803 48.767 56.785 48.767ZM36.135 22.95L28.238 63.197H16L36.135 22.95ZM50.55 17C48.538 27.171 44.784 46.147 41.895 60.773C40.625 62.289 38.732 63.197 36.702 63.197H29.257L37.758 19.876C39.014 18.09 41.074 17 43.299 17H50.55ZM51.57 17H64C64 17 51.852 41.272 45.128 54.71L43.45 58.065C46.265 43.814 49.696 26.47 51.57 17ZM23.215 17C27.197 17 30.43 20.233 30.43 24.215C30.43 28.197 27.197 31.43 23.215 31.43C19.233 31.43 16 28.197 16 24.215C16 20.233 19.233 17 23.215 17Z" fill="white"/>
</svg>
