<svg width="80" height="80" viewBox="0 0 80 80" fill="none" xmlns="http://www.w3.org/2000/svg">
<path d="M51.0839 23.8932C43.1874 22.7151 38.6112 22.1734 30.6313 22C49.1748 25.1427 51.1749 26.8772 63.3558 37.441L63.3861 37.4673C58.6802 31.1215 54.8135 27.2993 51.0839 23.8932Z" fill="white"/>
<path d="M25.7183 26.913C33.5511 25.8336 38.717 26.1331 46.6134 27.3112C51.2087 31.27 58.5295 39.1498 61.3133 46.4301C51.1028 35.5452 44.2771 30.0584 25.7183 26.913Z" fill="white"/>
<path d="M16 34.4603C23.6613 32.9797 32.1238 32.7229 41.8796 33.8508C50.0724 42.6222 53.9844 50.0111 56.7682 57.2914C46.5577 46.4065 33.7556 38.0332 16 34.4603Z" fill="white"/>
</svg>
