<svg width="80" height="80" viewBox="0 0 80 80" fill="none" xmlns="http://www.w3.org/2000/svg">
<path fill-rule="evenodd" clip-rule="evenodd" d="M20.3103 47.4657L28 60.7846H33.7339L26.0742 47.5793L27.5354 45.0485L36.6206 60.7846H52L54.8706 55.8126L39.5832 55.8189L30.4502 40L33.7754 34.2405H27.9459L20.3103 47.4657ZM56.3103 53.3189L64 40L61.1331 35.0343L53.5268 48.2704H50.6045L59.6897 32.5343L52 19.2154H46.2589L53.908 32.4515L44.7749 48.2704H38.1244L41.0392 53.3189H56.3103ZM40 34.2604C43.2169 34.2604 45.8287 36.8722 45.8287 40.0891C45.8287 43.306 43.2169 45.9178 40 45.9178C36.7831 45.9178 34.1713 43.306 34.1713 40.0891C34.1713 36.8722 36.7831 34.2604 40 34.2604ZM41.8601 26.6811L40.399 24.1502L25.1331 24.1811L28 19.2154H43.3794L51.015 32.4406L48.1002 37.4891L44.7749 31.7296H26.5088L18.8706 44.972L16 40L23.6897 26.6811H41.8601Z" fill="white"/>
</svg>
