<svg width="80" height="80" viewBox="0 0 80 80" fill="none" xmlns="http://www.w3.org/2000/svg">
<path d="M28.8162 46.6037C12.3511 23.6279 41.5846 4.40339 58.7142 24.3093C39.2501 14.1364 22.7752 28.7371 28.8162 46.6037Z" fill="white"/>
<path d="M47.5192 50.5659C25.9617 68.8208 4.55982 41.1039 23.0129 22.4251C14.4201 42.6761 30.2264 58.0018 47.5192 50.5659Z" fill="white"/>
<path d="M50.4906 32.1951C69.0539 53.5024 41.7697 75.4188 22.8352 57.2307C43.1734 65.5079 58.1936 49.4072 50.4906 32.1951Z" fill="white"/>
<path d="M32.4018 29.314C53.8413 10.92 75.4213 38.4975 57.089 57.2956C65.551 36.9892 49.6463 21.7664 32.4018 29.314Z" fill="white"/>
<path d="M49 40.0001C49 44.9571 44.957 49 40 49C35.043 49 31 44.9571 31 40.0001C31 35.043 35.043 31 40 31C44.957 31 49 35.043 49 40.0001Z" fill="white"/>
</svg>
