<svg width="80" height="80" viewBox="0 0 80 80" fill="none" xmlns="http://www.w3.org/2000/svg">
<path fill-rule="evenodd" clip-rule="evenodd" d="M22.1224 57.8776H38.322L41.5216 64H16V16H64V64H51.963L48.7634 57.8776L39.0152 39.1715H47.2075L57.8776 59.5371V42.1087C57.4998 45.3399 56.2649 48.3108 54.4065 50.7877L47.8132 38.1715H37.3642L46.99 56.5903C46.6619 56.7288 46.3288 56.8579 45.9912 56.9772L36.1633 38.1715H28L38.322 57.8776C29.8696 57.0947 23.1037 50.5024 22.1224 42.1087V57.8776ZM22.1224 37.8913C23.087 29.6407 29.6407 23.087 37.8913 22.1224H22.1224V37.8913ZM42.1087 22.1224C50.3593 23.087 56.913 29.6407 57.8775 37.8913V22.1224H42.1087ZM29.6509 39.1715H35.5575L48.5155 64H42.6159L29.6509 39.1715Z" fill="white"/>
</svg>
