<svg width="80" height="80" viewBox="0 0 80 80" fill="none" xmlns="http://www.w3.org/2000/svg">
<path fill-rule="evenodd" clip-rule="evenodd" d="M16.0096 38.7715C16.2979 36.3238 21.3869 30.5274 26.9476 25.5601C32.6984 20.4231 41.1687 16.0221 43.6524 16.0001C46.0448 15.9789 50.9037 21.6109 55.8853 27.4508C57.2501 29.0507 59.1496 31.3307 60.9127 33.4898C62.4522 35.3751 63.9573 37.1369 63.9985 38.6825C64.0744 41.5128 61.2157 41.8124 48.0078 53.2155C43.7336 56.9057 39.5815 60.7682 37.0012 63.0927C36.2848 63.74 35.333 64.0643 34.3696 63.9894C33.4062 63.9144 32.5161 63.4468 31.9089 62.6966C29.6148 59.8702 26.1777 55.6127 24.1337 52.9706C20.8336 48.7043 15.749 40.9858 16.0096 38.7715ZM31.9432 61.1798C31.9432 61.1798 32.0038 61.2168 32.1055 61.2791C33.4131 62.0792 35.0843 61.9686 36.2746 61.0032C38.0735 59.5412 40.6887 57.423 42.3306 56.1249C46.4959 52.8317 59.2839 42.8583 59.2839 42.8583C55.8964 45.4984 42.0242 58.0808 36.0147 62.6764C35.3892 63.0713 34.6284 63.1911 33.9115 63.0081C33.1945 62.8251 32.5848 62.3553 32.2261 61.7092C32.1306 61.5367 32.0363 61.3601 31.9432 61.1798ZM31.4851 59.0356C31.4851 59.0356 31.5805 59.094 31.733 59.1873C33.0004 59.9629 34.6143 59.885 35.8007 58.9907C41.3043 54.8431 56.4602 43.4207 56.4602 43.4207C53.0952 46.0434 41.1767 56.4255 35.5684 60.5641C34.944 60.9569 34.185 61.076 33.4699 60.8937C32.7546 60.7114 32.146 60.2437 31.7864 59.6003C31.685 59.4164 31.5844 59.2281 31.4851 59.0356ZM30.9774 56.893C30.9774 56.893 31.0982 56.9669 31.2849 57.0812C32.5225 57.8386 34.094 57.7834 35.2752 56.9413C40.3682 53.311 53.6838 43.8195 53.6838 43.8195C50.3436 46.4227 40.27 54.7738 35.0718 58.457C34.4482 58.8467 33.6919 58.9644 32.9792 58.7828C32.2662 58.601 31.659 58.136 31.2989 57.4957C31.1913 57.2993 31.0836 57.0987 30.9774 56.893ZM30.5813 54.8803C30.5813 54.8803 30.7166 54.9631 30.9223 55.0889C32.1428 55.8359 33.69 55.7934 34.8676 54.9807C39.3928 51.8577 50.2758 44.3469 50.2758 44.3469C46.9482 46.9403 39.2128 53.2179 34.6309 56.3597C34.0187 56.7412 33.2788 56.8614 32.5773 56.6931C31.8757 56.5249 31.2712 56.0823 30.8997 55.4649C30.7948 55.2771 30.6863 55.0839 30.5813 54.8803ZM17.8514 35.917C17.8514 35.917 17.6933 36.3074 17.5046 36.7737C17.1056 37.7587 17.1621 38.8692 17.6589 39.809C18.3064 41.0276 19.2871 42.8478 20.3372 44.6993C22.1377 47.874 27.9898 56.4499 27.9898 56.4499C25.8595 53.636 23.6578 50.8063 21.5641 47.7918C19.9663 45.4913 18.4341 43.0012 16.8523 40.116C16.5738 39.6072 16.4677 39.0223 16.5496 38.4484C16.6379 37.8114 16.7947 37.2173 17.8514 35.917ZM30.2027 52.7445C30.2027 52.7445 30.4125 52.8552 30.7065 53.0106C31.8427 53.6109 33.2132 53.5638 34.3054 52.8864C38.1504 50.5021 46.9463 45.0477 46.9463 45.0477C43.6645 47.6054 38.2227 51.7018 34.262 54.2666C33.6523 54.6426 32.9176 54.7603 32.2207 54.5935C31.5236 54.4268 30.9221 53.9896 30.5493 53.3786C30.4354 53.1753 30.3173 52.9661 30.2027 52.7445ZM19.0586 35.1444C19.0586 35.1444 18.89 35.6099 18.7002 36.134C18.3633 37.0648 18.4241 38.0929 18.8685 38.9775C19.4888 40.1984 20.4633 42.0645 21.5444 43.9266C23.0301 46.4854 27.0566 52.9207 27.0566 52.9207C24.9262 50.1068 24.8651 50.0335 22.7713 47.019C21.1656 44.7069 19.7535 42.323 18.1835 39.438C17.9377 38.9864 17.8269 38.4738 17.8642 37.9611C17.9136 37.2177 17.912 36.5552 19.0586 35.1444ZM29.6548 50.5476C29.6548 50.5476 29.7937 50.6409 30.0012 50.7801C31.12 51.5309 32.5644 51.5978 33.7483 50.9539C37.0556 49.1544 43.4622 45.6688 43.4622 45.6688C40.2749 48.0243 37.0591 50.1853 33.8252 52.2229C33.2118 52.6081 32.4686 52.7304 31.7639 52.562C31.0589 52.3936 30.4519 51.9487 30.0798 51.3279C29.9368 51.073 29.7921 50.8138 29.6548 50.5476ZM20.4694 34.3749C20.4694 34.3749 20.3008 34.8405 20.1112 35.3646C19.7741 36.2953 19.8349 37.3234 20.2794 38.208C20.8998 39.4291 21.6891 41.2406 22.7702 43.1025C24.2559 45.6613 27.7397 51.8136 27.7397 51.8136C25.6642 48.9643 25.2339 48.1674 23.3011 45.0477C21.8154 42.6495 21.1515 41.7298 19.6437 38.9408C19.3752 38.4448 19.1537 37.5347 19.2263 36.9757C19.3115 36.2902 19.3845 35.71 20.4694 34.3749ZM29.1971 48.4115C29.1971 48.4115 29.3325 48.5042 29.5319 48.6408C30.5304 49.3244 31.8056 49.4636 32.9287 49.0114C35.5818 47.9435 40.2346 46.0704 40.2346 46.0704C40.2346 46.0704 35.9569 48.6082 33.3336 50.1645C32.0625 50.9188 30.4198 50.5088 29.6539 49.2464C29.5 48.9742 29.3444 48.6969 29.1971 48.4115ZM21.9201 33.572C21.9201 33.572 21.7112 34.0248 21.5617 34.5617C21.2572 35.6557 21.2835 36.5465 21.6259 37.3491C22.1636 38.6086 22.6643 39.555 23.6842 41.5282C25.0688 44.207 27.9898 50.0281 27.9898 50.0281C25.9143 47.1788 22.602 40.9267 21.0944 38.1377C20.8259 37.6419 20.6044 36.7318 20.6768 36.1728C20.7621 35.4873 20.8352 34.9069 21.9201 33.572ZM45.5228 26.0992C45.4105 25.6343 45.1049 25.2395 44.6829 25.0132C44.2608 24.7871 43.7623 24.7512 43.3119 24.9144C39.67 26.2348 31.4005 29.2328 28.0997 30.4295C27.2883 30.7238 26.8011 31.5521 26.9392 32.4028C27.4501 35.5467 28.6543 42.9589 29.27 46.7485C29.3642 47.3285 29.7079 47.8386 30.2108 48.1444C30.7134 48.4503 31.3251 48.5215 31.885 48.3392C35.8571 47.0464 44.063 44.3753 47.7051 43.1898C48.7264 42.8572 49.3201 41.7967 49.0679 40.7544C48.2165 37.2344 46.3705 29.6033 45.5228 26.0992ZM23.4761 32.6418C23.2577 33.0894 23.0852 33.5934 22.9641 34.1373C22.7802 34.9631 22.8239 35.7025 23.1664 36.505C23.704 37.7646 24.0317 38.482 24.9607 40.4994C26.2136 43.2204 27.7397 46.6417 27.7397 46.6417C25.4913 43.2238 24.1945 40.3969 22.6867 37.6079C22.4183 37.1119 22.1448 35.888 22.2173 35.3288C22.3027 34.6432 22.3912 33.9767 23.4761 32.6418ZM25.0841 31.7715C24.8659 32.219 24.6933 32.723 24.5722 33.2671C24.3883 34.0929 24.5313 34.7969 24.7746 35.6348C25.1836 37.0441 27.5658 43.8195 27.5658 43.8195C25.4642 39.7106 25.3404 39.1753 24.2045 36.6704C23.9718 36.1568 23.6956 35.0333 23.7681 34.4743C23.8533 33.7885 23.9992 33.1065 25.0841 31.7715ZM49.0507 43.1025C49.0507 43.1025 49.1438 42.9674 49.2805 42.7684C49.9654 41.7718 50.2136 40.3919 49.829 39.2459C48.8534 36.3395 47.829 32.6418 47.829 32.6418C47.829 32.6418 50.3621 38.0921 50.7182 39.0957C51.2153 40.4971 51.1522 41.8822 49.8873 42.6466C49.6146 42.8002 49.3367 42.9555 49.0507 43.1025ZM51.0052 42.8583C51.0052 42.8583 51.0983 42.7232 51.2349 42.5243C51.9199 41.5275 52.2192 40.1072 51.7388 38.9979C50.5141 36.1693 46.9463 28.3313 46.9463 28.3313C46.9463 28.3313 52.3191 37.7705 52.6821 38.7715C53.3226 40.5386 53.1068 41.6379 51.8418 42.4024C51.569 42.556 51.2911 42.7112 51.0052 42.8583ZM53.0064 42.6067C53.0064 42.6067 53.0993 42.4716 53.2361 42.2726C53.9211 41.276 54.2097 39.7188 53.74 38.7462C52.1816 35.5198 46.9463 25.8946 46.9463 25.8946C46.9463 25.8946 54.2527 37.1493 54.6833 38.5199C55.2464 40.313 54.9924 41.2555 53.8429 42.1508C53.5961 42.3431 53.2923 42.4597 53.0064 42.6067ZM55.0796 42.3879C55.0796 42.3879 55.1726 42.2526 55.3094 42.0538C55.9943 41.0572 56.292 39.4275 55.8133 38.5274C53.9785 35.0781 46.45 23.0683 46.45 23.0683C46.45 23.0683 56.2819 36.8444 56.8423 38.2832C57.5246 40.0344 57.0657 41.0367 55.9162 41.932C55.6693 42.1243 55.3656 42.2409 55.0796 42.3879ZM56.9577 42.1558C56.9577 42.1558 57.0507 42.0207 57.1873 41.8216C57.8723 40.825 58.2235 39.1649 57.6912 38.2953C54.9562 33.827 46.45 21.2593 46.45 21.2593C47.6423 22.5329 56.9677 34.6107 58.7203 38.051C59.5736 39.7261 58.9436 40.8046 57.7941 41.6999C57.5473 41.8921 57.2437 42.0087 56.9577 42.1558ZM59.1462 41.8473C59.1462 41.8473 59.2391 41.712 59.3758 41.5131C60.0609 40.5163 60.3304 38.4708 59.7297 37.6467C56.2845 32.9212 46.45 19.7605 46.45 19.7605C48.3126 21.5935 58.5283 34.2407 60.9089 37.7423C61.575 38.7222 61.1321 40.496 59.9826 41.3912C59.7357 41.5834 59.4322 41.7002 59.1462 41.8473ZM46.1245 18.1834C46.0993 18.1638 46.0749 18.1451 46.0514 18.1275C46.0589 18.1261 46.0836 18.1451 46.1245 18.1834C48.8936 20.3363 60.7566 33.8124 62.9087 37.4233C63.5374 38.4785 63.132 40.177 61.9826 41.0721C61.7357 41.2644 61.4319 41.3812 61.146 41.5282C61.146 41.5282 61.2389 41.3929 61.3757 41.1941C62.0607 40.1973 62.4374 38.5625 61.8138 37.5752C58.8291 32.8487 47.1733 19.1661 46.1245 18.1834ZM26.7011 30.9367C26.4829 31.3843 26.3243 31.762 26.2032 32.3061C26.0193 33.1318 26.0405 33.7349 26.2022 34.5921C26.5814 36.6038 27.0566 39.6417 27.0566 39.6417C26.1879 36.8762 26.1329 36.711 25.7978 35.5948C25.6356 35.0548 25.2719 34.131 25.3443 33.572C25.4296 32.8863 25.4856 32.2883 26.7011 30.9367ZM22.2055 31.1121C28.259 23.8197 40.2256 16.3267 43.4622 16.4407C44.4412 16.4752 45.1734 17.4366 45.1734 17.4366C45.1734 17.4366 44.2746 17.0518 43.4622 17.0476C40.0335 17.0298 28.4759 24.4717 22.2055 31.1121ZM24.1744 30.1459C29.5756 24.3114 40.2256 17.3976 43.4622 17.5115C44.4412 17.546 45.0482 18.4013 45.0482 18.4013C45.0482 18.4013 44.2746 18.1227 43.4622 18.1184C40.0335 18.1006 30.7156 24.3047 24.1744 30.1459ZM25.3349 29.9942C30.6603 24.7455 40.5405 18.48 43.4622 18.5505C44.5769 18.5774 44.9251 19.4258 44.9251 19.4258C44.9251 19.4258 44.2746 19.1618 43.4622 19.1574C40.3312 19.1399 31.8691 24.7558 25.3349 29.9942ZM27.0566 29.4229C32.1101 24.7323 40.8763 19.5343 43.5145 19.7103C44.627 19.7846 44.9774 20.5857 44.9774 20.5857C44.9774 20.5857 44.3267 20.3309 43.5145 20.3172C40.8858 20.2724 33.7922 24.558 27.0566 29.4229ZM29.1971 28.6694C34.6512 24.4631 41.4507 20.7429 43.5145 20.8262C44.6286 20.8711 44.9774 21.7014 44.9774 21.7014C44.9774 21.7014 44.3249 21.4888 43.5145 21.4329C42.0322 21.3307 35.8398 24.3716 29.1971 28.6694ZM31.9432 27.8686C36.753 24.6383 41.4507 22.08 43.5145 22.1634C44.6286 22.2084 44.9774 22.9205 44.9774 22.9205C44.9774 22.9205 44.3898 22.7914 43.4622 22.777C41.9766 22.754 38.1274 24.4982 31.9432 27.8686ZM34.6113 27.2599C37.9232 25.0858 41.7217 23.4838 43.5145 23.4838C44.6295 23.4838 44.9774 24.2408 44.9774 24.2408C44.9774 24.2408 44.3873 24.0261 43.4622 24.0974C41.6212 24.2397 38.4488 25.563 34.6113 27.2599Z" fill="white"/>
</svg>
