<svg width="80" height="80" viewBox="0 0 80 80" fill="none" xmlns="http://www.w3.org/2000/svg">
<path fill-rule="evenodd" clip-rule="evenodd" d="M41.8998 18.6H44.7238V24.1L49.7148 24.094L52.6188 27H50.8788L49.5788 29.245L50.6958 29.25L50.7028 30.891L52.5358 30.902L52.5278 33.36L54.4018 33.354L54.3828 36.829C54.7986 36.9185 55.1838 37.1154 55.4998 37.4C55.5797 37.469 55.6533 37.545 55.7198 37.627C55.8209 37.7542 55.9056 37.8936 55.9718 38.042L55.9948 38.096L56.0088 38.133H56.1738C56.3551 38.1445 56.534 38.1781 56.7068 38.233C56.803 38.2641 56.8969 38.3018 56.9878 38.346C57.6679 38.7275 58.2008 39.3263 58.5008 40.046C58.5578 40.165 58.6108 40.286 58.6618 40.407L58.6918 40.482C58.6918 40.482 58.9188 41.038 59.0188 41.32C59.1238 41.568 59.2062 41.8251 59.2648 42.088L58.6288 42.288C58.6288 42.288 58.2919 41.6482 57.7758 41.648H54.0658L53.4258 42.634H55.6478V44.264H57.0768V46.1H55.6418V47.344H53.3728L53.3668 48.158H51.5248L51.5338 57.411L43.7118 57.419V61.05H41.9398V64H38.0598V61.058H36.2928V57.427L28.4708 57.419L28.4798 48.166H26.6368L26.6308 47.352H24.3548V46.108H22.9268V44.254H24.3548V42.624H26.5768L25.9368 41.638H22.2268C21.7107 41.6382 21.3738 42.278 21.3738 42.278L20.7378 42.078C20.7964 41.8151 20.8788 41.558 20.9838 41.31C21.0838 41.027 21.3108 40.472 21.3108 40.472L21.3408 40.397C21.3918 40.275 21.4408 40.154 21.5018 40.036C21.8018 39.3163 22.3347 38.7175 23.0148 38.336C23.1057 38.2918 23.1996 38.2541 23.2958 38.223C23.4687 38.168 23.6477 38.1345 23.8288 38.123C23.8838 38.123 23.9388 38.123 23.9938 38.123L24.0088 38.086L24.0318 38.032C24.098 37.8836 24.1827 37.7442 24.2838 37.617C24.3495 37.5386 24.4217 37.466 24.4998 37.4C24.8144 37.117 25.1973 36.9209 25.6108 36.831L25.5918 33.356L27.4648 33.362L27.4598 30.9L29.2928 30.889L29.2998 29.248L30.4168 29.243L29.1208 27H27.3808L30.2808 24.093L35.2718 24.099V18.599H38.0998V16H41.8998V18.6ZM42.8898 60.258V57.419H41.1218V59.047H38.8788V57.419H37.1108V60.258H38.8748V63.2H41.1248V60.258H42.8898ZM50.6948 56.619L50.6938 47.719H29.3058V56.619H50.6948ZM47.1718 55.55C47.181 55.5994 47.1772 55.6505 47.1608 55.698C47.1401 55.76 47.1136 55.8199 47.0818 55.877C47.0443 55.9458 46.9949 56.0075 46.9358 56.059C46.9122 56.0876 46.8793 56.1071 46.8428 56.114C46.8051 56.1013 46.7709 56.0801 46.7428 56.052C46.7008 56.0173 46.6568 55.9817 46.6108 55.945C46.5757 55.9185 46.5423 55.8897 46.5108 55.859C46.4883 55.8423 46.4729 55.8176 46.4678 55.79C46.4958 55.731 46.5178 55.685 46.5318 55.653C46.5798 55.5517 46.6155 55.4783 46.6388 55.433C46.6815 55.3663 46.7245 55.2953 46.7678 55.22L46.8108 55.158C46.824 55.1707 46.8384 55.182 46.8538 55.192L46.9108 55.226C46.9832 55.2789 47.0502 55.3389 47.1108 55.405C47.1442 55.4467 47.1662 55.4963 47.1748 55.549L47.1718 55.55ZM41.8158 54.558C42.1384 54.5589 42.4603 54.5278 42.7768 54.465C43.0572 54.4103 43.3332 54.3355 43.6028 54.241C43.8466 54.1533 44.0774 54.0329 44.2888 53.883C44.4886 53.7452 44.6689 53.581 44.8248 53.395C44.8675 53.3397 44.9341 53.2527 45.0248 53.134C45.0678 53.074 45.0988 53.034 45.1178 53.01C45.1368 52.986 45.1418 52.991 45.1468 52.996C45.1525 53.0038 45.155 53.0134 45.1538 53.023L45.1468 53.099C45.1421 53.1403 45.1315 53.2287 45.1148 53.364C45.0993 53.4827 45.0909 53.6023 45.0898 53.722C45.0839 53.9005 45.1141 54.0785 45.1788 54.245C45.2303 54.3769 45.3625 54.4607 45.5038 54.451C45.6038 54.451 45.7015 54.3767 45.7968 54.228C45.91 54.0329 45.9897 53.8203 46.0328 53.599L46.0508 53.51C46.0569 53.4827 46.0605 53.4549 46.0618 53.427C46.0618 53.381 46.0498 53.358 46.0258 53.358C46.0018 53.358 45.9908 53.379 45.9798 53.42C45.9688 53.461 45.9568 53.498 45.9478 53.53C45.8958 53.672 45.8361 53.743 45.7688 53.743C45.6903 53.7452 45.6129 53.7236 45.5468 53.681C45.432 53.5852 45.3729 53.4376 45.3898 53.289V53.182C45.3898 53.0993 45.3971 52.9767 45.4118 52.814C45.4278 52.6333 45.4491 52.4533 45.4758 52.274L45.6258 51.552C45.6325 51.5167 45.6395 51.4813 45.6468 51.446L45.8138 51.333L46.4818 50.827C46.6731 50.7037 46.8638 50.579 47.0538 50.453C47.2185 50.3437 47.3805 50.231 47.5398 50.115C47.7971 49.927 47.9901 49.7837 48.1188 49.685C48.2901 49.5517 48.4118 49.4557 48.4838 49.397C48.5558 49.3383 48.6261 49.274 48.6948 49.204C48.7808 49.122 48.8631 49.037 48.9418 48.949C49.0123 48.8678 49.0768 48.7816 49.1348 48.691C49.1928 48.6123 49.2387 48.5253 49.2708 48.433C49.2804 48.4163 49.2852 48.3973 49.2848 48.378C49.2848 48.386 49.1061 48.5373 48.7488 48.832C48.5628 48.9893 48.3745 49.1447 48.1838 49.298C47.9791 49.4607 47.7695 49.6183 47.5548 49.771C47.2508 49.983 46.9458 50.1937 46.6398 50.403C46.3446 50.6124 46.0617 50.8388 45.7928 51.081C45.7289 51.136 45.6733 51.2 45.6278 51.271C45.6191 51.2829 45.6111 51.2952 45.6038 51.308C45.5712 51.3629 45.5418 51.4197 45.5158 51.478L45.4838 51.541C45.4232 51.6541 45.3707 51.7714 45.3268 51.892L45.2268 52.284C45.1769 52.4656 45.0971 52.6376 44.9908 52.793C44.8434 52.9884 44.6558 53.15 44.4408 53.267C43.8521 53.5922 43.1966 53.778 42.5248 53.81C42.3628 53.824 42.1461 53.831 41.8748 53.831C41.5483 53.8757 41.2163 53.8027 40.9388 53.625C40.8798 53.5595 40.8446 53.476 40.8388 53.388C40.8318 53.298 40.8208 53.254 40.8068 53.254C40.7688 53.254 40.7391 53.332 40.7178 53.488C40.6968 53.6384 40.6862 53.7901 40.6858 53.942C40.675 54.0807 40.7144 54.2188 40.7968 54.331C40.9127 54.4354 41.0594 54.4993 41.2148 54.513C41.3802 54.5389 41.5474 54.5506 41.7148 54.548L41.8158 54.558ZM39.7008 53.479V53.485C39.8008 53.387 39.8601 53.327 39.8788 53.305C39.9533 53.2205 40.0138 53.1247 40.0578 53.021C40.1156 52.8766 40.1575 52.7264 40.1828 52.573C40.2127 52.4311 40.2304 52.2869 40.2358 52.142C40.2358 52.022 40.2358 51.896 40.2358 51.764C40.2358 51.632 40.2441 51.4987 40.2608 51.364C40.2608 51.239 40.2678 51.164 40.2678 51.13C40.2678 51.124 40.2678 51.118 40.2678 51.113C40.2828 51.105 40.3018 51.093 40.3238 51.079L40.5348 50.935L41.0458 50.589C41.2458 50.4603 41.4431 50.3303 41.6378 50.199C41.8085 50.085 41.9751 49.967 42.1378 49.845C42.4045 49.645 42.6045 49.4943 42.7378 49.393C42.9165 49.255 43.0431 49.155 43.1178 49.093C43.1925 49.031 43.2665 48.9623 43.3398 48.887C43.4305 48.7997 43.5175 48.709 43.6008 48.615C43.6763 48.527 43.7454 48.4337 43.8078 48.336C43.8707 48.2498 43.9212 48.1552 43.9578 48.055C43.9684 48.0364 43.9742 48.0154 43.9748 47.994C43.9748 48.0033 43.7878 48.1637 43.4138 48.475C43.2191 48.6417 43.0225 48.8063 42.8238 48.969C42.6105 49.141 42.3921 49.3077 42.1688 49.469C41.8535 49.691 41.5371 49.9113 41.2198 50.13C40.9759 50.2919 40.7421 50.4685 40.5198 50.659C40.4524 50.7172 40.3935 50.7845 40.3448 50.859C40.2968 50.9335 40.2544 51.0113 40.2178 51.092L40.2058 51.12V51.126L39.9638 51.687C39.9412 51.7433 39.929 51.8033 39.9278 51.864C39.9231 51.942 39.9208 52.0323 39.9208 52.135L39.9278 52.583C39.9345 52.7291 39.9103 52.8749 39.8568 53.011C39.8346 53.0573 39.8071 53.101 39.7748 53.141C39.7522 53.1713 39.7244 53.1973 39.6928 53.218L39.6498 53.238C39.6159 53.2419 39.5816 53.2374 39.5498 53.225C39.5258 53.261 39.5018 53.294 39.4778 53.325C39.4398 53.3751 39.3875 53.4124 39.3278 53.432C39.2995 53.4474 39.2642 53.442 39.2418 53.419C39.2088 53.45 39.1778 53.482 39.1488 53.513C39.1039 53.5608 39.0423 53.5894 38.9768 53.593C38.9122 53.5933 38.8477 53.5887 38.7838 53.579C38.6785 53.6503 38.5758 53.7217 38.4758 53.793C38.3906 53.8477 38.291 53.8755 38.1898 53.873C38.0199 53.8878 37.8549 53.8082 37.7608 53.666C37.7038 53.5617 37.6768 53.4437 37.6828 53.325C37.6828 53.271 37.6828 53.185 37.6968 53.064C37.7088 52.9207 37.7255 52.778 37.7468 52.636L37.8688 51.82L37.8978 51.646C37.9062 51.611 37.9086 51.5748 37.9048 51.539L37.8758 51.552C37.8331 51.6367 37.7761 51.7613 37.7048 51.926C37.6335 52.0907 37.5955 52.182 37.5908 52.2C37.5575 52.4187 37.5145 52.734 37.4618 53.146C37.4091 53.558 37.3828 53.7913 37.3828 53.846C37.3839 53.9076 37.3886 53.969 37.3968 54.03C37.4017 54.0882 37.4134 54.1456 37.4318 54.201C37.4817 54.4086 37.6693 54.5558 37.8828 54.555C38.0803 54.5456 38.2593 54.4341 38.3548 54.261C38.4881 54.065 38.5955 53.967 38.6768 53.967L38.7768 53.977C38.804 53.9806 38.8316 53.9806 38.8588 53.977C38.9103 53.9572 38.9575 53.9276 38.9978 53.89C39.0386 53.8539 39.0816 53.8205 39.1268 53.79C39.1575 53.7728 39.1917 53.7626 39.2268 53.76C39.2572 53.7579 39.2867 53.7487 39.3128 53.733C39.3508 53.697 39.3828 53.669 39.4128 53.649C39.437 53.63 39.4636 53.6142 39.4918 53.602C39.5178 53.591 39.5718 53.565 39.6528 53.525L39.6958 53.491L39.7008 53.479ZM34.4718 52.7C34.4672 52.7925 34.4551 52.8844 34.4358 52.975C34.4118 53.103 34.3878 53.2153 34.3638 53.312L34.2778 53.649C34.2298 53.777 34.1918 53.871 34.1638 53.931C34.1286 54.0042 34.0892 54.0753 34.0458 54.144C34.0161 54.1922 33.9786 54.2351 33.9348 54.271C33.874 54.3143 33.8094 54.3522 33.7418 54.384L33.4848 54.484C33.4297 54.5011 33.3736 54.5148 33.3168 54.525C33.2616 54.5385 33.2054 54.5479 33.1488 54.553C33.1248 54.553 33.1108 54.545 33.1058 54.529C33.1019 54.5086 33.107 54.4874 33.1198 54.471C33.1696 54.4041 33.2305 54.3463 33.2998 54.3C33.3978 54.2267 33.4945 54.1557 33.5898 54.087C33.6991 53.9903 33.7801 53.9147 33.8328 53.86C33.9147 53.7746 33.9866 53.6799 34.0468 53.578C34.0711 53.5328 34.0916 53.4857 34.1078 53.437C34.1338 53.3663 34.1755 53.2507 34.2328 53.09L34.3188 52.842C34.3281 52.8053 34.3425 52.7607 34.3618 52.708C34.3808 52.656 34.4048 52.629 34.4338 52.629C34.4517 52.6484 34.4641 52.6722 34.4698 52.698L34.4718 52.7ZM33.7858 50.785C33.7908 50.7698 33.7882 50.753 33.7788 50.74C33.7652 50.7235 33.7481 50.7102 33.7288 50.701C33.6405 50.7202 33.556 50.754 33.4788 50.801C33.3869 50.8478 33.2983 50.9009 33.2138 50.96C33.1231 51.0227 33.0491 51.0777 32.9918 51.125C32.8621 51.2398 32.7402 51.3631 32.6268 51.494C32.4749 51.6646 32.3473 51.8554 32.2478 52.061C32.1694 52.2083 32.123 52.3705 32.1118 52.537C32.1078 52.6063 32.1279 52.6749 32.1688 52.731C32.2131 52.7828 32.2694 52.823 32.3328 52.848C32.3649 52.8629 32.3984 52.8746 32.4328 52.883C32.4615 52.8897 32.5091 52.9027 32.5758 52.922C32.6425 52.9413 32.6758 52.9703 32.6758 53.009C32.6713 53.0878 32.6453 53.1639 32.6008 53.229C32.5393 53.325 32.4661 53.4131 32.3828 53.491C32.2784 53.5898 32.1576 53.6697 32.0258 53.727C31.8398 53.8126 31.6375 53.857 31.4328 53.857C31.2298 53.8695 31.0281 53.8161 30.8578 53.705C30.7271 53.6098 30.652 53.4556 30.6578 53.294C30.6818 53.0372 30.7519 52.7869 30.8648 52.555L30.9508 52.374C31.0081 52.2533 31.0511 52.167 31.0798 52.115C31.1318 52.015 31.1668 51.945 31.1798 51.904C31.1928 51.863 31.2188 51.81 31.2478 51.745C31.2583 51.7229 31.2631 51.6985 31.2618 51.674C31.2618 51.635 31.2448 51.616 31.2118 51.616C31.1978 51.616 31.1798 51.633 31.1578 51.668C31.1358 51.703 31.1158 51.737 31.0968 51.768L30.9328 52.086L30.7258 52.494C30.6394 52.6635 30.5652 52.8389 30.5038 53.019C30.4666 53.128 30.4378 53.2396 30.4178 53.353C30.3984 53.4653 30.3887 53.579 30.3888 53.693C30.3899 53.7905 30.4043 53.8874 30.4318 53.981C30.4623 54.0859 30.5133 54.1838 30.5818 54.269C30.7461 54.462 30.9944 54.5635 31.2468 54.541C31.4901 54.546 31.73 54.4833 31.9398 54.36C32.0458 54.2985 32.1442 54.2247 32.2328 54.14C32.3178 54.0597 32.3967 53.9731 32.4688 53.881C32.6099 53.6802 32.7186 53.4585 32.7908 53.224C32.8655 53.0079 32.9067 52.7816 32.9128 52.553C32.9276 52.4447 32.8842 52.3362 32.7988 52.268C32.7759 52.2513 32.7506 52.2382 32.7238 52.229L32.6348 52.197L32.5058 52.138C32.4766 52.1084 32.4589 52.0694 32.4558 52.028C32.4741 51.964 32.5085 51.9058 32.5558 51.859C32.6416 51.7556 32.7385 51.6621 32.8448 51.58C32.9327 51.5017 33.0314 51.4364 33.1378 51.386C33.209 51.3493 33.2869 51.3272 33.3668 51.321C33.3833 51.3218 33.3993 51.3274 33.4128 51.337L33.4668 51.373C33.4958 51.373 33.5288 51.347 33.5668 51.295C33.5768 51.282 33.6038 51.231 33.6488 51.143C33.6856 51.0757 33.719 51.0067 33.7488 50.936C33.7679 50.8868 33.7823 50.8359 33.7918 50.784L33.7858 50.785ZM36.7708 53.563L36.6708 53.817C36.6283 53.908 36.5767 53.9944 36.5168 54.075C36.4767 54.135 36.4275 54.1883 36.3708 54.233C36.3029 54.2715 36.2312 54.3026 36.1568 54.326L36.0068 54.381C35.9301 54.405 35.8538 54.4303 35.7778 54.457C35.7036 54.482 35.6268 54.4981 35.5488 54.505L35.5198 54.491C35.5198 54.459 35.6055 54.3903 35.7768 54.285L36.0558 54.093C36.1031 54.061 36.1555 54.022 36.2128 53.976C36.2793 53.9219 36.3418 53.8631 36.3998 53.8C36.4589 53.7395 36.504 53.6668 36.5318 53.587C36.5325 53.5731 36.5349 53.5594 36.5388 53.546L36.3528 53.56C36.2739 53.5629 36.1969 53.5345 36.1388 53.481C36.0859 53.4393 36.0586 53.3728 36.0668 53.306C36.0738 53.2611 36.0858 53.2171 36.1028 53.175C36.1218 53.125 36.1648 53.033 36.2318 52.9C36.2687 52.8233 36.3119 52.7497 36.3608 52.68C36.4228 52.597 36.4828 52.556 36.5398 52.556C36.6362 52.5566 36.7276 52.5994 36.7898 52.673C36.8609 52.7494 36.8993 52.8507 36.8968 52.955C36.8968 53.0103 36.8921 53.0655 36.8828 53.12L36.8578 53.264C36.8508 53.305 36.8398 53.355 36.8258 53.412C36.8138 53.4628 36.797 53.5123 36.7758 53.56L36.7708 53.563ZM35.6938 52.646C35.6891 52.7387 35.677 52.8305 35.6578 52.921C35.6338 53.049 35.6098 53.1613 35.5858 53.258L35.4998 53.6C35.4518 53.7287 35.4138 53.8227 35.3858 53.882C35.3506 53.9552 35.3112 54.0263 35.2678 54.095C35.2379 54.143 35.2004 54.1859 35.1568 54.222C35.0959 54.2653 35.0313 54.3031 34.9638 54.335L34.7068 54.435C34.6517 54.4521 34.5956 54.4658 34.5388 54.476C34.4836 54.4895 34.4274 54.4989 34.3708 54.504C34.3468 54.504 34.3328 54.496 34.3278 54.48C34.3239 54.4596 34.329 54.4384 34.3418 54.422C34.392 54.3545 34.4536 54.2963 34.5238 54.25C34.6218 54.1767 34.7185 54.1057 34.8138 54.037C34.9231 53.941 35.0041 53.8653 35.0568 53.81C35.1387 53.7245 35.2106 53.6299 35.2708 53.528C35.2951 53.4828 35.3155 53.4357 35.3318 53.387C35.3578 53.3157 35.3995 53.2 35.4568 53.04L35.5428 52.792C35.5528 52.755 35.5668 52.711 35.5858 52.658C35.6048 52.605 35.6288 52.579 35.6578 52.579C35.6752 52.5978 35.6876 52.6208 35.6938 52.646ZM46.7638 53.19C46.7638 53.135 46.7638 53.046 46.7778 52.922C46.7898 52.7747 46.8065 52.628 46.8278 52.482L46.9498 51.643L46.9788 51.464C46.9874 51.428 46.9898 51.3908 46.9858 51.354L46.9568 51.368C46.9141 51.4553 46.8568 51.5837 46.7848 51.753C46.7128 51.9223 46.6748 52.0163 46.6708 52.035C46.6375 52.2597 46.5945 52.584 46.5418 53.008C46.4891 53.432 46.4628 53.6707 46.4628 53.724C46.4569 53.9025 46.4871 54.0805 46.5518 54.247C46.6033 54.3789 46.7355 54.4627 46.8768 54.453C46.9768 54.453 47.0745 54.3787 47.1698 54.23C47.283 54.0349 47.3627 53.8223 47.4058 53.601L47.4238 53.512C47.4299 53.4847 47.4335 53.4569 47.4348 53.429C47.4348 53.383 47.4228 53.36 47.3988 53.36C47.3748 53.36 47.3648 53.381 47.3528 53.422L47.3208 53.532C47.2681 53.674 47.2085 53.745 47.1418 53.745C47.0633 53.7472 46.9859 53.7256 46.9198 53.683C46.805 53.5872 46.7459 53.4396 46.7628 53.291V53.191L46.7638 53.19ZM34.7998 51.143C34.809 51.1926 34.8052 51.2435 34.7888 51.291C34.7679 51.3529 34.7415 51.4129 34.7098 51.47C34.6723 51.5388 34.6229 51.6005 34.5638 51.652C34.5402 51.6807 34.5073 51.7002 34.4708 51.707C34.4331 51.6944 34.3988 51.6732 34.3708 51.645C34.3268 51.6083 34.2815 51.5727 34.2348 51.538C34.1997 51.5115 34.1663 51.4828 34.1348 51.452C34.1123 51.4353 34.0969 51.4106 34.0918 51.383C34.1205 51.3237 34.1418 51.278 34.1558 51.246C34.2038 51.146 34.2388 51.072 34.2628 51.026C34.3058 50.957 34.3488 50.886 34.3918 50.813L34.4348 50.751C34.448 50.764 34.4624 50.7757 34.4778 50.786L34.5348 50.82C34.6073 50.8728 34.6743 50.9328 34.7348 50.999C34.7685 51.0405 34.7909 51.09 34.7998 51.143ZM38.5468 50.229C38.5382 50.1763 38.5161 50.1267 38.4828 50.085C38.4222 50.0188 38.3552 49.9589 38.2828 49.906L38.2258 49.872C38.2104 49.8621 38.196 49.8507 38.1828 49.838L38.1398 49.9C38.0971 49.9733 38.0541 50.0443 38.0108 50.113C37.9868 50.159 37.9511 50.2323 37.9038 50.333C37.8898 50.365 37.8678 50.411 37.8398 50.47C37.845 50.4976 37.8603 50.5222 37.8828 50.539C37.9143 50.5697 37.9477 50.5985 37.9828 50.625C38.0288 50.659 38.0741 50.6943 38.1188 50.731C38.1467 50.7593 38.181 50.7806 38.2188 50.793C38.2553 50.7862 38.2883 50.7668 38.3118 50.738C38.3712 50.6865 38.4209 50.6249 38.4588 50.556C38.4906 50.4989 38.517 50.439 38.5378 50.377C38.5542 50.3295 38.558 50.2784 38.5488 50.229H38.5468ZM39.2828 50.188C39.292 50.2376 39.2882 50.2885 39.2718 50.336C39.251 50.398 39.2246 50.4579 39.1928 50.515C39.1554 50.5839 39.106 50.6456 39.0468 50.697C39.0233 50.7258 38.9903 50.7452 38.9538 50.752C38.9161 50.7393 38.8819 50.7181 38.8538 50.69C38.8098 50.6533 38.7645 50.6177 38.7178 50.583C38.6827 50.5565 38.6493 50.5278 38.6178 50.497C38.5953 50.4802 38.58 50.4556 38.5748 50.428C38.6038 50.369 38.6248 50.322 38.6388 50.291C38.6735 50.217 38.7091 50.1437 38.7458 50.071C38.7825 49.9983 38.8255 49.9273 38.8748 49.858L38.9178 49.796C38.9309 49.8088 38.9453 49.8202 38.9608 49.83L39.0178 49.865C39.0902 49.9179 39.1572 49.9779 39.2178 50.044C39.2518 50.0854 39.2745 50.1349 39.2838 50.188H39.2828ZM45.8498 50.137C45.8589 50.1866 45.8551 50.2375 45.8388 50.285C45.8181 50.347 45.7916 50.4069 45.7598 50.464C45.7222 50.5328 45.6728 50.5944 45.6138 50.646C45.5902 50.6747 45.5573 50.6942 45.5208 50.701C45.4831 50.6884 45.4489 50.6671 45.4208 50.639C45.3768 50.6023 45.3315 50.5667 45.2848 50.532C45.2496 50.5056 45.2162 50.4769 45.1848 50.446C45.1623 50.4293 45.1469 50.4046 45.1418 50.377C45.1705 50.3177 45.1918 50.272 45.2058 50.24C45.2538 50.14 45.2888 50.066 45.3128 50.02C45.3558 49.951 45.3988 49.88 45.4418 49.807L45.4848 49.745C45.498 49.758 45.5124 49.7697 45.5278 49.78L45.5848 49.814C45.6573 49.8668 45.7244 49.9267 45.7848 49.993C45.8189 50.0343 45.8406 50.0839 45.8498 50.137ZM38.9108 49.337C38.9019 49.2842 38.8795 49.2346 38.8458 49.193C38.7854 49.1266 38.7184 49.0667 38.6458 49.014L38.5888 48.98C38.5733 48.9702 38.5589 48.9588 38.5458 48.946L38.5028 49.008C38.4598 49.081 38.4168 49.152 38.3738 49.221C38.3498 49.267 38.3138 49.34 38.2668 49.441C38.2528 49.473 38.2308 49.519 38.2018 49.578C38.2069 49.6056 38.2223 49.6303 38.2448 49.647C38.2738 49.675 38.3078 49.704 38.3448 49.737L38.4808 49.844C38.5093 49.8707 38.5435 49.8906 38.5808 49.902C38.6173 49.8952 38.6502 49.8757 38.6738 49.847C38.7329 49.7955 38.7823 49.7338 38.8198 49.665C38.8515 49.6079 38.878 49.5479 38.8988 49.486C38.9152 49.4384 38.9189 49.3875 38.9098 49.338L38.9108 49.337ZM35.5608 46.927V40.427L32.7608 37.627L26.5308 37.631C24.9888 37.631 24.6588 38.2 24.6468 39.114C23.5068 38.539 22.5988 39.402 22.0468 40.839H28.9718L32.9308 46.927H35.5608ZM39.5998 46.923V39.506L36.8148 37.48V27.049L35.5438 24.849L30.6788 24.841L29.5788 25.941H31.2868L33.1568 29.18V36.891L36.3568 40.091V46.923H39.5998ZM31.9758 46.923L28.5368 41.635H26.9088L30.3398 46.923H31.9758ZM50.4178 25.95L49.3178 24.85H44.4558L43.1848 27.05V37.481L40.3998 39.506V46.923H43.6428L43.6398 40.1L46.8398 36.9V29.189L48.7098 25.95H50.4178ZM47.0688 46.923L51.0278 40.835L57.9538 40.831C57.4048 39.394 56.4968 38.528 55.3538 39.106C55.3428 38.192 55.0118 37.623 53.4698 37.623H47.2428L44.4428 40.423V46.923H47.0688ZM49.6598 46.923L53.0958 41.635H51.4668L48.0278 46.923H49.6598ZM53.4668 45.492L53.4658 44.582H52.1328L51.5418 45.492H53.4668ZM28.4578 45.492L27.8668 44.582H26.5338V45.492H28.4578ZM41.0788 19.4L41.0798 16.8H38.9208V19.4H36.0998L36.0908 24.2L37.6148 26.836V37.072L39.5998 38.516V36.142L38.8878 35.624V20.836H41.1118V35.625L40.3998 36.143V38.517L42.3848 37.077V26.84L43.9088 24.2L43.8998 19.4H41.0788ZM48.4418 36.827V29.585L50.0808 26.746H49.1738L47.6418 29.4V36.827H48.4418ZM29.9418 36.827H30.7418V34.442H29.9418V36.827ZM30.8298 26.746H29.9228L31.5618 29.585V36.827H32.3618V29.4L30.8298 26.746ZM49.2618 36.827H50.0618V34.442H49.2618V36.827Z" fill="white"/>
</svg>
