<svg width="80" height="80" viewBox="0 0 80 80" fill="none" xmlns="http://www.w3.org/2000/svg">
<path d="M58.4668 25.7809L63.9966 23.7075V20.2246L58.2251 23.112L63.9966 18.4741V16H61.6923L56.5241 21.6024L59.9587 16H56.7098L53.7854 21.335C55.8643 22.1784 57.5307 23.7833 58.4668 25.7809Z" fill="white"/>
<path d="M63.9966 35.2412L58.5967 32.9733C58.9617 32.1138 59.1953 31.1817 59.2709 30.1995C59.3787 28.8022 59.1542 27.4559 58.665 26.2377L63.9966 24.9483V27.276L60.8157 28.1381L63.9966 28.747V31.081L61.4841 31.1791L63.9966 32.1093V35.2412Z" fill="white"/>
<path d="M16 48.5091V41.841L41.9014 31.6954C42.4254 33.7588 43.6813 35.5513 45.3957 36.7552L29.3511 63.9966H22.5897L36.9806 43.1287L16 64V53.5352L33.9716 39.4693L16 48.5091Z" fill="white"/>
<path d="M34.5614 63.9966L45.8977 37.083C47.0421 37.7754 48.3615 38.2182 49.7862 38.3278C50.7107 38.399 51.6128 38.3249 52.4706 38.125L59.296 63.9966H54.0023L50.3631 46.551L50.1243 63.9966H44.7179L45.9729 46.9037L41.1116 63.9966H34.5614Z" fill="white"/>
<path d="M53.1393 37.9408L63.9508 63.8899L63.9966 63.9966V51.9486L58.1928 41.9417L63.9966 47.3258V43.1936L60.3652 38.3332L63.9966 40.1389V36.958L58.3201 33.5631C57.2466 35.6463 55.3752 37.2291 53.1393 37.9408Z" fill="white"/>
<path d="M55.354 16L53.3687 21.1782C52.6654 20.9337 51.92 20.7746 51.1429 20.7148C49.8666 20.6165 48.6327 20.7949 47.5003 21.1994L46.2449 16H48.8212L49.4175 18.2147L49.5008 16H51.8676L51.6957 18.8497L52.5784 16H55.354Z" fill="white"/>
<path d="M47.0527 21.3724L44.9487 16H41.8942L43.0134 18.511L40.9927 16H36.9577L40.293 19.6488L35.1486 16H27.1988L42.881 24.9909C43.8492 23.3735 45.3156 22.1018 47.0527 21.3724Z" fill="white"/>
<path d="M21.7431 16L42.6216 25.4543C42.0904 26.4774 41.7521 27.6215 41.6579 28.8431C41.597 29.6337 41.6428 30.4077 41.7821 31.1516L16 38.0861V31.964L32.8458 29.6955L16 28.6197V23.5654L34.0228 25.9065L16 20.7148V16H21.7431Z" fill="white"/>
</svg>
