<svg width="80" height="80" viewBox="0 0 80 80" fill="none" xmlns="http://www.w3.org/2000/svg">
<path fill-rule="evenodd" clip-rule="evenodd" d="M36.2783 19.75C41.5953 19.75 46.4346 21.7944 50.0516 25.1396C44.3406 30.71 41.4441 37.0751 40.8346 38.7602C40.7436 39.0378 40.4823 39.0628 40.3287 38.8019C38.1611 33.5816 32.5445 29.6578 27.1532 29.8012C26.9194 29.8095 26.8234 30.0588 26.9912 30.2381C31.1284 36.1571 28.8406 48.9956 40.1992 54.6495C40.6518 54.8813 40.8722 54.6787 40.8998 54.3619C42.5037 40.5044 52.5464 26.2093 63.4926 22.6249C63.5577 22.5999 63.7648 22.5715 63.9025 22.7157C64.0411 22.8608 64.0044 23.0668 63.9593 23.1443C61.1973 27.6092 59.8138 35.7927 57.3824 43.0508C54.0986 52.8519 47.2019 60.25 36.2783 60.25C25.0809 60.25 16 51.1818 16 40C16 28.8182 25.0809 19.75 36.2783 19.75Z" fill="white"/>
</svg>
