<svg width="80" height="80" viewBox="0 0 80 80" fill="none" xmlns="http://www.w3.org/2000/svg">
<path d="M40 16C33.8376 16 28.7329 20.5646 27.8855 26.4943C31.0932 23.5817 35.3422 21.8072 40 21.8072C44.6578 21.8072 48.9068 23.5817 52.1145 26.4943C51.2671 20.5646 46.1624 16 40 16Z" fill="white"/>
<path d="M26.5115 27.883C23.651 31.1013 21.9111 35.3479 21.9111 40C21.9111 44.6521 23.651 48.8987 26.5115 52.117C20.5734 51.2771 16 46.1684 16 40C16 33.8316 20.5734 28.7229 26.5115 27.883Z" fill="white"/>
<path d="M64 40C64 33.8316 59.4266 28.7229 53.4885 27.883C56.3492 31.1013 58.0891 35.3479 58.0891 40C58.0891 44.6521 56.3492 48.8987 53.4885 52.117C59.4266 51.2771 64 46.1684 64 40Z" fill="white"/>
<path fill-rule="evenodd" clip-rule="evenodd" d="M39.2193 31.0273C33.5777 31.4486 29.7217 37.1778 31.3931 42.655C33.6336 49.9953 43.5691 51.3069 47.6138 44.7963C51.5316 38.4896 46.6442 30.4726 39.2193 31.0273ZM39.2885 44.8268C39.336 44.9512 39.3237 47.0314 39.2751 47.0616C39.1342 47.149 37.4657 44.9386 37.5586 44.7876C37.6105 44.7036 39.2557 44.741 39.2885 44.8268ZM45.7134 44.8002C45.8402 45.0056 44.2192 46.2666 43.1771 46.7734C42.3618 47.1696 42.3242 47.1555 42.7209 46.6033C43.0959 46.0809 43.4956 45.4224 43.6735 45.0328L43.8037 44.7481H44.7425C45.342 44.7481 45.6931 44.767 45.7134 44.8002ZM35.9131 44.7481H35.1035C34.4509 44.7481 34.2936 44.7613 34.2936 44.8163C34.2936 45.1342 36.7257 46.9409 37.1534 46.9409C37.2194 46.9409 37.1496 46.8155 36.751 46.2175C36.5155 45.8641 36.2304 45.3889 36.1179 45.1617L35.9131 44.7481ZM41.4301 44.7481H40.7119V45.7681C40.7119 46.5653 40.7253 46.7824 40.774 46.7611C40.9626 46.6795 42.2355 44.8887 42.1749 44.7903C42.1606 44.767 41.8255 44.7481 41.4301 44.7481ZM39.2945 40.7736C39.3094 40.8351 39.3154 41.435 39.3079 42.1066L39.2939 43.3278L36.8346 43.3544L36.7083 42.9391C36.4785 42.1849 36.2361 40.8289 36.3095 40.7098C36.3277 40.6802 36.9101 40.6614 37.803 40.6614H39.267L39.2945 40.7736ZM34.3151 43.3526C34.8778 43.3526 35.3381 43.3359 35.3381 43.3152C35.3381 43.2946 35.2719 43.0159 35.1913 42.696C35.059 42.1721 34.9148 41.3252 34.879 40.8609L34.8656 40.6862L33.7428 40.6731C33.1254 40.6656 32.6048 40.6749 32.586 40.6937C32.4433 40.8369 32.7649 42.2062 33.1258 42.9914L33.292 43.3526H34.3151ZM42.8881 43.3526L43.0472 42.8075C43.252 42.1051 43.3899 41.4188 43.4088 41.0104L43.4234 40.6862L42.1015 40.6731C41.3746 40.6659 40.7644 40.6752 40.7456 40.6937C40.7271 40.7126 40.7119 41.3184 40.7119 42.0402V43.3526H42.8881ZM46.7221 43.3526L46.9006 42.9253C47.1761 42.266 47.5081 40.912 47.4403 40.7236C47.4152 40.6539 44.916 40.6297 44.8748 40.6988C44.8626 40.7194 44.8372 40.8818 44.8184 41.06C44.759 41.6252 44.5912 42.5856 44.4906 42.9375C44.4372 43.1245 44.3936 43.2943 44.3936 43.3149C44.3936 43.3359 44.9175 43.3526 45.5578 43.3526H46.7221ZM39.2885 36.5041C39.3049 36.5475 39.3187 37.1623 39.3187 37.8706C39.3187 38.5787 39.3049 39.1935 39.2885 39.2369C39.2527 39.3305 36.3662 39.3592 36.3089 39.2668C36.1895 39.073 36.7537 36.587 36.9451 36.4649C37.0752 36.3821 39.2557 36.4186 39.2885 36.5041ZM34.3703 36.4252H33.3989L33.2054 36.8115C32.86 37.5011 32.4696 38.9788 32.5663 39.2315C32.5965 39.3104 32.6965 39.3164 33.7309 39.3041L34.8626 39.291L34.9205 38.7677C34.9895 38.144 35.1026 37.5699 35.2707 36.9889C35.3384 36.7544 35.3823 36.5317 35.3677 36.494C35.3468 36.439 35.1492 36.4252 34.3703 36.4252ZM42.8615 36.6246C43.0854 37.0833 43.5085 39.0368 43.429 39.2447C43.4052 39.3065 43.2007 39.3155 42.069 39.3041L40.7366 39.291L40.7235 37.9212C40.716 37.1677 40.7211 36.5224 40.7346 36.4874C40.7536 36.4375 40.9823 36.4261 41.7678 36.4369L42.7765 36.4503L42.8615 36.6246ZM47.4535 39.291L47.4373 39.0915C47.3884 38.4914 47.0788 37.4033 46.7922 36.8235L46.6077 36.4503L44.3324 36.4234L44.3595 36.5613C44.3745 36.6372 44.4446 36.9236 44.5151 37.1979C44.6333 37.656 44.7336 38.2295 44.8294 38.992L44.8667 39.291H47.4535ZM39.3187 33.9323C39.3187 34.4768 39.3049 34.9576 39.2885 35.0009C39.2539 35.091 37.7087 35.1218 37.6541 35.0333C37.5729 34.902 39.1494 32.8378 39.2724 32.9141C39.2984 32.9299 39.3187 33.3764 39.3187 33.9323ZM44.645 35.0796C45.2315 35.0796 45.5435 35.0614 45.5656 35.0255C45.679 34.8416 44.0539 33.583 43.2225 33.2107L43.1898 33.1961C42.7362 32.9928 42.5184 32.8953 42.4801 32.9428C42.4447 32.9865 42.5621 33.1538 42.7879 33.4755L42.8054 33.5005C43.0204 33.807 43.3228 34.2878 43.4774 34.5689L43.758 35.0796H44.645ZM35.9838 35.0796L36.1647 34.7184C36.3289 34.3912 36.943 33.426 37.1111 33.2319C37.1487 33.1886 37.1791 33.127 37.1791 33.0947C37.1791 33.005 37.1439 33.0182 36.5472 33.3306C35.7104 33.7687 34.3252 34.8795 34.4214 35.0353C34.4363 35.0599 34.7939 35.0796 35.2163 35.0796H35.9838ZM41.0767 33.5334C41.511 34.062 42.1191 34.9857 42.0672 35.0377C42.0424 35.0625 41.7328 35.0766 41.3794 35.0688L40.7366 35.0548L40.7219 34.0335C40.7138 33.4862 40.7104 33.2541 40.7734 33.2344C40.8198 33.2199 40.9023 33.3205 41.0455 33.4954L41.0767 33.5334Z" fill="white"/>
<path d="M52.1145 53.5057C51.2671 59.4354 46.1624 64 40 64C33.8376 64 28.7329 59.4354 27.8855 53.5057C31.0932 56.4185 35.3422 58.1929 40 58.1929C44.6578 58.1929 48.9068 56.4185 52.1145 53.5057Z" fill="white"/>
<path d="M32.2753 26.5665C31.6056 27.3119 31.4029 27.7524 31.3673 28.5386C31.3265 29.4441 31.3783 29.5834 32.3744 31.2538C33.1669 32.5832 33.3336 32.6959 33.9155 32.2986C34.0557 32.2029 34.3683 31.9888 34.6098 31.823C35.6719 31.0937 37.0933 30.5381 38.4589 30.3189C39.6409 30.1291 39.6535 30.0941 39.1954 28.2471C38.8036 26.666 38.7162 26.4673 38.1699 25.9143C37.4289 25.1647 36.3776 24.8739 35.0389 25.0497C33.9534 25.1923 33.0788 25.6724 32.2753 26.5665Z" fill="white"/>
<path d="M41.5643 30.3189C40.3725 30.1275 40.3529 30.0685 40.8473 28.1564C41.4188 25.9449 42.0402 25.249 43.6163 25.0535C45.5466 24.815 47.19 25.5797 48.2408 27.2058C49.0471 28.4539 48.7775 29.6351 47.1111 32.1546C46.8427 32.5601 46.4398 32.5747 45.9476 32.1959C44.7027 31.2387 43.1493 30.5735 41.5643 30.3189Z" fill="white"/>
<path d="M25.3665 37.4117C25.8038 38.3393 26.3886 38.7022 28.1756 39.1539C30.0485 39.6273 30.1703 39.5951 30.3067 38.5945C30.5173 37.05 31.1624 35.4864 32.1364 34.1598C32.759 33.3118 32.7126 33.2171 31.2416 32.3374C29.4341 31.2564 28.8509 31.1041 27.8384 31.449C25.6598 32.1916 24.3714 35.2997 25.3665 37.4117Z" fill="white"/>
<path d="M47.8745 34.1488C47.2629 33.3213 47.3169 33.2136 48.7816 32.3374C49.9924 31.6132 50.2361 31.4888 50.6412 31.389C53.126 30.7747 55.5272 33.8149 54.8777 36.7529C54.5798 38.1015 53.8999 38.6381 51.8312 39.1567C49.9763 39.6216 49.8604 39.5925 49.7187 38.6235C49.4838 37.0169 48.8397 35.4547 47.8745 34.1488Z" fill="white"/>
<path d="M25.9377 41.8296C23.4261 44.3534 26.4005 49.6737 29.6731 48.5102C30.0703 48.3687 32.2349 47.1012 32.364 46.9342C32.5866 46.6461 32.525 46.3524 32.1319 45.8243C31.1911 44.5616 30.505 42.8905 30.3026 41.3691C30.1735 40.3988 30.0213 40.3578 28.2507 40.8139C26.6298 41.2314 26.458 41.3066 25.9377 41.8296Z" fill="white"/>
<path d="M47.8673 45.8584C48.8545 44.5126 49.4875 42.9672 49.7228 41.3287C49.7916 40.8502 49.8958 40.6654 50.1632 40.5489C50.2522 40.51 50.3388 40.4772 50.3552 40.4762C50.4834 40.4674 53.1285 41.1758 53.3704 41.2835C55.4592 42.2153 55.5609 45.7112 53.5545 47.6224C52.0652 49.0405 51.1205 49.0544 48.834 47.6922C47.3052 46.781 47.2573 46.69 47.8673 45.8584Z" fill="white"/>
<path d="M31.8652 49.59C30.9972 51.101 31.1753 52.3239 32.4521 53.616C34.3866 55.5742 37.7576 55.4283 38.7291 53.3444C38.8693 53.0431 39.5118 50.5852 39.5115 50.3509C39.5109 49.9937 39.2488 49.8083 38.5978 49.7043C36.9588 49.4422 35.4443 48.8184 34.1915 47.8889C33.7229 47.5415 33.423 47.4546 33.1574 47.5892C33.0438 47.647 32.4805 48.519 31.8652 49.59Z" fill="white"/>
<path d="M40.83 51.7687C40.3637 49.9235 40.3867 49.8534 41.5113 49.687C43.0426 49.4602 44.7109 48.7509 45.9533 47.7983C46.5058 47.3748 46.8414 47.4218 47.1872 47.971C48.3898 49.8803 48.678 50.5208 48.6762 51.2797C48.6689 54.2916 44.0059 56.2257 41.8668 54.1043C41.3326 53.5743 41.2256 53.3333 40.83 51.7687Z" fill="white"/>
</svg>
