<svg width="80" height="80" viewBox="0 0 80 80" fill="none" xmlns="http://www.w3.org/2000/svg">
<path d="M39.1843 16.2569C39.4792 16.0852 39.729 16 39.9834 16H40.0007C40.2605 16.0039 40.5192 16.096 40.8305 16.2732L52.6622 23.0685C53.7409 23.7458 54.4574 24.942 54.4574 26.3035V32.2832L39.9027 23.9137C39.783 23.8477 39.6558 23.8128 39.5361 23.8128C39.4445 23.8128 39.3574 23.8334 39.2817 23.8743C39.207 23.9147 39.1432 23.9772 39.0957 24.0613C39.0408 24.1593 39.0076 24.2897 39.0076 24.4532L39.0071 33.9307L39.0076 34.0183L38.92 34.0296L38.9131 34.0306L38.8176 34.0429L38.7216 34.0557L38.7092 34.0577L38.6157 34.0719L38.5237 34.0862L38.499 34.0907L38.4035 34.1074L38.3099 34.1241L38.3045 34.1256L38.207 34.1443L38.1115 34.1645L38.0957 34.1674L38.0027 34.1881L37.9087 34.2108L37.9012 34.2122C37.4757 34.3136 37.0616 34.4465 36.6613 34.6075C36.5796 34.64 36.5019 34.673 36.4287 34.705C36.352 34.7379 36.2758 34.7729 36.2006 34.8083L36.1981 34.8088L36.112 34.8502L36.0259 34.893L36.0131 34.8984L35.9369 34.9373L35.8597 34.9777L35.8255 34.9954L35.7508 35.0353L35.6776 35.0756L35.6524 35.0894C35.6202 35.1071 35.5841 35.1278 35.546 35.1499L35.5242 35.1623L35.5034 35.1746L35.4797 35.1883L35.4035 35.2331L35.3263 35.2804L35.3154 35.2868L35.2372 35.336L35.1585 35.3857L35.1496 35.3926C34.9141 35.5442 34.6865 35.7076 34.4663 35.8814C34.4188 35.9193 34.3763 35.9533 34.3391 35.9838C34.3015 36.0143 34.2585 36.0502 34.214 36.0886L34.2125 36.0896L34.2051 36.096L34.1343 36.1566L34.066 36.2176L34.0556 36.2265L33.9938 36.2826L33.9324 36.3387L33.9017 36.3677L33.8419 36.4239L33.783 36.4805L33.7612 36.5016L33.7038 36.5582L33.6469 36.6158L33.6128 36.6503L33.5633 36.7015L33.5143 36.7532L33.4663 36.8043L33.4233 36.8511L33.3802 36.8984L33.3243 36.9609L33.2832 37.0072L33.2437 37.0524L33.2016 37.1022L33.1551 37.1563L33.1101 37.2104L33.0774 37.2518L33.0299 37.3099L32.9844 37.367L32.9577 37.4019C32.8518 37.5378 32.7488 37.6781 32.6504 37.8223L32.5925 37.9074L32.5361 37.9916L32.5198 38.0172L32.4515 38.1235L32.4055 38.1979L32.3555 38.2801L32.3471 38.2939L32.3466 38.2953L32.3015 38.3716C32.2827 38.4028 32.2698 38.4257 32.2579 38.4468C32.2547 38.4524 32.2517 38.4578 32.2486 38.4632L32.2446 38.4706L32.1996 38.5508L32.1724 38.6005L32.1447 38.6507L32.1011 38.7339L32.0527 38.8279L32.0066 38.92L31.9586 39.0179L31.9181 39.1051L31.874 39.2015L31.8424 39.2734L31.7884 39.3974L31.7518 39.487L31.7137 39.5811C31.7015 39.6122 31.6924 39.636 31.6845 39.6565C31.6803 39.6675 31.6764 39.6776 31.6726 39.6874L31.6677 39.7012L31.6672 39.7031L31.639 39.7775C31.6177 39.836 31.5999 39.8862 31.5821 39.9374L31.5697 39.9734L31.54 40.0625L31.5108 40.1545L31.4822 40.247L31.4629 40.3125L31.4436 40.3765L31.4248 40.4444L31.4158 40.4759L31.3896 40.5744L31.3674 40.664L31.3372 40.7846L31.3184 40.8687C31.3109 40.9007 31.3035 40.9337 31.2926 40.9869L31.2728 41.0814L31.2506 41.199L31.2347 41.2911L31.215 41.4072L31.2001 41.5052L31.1833 41.6224L31.1709 41.7174L31.1576 41.833L31.1467 41.9344L31.1363 42.0516L31.1284 42.15L31.1214 42.2608L31.1204 42.2736L31.119 42.2903L31.1145 42.3661L31.1101 42.4902L31.1091 42.5113L31.1066 42.5852L31.1046 42.6944L31.1036 42.8042L31.1046 42.9174L31.1066 43.0316L31.1071 43.0351L31.1101 43.1453L31.1155 43.259V43.2605L31.116 43.264L31.1219 43.3718L31.1299 43.4845L31.1393 43.5977L31.1496 43.704L31.1501 43.7084C31.1645 43.8546 31.1838 44.0018 31.2065 44.1505L31.2234 44.2578L31.2427 44.3646V44.3671L31.2437 44.37L31.2442 44.374L31.263 44.4778L31.2842 44.5846L31.2847 44.5871C31.306 44.689 31.3283 44.7904 31.353 44.8908L31.3679 44.9499L31.3832 45.0094V45.0109L31.3842 45.0144L31.4124 45.1202L31.4411 45.224L31.4416 45.2255C31.4531 45.2664 31.4658 45.3073 31.4778 45.3476C31.4802 45.3558 31.4827 45.364 31.4851 45.3722L31.4935 45.4008L31.5024 45.4298L31.5034 45.4318L31.5039 45.4337L31.5371 45.5376L31.5702 45.6375L31.5717 45.6405L31.6063 45.7414L31.642 45.8398L31.643 45.8408L31.644 45.8443L31.6801 45.9412L31.7172 46.0372L31.7231 46.051L31.7607 46.1445L31.8008 46.2395L31.8028 46.2444L31.8394 46.3276L25.5366 49.9475V26.3035C25.5366 24.8991 26.2976 23.672 27.4317 23.007L27.497 22.9701L39.1843 16.2569Z" fill="white"/>
<path d="M40.9947 26.747L61.5781 38.569C62.8002 39.2709 63.488 40.5409 63.4999 41.8503V55.3503C63.5029 55.6983 63.4494 55.9597 63.3158 56.1822C63.1827 56.4042 62.9729 56.5809 62.6627 56.7606L50.8314 63.5564C49.7023 64.1471 48.3035 64.1668 47.1174 63.485L42.0635 60.5828L41.9116 60.4952L42.0635 60.4085L56.4757 52.1414C56.5929 52.071 56.6859 51.979 56.7463 51.8756C56.7918 51.7964 56.8186 51.7112 56.82 51.6261C56.822 51.5414 56.8002 51.4548 56.7508 51.3726C56.6924 51.2751 56.5959 51.1821 56.4534 51.1004L48.203 46.3616L48.1263 46.3178L48.1605 46.2366L48.163 46.2297L48.2006 46.1416L48.2367 46.0525L48.2758 45.953L48.3089 45.8664L48.3173 45.8433L48.351 45.7522L48.3831 45.6631L48.3846 45.6582L48.4163 45.5647L48.447 45.4726L48.4524 45.4574L48.4811 45.3663L48.5088 45.2747L48.5108 45.2679C48.6345 44.8504 48.7265 44.4266 48.7869 44.0013C48.7988 43.9147 48.8092 43.832 48.8181 43.7528C48.8275 43.6696 48.8354 43.5869 48.8428 43.5042V43.5017L48.8502 43.4072L48.8562 43.3112L48.8567 43.2974L48.8616 43.2123L48.8656 43.1256L48.8671 43.0877L48.8695 43.0031L48.8715 42.8913C48.872 42.8549 48.8725 42.8136 48.872 42.7693V42.6935L48.8705 42.6053L48.8685 42.5153L48.8681 42.5025L48.8651 42.4109L48.8606 42.3179L48.8596 42.3066C48.8443 42.0284 48.8161 41.7498 48.775 41.4737C48.7666 41.4136 48.7577 41.36 48.7498 41.3127C48.7419 41.2655 48.732 41.2104 48.7211 41.1528V41.1508L48.7191 41.1409L48.7013 41.0504L48.6825 40.9608L48.68 40.9475L48.6622 40.8658L48.6439 40.7846L48.634 40.7437L48.6157 40.665L48.5954 40.5852L48.588 40.5557L48.5459 40.4001L48.5326 40.3539L48.5128 40.2849L48.4722 40.1511L48.4529 40.0905L48.4331 40.029L48.4069 39.9502L48.3668 39.8346L48.3446 39.7735L48.3208 39.7066L48.2961 39.6406L48.2773 39.5914L48.25 39.522L48.2228 39.4541L48.206 39.4137C48.1407 39.2547 48.0699 39.0962 47.9937 38.9387L47.9037 38.7556L47.9027 38.7551L47.9022 38.7541L47.8893 38.729L47.8601 38.6724L47.8305 38.6168L47.7889 38.5395L47.7429 38.4558L47.7345 38.4415L47.734 38.4405L47.6899 38.3633C47.6672 38.3234 47.6518 38.2978 47.6365 38.2722L47.632 38.2648L47.585 38.1856L47.5558 38.1378L47.5247 38.0886L47.4747 38.0093L47.4173 37.9202L47.3599 37.8351L47.298 37.745L47.2436 37.6663L47.1813 37.5801L47.1343 37.5171L47.1224 37.5014L47.0531 37.4088L46.9937 37.332L46.9309 37.2523C46.8982 37.2124 46.8785 37.1878 46.8587 37.1642L46.8493 37.1524L46.8483 37.1519L46.7973 37.0898C46.7572 37.0421 46.7221 37.0017 46.6865 36.9609L46.6612 36.9323L46.5989 36.8619L46.5336 36.7906L46.4668 36.7197L46.3733 36.6217L46.3233 36.5715L46.3 36.5484L46.2283 36.4765L46.1615 36.4125L46.0714 36.3259L46.0076 36.2678C45.9834 36.2452 45.9581 36.2225 45.9175 36.1866L45.8453 36.1221L45.7538 36.0448L45.6815 35.9843L45.5905 35.9095L45.5128 35.8479L45.4188 35.7746L45.3426 35.7165L45.2486 35.6471L45.1654 35.587L45.069 35.5196L44.9868 35.4635L44.9072 35.4108L44.8938 35.402L44.8834 35.3946L44.87 35.3857L44.8057 35.3444L44.7003 35.2774L44.6192 35.2272L44.5247 35.1706L44.4302 35.115L44.3312 35.0594L44.2303 35.0037L44.2273 35.0033L44.1298 34.9501L44.0284 34.8979L44.0269 34.8969L44.0234 34.896L43.9265 34.8472L43.8245 34.7975L43.7216 34.7493L43.6236 34.7045L43.6192 34.7025C43.4851 34.6429 43.3475 34.5854 43.2065 34.5307L43.1051 34.4918L43.0022 34.4544L43.0002 34.4539L42.9967 34.4524L42.9937 34.451L42.8933 34.4155L42.7899 34.3806L42.7889 34.3801L42.7869 34.3796C42.688 34.3471 42.588 34.3161 42.4886 34.2866L42.4302 34.2698L42.3703 34.2536L42.3693 34.2526L42.3663 34.2516L42.26 34.2231L42.1546 34.196L42.1531 34.1955C42.1031 34.1832 42.0531 34.1709 42.0032 34.1596L41.9745 34.1532L41.9448 34.1463L41.9433 34.1458L41.9403 34.1453L41.8339 34.1222L41.73 34.1005L41.7271 34.1L41.6222 34.0798L41.5177 34.0611L41.5133 34.0606L41.4114 34.0429L41.3084 34.0276L41.2936 34.0252L41.1937 34.0114L41.0912 33.9981L41.0853 33.9971L40.9947 33.9873V26.747Z" fill="white"/>
<path d="M23.6247 35.5811L23.6158 52.3053C23.6182 52.4417 23.6519 52.5687 23.7118 52.6716C23.7583 52.7508 23.8191 52.8158 23.8919 52.8596C23.9651 52.9039 24.0517 52.928 24.1482 52.927C24.2615 52.9251 24.3911 52.8882 24.5331 52.8069L32.8602 48.0244L32.9141 48.0943L32.9186 48.0992L32.9765 48.1755L33.0358 48.2518L33.0433 48.2616L33.1026 48.335L33.1615 48.4068L33.1773 48.4265L33.2397 48.5004L33.301 48.5722L33.305 48.5767L33.3703 48.6505L33.4351 48.7233L33.446 48.7352L33.5108 48.8051L33.5771 48.875L33.5821 48.8804C33.8834 49.1959 34.206 49.4868 34.5465 49.7511C34.6157 49.8048 34.683 49.8555 34.7474 49.9027C34.8146 49.952 34.8829 50.0007 34.9517 50.048L34.9532 50.0489L35.0324 50.1026L35.1125 50.1558L35.1239 50.1636L35.1956 50.2104L35.2694 50.2567L35.302 50.2773L35.3738 50.3216L35.4455 50.3645L35.4703 50.3797C35.5014 50.3979 35.5376 50.4191 35.5766 50.4408L35.5974 50.4531L35.6187 50.4649L35.6425 50.4782L35.7196 50.522L35.7998 50.5648L35.8107 50.5712L35.8923 50.614L35.975 50.6564L35.9854 50.6613C36.2352 50.7878 36.4915 50.903 36.7528 51.0049C36.8097 51.0275 36.8602 51.0472 36.9057 51.0634C36.9507 51.0807 37.0032 51.0994 37.0591 51.1191L37.0606 51.12L37.0705 51.123L37.158 51.153L37.2456 51.1826L37.2585 51.1865L37.3381 51.2116L37.4178 51.2362L37.4584 51.249L37.5366 51.2717L37.6157 51.2943L37.6454 51.3022L37.7231 51.3233L37.8018 51.344L37.8488 51.3558L37.9186 51.3731L37.9868 51.3898L38.0556 51.405L38.1813 51.4326L38.2634 51.4493L38.3243 51.4612L38.3837 51.473L38.448 51.4843L38.5183 51.4971L38.5875 51.5089L38.6405 51.5168L38.7147 51.5281L38.7874 51.5389L38.8305 51.5448C39.0017 51.568 39.1754 51.5862 39.35 51.599L39.4529 51.6069L39.5549 51.6128L39.5559 51.6123H39.5573L39.585 51.6143L39.6489 51.6172L39.7122 51.6197L39.7998 51.6226L39.8958 51.6246H39.9141L40.0032 51.6256C40.0487 51.6256 40.0789 51.6256 40.1095 51.6251L40.1175 51.6246L40.21 51.6236L40.3243 51.6206L40.4188 51.6167L40.5247 51.6118L40.6276 51.6049L40.7374 51.597L40.8329 51.5891L40.9388 51.5788L41.0175 51.5699L41.0373 51.568L41.1521 51.5542L41.35 51.5271C41.3923 51.521 41.4212 51.5157 41.4471 51.5115C41.4524 51.5106 41.4577 51.5098 41.4628 51.5089L41.4777 51.506L41.4792 51.5055L41.5578 51.4927C41.6197 51.4823 41.6726 51.4725 41.7256 51.4617L41.7627 51.4548L41.8552 51.4361L41.9502 51.4154L42.0452 51.3932L42.112 51.3775L42.1773 51.3617L42.2461 51.344L42.2778 51.3356L42.3767 51.3091L42.4658 51.2845L42.586 51.2495L42.6682 51.2239C42.7003 51.2136 42.7325 51.2042 42.7844 51.187L42.8765 51.156L42.9898 51.1166L43.0779 51.0851L43.1887 51.0437L43.2812 51.0073L43.3926 50.963L43.4811 50.9261L43.588 50.8803L43.682 50.8385L43.7884 50.7893L43.879 50.7464L43.9646 50.7041L43.9794 50.6972L43.9903 50.6913L44.0051 50.6844L44.0734 50.6505L44.1847 50.5924L44.203 50.5825L44.2684 50.5481L44.3648 50.4954L44.4608 50.4408L44.5588 50.3837L44.6573 50.3241L44.6593 50.3226L44.7543 50.2645L44.8507 50.203L44.8522 50.2025L44.8547 50.2001L44.9453 50.1415L45.0398 50.078L45.1333 50.0135L45.2214 49.9515L45.2248 49.9485C45.3441 49.8629 45.4633 49.7733 45.5811 49.6793L45.6662 49.6108L45.7498 49.541L45.7513 49.5395L45.7543 49.5375L45.7567 49.535L45.8379 49.4666L45.9205 49.3948L45.9215 49.3943L45.922 49.3928C46.0007 49.3234 46.0774 49.254 46.1526 49.1826L46.1966 49.1403L46.2406 49.097L46.2416 49.0965L46.2441 49.0945L46.3223 49.0167L46.398 48.9399L46.3995 48.9389C46.4356 48.9015 46.4707 48.8651 46.5054 48.8282L46.5261 48.8065L46.5464 48.7844L46.5479 48.7824L46.5494 48.7809L46.6236 48.7007L46.6939 48.6219L46.6959 48.6195L46.7661 48.5393L46.8344 48.459L46.8349 48.458L46.8374 48.4551L46.9032 48.3763L46.968 48.2956L46.9774 48.2838L47.0398 48.2045L47.1026 48.1228L47.1061 48.1184L47.16 48.0455L47.2387 48.0903L53.4628 51.6649L53.3119 51.7526L32.88 63.4875C31.6578 64.1894 30.208 64.1471 29.0621 63.5027L28.9977 63.4653L17.31 56.7527C17.0057 56.5804 16.8048 56.4042 16.6781 56.1778C16.552 55.9523 16.5025 55.6831 16.501 55.3262L16.5 41.7351C16.551 40.4676 17.2338 39.2522 18.4193 38.571L23.6247 35.5811Z" fill="white"/>
<path d="M39.9994 49.7165C36.1345 49.7165 33 46.5817 33 42.7165C33 38.8513 36.1345 35.7165 39.9994 35.7165C43.8655 35.7165 47 38.8513 47 42.7165C47 46.5817 43.8655 49.7165 39.9994 49.7165Z" fill="white"/>
</svg>
