<svg width="80" height="80" viewBox="0 0 80 80" fill="none" xmlns="http://www.w3.org/2000/svg">
<path d="M46.0154 36.8864C46.0154 33.5123 43.32 30.7728 40 30.7728C36.68 30.7728 33.9846 33.5123 33.9846 36.8864C33.9846 40.2606 36.68 43 40 43C43.32 43 46.0154 40.2606 46.0154 36.8864Z" fill="white"/>
<path d="M56.8542 29.6908C54.2546 30.3964 49.4385 33.148 47.1295 34.519C47.2141 34.7817 47.285 35.0508 47.3413 35.3253C47.5676 35.3268 47.8146 35.3277 48.0784 35.3278H48.1777C51.0429 35.3264 55.795 35.2194 58.1476 34.5808C59.4796 34.2192 60.2713 32.8301 59.9144 31.4806C59.6174 30.3579 58.6183 29.614 57.5237 29.6041L57.5083 29.604C57.2923 29.6034 57.0727 29.6314 56.8542 29.6908Z" fill="white"/>
<path d="M21.8524 34.5808C24.4524 35.2865 29.9831 35.343 32.6587 35.3253C32.715 35.0508 32.7859 34.7817 32.8703 34.519C30.5614 33.148 25.7453 30.3964 23.1458 29.6908C21.8137 29.3292 20.4425 30.1312 20.0856 31.4806C19.7287 32.8301 20.5203 34.2192 21.8524 34.5808Z" fill="white"/>
<path d="M23.5475 28.7924C25.7844 30.3068 30.9994 32.1605 33.54 33.0157C33.6801 32.7748 33.833 32.5424 33.9976 32.3194C32.2452 30.2681 28.5606 26.0974 26.3242 24.5833C25.1776 23.8071 23.6247 24.1199 22.8584 25.2814C22.0922 26.443 22.4011 28.0162 23.5475 28.7924Z" fill="white"/>
<path d="M53.6177 24.4996C51.3828 26.0203 47.7033 30.2058 45.9575 32.2592C46.1238 32.4801 46.2786 32.7104 46.4208 32.9493C48.9593 32.0881 54.1704 30.222 56.4039 28.7023C57.5487 27.9233 57.8539 26.3494 57.085 25.1896C56.3161 24.0299 54.7625 23.7207 53.6177 24.4996Z" fill="white"/>
<path d="M27.03 23.8224C28.6594 25.9883 32.9928 29.4521 35.1239 31.0977C35.3336 30.9152 35.5532 30.7441 35.7819 30.5857C34.78 28.0665 32.6332 22.9186 31.0044 20.7536C30.1686 19.6425 28.5994 19.4279 27.5026 20.2748C26.4058 21.1216 26.194 22.7112 27.03 23.8224Z" fill="white"/>
<path d="M48.9759 20.708C47.3405 22.879 45.1819 28.0516 44.1827 30.5612C44.409 30.7161 44.6264 30.8833 44.8342 31.0616C46.9607 29.4222 51.3136 25.9496 52.9485 23.7794C53.7851 22.6688 53.5743 21.0791 52.478 20.2315C51.3818 19.384 49.8125 19.5974 48.9759 20.708Z" fill="white"/>
<path d="M31.8522 20.2977C32.7087 22.8756 35.7102 27.5564 37.2093 29.8109C37.4661 29.7062 37.7298 29.6153 37.9995 29.5396C37.8479 26.8249 37.4447 21.2601 36.5884 18.6827C36.1486 17.3586 34.7303 16.6455 33.4233 17.0912C32.1163 17.5368 31.4124 18.9736 31.8522 20.2977Z" fill="white"/>
<path d="M43.4083 18.6822C42.5525 21.2596 42.1502 26.8245 41.9992 29.5391C42.2689 29.615 42.5327 29.7057 42.7894 29.8104C44.2882 27.5557 47.2888 22.8744 48.1448 20.2963C48.5845 18.9721 47.8802 17.5355 46.5732 17.09C45.2661 16.6446 43.8481 17.358 43.4083 18.6822Z" fill="white"/>
<path d="M37.5013 18.5313C37.5013 21.2506 38.8714 26.6546 39.5825 29.2765C39.7207 29.2688 39.8599 29.2649 40 29.2649C40.1401 29.2649 40.2793 29.2688 40.4176 29.2765C41.1287 26.6546 42.4986 21.2506 42.4986 18.5313C42.4986 17.1343 41.379 16 40 16C38.621 16 37.5013 17.1343 37.5013 18.5313Z" fill="white"/>
<path d="M47.3333 61.1454C47.5179 61.3303 47.6217 61.581 47.6217 61.8425V63.0141C47.6217 63.2756 47.5179 63.5263 47.3333 63.7113C47.1486 63.8962 46.8982 64.0001 46.637 64H33.9315C33.6704 64.0001 33.42 63.8962 33.2353 63.7113C33.0506 63.5263 32.9469 63.2756 32.9469 63.0141V61.8425C32.9469 61.581 33.0506 61.3303 33.2353 61.1454C33.42 60.9604 33.6704 60.8566 33.9315 60.8566H46.637C46.8982 60.8566 47.1486 60.9604 47.3333 61.1454Z" fill="white"/>
<path d="M40.7296 46.9934C40.7296 46.9934 45.3642 41.7711 49.7567 39.3035C54.9397 36.3919 62.75 37.068 62.75 37.068C62.75 37.068 56.5383 38.9404 52.7921 44.432C49.4356 49.3523 47.3535 59.5296 47.3535 59.5296C47.3535 59.5296 44.2178 51.8893 40.7296 46.9934Z" fill="white"/>
<path d="M32.9763 59.4203H45.5434C45.5389 59.4108 40.2936 49.0613 36.7146 44.5492C29.3368 35.2479 17.25 37.2491 17.25 37.2491C17.25 37.2491 23.6689 39.8986 26.993 44.1586C28.749 46.4091 29.8847 50.4949 30.5823 53.9352C31.2266 57.1121 32.9763 59.4203 32.9763 59.4203Z" fill="white"/>
</svg>
