<svg width="80" height="80" viewBox="0 0 80 80" fill="none" xmlns="http://www.w3.org/2000/svg">
<path fill-rule="evenodd" clip-rule="evenodd" d="M60.8424 64H40.759V44.3586C41.0278 41.1931 41.504 38.2777 42.6719 36.1967C43.3661 36.5863 44.6052 38.309 44.9748 41.6423C45.8808 40.0063 46.9841 38.1722 48.9859 37.009C49.1208 40.6194 48.9059 41.9932 47.8941 44.5066C46.4737 48.0352 42.5648 48.8567 42.5648 48.8567V62.1942H59.0366C59.0366 51.3391 59.2414 40.482 59.0349 29.6288C59.0314 29.5199 59.0253 29.4114 59.0163 29.3028C58.9664 28.7787 58.8425 28.2655 58.6372 27.7802C58.1321 26.586 57.1668 25.6126 55.9814 25.0935L55.9798 25.0928C56.3376 24.5447 56.7033 24.0514 57.0651 23.6093C57.7129 23.9387 58.3081 24.3703 58.8225 24.8847C59.5494 25.6115 60.1109 26.4997 60.4525 27.4694C60.7121 28.2065 60.8375 28.9804 60.8424 29.7611V64ZM39.2406 64H19.1572V29.7611C19.1621 28.9804 19.2875 28.2065 19.5471 27.4694C19.8887 26.4997 20.4502 25.6115 21.1771 24.8847C21.6915 24.3703 22.2867 23.9387 22.9345 23.6093C23.2963 24.0514 23.662 24.5447 24.0198 25.0928L24.0182 25.0935C22.8328 25.6126 21.8675 26.586 21.3624 27.7802C21.1571 28.2655 21.0332 28.7787 20.9833 29.3028C20.9743 29.4114 20.9682 29.5199 20.9647 29.6288C20.7582 40.482 20.963 51.3391 20.963 62.1942H37.4348V48.8567C37.4348 48.8567 33.5259 48.0352 32.1055 44.5066C31.0937 41.9932 30.8788 40.6194 31.0137 37.009C33.0155 38.1722 34.1188 40.0063 35.0248 41.6423C35.3944 38.309 36.6335 36.5863 37.3277 36.1967C38.4956 38.2777 38.9718 41.1931 39.2406 44.3586V64ZM58.9814 20.5552C55.809 22.8414 52.0983 27.8376 51.661 33.095C51.3049 37.3773 50.5732 39.2484 50.0268 40.0496C50.2689 38.6058 50.2674 36.6425 49.9963 35.0596C49.39 35.3279 48.3838 35.9462 47.4625 36.8622C47.348 36.4876 46.4079 34.5632 43.311 35.4166C43.46 34.9371 43.6243 34.4628 43.8071 33.9947C44.2444 32.875 44.7738 31.7915 45.3828 30.7543C45.3869 30.7476 45.3908 30.7409 45.3946 30.7341C46.0502 29.6199 46.7976 28.5594 47.6211 27.565C48.3214 26.7192 49.079 25.9189 49.8901 25.1774C49.9144 25.1586 49.9373 25.1377 49.9587 25.1149C50.5496 24.5791 51.1687 24.0745 51.8143 23.6063C53.622 22.2954 55.6632 21.25 57.8505 20.7554C58.2246 20.6709 58.6017 20.6051 58.9814 20.5552ZM21.0182 20.5552C24.1906 22.8414 27.9013 27.8376 28.3386 33.095C28.6947 37.3773 29.4264 39.2484 29.9728 40.0496C29.7307 38.6058 29.7322 36.6425 30.0033 35.0596C30.6096 35.3279 31.6158 35.9462 32.5371 36.8622C32.6516 36.4876 33.5917 34.5632 36.6886 35.4166C36.5396 34.9371 36.3753 34.4628 36.1925 33.9947C35.7552 32.875 35.2258 31.7915 34.6168 30.7543C34.6127 30.7476 34.6088 30.7409 34.605 30.7341C33.9494 29.6199 33.202 28.5594 32.3785 27.565C31.6782 26.7192 30.9206 25.9189 30.1095 25.1774C30.0852 25.1586 30.0623 25.1377 30.0409 25.1149C29.45 24.5791 28.8309 24.0745 28.1853 23.6063C26.3776 22.2954 24.3364 21.25 22.1491 20.7554C21.775 20.6709 21.3979 20.6051 21.0182 20.5552ZM41.9176 35.8861C41.5703 35.6322 41.0208 35.176 39.9871 35.1792C38.9533 35.1825 38.4171 35.6411 38.082 35.8861C37.824 34.2621 36.7573 32.314 35.8201 30.4305C36.2409 29.635 37.499 26.869 37.8347 25.8218C38.7262 23.0411 39.5041 19.6325 39.9998 17.7946C40.4762 19.6376 41.2546 23.1637 42.1649 25.8218C42.5212 26.8622 43.7587 29.635 44.1795 30.4305C43.2423 32.314 42.1756 34.2621 41.9176 35.8861ZM47.5894 17.2286C47.5728 17.3929 47.5503 17.5567 47.5216 17.7198C47.4814 17.9483 47.4299 18.1746 47.368 18.3981C46.8586 20.2377 45.6746 21.8026 44.39 23.1779C44.1515 23.4332 43.9078 23.6836 43.6618 23.9316C43.4301 24.1651 43.1961 24.3964 42.9624 24.6278C43.3443 25.7484 43.785 26.8487 44.2795 27.9243C44.4811 28.3627 44.6921 28.7964 44.9109 29.2262C45.5314 28.2664 46.2174 27.3488 46.9596 26.4814C47.5253 25.8204 48.1248 25.1871 48.7566 24.5879C48.2779 23.679 48.0034 22.6723 47.8287 21.6626C47.576 20.2012 47.5269 18.7101 47.5894 17.2286ZM32.4102 17.2286C32.4268 17.3929 32.4493 17.5567 32.478 17.7198C32.5182 17.9483 32.5697 18.1746 32.6316 18.3981C33.141 20.2377 34.325 21.8026 35.6096 23.1779C35.8481 23.4332 36.0918 23.6836 36.3378 23.9316C36.5695 24.1651 36.8035 24.3964 37.0372 24.6278C36.6553 25.7484 36.2146 26.8487 35.7201 27.9243C35.5185 28.3627 35.3075 28.7964 35.0887 29.2262C34.4682 28.2664 33.7822 27.3488 33.04 26.4814C32.4743 25.8204 31.8748 25.1871 31.243 24.5879C31.7217 23.679 31.9962 22.6723 32.1709 21.6626C32.4236 20.2012 32.4727 18.7101 32.4102 17.2286ZM48.9305 19.2274C49.1704 17.3232 51.3216 17.1827 52.6481 17.6269C54.5543 18.2653 55.2118 20.0459 53.6807 21.0347C52.9418 21.5119 52.148 21.9012 51.4295 22.4026C50.826 22.8238 50.2439 23.2752 49.6841 23.753L49.6751 23.7333C49.0304 21.6607 48.7965 20.2907 48.9305 19.2274ZM31.0691 19.2274C30.8292 17.3232 28.678 17.1827 27.3515 17.6269C25.4453 18.2653 24.7878 20.0459 26.3189 21.0347C27.0578 21.5119 27.8516 21.9012 28.5701 22.4026C29.1736 22.8238 29.7557 23.2752 30.3155 23.753L30.3245 23.7333C30.9692 21.6607 31.2031 20.2907 31.0691 19.2274ZM41.4579 18.3388C41.237 16.8346 42.8113 15.8533 43.9374 16.018C44.6775 16.1262 46.6861 16.6391 46.1215 18.3619C45.9014 19.0336 45.5739 19.6685 45.1895 20.2609C44.5165 21.2979 43.6726 22.2065 42.8072 23.0836C42.7222 23.1688 42.637 23.2538 42.5518 23.3387C42.2171 22.2104 41.941 21.0649 41.7211 19.9087C41.6219 19.3872 41.535 18.8638 41.4579 18.3388ZM38.5417 18.3388C38.7626 16.8346 37.1883 15.8533 36.0622 16.018C35.3221 16.1262 33.3135 16.6391 33.8781 18.3619C34.0982 19.0336 34.4257 19.6685 34.8101 20.2609C35.4831 21.2979 36.327 22.2065 37.1924 23.0836C37.2774 23.1688 37.3626 23.2538 37.4478 23.3387C37.7825 22.2104 38.0586 21.0649 38.2785 19.9087C38.3777 19.3872 38.4646 18.8638 38.5417 18.3388Z" fill="white"/>
</svg>
