<svg width="80" height="80" viewBox="0 0 80 80" fill="none" xmlns="http://www.w3.org/2000/svg">
<path fill-rule="evenodd" clip-rule="evenodd" d="M19 64H61V63.5571H19V64ZM19 63.3603H61V62.3061H19V63.3603ZM44.0712 27.5505L41.0679 46.5504C41.0679 46.5504 40.8608 49.904 42.5941 51.8015C43.4322 52.719 44.4585 52.9738 45.4113 53.5214C46.2523 54.0047 47.2096 54.882 47.3573 55.9219C47.5897 57.558 45.8575 57.7769 44.9365 57.4276C43.9568 57.056 43.2128 56.9211 42.2336 56.9624C40.0542 57.0543 39.5628 58.6295 39.57 59.2044C39.5947 61.1689 41.4499 61.8938 41.4499 61.8938C41.4499 61.8938 39.6215 61.9039 38.2039 61.9167C29.8603 61.9922 27.0012 56.2683 25.9355 49.6626L22.368 27.5505H44.0712ZM58.4112 61.8725H43.8226C43.8226 61.8725 40.7105 61.8127 40.7483 59.5914C40.779 57.7914 42.7594 57.2118 45.0796 57.9869C45.7088 58.1971 46.7177 58.2009 47.9595 58.3631C49.2179 58.5274 50.7199 58.3045 52.6128 59.1365C52.7613 59.2018 53.1014 59.133 53.5027 59.1457C53.8665 59.1572 54.2959 59.2551 54.3932 59.2218C54.9391 59.0347 55.2183 58.7443 55.7517 58.7562C55.9595 58.7608 56.1423 58.9359 56.2649 59.0855C56.4196 58.9588 56.5161 58.8629 56.7101 58.8621C57.1632 58.86 57.3399 59.5314 57.6219 59.9509C58.3915 60.124 58.9591 61.0668 59.0838 61.5559C59.1092 61.6555 58.8516 61.7932 58.7726 61.7275C58.41 61.4263 56.9271 59.4741 56.7023 59.4757C56.603 59.4764 56.8566 59.9972 56.9084 60.1721C56.5124 59.9181 55.8015 58.9299 55.5163 59.2194C55.1652 59.5759 56.3901 60.4377 55.878 60.6123C55.6011 60.7067 55.004 60.1454 54.283 59.9148C53.6862 59.724 52.4727 59.8347 52.3037 59.7307C50.9295 58.885 47.4875 59.0049 44.9547 58.8105C44.5241 58.7774 44.0157 58.5219 43.3895 58.4679C42.5472 58.3953 41.6756 58.6937 41.6849 59.6786C41.6894 60.166 42.1388 61.0984 43.4582 61.1383C46.7075 61.2364 52.1993 61.0934 52.1993 61.0934L51.5015 60.5822C51.5015 60.5822 45.2431 60.5423 43.8225 60.4802C43.1621 60.4513 42.9897 59.7318 43.0601 59.5176C43.2179 59.037 43.9747 59.1722 43.9747 59.1722C43.9747 59.1722 44.7868 59.2727 45.2033 59.2944C46.5032 59.362 50.0778 59.6465 51.7393 60.1404C52.215 60.2818 53.0611 60.2252 53.6447 60.3317C54.712 60.5266 55.1513 60.7636 55.9515 61.384L56.5825 61.3799C56.5825 61.3799 56.4857 60.8133 56.5694 60.6827C56.653 60.552 56.7919 60.5892 56.9415 60.645C57.0911 60.7007 57.2433 60.9047 57.3649 60.9389C57.4865 60.9731 57.5293 60.8066 57.6638 60.8335C57.9431 60.8893 58.1641 61.2609 58.3219 61.5121C58.3926 61.6245 58.4109 61.8691 58.4112 61.8725ZM37.0658 58.5031C36.8863 59.0934 37.1266 59.4731 37.6201 59.6861L34.8041 60.508C34.4296 60.6173 34.0375 60.4024 33.9282 60.0279C33.8376 59.7175 34.0152 59.3935 34.3246 59.3032L37.0658 58.5031ZM39.5368 57.795C39.4742 58.3165 39.3875 58.7743 39.3144 59.1916L38.1671 59.5265C37.8304 59.4601 37.4802 59.2973 37.4291 58.911C37.3953 58.6558 37.5505 58.454 37.7516 58.3029L39.5368 57.795ZM37.0825 56.903C36.7159 57.4046 36.8917 57.8626 37.5109 58.1228L34.7024 58.9426C34.3279 59.0519 33.9357 58.8369 33.8264 58.4625C33.7358 58.152 33.9134 57.828 34.2228 57.7377L37.0825 56.903ZM47.6833 38.9316C46.2009 39.6229 44.0856 41.7913 43.2259 43.5008C43.1648 43.6222 43.0252 43.8889 42.9155 44.0936C42.7048 44.4865 42.3109 45.4096 42.215 45.7351C41.9642 46.587 41.9043 46.8305 41.8102 47.38C41.5272 49.0327 41.774 50.3444 42.5283 51.1971C43.0851 51.8266 43.5371 52.0885 45.4965 52.9167C45.7465 53.0224 45.9369 53.1174 46.3611 53.3481C47.9162 54.1941 48.558 55.9735 47.9286 57.5704C47.8277 57.8263 47.7757 57.8372 49.0945 57.9471C50.6027 58.0728 51.7549 58.2724 52.1647 58.4763C51.9928 56.2965 51.5607 50.4168 51.4153 49.0601C51.3956 48.8758 51.2991 48.8519 51.1985 48.8503C50.87 48.845 50.2819 48.837 49.9316 48.6513C50.0774 48.4673 50.2208 48.3428 50.4599 48.1957L49.8069 48.169C48.8474 48.0742 48.6243 47.6366 49.5133 47.1808C49.5133 47.1808 48.2749 47.3303 48.2768 46.2733C48.2771 46.0714 48.3049 45.9968 48.4837 46.0424C48.6524 46.0854 49.0447 46.078 49.0429 46.0317C49.0388 45.921 48.8095 45.8668 48.6912 45.8199C48.4155 45.7109 48.2885 45.5073 48.2068 45.2623C48.1256 45.0194 48.2268 44.9599 48.5844 44.7981C49.0622 44.582 49.0788 44.3856 48.6613 44.3856C47.7928 44.3856 47.806 43.0392 48.611 42.3394C49.0139 41.9892 49.0396 41.8707 48.764 41.7808C48.3529 41.6466 47.781 40.953 47.8099 40.3132C47.8519 39.3816 49.9698 38.8923 50.3135 39.7448C50.4042 39.9698 50.8028 40.0143 50.792 39.732C50.7865 39.5878 51.0542 39.3366 51.3628 39.2061C51.4993 39.1484 51.136 38.9098 50.8717 38.7797C50.4309 38.5626 49.4846 38.4948 48.7876 38.6243C48.113 38.7496 47.9786 38.7939 47.6833 38.9316ZM39.619 56.1627C39.6298 56.6616 39.6069 57.1116 39.5665 57.5228L38.1151 57.9465C37.3526 57.8578 37.0863 57.3377 37.5081 56.7788L39.619 56.1627ZM40.1023 57.5255C40.1023 57.5255 40.3322 53.6253 39.0564 50.9211C37.6859 48.0161 34.5627 44.9202 32.7691 42.8751C32.5846 42.6646 32.3258 42.0816 32.3637 41.6385C32.5278 39.7215 35.2463 40.1656 35.2463 40.1656C35.2463 40.1656 35.3185 40.7883 35.4335 41.0759C36.3303 43.3198 39.1055 46.1082 40.4183 48.699C41.7578 51.3424 43.1774 56.687 43.1774 56.687C41.6673 56.5067 40.6295 56.7742 40.1023 57.5255ZM36.8274 55.3775C36.625 56.0884 36.9476 56.377 37.3326 56.5749L34.5314 57.3925C34.157 57.5018 33.7648 57.2868 33.6555 56.9124C33.5649 56.602 33.7425 56.278 34.0519 56.1876L36.8274 55.3775ZM39.4836 54.6023C39.5535 55.0723 39.5933 55.5066 39.6108 55.9099L38.083 56.3559C37.7482 56.3477 37.4811 56.2397 37.3381 56.0485C37.1703 55.8241 37.1731 55.4759 37.4742 55.1888L39.4836 54.6023ZM36.4932 53.8847C36.1838 54.3346 36.4204 54.8709 36.9945 55.0832L34.1266 55.9203C33.9468 55.9728 33.7535 55.9517 33.5892 55.8616C33.425 55.7716 33.3032 55.62 33.2507 55.4402L33.2504 55.4392C33.1601 55.1298 33.3377 54.8057 33.6471 54.7154L36.4932 53.8847ZM39.181 53.1002C39.2937 53.5492 39.3808 53.9708 39.4466 54.3675L37.5932 54.9085C36.8525 54.8441 36.6844 54.3962 36.9325 53.7565L39.181 53.1002ZM35.9786 52.4397C35.7556 53.2764 36.1494 53.47 36.6014 53.6028L33.6715 54.458C33.2971 54.5672 32.9049 54.3523 32.7956 53.9778C32.705 53.6674 32.8826 53.3434 33.192 53.2531L35.9786 52.4397ZM38.7495 51.631C38.8943 52.0646 39.0172 52.4762 39.1209 52.8674L37.0162 53.4817C36.6623 53.3915 36.4302 53.0796 36.3762 52.8821C36.3035 52.6167 36.4057 52.4159 36.5355 52.2772L38.7495 51.631ZM35.3729 51.0687C35.1273 51.5599 35.3545 52.0872 35.9271 52.2044L33.0272 53.0509C32.8484 53.103 32.6562 53.0821 32.4928 52.9925C32.3295 52.903 32.2084 52.7522 32.1562 52.5734C32.1124 52.4232 32.1304 52.2632 32.2058 52.1278C32.2811 51.9923 32.4077 51.8927 32.557 51.8512L35.3729 51.0687ZM38.1455 50.2191C38.3548 50.6067 38.5334 51.0015 38.6722 51.4032L36.4304 52.0575C36.1377 52.0256 35.7913 51.889 35.7048 51.438C35.6652 51.2609 35.7642 51.0643 35.8924 50.9129L38.1455 50.2191ZM34.5525 49.7442C34.3649 50.372 34.6891 50.7168 35.1514 50.8357L32.2338 51.6873C31.8771 51.7914 31.5031 51.5892 31.3948 51.2337C31.3509 51.0897 31.3667 50.9349 31.4384 50.8035C31.51 50.6721 31.6315 50.5749 31.7755 50.534L34.5525 49.7442ZM37.2947 48.8818C37.5595 49.2465 37.8049 49.6186 38.0223 49.9977L35.6773 50.6822C35.1533 50.637 34.7801 50.191 34.9873 49.6108L37.2947 48.8818ZM33.4051 48.4868C33.5758 49.1283 33.776 49.4551 34.0338 49.5667L31.3061 50.3629C31.1359 50.4126 30.953 50.3926 30.7975 50.3074C30.6421 50.2222 30.5268 50.0787 30.4772 49.9085C30.4366 49.7694 30.4528 49.6206 30.5221 49.4942C30.5914 49.3677 30.7081 49.274 30.8466 49.2336L33.4051 48.4868ZM36.3069 47.6398C36.593 47.9736 36.8709 48.3145 37.1325 48.6623L34.6633 49.383C34.2267 49.2969 33.7938 48.8097 34.1054 48.2824L36.3069 47.6398ZM32.2514 47.2493C32.3034 47.2742 32.3518 47.3012 32.387 47.3285C32.6657 47.5441 32.2972 47.9377 33.1138 48.2745L30.2151 49.1205C29.8576 49.2249 29.4831 49.0196 29.3788 48.6621C29.3377 48.5213 29.3541 48.3706 29.4243 48.2425C29.4945 48.1144 29.6127 48.0195 29.7529 47.9786L32.2514 47.2493ZM49.2908 44.023C49.4741 43.9879 49.4743 44.2629 49.3097 44.6834C49.1323 45.1367 48.539 45.1793 48.595 45.2709C48.8403 45.6725 49.6194 45.5133 49.8285 45.5813C49.9801 45.6306 49.7469 46.1624 49.2494 46.4888C48.8858 46.7275 49.0059 46.8396 49.4854 46.8739C49.7051 46.8896 50.0146 46.6717 50.3087 46.6746C50.4132 46.6756 50.3901 47.2301 50.0902 47.457C49.3882 47.9884 49.9589 47.9664 50.8381 47.7184C51.3289 47.58 51.2405 47.7333 51.0526 48.0916C50.9389 48.3085 50.7081 48.4211 50.7769 48.4884C50.8689 48.5784 51.6048 48.6942 52.1534 48.0007C52.2553 47.8719 52.2825 47.6848 52.0094 47.481C51.0487 46.7641 50.6568 45.906 50.335 44.6148C50.2269 44.1805 50.1688 42.4488 50.2565 42.0598C50.3111 41.8178 50.2487 41.8251 49.6415 42.132C48.1766 42.8726 47.9266 44.2845 49.2908 44.023ZM53.2857 44.9973C51.261 45.0151 50.7272 46.3592 52.2875 47.3072C52.5327 47.456 52.4796 47.5016 52.4797 47.7072C52.4798 47.9995 52.7664 48.1792 53.0058 48.2001C53.5401 48.2466 53.8321 48.0518 53.9303 47.3868C53.9783 47.0609 54.0702 46.8908 54.4019 46.4454C54.5594 46.2339 54.6311 46.0961 54.589 46.0807C54.5107 46.052 54.3052 46.0993 54.1425 46.3746C53.5966 47.2987 52.1992 47.0854 51.8854 46.4179C51.6671 45.9536 52.0556 45.3202 53.4565 45.315C54.4435 45.3115 54.4799 45.3514 54.571 45.6844C54.6437 45.9504 54.8137 45.8422 55.1712 45.3021C55.7605 44.4118 55.6833 44.2583 55.0816 44.5861C54.5117 44.8965 54.0165 44.9908 53.2857 44.9973ZM35.1826 46.3938C35.4899 46.7219 35.799 47.0583 36.101 47.4026L33.7116 48.1C33.4816 48.0432 33.2634 47.9075 33.0991 47.6902C32.9609 47.5075 32.9704 47.213 33.1733 46.9803L35.1826 46.3938ZM31.5005 45.8986C31.3421 46.491 31.5143 46.7548 32.0942 46.9425L29.1841 47.7919C29.0136 47.8417 28.8304 47.8217 28.6748 47.7363C28.5191 47.651 28.4037 47.5073 28.3539 47.3369C28.3125 47.195 28.3297 47.0434 28.4015 46.9152C28.4732 46.787 28.5934 46.693 28.7351 46.6543L31.5005 45.8986ZM33.9899 45.132C34.2893 45.451 34.6035 45.7795 34.9223 46.1171L32.5992 46.7951C31.9849 46.6699 31.7895 46.1658 32.0797 45.7227L33.9899 45.132ZM30.3441 44.6528C30.2998 45.3162 30.7351 45.5318 31.1854 45.6126L28.1999 46.484C27.8047 46.5994 27.3893 46.3806 27.2608 45.9895C27.2449 45.9411 27.2292 45.8931 27.2139 45.8466C27.1758 45.7306 27.1884 45.6039 27.2486 45.4977C27.3088 45.3915 27.411 45.3156 27.53 45.2887L30.3441 44.6528ZM52.8197 45.8497C53.2142 45.8471 53.5586 45.874 53.9256 46.255C53.9601 46.2909 54.0023 46.1704 54.0287 46.1144C54.0883 45.9879 54.2058 45.854 54.0835 45.7676C53.8421 45.5971 53.1499 45.5544 52.6203 45.7161C52.3047 45.8126 52.4438 45.8522 52.8197 45.8497ZM32.8805 43.8902C33.1392 44.2042 33.4306 44.5298 33.7421 44.8664L31.6794 45.4684C30.8678 45.4475 30.7257 44.7951 30.7867 44.4248L31.0686 44.2504L32.8805 43.8902ZM29.5 43.3198C29.603 43.806 29.9019 44.0357 30.2183 44.2338L27.0936 45.0136C26.8541 45.0734 26.6034 44.9726 26.4718 44.7637C26.3868 44.6287 26.2869 44.4701 26.1905 44.317C26.1064 44.1834 26.0973 44.0159 26.1665 43.874C26.2357 43.7322 26.3733 43.6362 26.5304 43.6203L29.5 43.3198ZM52.7915 44.0751C52.691 44.242 52.5435 44.4669 52.2999 44.6774C52.1315 44.8229 54.0477 44.6614 54.5392 44.3798C54.8842 44.1822 55.2648 44.2173 55.3624 44.2425C55.5053 44.2795 55.4809 44.0692 55.3507 43.6873C55.0845 42.907 54.6223 42.6725 53.9815 42.8942C53.5663 43.0379 53.2112 43.3778 52.7915 44.0751ZM52.7309 42.441C52.5469 42.6099 52.2907 42.8632 52.1067 42.9916C51.3609 43.5116 51.0265 44.0268 51.3144 44.3114C51.8051 44.7968 52.7196 43.9814 52.7334 43.0052C52.7393 42.5939 53.0927 42.1959 54.0697 42.0797C54.3304 42.0487 54.4029 41.9481 54.1158 41.9532C53.8244 41.9584 53.5482 41.9638 53.5022 41.9793C53.2055 42.0794 53.0228 42.1731 52.7309 42.441ZM32.0386 42.6761C32.1975 42.9805 32.414 43.299 32.6727 43.631L30.6604 44.1235C30.2441 43.9185 29.6636 43.2651 30.1514 42.8351L30.152 42.831L32.0386 42.6761ZM53.7791 42.4729C54.0479 42.4379 54.4426 42.3901 54.7157 42.4935C55.3085 42.7177 55.7244 43.2849 55.7432 43.694C55.7532 43.9116 55.8865 44.0132 55.9488 43.765C55.9906 43.5987 56.1684 43.1805 56.1771 42.7775C56.1787 42.7021 56.1687 42.5713 56.1049 42.531C56.037 42.4882 55.7532 42.5156 55.6247 42.4925C55.4554 42.4619 55.1873 42.399 55.0451 42.3243C54.7204 42.1538 54.0748 42.2065 53.7212 42.3083C53.6402 42.3316 53.5099 42.5079 53.7791 42.4729ZM29.3879 43.1228L26.2593 43.21C25.975 43.2179 25.7283 43.0156 25.6803 42.7353C25.663 42.6347 25.6442 42.5249 25.625 42.4125C25.5809 42.1553 25.6601 41.8923 25.8388 41.7021C26.0176 41.512 26.2752 41.4166 26.5347 41.4447C27.4907 41.548 28.2758 41.6382 28.7544 41.6919C28.8265 42.4322 29.2081 42.9272 29.3879 43.1228ZM51.0017 42.777C51.3079 43.0803 51.8807 42.9823 52.1079 42.6893C52.7187 41.9018 53.2091 41.6973 53.9662 41.6941C54.2222 41.6931 54.1056 41.5768 53.8732 41.3583C53.564 41.0677 53.3694 41.0408 52.9957 41.0617C52.7104 41.0776 52.6119 41.0597 52.612 40.9735C52.6123 40.6247 52.0066 40.4097 51.5912 40.6664C50.8609 41.1177 50.536 42.3159 51.0017 42.777ZM53.5125 41.4513C53.5369 41.4889 52.8964 41.6703 52.6373 41.8534C52.5291 41.9298 52.4662 42.008 52.3663 42.0618C52.3448 42.0734 51.9585 42.0661 51.8127 41.898C51.6545 41.7156 51.7445 41.2967 52.038 41.3009C52.2159 41.3034 52.113 41.4503 52.0468 41.6167C52.01 41.7093 52.0252 41.8297 52.084 41.8476C52.6232 42.0118 52.4599 41.1601 52.1383 41.1054C51.9021 41.0653 51.4427 41.2401 51.4158 41.609C51.4032 41.7815 51.423 41.9446 51.6343 42.1074C51.8126 42.2447 52.0314 42.2069 52.2103 42.1927C51.9726 42.4398 51.7261 42.6462 51.4439 42.631C51.0687 42.6108 51.022 41.9342 51.2644 41.4508C51.4068 41.1668 51.7541 40.8469 52.0285 40.8602C52.4025 40.8785 52.3624 41.1256 52.533 41.2968C52.632 41.3963 53.3736 41.2376 53.5125 41.4513ZM32.0182 42.3788L29.7153 42.4767C29.0815 42.0119 29.0535 40.1925 29.3705 39.9575C30.0299 40.7319 30.9663 41.0137 31.9237 41.1615C31.89 41.32 31.8684 41.4949 31.8604 41.6877C31.8529 41.869 31.8666 42.1938 32.0182 42.3788ZM50.6486 40.3765C50.4573 40.5531 50.3911 40.5439 50.1751 40.2209C49.9478 39.881 49.6522 39.7368 49.3798 39.7334C48.7509 39.7253 48.2164 40.3094 48.1716 40.3983C48.1335 40.4739 48.2455 40.5014 48.2819 40.6387C48.4023 41.0931 48.8651 41.7298 49.4864 41.7644C49.9637 41.791 50.3739 41.6222 50.6972 41.1048C51.0138 40.5981 51.3271 40.2608 51.6659 40.1394C52.1427 39.9684 52.5965 40.158 53.0227 40.5929C53.0904 40.662 53.2981 40.6934 53.364 40.6906C53.4935 40.6849 53.7987 40.9105 53.9517 41.0952C54.2653 41.4736 54.4075 41.4884 54.3326 41.2419C54.2769 41.0586 53.6314 40.3689 53.2699 40.2512C52.9424 40.1446 52.5821 39.5677 52.0346 39.4541C51.7951 39.4043 51.5943 39.5645 51.3959 39.7357C51.1408 39.9556 50.7226 40.3083 50.6486 40.3765ZM28.7337 41.3859C28.2501 41.3015 26.8999 41.0672 25.9395 40.9119C25.7576 40.8826 25.595 40.7821 25.4874 40.6326C25.3797 40.4832 25.3359 40.2971 25.3657 40.1153C25.3913 39.9586 25.4188 39.7908 25.4451 39.6298C25.4765 39.4377 25.5948 39.2708 25.7656 39.1775C25.9364 39.0841 26.1408 39.0748 26.3194 39.1521C27.1798 39.5244 28.2668 40.0107 28.7356 40.2211C28.696 40.5835 28.718 41.1146 28.7337 41.3859ZM31.9839 40.9332C31.1228 40.8041 30.5562 40.5901 29.6232 39.8285C29.1127 39.2303 30.2551 37.7311 30.7924 38.1374C31.1249 39.2676 31.7196 39.6927 32.4198 40.2113C32.2327 40.3903 32.082 40.6255 31.9839 40.9332ZM32.5764 40.0801C32.0144 39.5835 31.449 38.8659 31.2634 38.2207C31.2217 38.0757 31.2047 37.8358 31.2667 37.7346C31.6895 37.0435 32.7628 37.1309 33.1437 37.1853C33.218 37.1959 33.2629 37.2754 33.2563 37.3286C33.1586 38.1129 33.299 38.7109 33.5008 39.2184C33.5139 39.2514 33.5674 39.7103 33.4955 39.7223C33.1588 39.7788 32.8409 39.8864 32.5764 40.0801ZM28.7926 39.9121L26.2731 38.5876C26.0889 38.4907 25.9508 38.3245 25.8893 38.1257C25.8279 37.9269 25.8481 37.7117 25.9456 37.5279C25.9565 37.5072 25.9675 37.4865 25.9786 37.4656C26.104 37.229 26.3299 37.062 26.5929 37.0114C26.8558 36.9608 27.1276 37.0322 27.3318 37.2054L29.228 38.8137C29.0635 39.0911 28.8887 39.5201 28.7926 39.9121ZM33.9744 39.6732C33.6513 39.2319 33.5606 38.0666 33.6108 37.3661C33.6204 37.2323 33.7165 37.1876 33.7528 37.1891C34.4415 37.2188 34.959 37.4088 35.4926 37.8974C35.5547 37.9543 35.5691 38.1021 35.5413 38.1412C35.2114 38.604 35.0773 39.1271 35.1051 39.7004C34.7571 39.6803 34.3639 39.6547 33.9744 39.6732ZM29.3719 38.591C28.8894 38.19 27.5166 37.0393 27.3823 36.8211C27.1814 35.6272 28.2988 34.9235 29.0362 35.193C29.2396 35.4853 29.967 37.0322 30.2372 37.6118C29.8226 37.9408 29.5419 38.335 29.3719 38.591ZM35.1154 37.0007C35.5086 36.5309 36.412 35.4629 36.7914 35.1072C37.066 34.8498 37.5567 34.7217 37.7898 34.9093C38.0027 35.0807 38.3701 35.4602 38.4367 35.7564C38.5316 36.1782 38.427 36.47 38.0916 36.6866C37.6985 36.9406 36.483 37.6078 35.9717 37.8866C35.733 37.4852 35.4587 37.1975 35.1154 37.0007ZM30.4955 37.4195C30.1913 36.82 29.4135 35.2789 29.2326 34.8428C29.1779 34.7109 29.1491 34.5069 29.2647 34.3753C29.6912 33.8894 30.6834 33.5449 31.2098 33.5983C31.4397 33.6216 31.5206 33.7398 31.5277 33.9233C31.5528 34.5737 31.599 36.2423 31.6147 36.8201C31.217 36.9536 30.8246 37.1864 30.4955 37.4195ZM33.5446 36.6454C33.7891 35.9961 34.3137 34.6066 34.4843 34.1803C34.5338 34.0567 34.632 33.7238 34.8091 33.6286C35.0063 33.5226 35.4781 33.475 35.8008 33.555C36.1236 33.635 36.476 33.9071 36.5884 34.1217C36.7009 34.3363 36.6417 34.5853 36.5099 34.7893C36.2553 35.1834 35.3181 36.3691 34.9008 36.8932C34.5332 36.7338 34.0918 36.6585 33.5446 36.6454ZM31.8804 36.7469C31.8694 36.083 31.8459 34.2114 31.9177 33.6889C31.9521 33.4391 32.1321 33.2368 32.3745 33.1672C32.6854 33.0777 33.5144 33.0738 33.8286 33.1801C34.0851 33.2669 34.3022 33.4959 34.2626 33.7638C34.1895 34.2595 33.5475 35.9504 33.279 36.6437C32.9274 36.6471 32.5351 36.6721 32.0951 36.7136C32.024 36.7203 31.9523 36.7316 31.8804 36.7469ZM44.1138 27.2808H22.3245L22.2762 26.9817H44.1611L44.1138 27.2808ZM44.2508 26.4141H22.1847L22.0823 25.7796C22.157 25.7621 22.2308 25.7407 22.3035 25.7147C22.542 25.6296 22.7622 25.4987 22.952 25.3311C23.1317 25.1724 23.2828 24.9834 23.4086 24.7797C23.5024 24.6279 23.5826 24.4678 23.6522 24.3035C23.6668 24.2689 23.6801 24.2336 23.6933 24.1983V23.584C23.6744 23.5889 23.6559 23.5953 23.6379 23.603C23.5308 23.6491 23.4544 23.74 23.4026 23.8421C23.3687 23.9087 23.3459 23.9802 23.3187 24.0496C23.306 24.0818 23.2926 24.1136 23.2795 24.1455C23.2465 24.2206 23.2127 24.2949 23.1759 24.3683C23.0833 24.546 22.9768 24.716 22.8441 24.8669C22.6274 25.1135 22.348 25.2923 22.0299 25.3761L22.0177 25.3792L20.7444 17.4872H45.6618L44.4075 25.4229C44.3268 25.4125 44.2466 25.3968 44.1682 25.3761C43.8501 25.2923 43.5708 25.1135 43.354 24.8669C43.2214 24.716 43.1148 24.546 43.0222 24.3683C42.9854 24.2949 42.9516 24.2206 42.9186 24.1455C42.9055 24.1136 42.8921 24.0818 42.8795 24.0496C42.8522 23.9802 42.8294 23.9087 42.7955 23.8421C42.7437 23.74 42.6673 23.6491 42.5602 23.603C42.5422 23.5953 42.5237 23.5889 42.5048 23.584V24.1983C42.518 24.2336 42.5313 24.2689 42.546 24.3035C42.6156 24.4678 42.6957 24.6279 42.7895 24.7797C42.9154 24.9834 43.0664 25.1724 43.2461 25.3311C43.4359 25.4987 43.6562 25.6296 43.8947 25.7147C44.0408 25.7669 44.1915 25.8008 44.3445 25.8215L44.2508 26.4141ZM30.7646 25.4402C30.7646 25.4402 30.943 25.4384 30.9937 25.4355C31.1196 25.4283 31.2457 25.4082 31.3676 25.3761C31.6857 25.2923 31.965 25.1135 32.1818 24.8669C32.3144 24.716 32.421 24.546 32.5136 24.3683C32.5503 24.2949 32.5841 24.2206 32.6172 24.1455C32.6302 24.1136 32.6437 24.0818 32.6563 24.0496C32.6836 23.9802 32.7064 23.9087 32.7402 23.8421C32.792 23.74 32.8685 23.6491 32.9755 23.603C32.9935 23.5953 33.0121 23.5889 33.031 23.584V24.1983C33.0178 24.2336 33.0045 24.2689 32.9898 24.3035C32.9202 24.4678 32.84 24.6279 32.7462 24.7797C32.6204 24.9834 32.4693 25.1724 32.2896 25.3311C32.0999 25.4987 31.8796 25.6296 31.6411 25.7147C31.4402 25.7865 31.2309 25.8236 31.0186 25.8395C30.9557 25.8425 30.7521 25.8454 30.7521 25.8454C30.6859 25.8455 30.5696 25.8423 30.5107 25.8395C30.2984 25.8236 30.0891 25.7865 29.8882 25.7147C29.6497 25.6296 29.4294 25.4987 29.2397 25.3311C29.06 25.1724 28.9089 24.9834 28.7831 24.7797C28.6893 24.6279 28.6091 24.4678 28.5395 24.3035C28.5248 24.2689 28.5115 24.2336 28.4983 24.1983V23.584C28.5172 23.5889 28.5358 23.5953 28.5538 23.603C28.6608 23.6491 28.7373 23.74 28.7891 23.8421C28.8229 23.9087 28.8457 23.9802 28.873 24.0496C28.8856 24.0818 28.8991 24.1136 28.9121 24.1455C28.9452 24.2206 28.979 24.2949 29.0157 24.3683C29.1083 24.546 29.2149 24.716 29.3475 24.8669C29.5643 25.1135 29.8436 25.2923 30.1617 25.3761C30.2836 25.4082 30.4097 25.4283 30.5356 25.4355C30.5897 25.4386 30.7104 25.4365 30.7646 25.4402ZM40.1023 25.8453C40.1023 25.8453 39.9073 25.8423 39.8483 25.8395C39.6361 25.8236 39.4267 25.7865 39.2258 25.7147C38.9873 25.6296 38.7671 25.4987 38.5773 25.3311C38.3976 25.1724 38.2465 24.9834 38.1207 24.7797C38.0269 24.6279 37.9467 24.4678 37.8771 24.3035C37.8625 24.2689 37.8492 24.2336 37.836 24.1983V23.584C37.8549 23.5889 37.8734 23.5953 37.8914 23.603C37.9985 23.6491 38.0749 23.74 38.1267 23.8421C38.1606 23.9087 38.1834 23.9802 38.2106 24.0496C38.2233 24.0818 38.2367 24.1136 38.2498 24.1455C38.2828 24.2206 38.3166 24.2949 38.3534 24.3683C38.446 24.546 38.5525 24.716 38.6852 24.8669C38.9019 25.1135 39.1813 25.2923 39.4994 25.3761C39.6213 25.4082 39.7473 25.4283 39.8732 25.4355C39.9274 25.4386 40.0481 25.4365 40.1023 25.4402C40.1023 25.4402 40.2806 25.4384 40.3314 25.4355C40.4572 25.4283 40.5833 25.4082 40.7052 25.3761C41.0233 25.2923 41.3026 25.1135 41.5194 24.8669C41.652 24.716 41.7586 24.546 41.8512 24.3683C41.888 24.2949 41.9218 24.2206 41.9548 24.1455C41.9679 24.1136 41.9813 24.0818 41.9939 24.0496C42.0212 23.9802 42.044 23.9087 42.0779 23.8421C42.1297 23.74 42.2061 23.6491 42.3132 23.603C42.3312 23.5953 42.3497 23.5889 42.3686 23.584V24.1983C42.3554 24.2336 42.3421 24.2689 42.3275 24.3035C42.2579 24.4678 42.1777 24.6279 42.0839 24.7797C41.958 24.9834 41.807 25.1724 41.6273 25.3311C41.4375 25.4987 41.2172 25.6296 40.9787 25.7147C40.7779 25.7865 40.5685 25.8236 40.3563 25.8395C40.2934 25.8425 40.1653 25.846 40.1023 25.8453ZM35.4444 25.4396C35.5025 25.4368 35.6118 25.4384 35.6626 25.4355C35.7884 25.4283 35.9145 25.4082 36.0364 25.3761C36.3545 25.2923 36.6338 25.1135 36.8506 24.8669C36.9832 24.716 37.0898 24.546 37.1824 24.3683C37.2192 24.2949 37.253 24.2206 37.286 24.1455C37.299 24.1136 37.3125 24.0818 37.3251 24.0496C37.3524 23.9802 37.3752 23.9087 37.409 23.8421C37.4608 23.74 37.5373 23.6491 37.6443 23.603C37.6623 23.5953 37.6809 23.5889 37.6998 23.584V24.1983C37.6866 24.2336 37.6733 24.2689 37.6586 24.3035C37.589 24.4678 37.5089 24.6279 37.415 24.7797C37.2892 24.9834 37.1382 25.1724 36.9585 25.3311C36.7687 25.4987 36.5484 25.6296 36.3099 25.7147C36.109 25.7865 35.8997 25.8236 35.6875 25.8395C35.6246 25.8425 35.4965 25.846 35.4335 25.8453C35.3705 25.846 35.2424 25.8425 35.1795 25.8395C34.9672 25.8236 34.7579 25.7865 34.557 25.7147C34.3185 25.6296 34.0982 25.4987 33.9085 25.3311C33.7288 25.1724 33.5777 24.9834 33.4519 24.7797C33.3581 24.6279 33.2779 24.4678 33.2083 24.3035C33.1936 24.2689 33.1803 24.2336 33.1671 24.1983V23.584C33.1861 23.5889 33.2046 23.5953 33.2226 23.603C33.3297 23.6491 33.4061 23.74 33.4579 23.8421C33.4917 23.9087 33.5146 23.9802 33.5418 24.0496C33.5544 24.0818 33.5679 24.1136 33.5809 24.1455C33.614 24.2206 33.6478 24.2949 33.6846 24.3683C33.7771 24.546 33.8837 24.716 34.0163 24.8669C34.2331 25.1135 34.5124 25.2923 34.8306 25.3761C34.9524 25.4082 35.0785 25.4283 35.2044 25.4355C35.2585 25.4386 35.4444 25.4396 35.4444 25.4396ZM25.8667 25.4355C25.9209 25.4386 26.2741 25.4384 26.3249 25.4355C26.4508 25.4283 26.5769 25.4082 26.6987 25.3761C27.0169 25.2923 27.2962 25.1135 27.513 24.8669C27.6456 24.716 27.7522 24.546 27.8447 24.3683C27.8815 24.2949 27.9153 24.2206 27.9484 24.1455C27.9614 24.1136 27.9749 24.0818 27.9875 24.0496C28.0147 23.9802 28.0376 23.9087 28.0714 23.8421C28.1232 23.74 28.1996 23.6491 28.3067 23.603C28.3247 23.5953 28.3432 23.5889 28.3622 23.584V24.1983C28.349 24.2336 28.3357 24.2689 28.321 24.3035C28.2514 24.4678 28.1712 24.6279 28.0774 24.7797C27.9516 24.9834 27.8005 25.1724 27.6208 25.3311C27.431 25.4987 27.2108 25.6296 26.9723 25.7147C26.7714 25.7865 26.5621 25.8236 26.3498 25.8395C26.2869 25.8425 25.9008 25.8423 25.8418 25.8395C25.6296 25.8236 25.4203 25.7865 25.2194 25.7147C24.9809 25.6296 24.7606 25.4987 24.5708 25.3311C24.3911 25.1724 24.2401 24.9834 24.1143 24.7797C24.0204 24.6279 23.9403 24.4678 23.8707 24.3035C23.856 24.2689 23.8427 24.2336 23.8295 24.1983V23.584C23.8484 23.5889 23.8669 23.5953 23.885 23.603C23.992 23.6491 24.0685 23.74 24.1203 23.8421C24.1541 23.9087 24.1769 23.9802 24.2042 24.0496C24.2168 24.0818 24.2303 24.1136 24.2433 24.1455C24.2763 24.2206 24.3101 24.2949 24.3469 24.3683C24.4395 24.546 24.5461 24.716 24.6787 24.8669C24.8955 25.1135 25.1748 25.2923 25.4929 25.3761C25.6148 25.4082 25.7409 25.4283 25.8667 25.4355ZM23.6305 23.3996C23.5626 23.4591 23.49 23.5228 23.471 23.5395C23.4679 23.5422 23.4639 23.5435 23.4598 23.5432C23.4249 23.5396 23.3765 23.5205 23.3488 23.4752C23.3437 23.4662 23.3459 23.4549 23.3538 23.4484C23.4078 23.4008 23.6313 23.204 23.7225 23.1237C23.7448 23.1041 23.7782 23.1041 23.8005 23.1237C23.9024 23.2135 24.1691 23.4484 24.1691 23.4484C24.1771 23.4549 24.1792 23.4662 24.1742 23.4752C24.1464 23.5205 24.098 23.5396 24.0631 23.5432C24.0591 23.5435 24.055 23.5422 24.0519 23.5395C24.0208 23.5122 23.8461 23.359 23.7837 23.3042C23.771 23.293 23.752 23.293 23.7392 23.3042C23.7019 23.337 23.6305 23.3996 23.6305 23.3996ZM28.2993 23.3996C28.2315 23.4591 28.1588 23.5228 28.1398 23.5395C28.1367 23.5422 28.1327 23.5435 28.1286 23.5432C28.0938 23.5396 28.0454 23.5205 28.0176 23.4752C28.0126 23.4662 28.0147 23.4549 28.0226 23.4484C28.0767 23.4008 28.3001 23.204 28.3913 23.1237C28.4136 23.1041 28.447 23.1041 28.4693 23.1237C28.5712 23.2135 28.8379 23.4484 28.8379 23.4484C28.8459 23.4549 28.848 23.4662 28.843 23.4752C28.8152 23.5205 28.7668 23.5396 28.732 23.5432C28.7279 23.5435 28.7238 23.5422 28.7208 23.5395C28.6896 23.5122 28.515 23.359 28.4525 23.3042C28.4398 23.293 28.4208 23.293 28.4081 23.3042C28.3707 23.337 28.2993 23.3996 28.2993 23.3996ZM32.9681 23.3996C32.9003 23.4591 32.8277 23.5228 32.8086 23.5395C32.8055 23.5422 32.8015 23.5435 32.7974 23.5432C32.7626 23.5396 32.7142 23.5205 32.6864 23.4752C32.6814 23.4662 32.6835 23.4549 32.6915 23.4484C32.7455 23.4008 32.9689 23.204 33.0601 23.1237C33.0824 23.1041 33.1158 23.1041 33.1381 23.1237C33.2401 23.2135 33.5067 23.4484 33.5067 23.4484C33.5147 23.4549 33.5168 23.4662 33.5118 23.4752C33.484 23.5205 33.4356 23.5396 33.4008 23.5432C33.3967 23.5435 33.3927 23.5422 33.3896 23.5395C33.3584 23.5122 33.1838 23.359 33.1213 23.3042C33.1086 23.293 33.0896 23.293 33.0769 23.3042C33.0395 23.337 32.9681 23.3996 32.9681 23.3996ZM37.637 23.3996C37.5691 23.4591 37.4965 23.5228 37.4774 23.5395C37.4744 23.5422 37.4703 23.5435 37.4662 23.5432C37.4314 23.5396 37.383 23.5205 37.3552 23.4752C37.3502 23.4662 37.3523 23.4549 37.3603 23.4484C37.4143 23.4008 37.6378 23.204 37.7289 23.1237C37.7512 23.1041 37.7846 23.1041 37.8069 23.1237C37.9089 23.2135 38.1756 23.4484 38.1756 23.4484C38.1835 23.4549 38.1856 23.4662 38.1806 23.4752C38.1528 23.5205 38.1044 23.5396 38.0696 23.5432C38.0655 23.5435 38.0615 23.5422 38.0584 23.5395C38.0272 23.5122 37.8526 23.359 37.7901 23.3042C37.7774 23.293 37.7584 23.293 37.7457 23.3042C37.7083 23.337 37.637 23.3996 37.637 23.3996ZM42.3058 23.3996C42.2379 23.4591 42.1653 23.5228 42.1463 23.5395C42.1432 23.5422 42.1391 23.5435 42.1351 23.5432C42.1002 23.5396 42.0518 23.5205 42.024 23.4752C42.019 23.4662 42.0211 23.4549 42.0291 23.4484C42.0831 23.4008 42.3066 23.204 42.3978 23.1237C42.42 23.1041 42.4535 23.1041 42.4757 23.1237C42.5777 23.2135 42.8444 23.4484 42.8444 23.4484C42.8523 23.4549 42.8545 23.4662 42.8494 23.4752C42.8217 23.5205 42.7733 23.5396 42.7384 23.5432C42.7343 23.5435 42.7303 23.5422 42.7272 23.5395C42.6961 23.5122 42.5214 23.359 42.459 23.3042C42.4463 23.293 42.4272 23.293 42.4145 23.3042C42.3772 23.337 42.3058 23.3996 42.3058 23.3996ZM42.4368 21.2099L43.0965 20.5976C43.0965 20.5976 43.8927 19.8088 44.1042 19.6225C44.2254 19.5158 44.3515 19.5216 44.3515 19.5216C44.3515 19.5216 43.5577 20.9968 43.5608 21.8682C43.5642 22.8205 42.9354 23.3511 42.9354 23.3511L42.4368 22.912L41.9382 23.3511C41.9382 23.3511 41.3094 22.8205 41.3128 21.8682C41.3159 20.9968 40.5221 19.5216 40.5221 19.5216C40.5221 19.5216 40.6482 19.5158 40.7694 19.6225C40.9809 19.8088 41.7771 20.5976 41.7771 20.5976L42.4368 21.2099ZM23.7615 21.2099L24.4212 20.5976C24.4212 20.5976 25.2174 19.8088 25.4289 19.6225C25.5501 19.5158 25.6762 19.5216 25.6762 19.5216C25.6762 19.5216 24.8824 20.9968 24.8855 21.8682C24.8889 22.8205 24.2601 23.3511 24.2601 23.3511L23.7615 22.912L23.2629 23.3511C23.2629 23.3511 22.6341 22.8205 22.6375 21.8682C22.6406 20.9968 21.8468 19.5216 21.8468 19.5216C21.8468 19.5216 21.9729 19.5158 22.0941 19.6225C22.3056 19.8088 23.1018 20.5976 23.1018 20.5976L23.7615 21.2099ZM28.4303 21.2099L29.09 20.5976C29.09 20.5976 29.8862 19.8088 30.0977 19.6225C30.2189 19.5158 30.345 19.5216 30.345 19.5216C30.345 19.5216 29.5512 20.9968 29.5543 21.8682C29.5577 22.8205 28.9289 23.3511 28.9289 23.3511L28.4303 22.912L27.9317 23.3511C27.9317 23.3511 27.3029 22.8205 27.3063 21.8682C27.3094 20.9968 26.5156 19.5216 26.5156 19.5216C26.5156 19.5216 26.6418 19.5158 26.7629 19.6225C26.9744 19.8088 27.7706 20.5976 27.7706 20.5976L28.4303 21.2099ZM33.0991 21.2099L33.7588 20.5976C33.7588 20.5976 34.555 19.8088 34.7665 19.6225C34.8877 19.5158 35.0138 19.5216 35.0138 19.5216C35.0138 19.5216 34.2201 20.9968 34.2231 21.8682C34.2265 22.8205 33.5977 23.3511 33.5977 23.3511L33.0991 22.912L32.6005 23.3511C32.6005 23.3511 31.9718 22.8205 31.9751 21.8682C31.9782 20.9968 31.1845 19.5216 31.1845 19.5216C31.1845 19.5216 31.3106 19.5158 31.4318 19.6225C31.6433 19.8088 32.4395 20.5976 32.4395 20.5976L33.0991 21.2099ZM37.768 21.2099L38.4276 20.5976C38.4276 20.5976 39.2238 19.8088 39.4353 19.6225C39.5565 19.5158 39.6826 19.5216 39.6826 19.5216C39.6826 19.5216 38.8889 20.9968 38.892 21.8682C38.8953 22.8205 38.2666 23.3511 38.2666 23.3511L37.768 22.912L37.2694 23.3511C37.2694 23.3511 36.6406 22.8205 36.644 21.8682C36.647 20.9968 35.8533 19.5216 35.8533 19.5216C35.8533 19.5216 35.9794 19.5158 36.1006 19.6225C36.3121 19.8088 37.1083 20.5976 37.1083 20.5976L37.768 21.2099ZM32.5419 20.4865C32.2101 20.1788 31.8089 19.8064 31.5725 19.5866C31.5178 19.5359 31.4875 19.4641 31.4893 19.3895C31.4911 19.3149 31.5249 19.2447 31.582 19.1967C31.6398 19.1464 31.7152 19.1252 31.7893 19.1365C31.8635 19.1478 31.9292 19.1904 31.9697 19.2535L32.6364 20.2866C32.5928 20.3456 32.5603 20.4133 32.5419 20.4865ZM41.8795 20.4865C41.5478 20.1788 41.1465 19.8064 40.9101 19.5866C40.8554 19.5359 40.8251 19.4641 40.8269 19.3895C40.8288 19.3149 40.8625 19.2447 40.9197 19.1967C40.9775 19.1464 41.0529 19.1252 41.127 19.1365C41.2011 19.1478 41.2668 19.1904 41.3073 19.2535L41.974 20.2866C41.9305 20.3456 41.898 20.4133 41.8795 20.4865ZM27.8731 20.4865C27.5413 20.1788 27.14 19.8064 26.9037 19.5866C26.8489 19.5359 26.8186 19.4641 26.8205 19.3895C26.8223 19.3149 26.8561 19.2447 26.9132 19.1967C26.971 19.1464 27.0464 19.1252 27.1205 19.1365C27.1946 19.1478 27.2603 19.1904 27.3009 19.2535L27.9675 20.2866C27.924 20.3456 27.8915 20.4133 27.8731 20.4865ZM37.2107 20.4865C36.879 20.1788 36.4777 19.8064 36.2413 19.5866C36.1866 19.5359 36.1563 19.4641 36.1581 19.3895C36.1599 19.3149 36.1937 19.2447 36.2508 19.1967C36.3086 19.1464 36.384 19.1252 36.4582 19.1365C36.5323 19.1478 36.598 19.1904 36.6385 19.2535L37.3052 20.2866C37.2617 20.3456 37.2291 20.4133 37.2107 20.4865ZM23.2042 20.4865C22.8725 20.1788 22.4712 19.8064 22.2348 19.5866C22.1801 19.5359 22.1498 19.4641 22.1516 19.3895C22.1535 19.3149 22.1872 19.2447 22.2444 19.1967C22.3022 19.1464 22.3776 19.1252 22.4517 19.1365C22.5258 19.1478 22.5915 19.1904 22.632 19.2535L23.2987 20.2866C23.2552 20.3456 23.2227 20.4133 23.2042 20.4865ZM24.2237 20.2858C24.4581 19.9227 24.727 19.5064 24.8904 19.254C24.9309 19.1913 24.9963 19.149 25.0701 19.1378C25.1439 19.1266 25.2189 19.1477 25.2761 19.1956C25.3357 19.2438 25.3696 19.3144 25.3714 19.3894C25.3731 19.4643 25.3426 19.5364 25.2875 19.5873L24.3185 20.4856C24.3 20.4124 24.2673 20.3448 24.2237 20.2858ZM42.899 20.2858C43.1334 19.9227 43.4023 19.5064 43.5657 19.254C43.6062 19.1913 43.6716 19.149 43.7454 19.1378C43.8192 19.1266 43.8942 19.1477 43.9514 19.1956C44.011 19.2438 44.0449 19.3144 44.0466 19.3894C44.0484 19.4643 44.0179 19.5364 43.9628 19.5873L42.9938 20.4856C42.9753 20.4124 42.9426 20.3448 42.899 20.2858ZM38.2301 20.2858C38.4646 19.9227 38.7335 19.5064 38.8969 19.254C38.9373 19.1913 39.0028 19.149 39.0766 19.1378C39.1503 19.1266 39.2254 19.1477 39.2825 19.1956C39.3421 19.2438 39.3761 19.3144 39.3778 19.3894C39.3796 19.4643 39.349 19.5364 39.294 19.5873L38.325 20.4856C38.3064 20.4124 38.2738 20.3448 38.2301 20.2858ZM33.5613 20.2858C33.7958 19.9227 34.0647 19.5064 34.2281 19.254C34.2685 19.1913 34.334 19.149 34.4077 19.1378C34.4815 19.1266 34.5565 19.1477 34.6137 19.1956C34.6733 19.2438 34.7072 19.3144 34.709 19.3894C34.7108 19.4643 34.6802 19.5364 34.6251 19.5873L33.6562 20.4856C33.6376 20.4124 33.605 20.3448 33.5613 20.2858ZM28.8925 20.2858C29.1269 19.9227 29.3958 19.5064 29.5592 19.254C29.5997 19.1913 29.6651 19.149 29.7389 19.1378C29.8127 19.1266 29.8877 19.1477 29.9449 19.1956C30.0045 19.2438 30.0384 19.3144 30.0402 19.3894C30.0419 19.4643 30.0114 19.5364 29.9563 19.5873L28.9874 20.4856C28.9688 20.4124 28.9362 20.3448 28.8925 20.2858ZM37.3647 20.2179C37.1707 19.8394 36.9515 19.4119 36.8177 19.1501C36.7836 19.0837 36.7797 19.0059 36.8069 18.9364C36.8341 18.8669 36.8899 18.8125 36.96 18.7869C37.0315 18.7594 37.1096 18.7654 37.1754 18.8013C37.2412 18.8373 37.2883 18.8998 37.3049 18.9729L37.5597 20.0914C37.4862 20.1201 37.42 20.1634 37.3647 20.2179ZM32.6959 20.2179C32.5019 19.8394 32.2827 19.4119 32.1488 19.1501C32.1148 19.0837 32.1108 19.0059 32.1381 18.9364C32.1653 18.8669 32.221 18.8125 32.2911 18.7869C32.3627 18.7594 32.4408 18.7654 32.5066 18.8013C32.5724 18.8373 32.6195 18.8998 32.636 18.9729L32.8909 20.0914C32.8174 20.1201 32.7512 20.1634 32.6959 20.2179ZM28.0271 20.2179C27.833 19.8394 27.6139 19.4119 27.48 19.1501C27.4459 19.0837 27.442 19.0059 27.4693 18.9364C27.4965 18.8669 27.5522 18.8125 27.6223 18.7869C27.6939 18.7594 27.7719 18.7654 27.8377 18.8013C27.9035 18.8373 27.9507 18.8998 27.9672 18.9729L28.2221 20.0914C28.1485 20.1201 28.0823 20.1634 28.0271 20.2179ZM42.0336 20.2179C41.8395 19.8394 41.6204 19.4119 41.4865 19.1501C41.4524 19.0837 41.4485 19.0059 41.4757 18.9364C41.5029 18.8669 41.5587 18.8125 41.6288 18.7869C41.7003 18.7594 41.7784 18.7654 41.8442 18.8013C41.91 18.8373 41.9572 18.8998 41.9737 18.9729L42.2285 20.0914C42.155 20.1201 42.0888 20.1634 42.0336 20.2179ZM23.3583 20.2179C23.1642 19.8394 22.9451 19.4119 22.8112 19.1501C22.7771 19.0837 22.7732 19.0059 22.8004 18.9364C22.8277 18.8669 22.8834 18.8125 22.9535 18.7869C23.025 18.7594 23.1031 18.7654 23.1689 18.8013C23.2347 18.8373 23.2819 18.8998 23.2984 18.9729L23.5532 20.0914C23.4797 20.1201 23.4135 20.1634 23.3583 20.2179ZM28.6376 20.091C28.7291 19.6897 28.83 19.2478 28.893 18.9731C28.9096 18.9003 28.9566 18.8382 29.0221 18.8025C29.0876 18.7668 29.1653 18.7609 29.2355 18.7864L29.2375 18.7856C29.308 18.8113 29.364 18.866 29.3913 18.9358C29.4186 19.0057 29.4145 19.0839 29.3801 19.1505L28.8328 20.2171C28.7774 20.1628 28.7112 20.1195 28.6376 20.091ZM42.644 20.091C42.7356 19.6897 42.8365 19.2478 42.8995 18.9731C42.9161 18.9003 42.9631 18.8382 43.0286 18.8025C43.0941 18.7668 43.1718 18.7609 43.2419 18.7864L43.244 18.7856C43.3144 18.8113 43.3704 18.866 43.3977 18.9358C43.425 19.0057 43.421 19.0839 43.3866 19.1505L42.8393 20.2171C42.7839 20.1628 42.7176 20.1195 42.644 20.091ZM23.9687 20.091C24.0603 19.6897 24.1612 19.2478 24.2242 18.9731C24.2408 18.9003 24.2878 18.8382 24.3533 18.8025C24.4188 18.7668 24.4965 18.7609 24.5666 18.7864L24.5687 18.7856C24.6391 18.8113 24.6951 18.866 24.7224 18.9358C24.7497 19.0057 24.7457 19.0839 24.7113 19.1505L24.164 20.2171C24.1086 20.1628 24.0423 20.1195 23.9687 20.091ZM33.3064 20.091C33.3979 19.6897 33.4988 19.2478 33.5618 18.9731C33.5784 18.9003 33.6254 18.8382 33.691 18.8025C33.7565 18.7668 33.8342 18.7609 33.9043 18.7864L33.9063 18.7856C33.9768 18.8113 34.0328 18.866 34.0601 18.9358C34.0874 19.0057 34.0833 19.0839 34.049 19.1505L33.5016 20.2171C33.4463 20.1628 33.38 20.1195 33.3064 20.091ZM37.9752 20.091C38.0668 19.6897 38.1677 19.2478 38.2307 18.9731C38.2472 18.9003 38.2943 18.8382 38.3598 18.8025C38.4253 18.7668 38.503 18.7609 38.5731 18.7864L38.5752 18.7856C38.6456 18.8113 38.7016 18.866 38.7289 18.9358C38.7562 19.0057 38.7521 19.0839 38.7178 19.1505L38.1704 20.2171C38.1151 20.1628 38.0488 20.1195 37.9752 20.091ZM42.331 20.0622C42.2751 19.5613 42.2104 18.9815 42.1736 18.6482C42.1653 18.5739 42.189 18.4994 42.2389 18.4436C42.2888 18.3878 42.36 18.3559 42.4349 18.3558C42.5126 18.3544 42.5842 18.3866 42.6343 18.4427C42.6844 18.4988 42.7081 18.5736 42.6996 18.6483L42.5414 20.062C42.5075 20.0557 42.4725 20.0525 42.4368 20.0525C42.4007 20.0525 42.3653 20.0558 42.331 20.0622ZM37.6622 20.0622C37.6063 19.5613 37.5416 18.9815 37.5048 18.6482C37.4964 18.5739 37.5202 18.4994 37.5701 18.4436C37.6199 18.3878 37.6912 18.3559 37.7661 18.3558C37.8438 18.3544 37.9154 18.3866 37.9655 18.4427C38.0155 18.4988 38.0393 18.5736 38.0308 18.6483L37.8726 20.062C37.8387 20.0557 37.8037 20.0525 37.768 20.0525C37.7318 20.0525 37.6965 20.0558 37.6622 20.0622ZM28.3246 20.0622C28.2686 19.5613 28.204 18.9815 28.1671 18.6482C28.1588 18.5739 28.1825 18.4994 28.2324 18.4436C28.2823 18.3878 28.3536 18.3559 28.4284 18.3558C28.5061 18.3544 28.5778 18.3866 28.6278 18.4427C28.6779 18.4988 28.7016 18.5736 28.6931 18.6483L28.5349 20.062C28.501 20.0557 28.466 20.0525 28.4303 20.0525C28.3942 20.0525 28.3588 20.0558 28.3246 20.0622ZM23.6557 20.0622C23.5998 19.5613 23.5351 18.9815 23.4983 18.6482C23.49 18.5739 23.5137 18.4994 23.5636 18.4436C23.6135 18.3878 23.6847 18.3559 23.7596 18.3558C23.8373 18.3544 23.9089 18.3866 23.959 18.4427C24.0091 18.4988 24.0328 18.5736 24.0243 18.6483L23.8661 20.062C23.8322 20.0557 23.7972 20.0525 23.7615 20.0525C23.7254 20.0525 23.69 20.0558 23.6557 20.0622ZM32.9934 20.0622C32.9374 19.5613 32.8728 18.9815 32.8359 18.6482C32.8276 18.5739 32.8514 18.4994 32.9012 18.4436C32.9511 18.3878 33.0224 18.3559 33.0972 18.3558C33.175 18.3544 33.2466 18.3866 33.2966 18.4427C33.3467 18.4988 33.3705 18.5736 33.362 18.6483L33.2038 20.062C33.1698 20.0557 33.1349 20.0525 33.0991 20.0525C33.063 20.0525 33.0277 20.0558 32.9934 20.0622ZM45.7515 16.9196H20.6528L20.5045 16H45.8969L45.7515 16.9196Z" fill="white"/>
</svg>
