<svg width="80" height="80" viewBox="0 0 80 80" fill="none" xmlns="http://www.w3.org/2000/svg">
<path fill-rule="evenodd" clip-rule="evenodd" d="M43.0228 16.2075C54.7799 17.6958 63.9221 27.7752 63.9221 39.9206C63.9221 53.0855 53.1806 63.823 40.0106 63.823C26.8408 63.823 16.0991 53.0855 16.0991 39.9206C16.0991 36.4977 16.8253 33.2389 18.1314 30.2902L19.3674 31.879L19.4393 31.9675C19.4393 31.9675 19.6742 32.2446 19.9535 32.486C20.2089 32.7038 20.5362 32.9001 20.7667 32.9949C20.9427 33.0657 21.1175 33.1266 21.3011 33.1621C22.1103 33.3208 22.9404 33.3113 23.5413 33.2839C24.0193 33.2623 24.36 33.2357 24.36 33.2357C27.4844 33.0899 28.6798 34.4978 29.4925 35.456C30.2377 36.3321 37.5292 46.0434 37.5292 46.0434L41.1545 42.4148C41.1545 42.4148 38.1105 38.535 36.76 36.7957C35.2503 34.8524 34.1566 33.4555 33.4893 32.892C32.0315 31.6636 28.8074 31.518 28.0693 31.3911C28.0693 31.3911 25.3477 31.0585 23.7236 29.3935C23.3412 29.0014 23.0761 28.6551 23.0761 28.6551L20.7438 25.7914C21.3411 24.9803 21.9884 24.208 22.6809 23.4791L25.1962 26.7178C25.687 27.3436 25.9549 27.7066 26.4507 28.2007C27.7135 29.4606 29.4976 29.631 29.4976 29.631C33.2187 30.3006 35.2507 30.4771 36.4301 31.8431C37.8453 33.4811 38.1188 33.8558 39.3016 35.3804C39.7374 35.942 43.1576 40.4123 43.1576 40.4123L46.6705 36.8932C46.6705 36.8932 44.4214 33.9964 43.115 32.2797C42.4758 31.4389 41.4632 30.1266 40.7166 29.5909C39.1772 28.4889 37.8071 28.6525 36.411 28.5047C35.2118 28.3766 34.1056 28.3522 32.6672 27.6677C32.6672 27.6677 32.0452 27.5293 30.7614 25.8761C29.4759 24.2244 29.1156 23.7454 29.1156 23.7454L26.36 20.3142C27.1712 19.7477 28.0189 19.2301 28.8988 18.7657L31.6143 22.2866L32.9704 24.0536C34.9242 26.5473 36.1874 26.576 37.4895 26.7291C39.5553 26.9739 41.5004 26.8432 43.1827 28.1112C44.1562 28.8445 44.665 29.6226 45.3653 30.5243C46.4228 31.885 48.7021 34.8491 48.7021 34.8491L52.218 31.3288C52.218 31.3288 50.1939 28.7134 49.4075 27.7197C49.1466 27.3912 48.6984 26.9749 48.0347 26.5443C46.9856 25.862 45.9383 25.6523 43.2517 25.2558C40.566 24.8597 39.6928 24.3936 38.4238 23.006C37.8172 22.3423 37.4812 21.8714 37.0727 21.345L33.5556 16.9054C34.6523 16.5969 35.7806 16.365 36.9341 16.2158L39.3305 19.5226C40.1348 20.4979 40.8521 21.7677 42.8941 22.6771C45.3514 23.7712 47.2074 23.5147 48.8896 23.9493C48.8896 23.9493 49.3479 24.0608 49.8526 24.2823C50.3879 24.5184 50.7363 24.871 51.0711 25.2487C51.6272 25.8761 52.1143 26.4878 52.2257 26.6318C52.2486 26.6603 54.3114 29.2311 54.3114 29.2311L57.7862 25.7537C57.7862 25.7537 56.984 24.729 56.3476 23.9247C55.9537 23.4271 55.7822 23.2478 55.4516 23.046C55.1902 22.8868 54.8623 22.7283 54.4197 22.6236C53.9144 22.5059 53.2248 22.4185 52.0351 22.3705C48.9022 22.2459 47.7447 21.9968 45.751 19.6101L44.2717 17.8164L43.0228 16.2075Z" fill="white"/>
</svg>
