<svg width="80" height="80" viewBox="0 0 80 80" fill="none" xmlns="http://www.w3.org/2000/svg">
<path fill-rule="evenodd" clip-rule="evenodd" d="M40 49C43.3115 49 46 51.6885 46 55C46 58.3115 43.3115 61 40 61C36.6885 61 34 58.3115 34 55C34 51.6885 36.6885 49 40 49ZM59.3688 47.4694H20.6314C17.7199 44.2209 16 40.2141 16 35.8814C16 31.7982 17.5275 28.0046 20.1402 24.8622H33.4267C28.6687 26.9244 25.4034 31.1541 25.4034 36.0323C25.4034 40.0416 27.6091 43.613 31.0366 45.9028H48.9634C52.3909 43.6128 54.5966 40.0416 54.5966 36.0323C54.5966 31.1541 51.3313 26.9244 46.5733 24.8622H59.8598C62.4724 28.0046 64 31.7982 64 35.8814C64 40.2141 62.28 44.2208 59.3688 47.4694ZM41.4242 41.6073H27.9724C33.084 39.6603 36.6523 35.2695 36.6523 30.1701C36.6523 25.2919 33.3869 21.0621 28.6289 19H41.9154C44.5282 22.1425 46.0556 25.936 46.0556 30.0192C46.0556 34.3518 44.3358 38.3586 41.4242 41.6073Z" fill="white"/>
</svg>
