<svg width="80" height="80" viewBox="0 0 80 80" fill="none" xmlns="http://www.w3.org/2000/svg">
<path fill-rule="evenodd" clip-rule="evenodd" d="M21.9728 57.1385C20.1545 56.6981 18.4018 55.5394 17.037 53.199C14.6329 49.076 16.9463 45.0071 18.5639 42.2216C13.6092 52.5545 20.3051 55.7162 28.2331 48.7572C28.2331 48.7572 37.9412 39.0373 40.6541 36.3211C41.9084 35.0653 43.7771 34.2329 45.6363 34.4494C48.411 34.7726 50.2759 36.3551 51.3979 36.8361C52.134 37.1518 52.8017 36.6904 52.5483 36.0789C52.2903 35.4562 51.7411 34.7919 50.7013 33.7507C47.6171 30.6621 43.8322 27.0606 43.8322 27.0606C41.6314 24.9426 40.7547 23.0143 40.875 21.1194C41.0657 18.1162 43.8554 16.329 45.7377 16.25C44.5942 17.6112 44.6931 18.774 45.363 19.6213C45.363 19.6213 55.933 30.2061 56.1938 30.4672C57.531 31.8063 59.2504 37.3919 54.3612 38.8512C53.7723 39.027 53.1855 39.0157 52.5181 38.8226C50.7787 38.3192 48.1454 37.8404 46.3506 39.6056C43.112 42.7907 32.724 53.2934 31.8188 54.1577C30.9136 55.022 28.1832 57.1694 24.2803 57.3471C25.2151 60.6564 29.7358 60.2211 35.0356 55.5691C35.0356 55.5691 44.7437 45.8492 47.4565 43.1331C48.7109 41.8772 50.5673 41.2332 52.4387 41.2614C53.811 41.2821 54.8101 41.6475 55.5722 42.197C57.1198 43.3129 57.6719 44.3755 57.8946 45.5603C56.0937 44.5152 54.9479 44.6523 53.1531 46.4175C50.5552 48.9726 43.715 55.8505 41.1102 58.4718C41.1242 58.7472 41.2139 58.9949 41.4403 59.168C42.2393 59.7789 44.0772 59.7909 44.9453 58.9218C48.0331 55.8301 52.7184 51.1392 54.4741 49.3814C55.7284 48.1255 57.3561 47.3826 59.2276 47.4109C60.5998 47.4316 61.1138 47.7422 61.8759 48.2916C63.4235 49.4075 63.7772 50.8576 64 52.0424C62.3746 50.8944 61.4823 51.3758 60.1706 52.6658C58.273 54.5321 54.1119 58.705 50.9913 61.8405C49.9059 62.9311 47.0771 64.335 43.8784 63.2018C42.0764 62.5634 40.8576 60.6454 40.0802 59.519C39.8642 60.2975 29.4109 68.5485 23.3758 59.6585C22.7856 58.789 22.3616 57.9904 21.9728 57.1385ZM25.7939 37.3509C25.4921 36.8 25.3204 36.1677 25.3204 35.4955C25.3204 33.3615 27.0505 31.629 29.1815 31.629C31.3125 31.629 33.0426 33.3615 33.0426 35.4955C33.0426 37.6294 31.3125 39.362 29.1815 39.362C28.5103 39.362 27.8788 39.19 27.3286 38.8878C27.6304 39.4388 27.8021 40.0711 27.8021 40.7433C27.8021 42.8773 26.072 44.6098 23.941 44.6098C21.81 44.6098 20.0799 42.8773 20.0799 40.7433C20.0799 38.6093 21.81 36.8768 23.941 36.8768C24.6123 36.8768 25.2437 37.0487 25.7939 37.3509Z" fill="white"/>
</svg>
