<svg width="80" height="80" viewBox="0 0 80 80" fill="none" xmlns="http://www.w3.org/2000/svg">
<path d="M47.8103 63.9992H63.5V24.1236C58.014 11.1589 38.5335 16.358 37.1418 21.6171C41.9597 18.9262 45.9696 18.3821 47.8103 22.6523V63.9992Z" fill="white"/>
<path d="M32.1897 16.0007H16.5V55.8764C21.986 68.8411 41.4665 63.642 42.8581 58.3829C38.0401 61.0738 34.0304 61.6179 32.1897 57.3475V16.0007Z" fill="white"/>
<path d="M47.6847 39.9999C47.6847 44.2042 44.2326 47.6332 39.9999 47.6332C35.7674 47.6332 32.3152 44.2042 32.3152 39.9999C32.3152 35.7958 35.7674 32.3667 39.9999 32.3667C44.2326 32.3667 47.6847 35.7958 47.6847 39.9999Z" fill="white"/>
</svg>
