<svg width="80" height="80" viewBox="0 0 80 80" fill="none" xmlns="http://www.w3.org/2000/svg">
<path fill-rule="evenodd" clip-rule="evenodd" d="M31.1109 59.7199C31.229 59.6337 31.3452 59.5453 31.4584 59.4531C31.6995 59.2566 31.9282 59.0445 32.1395 58.8162C32.2379 58.7099 32.3325 58.6002 32.4229 58.4869C32.4952 58.3963 32.5646 58.3031 32.6333 58.2095C32.7498 58.0507 32.8626 57.8889 32.9714 57.7245C33.276 57.2643 33.5501 56.784 33.7937 56.2887C33.9108 56.0507 34.0203 55.8091 34.1238 55.5649C34.1443 55.5162 34.1646 55.4673 34.1846 55.4184C34.1913 55.4021 34.2045 55.3694 34.2045 55.3694C34.3989 55.569 34.5976 55.7642 34.8012 55.9544C35.3244 56.443 35.8768 56.8999 36.4512 57.3266C36.6643 57.4849 36.8804 57.639 37.0994 57.7891C37.2189 57.871 37.3389 57.9522 37.4607 58.0306C37.6244 58.1361 37.7913 58.2367 37.9607 58.3328C38.3363 58.5458 38.7241 58.7369 39.1192 58.9107C39.2825 58.9825 39.4473 59.0509 39.6128 59.1176C39.6687 59.1397 39.7247 59.1618 39.7808 59.1837C38.9629 60.9821 37.5448 62.5334 36.0993 63.75C34.2027 62.5681 32.3946 61.21 31.1109 59.7199ZM20.1528 51.6178C20.2662 51.6614 20.3802 51.7025 20.4956 51.74C20.7383 51.8186 20.9861 51.8824 21.2374 51.9271C21.3529 51.9478 21.4691 51.9644 21.5858 51.9767C21.6926 51.9879 21.7997 51.9953 21.9069 52.0014C22.0495 52.0096 22.1923 52.0148 22.3351 52.017C22.7884 52.0242 23.2422 52.0014 23.6924 51.9484C23.8879 51.9253 24.0824 51.8959 24.2763 51.8622C24.3591 51.8472 24.359 51.8472 24.4417 51.8315C24.3995 52.0457 24.3609 52.2603 24.328 52.4761C24.256 52.9493 24.2083 53.4261 24.1842 53.9041C24.171 54.1652 24.1649 54.4265 24.1658 54.6879C24.1664 54.891 24.171 55.0938 24.1859 55.2965C24.2183 55.7372 24.2919 56.1731 24.3919 56.6031C24.4062 56.6631 24.4209 56.7229 24.436 56.7827C24.5621 56.7654 24.6878 56.746 24.8129 56.7224C25.0781 56.6722 25.3403 56.6057 25.5962 56.5193C25.7149 56.4793 25.8323 56.435 25.9478 56.3863C26.0402 56.3472 26.1315 56.3051 26.2223 56.2625C26.3488 56.2031 26.4742 56.1414 26.5983 56.0773C27.1759 55.7791 27.7255 55.4294 28.244 55.0372C28.3054 54.9905 28.3664 54.9432 28.427 54.8954C28.4874 54.8473 28.5474 54.7988 28.6071 54.7498C28.6803 55.013 28.7587 55.2747 28.845 55.5338C29.0355 56.106 29.2595 56.6669 29.5141 57.2134C29.5993 57.3965 29.688 57.5779 29.7801 57.7577C29.8359 57.8667 29.8924 57.9756 29.9517 58.0828C30.0279 58.2209 30.1082 58.3567 30.1922 58.4901C30.4272 58.8635 30.6909 59.2172 30.9722 59.5568C31.0181 59.6114 31.0644 59.6659 31.1109 59.7199C29.7875 60.6706 28.1477 61.2287 26.6257 61.5448C25.6845 60.0376 24.8459 58.3854 24.436 56.7827C23.5641 56.8951 22.6481 56.846 21.7584 56.6993C21.2163 56.6113 20.6805 56.4877 20.1681 56.343C19.9591 54.7887 19.8854 53.1114 20.1528 51.6178ZM39.7808 59.1837C39.8526 59.0234 39.9212 58.8616 39.9838 58.6975C40.1173 58.3481 40.2272 57.9894 40.3081 57.6241C40.3485 57.4419 40.3817 57.2581 40.4071 57.0732C40.43 56.9066 40.446 56.739 40.4603 56.5714C40.4783 56.3611 40.4917 56.1505 40.5005 55.9397C40.5277 55.2942 40.5123 54.6468 40.4538 54.0033C40.4278 53.717 40.3927 53.4316 40.3502 53.1473C40.3378 53.0667 40.3248 52.9861 40.3114 52.9057L40.381 52.9245L40.4509 52.9433C40.7849 53.0316 41.1205 53.1133 41.4579 53.1871C42.3091 53.3735 43.17 53.514 44.0353 53.6151C44.342 53.6509 44.6492 53.6818 44.9568 53.7079C45.16 53.7252 45.3634 53.7413 45.567 53.7527C45.8208 53.767 46.075 53.7744 46.3291 53.7757C46.9138 53.7787 47.4985 53.7495 48.0806 53.6956C48.3536 53.6703 48.6258 53.6388 48.8978 53.604C49.3328 56.0194 48.8979 58.5891 48.1644 60.8508C46.9606 60.7507 45.7715 60.6126 44.6277 60.4261C42.8766 60.1423 41.2258 59.7422 39.7808 59.1837ZM28.9871 54.4179C29.2157 54.2087 29.4352 53.9897 29.6474 53.7636C29.9113 53.4825 30.1641 53.1907 30.4048 52.8894C30.5956 52.6503 30.7791 52.4052 30.9508 52.1519C31.1104 51.9164 31.2603 51.6739 31.3851 51.4179C31.3981 51.3903 31.4109 51.3627 31.4233 51.3349C31.5263 51.6013 31.6531 51.8578 31.7878 52.1094C31.9551 52.4219 32.1364 52.727 32.3271 53.0257C32.5742 53.4127 32.8378 53.7893 33.1188 54.1523C33.3409 54.4393 33.5741 54.7176 33.8218 54.9825L33.7219 55.2287L33.7025 55.2758C33.5915 55.5432 33.473 55.8074 33.3452 56.0672C33.1185 56.528 32.8646 56.9753 32.583 57.4046C32.4699 57.5771 32.3524 57.7467 32.2304 57.913C32.1321 58.0468 32.0318 58.1791 31.9241 58.3055C31.7257 58.5384 31.5074 58.7525 31.2764 58.9528C31.2468 58.978 31.2173 59.0033 31.1872 59.028C30.9291 58.7043 30.692 58.3624 30.4828 58.005C30.3916 57.8492 30.3072 57.6897 30.225 57.5291C30.1277 57.3392 30.0344 57.1473 29.9449 56.9537C29.7217 56.47 29.5231 55.9749 29.3514 55.4705C29.266 55.2197 29.1881 54.9664 29.1155 54.7115L29.0674 54.5385L28.9871 54.4179ZM34.4061 54.8599L34.4086 54.8529C34.549 54.4568 34.6702 54.0539 34.7712 53.6458C34.9374 52.9746 35.0489 52.2894 35.0989 51.5995C35.1206 51.3004 35.1297 51.001 35.1285 50.7011C35.128 50.6517 35.1273 50.6023 35.1265 50.5528C35.4426 50.763 35.7635 50.9657 36.0911 51.1575C36.5933 51.4514 37.1101 51.7204 37.64 51.9605C38.1862 52.208 38.746 52.4247 39.3157 52.6114C39.4695 52.6618 39.6241 52.7098 39.7793 52.7557L39.8282 53.0476L39.8376 53.1059C39.8779 53.3598 39.912 53.6147 39.9386 53.8704C40.007 54.5302 40.0284 55.1949 40.0034 55.8577C39.9942 56.1021 39.9786 56.3463 39.9568 56.5898C39.9382 56.7974 39.9154 57.0044 39.8801 57.2097C39.8026 57.6621 39.6763 58.1064 39.5108 58.5341L39.4776 58.5201C39.3212 58.453 39.1656 58.3841 39.0116 58.3117C38.69 58.1608 38.3745 57.9968 38.0682 57.8166C37.9544 57.7498 37.842 57.6808 37.7311 57.6094C37.595 57.5216 37.461 57.4305 37.3277 57.3386C37.0626 57.1556 36.8017 56.9665 36.5456 56.7712C35.8894 56.2704 35.2653 55.7279 34.683 55.1425C34.5902 55.0487 34.498 54.9544 34.4061 54.8599ZM24.9746 51.7144C25.4761 51.5878 25.9672 51.4188 26.4446 51.2204C26.6867 51.1197 26.9255 51.0108 27.1598 50.8929C27.4788 50.7324 27.789 50.5549 28.0842 50.3535C28.1281 50.3229 28.128 50.323 28.1716 50.2919C28.1363 50.5807 28.1247 50.8717 28.1243 51.1626C28.1238 51.4959 28.1381 51.8293 28.1628 52.1616C28.1914 52.546 28.2342 52.9292 28.2924 53.3102C28.3389 53.615 28.3956 53.918 28.4658 54.218L28.2549 54.3913C28.0603 54.55 27.861 54.7026 27.6562 54.8479C27.2703 55.1217 26.8666 55.3704 26.4481 55.5909C26.3038 55.667 26.1579 55.7396 26.0103 55.8088C25.8815 55.8692 25.752 55.9277 25.6192 55.9788C25.3595 56.0786 25.0904 56.1558 24.8177 56.2108L24.8166 56.2053C24.7511 55.8748 24.7027 55.5413 24.6808 55.2049C24.6695 55.0322 24.6663 54.8592 24.6657 54.6862C24.6651 54.4966 24.6683 54.3068 24.6753 54.1173C24.6914 53.6843 24.7274 53.252 24.7839 52.8224C24.8116 52.6124 24.8448 52.4033 24.8816 52.1947C24.8924 52.1358 24.9034 52.077 24.9146 52.0181L24.9746 51.7144ZM31.7234 50.7245C32.1532 49.7715 32.4213 48.7806 32.5049 47.7976C33.0162 48.6587 33.7309 49.4582 34.6198 50.17L34.6278 50.6339C34.6291 50.7523 34.6291 50.8708 34.6268 50.9893C34.6211 51.2774 34.6038 51.5653 34.5755 51.8521C34.5126 52.4908 34.3954 53.1238 34.2297 53.7437C34.1659 53.9825 34.0944 54.2192 34.0168 54.4539L33.9966 54.431C33.923 54.3469 33.8502 54.2622 33.7789 54.1763C33.5804 53.937 33.3912 53.69 33.2099 53.4375C33.0041 53.1507 32.8084 52.8567 32.6231 52.5563C32.4737 52.314 32.331 52.0675 32.1982 51.8156C32.0911 51.6127 31.9902 51.4063 31.9047 51.1932L31.7234 50.7245ZM28.7249 49.8866C29.476 49.293 30.1234 48.5922 30.6336 47.804C30.6405 48.7523 30.8233 49.7211 31.1661 50.6829L30.9584 51.1493L30.9511 51.1655C30.8607 51.3581 30.7522 51.5415 30.6368 51.72C30.5091 51.9177 30.3726 52.1096 30.231 52.2974C30.0266 52.5684 29.8113 52.8312 29.5871 53.0859C29.3641 53.3395 29.1322 53.5853 28.8905 53.8211L28.8888 53.8131C28.7685 53.2082 28.691 52.5952 28.6514 51.9797C28.6353 51.7292 28.6255 51.4781 28.6244 51.227C28.6233 50.9813 28.6306 50.7357 28.6526 50.491C28.6572 50.445 28.6571 50.4451 28.6622 50.3991L28.7249 49.8866ZM54.6892 42.7607C57.0905 44.7479 58.7487 47.5257 59.866 50.3129C56.0817 51.9049 52.2746 53.1644 48.8978 53.604L48.8897 53.559C48.8446 53.3196 48.7919 53.0819 48.7294 52.8465C48.6048 52.378 48.4433 51.9189 48.2418 51.4779C48.1725 51.3261 48.0984 51.1764 48.0196 51.0291C47.9428 50.8857 47.8617 50.7446 47.7794 50.6043C47.6005 50.2991 47.4123 49.9996 47.215 49.7061C46.814 49.1096 46.376 48.5381 45.9044 47.9959C45.6812 47.7392 45.4501 47.4897 45.2128 47.2461C45.1622 47.1945 45.1113 47.1432 45.0602 47.0921C45.4672 46.9869 45.8723 46.8743 46.2749 46.7531C47.1965 46.4759 48.1056 46.1577 49.001 45.8048C49.478 45.6168 49.9512 45.4188 50.4204 45.2118C50.6418 45.1141 50.8628 45.015 51.0819 44.9119C51.3041 44.8074 51.5242 44.6985 51.7423 44.5857C52.6642 44.1088 53.5474 43.5606 54.3986 42.9667C54.4957 42.8986 54.5926 42.8299 54.6892 42.7607ZM44.4919 47.2313L44.7571 47.4968L44.8065 47.5466L44.8557 47.5968C45.0863 47.8333 45.3107 48.0756 45.5275 48.3249C46.0174 48.8883 46.4702 49.4843 46.8814 50.1077C47.0436 50.3536 47.1993 50.6038 47.3483 50.8579C47.4273 50.9927 47.5053 51.1282 47.579 51.266C47.6394 51.3788 47.6968 51.4932 47.7513 51.609C47.9865 52.109 48.1656 52.6339 48.2957 53.1709L48.261 53.1746C48.0363 53.1972 47.8115 53.2176 47.5862 53.2331C47.0804 53.2682 46.5731 53.2826 46.0661 53.2711C45.8917 53.2672 45.7174 53.26 45.5432 53.2496C45.3617 53.2387 45.1803 53.2243 44.9991 53.2088C44.5891 53.174 44.1797 53.1305 43.7716 53.078C43.0066 52.9796 42.2455 52.8492 41.4925 52.6819C41.1866 52.6139 40.8823 52.5393 40.5794 52.4592C40.4646 52.4284 40.3499 52.3975 40.2353 52.3663C40.1668 51.9917 40.0683 51.6224 39.9542 51.2592C39.7703 50.6735 39.5443 50.1009 39.2911 49.5419C39.137 49.2018 38.9725 48.8661 38.7939 48.5383C38.7299 48.421 38.664 48.3046 38.595 48.1902C38.5297 48.0818 38.462 47.9744 38.3857 47.8735C38.3728 47.8568 38.3597 47.8404 38.3461 47.8243L38.4161 47.8289L38.4864 47.8333C38.8245 47.8527 39.1631 47.8631 39.5018 47.8622C40.1264 47.8604 40.7509 47.8244 41.3722 47.7617C42.203 47.6777 43.0288 47.5454 43.8461 47.3748C44.0621 47.3297 44.2773 47.2817 44.4919 47.2313ZM35.0961 49.9318C35.0064 48.7949 34.7324 47.7285 34.2745 46.7934C35.225 47.2771 36.3557 47.6022 37.6329 47.7567L37.9714 48.1561L37.9762 48.1621C37.9824 48.1698 37.9824 48.1698 37.9884 48.1776C38.043 48.2499 38.0919 48.3266 38.1394 48.4038C38.2028 48.5068 38.263 48.6117 38.3215 48.7175C38.4779 48.9999 38.6224 49.2891 38.7589 49.5816C38.9435 49.9774 39.1132 50.3805 39.2649 50.7901C39.4361 51.2528 39.5847 51.7245 39.6927 52.2061L39.6426 52.1904C39.3881 52.1094 39.1352 52.0236 38.8846 51.9309C38.4803 51.7813 38.0821 51.6152 37.6913 51.433C37.2567 51.2303 36.8315 51.0077 36.4164 50.7676C36.1958 50.6398 35.9784 50.5069 35.7631 50.3704C35.6909 50.3243 35.619 50.2778 35.5473 50.231C35.3966 50.1317 35.2462 50.0318 35.0961 49.9318ZM18.4061 45.0028C18.6822 45.3206 18.9797 45.6192 19.3081 45.8827C19.4042 45.9598 19.5027 46.0338 19.6037 46.1045C19.6808 46.1583 19.7594 46.21 19.8384 46.261C19.9616 46.3405 20.0864 46.4175 20.2127 46.4922C20.5834 46.711 20.967 46.9078 21.3614 47.0803C21.5668 47.1702 21.7753 47.2524 21.9858 47.3296C22.0642 47.3576 22.0642 47.3576 22.1428 47.385C21.9994 47.576 21.8604 47.7702 21.7276 47.9688C21.4568 48.374 21.2098 48.795 20.9868 49.2284C20.9016 49.394 20.8199 49.5614 20.7417 49.7304C20.7002 49.8201 20.6593 49.9101 20.6209 50.0013C20.5782 50.1026 20.5382 50.205 20.5007 50.3084C20.366 50.6797 20.2649 51.0618 20.1855 51.4485C20.1743 51.5048 20.1634 51.5612 20.1528 51.6178C18.8771 51.1279 17.6494 50.219 16.5926 49.249C16.9916 47.7794 17.5686 46.2355 18.4061 45.0028ZM22.6357 47.5618C22.7938 47.6097 22.9541 47.6506 23.1156 47.6859C23.3538 47.7381 23.5945 47.7785 23.8362 47.8099C24.1153 47.8462 24.3959 47.8705 24.6769 47.8844C25.0172 47.9012 25.3582 47.9025 25.6986 47.8864C25.7463 47.8839 25.794 47.881 25.8417 47.8779C25.886 47.8747 25.9303 47.8712 25.9746 47.8673L25.9413 47.9215C25.8302 48.1044 25.7238 48.2899 25.6233 48.4788C25.3864 48.9245 25.1802 49.3865 25.0033 49.8592C24.8606 50.2405 24.7369 50.629 24.6316 51.0223C24.6069 51.1143 24.5834 51.2065 24.5609 51.2989L24.2678 51.3547C24.0575 51.393 23.8464 51.4258 23.634 51.4509C23.2058 51.5013 22.7741 51.523 22.343 51.5162C22.2071 51.5141 22.0712 51.5091 21.9355 51.5013C21.8063 51.4939 21.6772 51.4844 21.5488 51.4682C21.2721 51.4332 20.9983 51.372 20.7319 51.2894L20.7331 51.2843C20.8101 50.9624 20.9039 50.6448 21.0246 50.3364C21.0878 50.1747 21.1595 50.0165 21.2334 49.8594C21.3097 49.6975 21.3893 49.5373 21.4722 49.3789C21.6623 49.0158 21.87 48.662 22.0952 48.3197C22.19 48.1756 22.2883 48.0339 22.3888 47.8938C22.4392 47.8246 22.4392 47.8247 22.4901 47.7557L22.6357 47.5618ZM26.6125 47.7842C27.4956 47.6334 28.3447 47.3364 29.1205 46.8947C28.6948 47.7243 28.4064 48.6449 28.2544 49.6188L27.8409 49.9128C27.4689 50.1719 27.0688 50.3885 26.6582 50.5794C26.1588 50.8116 25.6417 51.0052 25.1128 51.1585L25.1145 51.1521C25.2556 50.6306 25.4274 50.1179 25.6362 49.6195C25.7732 49.2925 25.9255 48.9719 26.0937 48.66C26.1712 48.5163 26.2523 48.375 26.3362 48.235C26.4276 48.0843 26.5199 47.9342 26.6125 47.7842ZM25.729 44.8284C26.5609 45.1562 27.4246 45.3278 28.2866 45.3236C27.5472 45.8579 26.8875 46.5424 26.3271 47.3342L25.8904 47.3719L25.8493 47.3751C25.6025 47.3931 25.3549 47.3991 25.1074 47.3964C24.85 47.3936 24.5927 47.3814 24.3363 47.3597C24.0654 47.3369 23.7952 47.3034 23.5274 47.2565C23.3436 47.2243 23.1604 47.1863 22.9799 47.1385L22.9854 47.132C23.082 47.0191 23.1802 46.9076 23.2808 46.7983C23.5207 46.5379 23.7729 46.2886 24.0371 46.053C24.2792 45.837 24.5312 45.6323 24.7929 45.4408C24.9212 45.3469 25.052 45.2568 25.1845 45.1691C25.234 45.1368 25.2836 45.1049 25.3334 45.0733C25.4649 44.9911 25.5969 44.9096 25.729 44.8284ZM39.2856 43.9596L39.8168 44.1702C39.9803 44.2363 40.1427 44.3046 40.3036 44.3769C40.6601 44.5368 41.0095 44.7125 41.3509 44.9025C42.0362 45.2838 42.6897 45.722 43.3064 46.2066C43.5575 46.4037 43.8019 46.609 44.041 46.8206L44.0157 46.8262C43.019 47.0437 42.0105 47.2077 40.9937 47.2938C40.4972 47.3359 39.9988 47.3599 39.5004 47.3613C39.2409 47.362 38.9815 47.3557 38.7223 47.3442C38.6536 47.3408 38.5848 47.3372 38.5161 47.3333C38.3339 47.322 38.1517 47.31 37.9696 47.2978C37.2353 46.3337 36.3761 45.5509 35.4326 44.9955C36.6267 44.8938 37.9275 44.5457 39.2856 43.9596ZM22.334 42.455L22.3501 42.4722C22.6368 42.7753 22.9398 43.063 23.2591 43.3314C23.5966 43.6152 23.9523 43.8775 24.3253 44.1126C24.4973 44.2211 24.6731 44.3231 24.8519 44.4199C24.905 44.4483 24.9583 44.4762 25.0119 44.5038C25.0653 44.5308 25.1189 44.5575 25.1728 44.5838L25.12 44.6163C24.9434 44.7267 24.7698 44.8416 24.6002 44.9625C24.2008 45.2471 23.8223 45.561 23.466 45.8982C23.1789 46.1699 22.9062 46.4567 22.6483 46.7563C22.588 46.8264 22.5287 46.8972 22.4701 46.9686L22.2303 46.8852C22.0298 46.8135 21.8312 46.737 21.6354 46.6533C21.259 46.4923 20.8927 46.3079 20.5384 46.1027C20.3933 46.0185 20.2502 45.9309 20.1092 45.8399C19.9817 45.7576 19.8562 45.6727 19.7352 45.581C19.5241 45.421 19.3267 45.2445 19.1389 45.0579C19.1086 45.0273 19.0785 44.9967 19.0487 44.9657C19.2417 44.7116 19.4508 44.4695 19.6802 44.2476C19.8046 44.1272 19.9357 44.0143 20.0691 43.9041C20.2168 43.7821 20.3676 43.6639 20.5214 43.5496C20.8233 43.3253 21.1364 43.1161 21.4596 42.9239C21.6306 42.8222 21.8045 42.7259 21.9804 42.6331C22.0556 42.5943 22.0555 42.5943 22.131 42.556L22.334 42.455ZM45.6159 39.7814L46.0993 39.8574L46.1824 39.8708C46.5743 39.9353 46.9646 40.0086 47.3529 40.0925C48.2691 40.2902 49.1735 40.5426 50.0605 40.846C50.4024 40.963 50.7418 41.0877 51.0783 41.2198C51.2422 41.2841 51.4059 41.3495 51.5678 41.4191C51.718 41.4835 51.8667 41.5513 52.0138 41.6224C52.4037 41.811 52.7821 42.0228 53.1476 42.2553C53.3299 42.3713 53.5087 42.4927 53.6847 42.6181C53.7397 42.6578 53.7945 42.6977 53.849 42.7379L53.8262 42.7535L53.7689 42.7923C53.0239 43.2947 52.2541 43.7605 51.4545 44.1708C51.2611 44.27 51.0661 44.366 50.8694 44.4585C50.6539 44.5598 50.4366 44.6573 50.2188 44.7534C49.8164 44.931 49.411 45.1018 49.0027 45.2653C48.2304 45.5745 47.4476 45.8577 46.6552 46.1109C46.2536 46.2391 45.8495 46.359 45.4432 46.4717C45.3304 46.5027 45.2174 46.5331 45.1042 46.5631C44.9482 46.604 44.792 46.6444 44.6359 46.6847C44.6038 46.6549 44.5715 46.6251 44.5391 46.5956C44.1428 46.2339 43.7292 45.8915 43.2994 45.5707C42.6049 45.0525 41.8677 44.5908 41.0946 44.1996C40.7648 44.0327 40.4284 43.8801 40.0868 43.7392C40.0306 43.7165 39.9743 43.6939 39.9179 43.6716C40.202 43.5346 40.4831 43.3919 40.7605 43.2418C41.4869 42.8491 42.1896 42.4127 42.8694 41.9439C43.6469 41.4077 44.3949 40.8289 45.1147 40.2172C45.2834 40.0737 45.4504 39.9284 45.6159 39.7814ZM18.4061 45.0028C17.4261 43.8619 16.6306 42.3158 16 40.7622C16.9779 39.5193 18.1835 38.2827 19.5183 37.5103L19.5076 37.4677C19.0575 35.6634 18.9467 33.488 19.0065 31.339C19.5968 31.0509 20.2168 30.7916 20.8565 30.5753C21.9099 30.223 23.0016 30.0013 24.0606 30.0201C23.9437 30.6701 23.8571 31.3258 23.8258 31.9859C23.818 32.1493 23.8136 32.3129 23.8129 32.4765C23.8123 32.6231 23.8151 32.7697 23.8186 32.9164C23.8242 33.155 23.8335 33.3936 23.8466 33.632C23.8967 34.5445 24.004 35.4535 24.1787 36.3506C24.1973 36.4443 24.2165 36.5379 24.2363 36.6312C23.9888 36.6114 23.7408 36.5996 23.4925 36.5974C22.9724 36.5927 22.452 36.6279 21.9371 36.7017C21.7626 36.7267 21.5887 36.7562 21.4156 36.7899C21.3157 36.8095 21.2159 36.8298 21.1168 36.8534C21.0072 36.8796 20.8986 36.9096 20.791 36.9431C20.5162 37.0286 20.2486 37.1367 19.9892 37.2611C19.865 37.3206 19.743 37.3844 19.6222 37.4505C19.5701 37.4796 19.5702 37.4796 19.5183 37.5089C19.6452 38.0022 19.8004 38.4881 20.0013 38.9564C20.0592 39.0914 20.1207 39.2247 20.1863 39.3561C20.2356 39.4548 20.2872 39.5524 20.3394 39.6497C20.4201 39.7997 20.5034 39.9485 20.5892 40.0958C20.8375 40.5215 21.1076 40.9346 21.3998 41.3313C21.5494 41.5344 21.7054 41.7323 21.8659 41.9268C21.9068 41.9755 21.9444 42.0208 21.9859 42.0689C21.7738 42.1744 21.5644 42.2849 21.3589 42.4028C20.9263 42.6511 20.5101 42.928 20.1133 43.2302C19.9784 43.3331 19.8457 43.4388 19.7153 43.5474C19.6398 43.6102 19.5648 43.6736 19.4917 43.7391C19.4107 43.8119 19.3318 43.8868 19.255 43.9639C18.979 44.2409 18.7318 44.5443 18.5041 44.862C18.4711 44.9087 18.4384 44.9556 18.4061 45.0028ZM26.2912 41.523C26.8763 42.3225 27.5561 42.9739 28.312 43.444C27.428 43.5488 26.5443 43.8403 25.7001 44.284L25.3397 44.1081L25.2892 44.083L25.2389 44.0576C24.9834 43.9259 24.7345 43.7824 24.4933 43.6258C23.8848 43.2305 23.3269 42.7598 22.8208 42.2399L22.8592 42.2242C23.0918 42.1297 23.3274 42.043 23.5664 41.966C24.1135 41.79 24.6769 41.6627 25.2476 41.594C25.3755 41.5785 25.5041 41.5697 25.6325 41.5606C25.7224 41.5546 25.8124 41.5491 25.9024 41.5439L26.2912 41.523ZM38.6123 40.0155L39.1891 39.9132C39.3958 39.877 39.6027 39.8415 39.8099 39.8079C39.971 39.7817 40.1323 39.7563 40.294 39.7343C40.4566 39.7122 40.62 39.6945 40.7833 39.678C42.1658 39.5395 43.5629 39.5568 44.9439 39.7045L44.8875 39.753C44.5717 40.0224 44.2517 40.2868 43.9253 40.5434C43.021 41.2542 42.0731 41.9112 41.0787 42.4893C40.7166 42.6998 40.3481 42.8985 39.974 43.0868C39.9136 43.1167 39.8532 43.1465 39.7926 43.1761L39.2582 43.4339C38.0033 43.0211 36.7529 42.8348 35.5673 42.8811C36.6303 42.1665 37.6599 41.1998 38.6123 40.0155ZM24.0606 30.0201C24.5033 27.5663 25.5184 24.8106 26.733 22.1188C28.723 22.379 30.8222 23.0145 32.4367 24.3526C34.301 21.6108 36.9577 18.8495 39.844 16.25C41.515 18.2571 42.9759 20.7722 43.4994 23.6753C45.5678 22.4846 47.8978 21.4942 50.3542 20.6688C51.9713 20.1256 53.6397 19.6545 55.32 19.2437C55.1121 23.0076 54.3996 27.0048 52.7703 30.5936C56.6102 30.6728 60.4792 31.8024 64 33.3391C61.1883 36.9596 58.0343 40.3492 54.6892 42.7607L54.6457 42.7248L54.602 42.6891C54.3539 42.4884 54.0995 42.2955 53.8375 42.1133C53.374 41.7908 52.8885 41.5001 52.384 41.2467C52.1975 41.1531 52.0084 41.0644 51.8171 40.9812C51.6333 40.9013 51.4472 40.8267 51.2607 40.7535C50.889 40.6075 50.5137 40.4704 50.1354 40.3425C49.3412 40.074 48.5334 39.8457 47.7159 39.6599C47.3467 39.5759 46.9755 39.5014 46.6029 39.4344C46.5178 39.4194 46.4327 39.4047 46.3476 39.3904C46.2627 39.3764 46.1779 39.3628 46.0929 39.3494L46.1638 39.2836C46.4999 38.9698 46.8303 38.6502 47.1541 38.3237C47.9084 37.5628 48.6281 36.7677 49.3134 35.9439C49.6377 35.5541 49.9542 35.1578 50.263 34.7556C50.4087 34.5658 50.5533 34.3752 50.6941 34.1817C50.8427 33.9775 50.9871 33.7702 51.1274 33.5602C51.5114 32.9855 51.8645 32.3902 52.1879 31.7792C52.3505 31.4721 52.505 31.1609 52.6533 30.8466C52.6927 30.7625 52.7317 30.678 52.7703 30.5936L52.7029 30.5923L52.6356 30.5912C52.2774 30.5863 51.9192 30.5896 51.5612 30.6035C50.8718 30.6302 50.1838 30.6939 49.5018 30.798C49.2384 30.8382 48.976 30.8844 48.7148 30.9368C48.4756 30.9848 48.2375 31.0381 47.9997 31.0927C47.5578 31.1943 47.1177 31.3041 46.6798 31.4221C45.8054 31.6578 44.9399 31.9266 44.0867 32.2303C43.693 32.3706 43.3023 32.5187 42.9141 32.6734C42.8262 32.7088 42.7385 32.7444 42.6508 32.7802C42.5639 32.8162 42.4771 32.8522 42.3904 32.8887L42.4182 32.8048C42.548 32.4093 42.6698 32.0113 42.7818 31.6104C43.0437 30.6728 43.2552 29.721 43.4155 28.7607C43.4819 28.3629 43.5395 27.9637 43.5883 27.5633C43.6125 27.3644 43.6354 27.1651 43.6532 26.9655C43.6715 26.7603 43.6845 26.5546 43.6922 26.3488C43.7134 25.7793 43.6939 25.2086 43.6359 24.6419C43.6045 24.3359 43.5614 24.0314 43.5088 23.7284C43.5057 23.7107 43.5025 23.693 43.4994 23.6753C43.2252 23.8349 42.953 23.9977 42.6841 24.1661C42.1385 24.5078 41.6053 24.8698 41.0898 25.2557C40.846 25.4382 40.6062 25.6261 40.3711 25.8197C40.2014 25.9594 40.0348 26.1027 39.8685 26.2464C39.6113 26.4685 39.3568 26.6938 39.1052 26.9224C38.387 27.5749 37.6923 28.2536 37.0262 28.9597C36.7331 29.2704 36.446 29.5868 36.1641 29.9079C36.0859 29.9975 36.008 30.0875 35.9304 30.1777C35.854 30.2672 35.778 30.357 35.7024 30.447L35.6858 30.3795C35.6072 30.0642 35.521 29.751 35.4252 29.4405C35.2059 28.7296 34.9397 28.0331 34.6255 27.3588C34.4978 27.0847 34.3622 26.8144 34.2185 26.5484C34.1482 26.4182 34.0767 26.2885 34.001 26.1615C33.9313 26.0446 33.8581 25.9298 33.7814 25.8173C33.5631 25.4969 33.317 25.1957 33.0478 24.9168C32.8917 24.7551 32.7278 24.6015 32.5578 24.4546C32.5177 24.4202 32.4773 24.3862 32.4367 24.3526C32.2867 24.5748 32.1392 24.7985 31.9961 25.0251C31.6796 25.5262 31.382 26.0395 31.1101 26.5663C30.9951 26.7892 30.8847 27.0145 30.7796 27.2422C30.7021 27.41 30.6275 27.5792 30.5537 27.7487C30.4418 28.0058 30.333 28.2644 30.2276 28.5243C29.937 29.2409 29.6717 29.9679 29.4359 30.7044C29.336 31.0162 29.2419 31.3299 29.1526 31.645C29.126 31.7396 29.0998 31.8345 29.074 31.9294C29.0551 32 29.0362 32.0705 29.0178 32.1412C29.0117 32.1646 28.9995 32.2115 28.9995 32.2115L28.9584 32.1767C28.7521 32.0036 28.5406 31.8369 28.3228 31.6785C27.9007 31.3716 27.4569 31.0944 26.9952 30.8512C26.755 30.7245 26.5099 30.6071 26.2606 30.4994C26.1452 30.4495 26.029 30.4007 25.9111 30.3568C25.8019 30.3159 25.6911 30.279 25.5793 30.246C25.2732 30.1555 24.9588 30.0941 24.6417 30.0582C24.4918 30.0413 24.3415 30.0308 24.1908 30.024C24.1258 30.0217 24.1256 30.0218 24.0606 30.0201ZM25.96 41.0392C25.7308 41.0515 25.5013 41.0645 25.2729 41.0874C25.1357 41.1011 24.999 41.1205 24.8628 41.142C24.2158 41.244 23.5801 41.4152 22.9666 41.6446C22.7969 41.7079 22.629 41.776 22.4629 41.8481L22.3599 41.7363C22.2059 41.5551 22.0561 41.3705 21.9122 41.181C21.6076 40.78 21.3272 40.3605 21.0705 39.9273C20.97 39.7577 20.873 39.5859 20.7797 39.4122C20.6929 39.2508 20.6091 39.0881 20.5328 38.9214C20.3612 38.5468 20.2204 38.1574 20.1056 37.7617L20.1074 37.7608C20.4067 37.6124 20.7158 37.4845 21.0372 37.3921C21.208 37.343 21.3819 37.3062 21.5564 37.2729C21.751 37.2358 21.9467 37.2046 22.1432 37.1791C22.5743 37.1233 23.009 37.0961 23.4436 37.0979C23.6504 37.0988 23.857 37.1068 24.0634 37.1204C24.1605 37.1274 24.2577 37.1348 24.3548 37.1427C24.3774 37.2358 24.4009 37.3288 24.4253 37.4217C24.6728 38.3631 25.0062 39.285 25.4505 40.1518C25.586 40.4159 25.7325 40.674 25.8887 40.9265C25.9123 40.964 25.9361 41.0016 25.96 41.0392C25.9467 41.0186 25.9206 41.0214 25.8848 41.0417L25.96 41.0392ZM26.5554 41.0423L26.3465 40.7148C26.2085 40.4951 26.0782 40.2708 25.9569 40.0413C25.6396 39.4407 25.3796 38.8106 25.1666 38.1658C25.063 37.8522 24.9697 37.535 24.8882 37.215L24.9207 37.2202C25.0931 37.2491 25.2649 37.2816 25.4356 37.3197C25.7928 37.3995 26.1453 37.501 26.4899 37.6245C26.8282 37.7456 27.1589 37.888 27.479 38.0514C27.6279 38.1273 27.774 38.2084 27.9182 38.2928C27.9718 38.3248 27.9717 38.3247 28.0251 38.3571L28.3916 38.5835C28.5134 39.748 28.7927 40.7928 29.2235 41.6808C28.4096 41.2924 27.5052 41.0824 26.5554 41.0423ZM35.8952 37.4151L36.4181 36.9817C36.6834 36.7641 36.9533 36.5525 37.229 36.3483C37.9681 35.8008 38.7429 35.302 39.5414 34.8458C39.9512 34.6118 40.3675 34.3891 40.7891 34.177C40.9698 34.0862 41.1517 33.9976 41.3342 33.9103C41.3975 33.8803 41.4608 33.8503 41.5242 33.8206C41.15 34.7855 40.7182 35.7284 40.2315 36.6417C39.812 37.4288 39.3521 38.1966 38.8248 38.9164C38.7737 38.9849 38.7738 38.9849 38.7221 39.0531L38.305 39.5961C36.9134 39.9416 35.6624 40.4535 34.5959 41.1133C35.1949 40.0203 35.6339 38.7687 35.8952 37.4151ZM28.862 38.3162L28.8372 37.8595C28.8271 37.6512 28.8208 37.4428 28.8196 37.2342C28.8159 36.5895 28.8554 35.9447 28.9276 35.3042C29.0089 34.5829 29.1319 33.8665 29.2879 33.1577L29.2942 33.164C29.4554 33.3259 29.6123 33.4918 29.7635 33.6631C30.0467 33.9842 30.3109 34.3222 30.554 34.6748C30.7946 35.024 31.0146 35.3875 31.2119 35.763C31.3155 35.9603 31.4121 36.1612 31.5036 36.3644L31.7271 36.8705C31.2288 38.1422 30.9359 39.3602 30.8604 40.488C30.3587 39.6467 29.6764 38.9133 28.862 38.3162ZM32.2293 36.8265L32.4748 36.3928L32.5297 36.2948C32.7895 35.8286 33.0489 35.3622 33.3157 34.8999C33.6264 34.3617 33.9456 33.8283 34.2776 33.3031C34.6376 32.7336 35.013 32.1739 35.4114 31.6306C35.4226 31.6154 35.4338 31.6002 35.445 31.5851L35.4463 31.5928C35.5848 32.4079 35.6519 33.2347 35.6695 34.0609C35.6771 34.4232 35.6747 34.7857 35.6606 35.1479C35.6448 35.5528 35.6136 35.9568 35.5606 36.3587C35.5553 36.3961 35.5501 36.4337 35.5446 36.4712C35.509 36.7052 35.4713 36.9389 35.433 37.1725C34.3524 38.1544 33.48 39.1907 32.8426 40.2448C32.8498 39.1034 32.6401 37.9446 32.2293 36.8265ZM39.0663 39.4263C39.139 39.3317 39.2107 39.2368 39.2808 39.1404C39.5362 38.7892 39.7744 38.4255 40.001 38.0551C40.2574 37.636 40.4988 37.2079 40.7279 36.7732C41.2285 35.8234 41.6724 34.8424 42.0531 33.8383C42.0926 33.734 42.1313 33.6294 42.1693 33.5246L42.6694 33.3147L42.7549 33.2791C43.1612 33.1114 43.5705 32.9512 43.9832 32.8002C44.9755 32.4369 45.9854 32.1222 47.0071 31.8532C47.4075 31.7478 47.8097 31.6493 48.2135 31.5576C48.3919 31.5171 48.5704 31.4775 48.7496 31.4408C48.9396 31.4019 49.1303 31.3664 49.3216 31.3342C50.1991 31.1865 51.0887 31.1073 51.9784 31.0928L51.9635 31.1225C51.5694 31.9064 51.1296 32.6669 50.6369 33.3929C50.524 33.5594 50.4084 33.724 50.29 33.8866C50.1518 34.0767 50.0097 34.2639 49.8667 34.4502C49.6049 34.7912 49.3374 35.1279 49.0643 35.4599C48.3481 36.3309 47.5931 37.17 46.7993 37.9708C46.5027 38.2699 46.2003 38.5631 45.8933 38.8514C45.747 38.9881 45.6004 39.1242 45.4537 39.2603C45.1947 39.2271 44.9351 39.1983 44.675 39.1743C43.3085 39.0485 41.9285 39.0479 40.5638 39.1975C40.4514 39.2098 40.339 39.2227 40.2269 39.2379C39.9936 39.2696 39.7612 39.308 39.5289 39.3465C39.3747 39.3726 39.2203 39.399 39.0663 39.4263ZM24.7599 36.6895L24.7137 36.4721L24.7024 36.4179C24.5248 35.552 24.4131 34.6739 24.3569 33.7918C24.3381 33.4964 24.3254 33.2006 24.3184 32.9045C24.3127 32.6588 24.3106 32.4131 24.3188 32.1672C24.3342 31.7053 24.3798 31.2454 24.4428 30.7876C24.4544 30.7067 24.4664 30.6258 24.4789 30.545C24.832 30.5793 25.1815 30.6445 25.52 30.7516C25.705 30.81 25.8846 30.8824 26.0626 30.9593C26.2527 31.0415 26.4402 31.1296 26.6249 31.2233C27.0538 31.4409 27.467 31.6893 27.8615 31.9645C28.0585 32.1019 28.2502 32.2465 28.4378 32.3964C28.4912 32.4395 28.5443 32.483 28.597 32.5269C28.6871 32.6024 28.7769 32.6783 28.8666 32.7544C28.8477 32.835 28.8293 32.9158 28.8113 32.9966C28.6593 33.6805 28.5371 34.3713 28.452 35.0668C28.3741 35.7042 28.3273 36.3457 28.3203 36.9879C28.3173 37.2606 28.3224 37.5331 28.334 37.8055C28.3366 37.8585 28.3393 37.9115 28.3422 37.9645C28.1348 37.8364 27.9231 37.7159 27.706 37.605C27.2055 37.3495 26.6806 37.1428 26.1415 36.9848C25.745 36.8686 25.3409 36.7787 24.9327 36.7148C24.8752 36.7058 24.8176 36.6974 24.7599 36.6895ZM36.0244 36.6394L36.0271 36.6227C36.1027 36.1413 36.1412 35.6544 36.1602 35.1675C36.1802 34.6554 36.1778 34.1423 36.156 33.6303C36.1336 33.1052 36.0909 32.5807 36.0224 32.0595C35.9778 31.7205 35.9224 31.3826 35.8507 31.0483L36.141 30.7028L36.1969 30.6366C36.4649 30.3212 36.738 30.0103 37.0171 29.7048C37.6973 28.9606 38.4102 28.2465 39.1494 27.5611C39.4923 27.2432 39.841 26.9314 40.1949 26.6258C40.3265 26.5122 40.4581 26.3985 40.5915 26.2871C40.7536 26.1518 40.9179 26.0193 41.0844 25.8895C41.4918 25.5722 41.9117 25.271 42.341 24.9842C42.5785 24.8254 42.8192 24.6717 43.0617 24.5208C43.0797 24.5098 43.0977 24.4986 43.1157 24.4876L43.1215 24.5369C43.149 24.7803 43.1703 25.0243 43.1835 25.2689C43.2055 25.6757 43.2062 26.0838 43.1854 26.4908C43.1771 26.6524 43.1654 26.8138 43.1503 26.9749C43.1337 27.1511 43.1133 27.327 43.0919 27.5027C43.0514 27.8354 43.0047 28.1675 42.9517 28.4985C42.8004 29.444 42.5986 30.3814 42.3472 31.3053C42.2322 31.7283 42.1059 32.1481 41.9706 32.565C41.9059 32.7621 41.8406 32.9589 41.7752 33.1558C41.5933 33.2368 41.4123 33.3197 41.2322 33.4044C39.921 34.0222 38.6528 34.7364 37.4622 35.5647C37.0801 35.8305 36.7073 36.1089 36.3427 36.3983C36.2885 36.4418 36.2344 36.4855 36.1805 36.5293C36.1272 36.5729 36.074 36.6168 36.0209 36.6608C36.0266 36.656 36.0275 36.6488 36.0244 36.6394ZM29.4185 32.5876L29.5015 32.268C29.5816 31.9633 29.6664 31.6597 29.7568 31.3579C29.9864 30.5915 30.2495 29.8353 30.5406 29.0903C30.6802 28.7328 30.8264 28.378 30.9787 28.0258C31.1304 27.6746 31.2876 27.326 31.4589 26.984C31.7817 26.3396 32.1455 25.7172 32.5347 25.111L32.5583 25.134C32.6636 25.2377 32.7659 25.3444 32.8643 25.4546C33.0627 25.6773 33.2455 25.9138 33.4105 26.1622C33.5444 26.3638 33.6638 26.5739 33.7788 26.7867C33.8963 27.0044 34.0084 27.2251 34.1149 27.4485C34.4446 28.1399 34.7217 28.8564 34.9475 29.5885C35.0339 29.8683 35.1122 30.1505 35.1841 30.4344C35.226 30.602 35.2672 30.7697 35.3082 30.9374C34.917 31.4417 34.5513 31.9658 34.2007 32.499C33.6113 33.3953 33.0662 34.3196 32.5385 35.2534C32.3556 35.579 32.1755 35.9061 31.9915 36.2311C31.8656 35.946 31.7296 35.6658 31.5808 35.392C31.2552 34.793 30.8742 34.2244 30.4453 33.6949C30.1783 33.3651 29.8927 33.0504 29.5904 32.7529C29.5337 32.6972 29.4764 32.6421 29.4185 32.5876Z" fill="white"/>
</svg>
