<svg width="80" height="80" viewBox="0 0 80 80" fill="none" xmlns="http://www.w3.org/2000/svg">
<path d="M30.1858 32.416V39.2809C36.0284 35.0359 42.2096 33.0655 49.0137 32.9369L49.727 32.9234V39.3708C52.1924 37.4425 54.6578 35.0482 57.1234 32.1047L57.085 16.0667C48.9508 25.8458 40.1383 32.0947 30.1858 32.416Z" fill="white"/>
<path d="M37.2283 57.971C37.2283 61.2917 39.9367 64.0001 43.2574 64.0001C46.5784 64.0001 49.2868 61.2917 49.2868 57.971C49.2868 54.65 46.5784 51.9416 43.2574 51.9416C39.9367 51.9416 37.2283 54.65 37.2283 57.971Z" fill="white"/>
<path d="M49.027 47.6507V33.6368C40.048 33.8066 31.069 37.2413 22.0894 47.9621L22.1278 64.0001C30.262 54.221 39.0748 47.972 49.027 47.6507Z" fill="white"/>
</svg>
