<svg width="80" height="80" viewBox="0 0 80 80" fill="none" xmlns="http://www.w3.org/2000/svg">
<path fill-rule="evenodd" clip-rule="evenodd" d="M23.6499 50.9634C20.5203 47.3519 18.5944 42.6938 18.5034 37.5923C18.2949 25.9178 27.7753 16.2141 39.6205 16.0034L40.0752 16L40.3795 16.0034C52.2242 16.2141 61.7051 25.9178 61.4966 37.5923C61.4056 42.6938 59.4797 47.3519 56.3501 50.9629C56.8858 51.2898 57.3497 51.7992 57.7048 52.5041C58.1082 53.2988 58.0862 54.2422 57.654 55.0059C56.9309 56.3043 56.1172 58.009 55.4137 59.4427C54.9312 60.4252 54.4927 61.2907 54.0571 61.8823C53.5717 62.5409 53.0312 62.9442 52.5007 63.1335C51.1753 63.6974 49.8546 63.9822 48.5392 63.9999C48.4525 64.0008 48.3662 63.9956 48.2809 63.9832C46.3397 63.7084 45.2323 62.8635 44.757 61.7065C43.2049 61.0943 41.6245 60.7622 40.0043 60.7607C40.0043 60.7607 39.9564 60.7607 39.9578 60.7607C38.3477 60.7679 36.7813 61.0995 35.2431 61.706C34.7677 62.8635 33.6603 63.7084 31.7191 63.9832C31.6333 63.9956 31.547 64.0008 31.4608 63.9999C30.1454 63.9822 28.8247 63.6974 27.4993 63.1335C26.9688 62.9442 26.4278 62.5409 25.9429 61.8823C25.5068 61.2907 25.0683 60.4252 24.5863 59.4427C23.8828 58.009 23.0691 56.3043 22.3518 55.0164C21.9128 54.2408 21.8922 53.2974 22.2924 52.5094C22.6489 51.8016 23.1137 51.2907 23.6499 50.9634ZM24.8906 51.2597C21.4586 47.6764 19.3166 42.8754 19.2222 37.5794C19.0204 26.2972 28.1865 16.9233 39.6334 16.7202L40.0805 16.7168L40.3666 16.7202C51.8135 16.9233 60.9796 26.2972 60.7778 37.5794C60.6834 42.8754 58.541 47.6764 55.109 51.2601C55.914 51.3834 56.5978 51.9039 57.0636 52.8281C57.3583 53.4083 57.343 54.0969 57.0253 54.658C56.2969 55.966 55.4765 57.6831 54.7678 59.1277C54.3078 60.0649 53.8937 60.8931 53.4778 61.458C53.0887 61.986 52.6646 62.3191 52.2391 62.4654C50.9975 62.9963 49.7612 63.2668 48.5297 63.283C48.4803 63.2835 48.4309 63.2807 48.382 63.2735C46.622 63.0245 45.6497 62.2651 45.3267 61.1636C43.5906 60.4381 41.8214 60.0453 40.0024 60.0439H39.9545C38.1489 60.052 36.3946 60.4443 34.6728 61.1636C34.3498 62.2651 33.378 63.0245 31.618 63.2735C31.5691 63.2807 31.5197 63.2835 31.4703 63.283C30.2383 63.2668 29.002 62.9963 27.7604 62.4654C27.3354 62.3191 26.9113 61.986 26.5222 61.458C26.1063 60.8931 25.6922 60.0649 25.2317 59.1273C24.523 57.6831 23.7026 55.966 22.9776 54.6637C22.657 54.0974 22.6417 53.4088 22.935 52.8315C23.4017 51.9043 24.086 51.3834 24.8906 51.2597Z" fill="white"/>
<path fill-rule="evenodd" clip-rule="evenodd" d="M39.9503 59.0888C37.8529 59.0983 35.8202 59.5887 33.8272 60.489C33.7391 61.5055 32.958 62.1191 31.483 62.3284C30.3598 62.3131 29.2327 62.0613 28.1004 61.5719C27.3917 61.3583 26.8104 60.1707 26.0926 58.7084C25.3767 57.2494 24.5476 55.5155 23.8121 54.1946C23.6491 53.9065 23.641 53.5562 23.791 53.2613C24.2294 52.3906 24.9487 52.0432 25.7873 52.2549C26.0044 52.3093 26.1879 52.4541 26.291 52.6525C26.4141 52.89 26.5727 53.1958 26.5727 53.1958C27.4698 53.4897 28.3845 53.7268 29.3377 53.8419L29.4556 53.744C29.4297 53.7292 29.4052 53.7115 29.3808 53.6967C23.9568 50.2893 20.3015 44.3538 20.1803 37.5634C19.9876 26.8045 28.7344 17.8707 39.6499 17.6767L40.0869 17.6733C40.1741 17.6738 40.2618 17.6752 40.349 17.6767C51.2651 17.8707 60.0118 26.8045 59.8191 37.5634C59.6979 44.3538 56.0426 50.2893 50.6186 53.6967C50.5942 53.7115 50.5698 53.7292 50.5439 53.744L50.6618 53.8419C51.6149 53.7268 52.5297 53.4897 53.4267 53.1958C53.4267 53.1958 53.5853 52.89 53.7085 52.6525C53.8115 52.4541 53.995 52.3093 54.2121 52.2549C55.0507 52.0432 55.77 52.3906 56.2084 53.2613C56.3584 53.5562 56.3503 53.9065 56.1874 54.1946C55.4518 55.5155 54.6228 57.2494 53.9069 58.7084C53.189 60.1707 52.6078 61.3583 51.8991 61.5719C50.7667 62.0613 49.6397 62.3131 48.5164 62.3284C47.0415 62.1191 46.2604 61.5055 46.1722 60.489C44.1634 59.5815 42.1144 59.0907 39.9997 59.0888H39.9503ZM26.8617 53.9662C26.8617 53.9662 27.3869 55.4104 27.6691 56.1253C28.0347 57.0496 29.0535 59.5122 29.0535 59.5122C29.2921 60.0952 29.7771 60.5358 28.5278 61.191C28.5432 61.235 28.558 61.278 28.5743 61.3358C29.34 61.5858 30.032 61.8219 30.7499 61.809C30.8361 61.7636 30.9238 61.7325 30.9971 61.7019L27.5747 54.6644C27.2148 53.9241 27.118 53.885 26.8617 53.9662ZM53.1378 53.9662C53.1378 53.9662 52.6126 55.4104 52.3303 56.1253C51.9647 57.0496 50.9459 59.5122 50.9459 59.5122C50.7073 60.0952 50.2223 60.5358 51.4716 61.191C51.4563 61.235 51.4414 61.278 51.4251 61.3358C50.6594 61.5858 49.9674 61.8219 49.2496 61.809C49.1633 61.7636 49.0756 61.7325 49.0023 61.7019L52.4247 54.6644C52.7846 53.9241 52.8814 53.885 53.1378 53.9662ZM48.4886 53.1743C46.084 51.873 43.0507 51.3598 39.9997 51.4453L39.8962 51.4429C35.525 51.3392 31.2041 52.4699 28.732 55.3927C28.685 55.776 30.9319 60.0407 31.4025 60.6587C31.611 60.8599 31.6848 60.8876 31.8616 60.9134C33.9341 59.1605 36.9607 58.4183 39.9997 58.4603L40.0711 58.4594C43.0862 58.4302 46.0812 59.1738 48.1379 60.9134C48.3147 60.8876 48.3885 60.8599 48.5969 60.6587C49.0675 60.0407 51.3144 55.776 51.2675 55.3927C50.5161 54.5038 49.5937 53.7813 48.5509 53.2083C48.5342 53.2326 48.4996 53.2704 48.4469 53.3206C48.3094 53.4501 48.1575 53.5705 47.9912 53.6795C47.8235 53.7903 47.6529 53.8783 47.4785 53.9461L47.0448 54.1244C46.8987 54.1684 46.7496 54.2133 46.6001 54.2577C46.4511 54.3041 46.3016 54.3423 46.1516 54.3738C46.1406 54.3767 46.1305 54.3796 46.1209 54.382L45.9594 54.6224C45.8885 54.7351 45.8195 54.8479 45.752 54.9621L45.6417 55.1629C45.5617 55.3019 45.4903 55.4453 45.429 55.5954C45.3672 55.7449 45.3101 55.894 45.2565 56.0431L45.2555 56.0451C45.1875 56.2329 45.1611 56.381 45.1755 56.4905C45.1903 56.6004 45.2522 56.6749 45.3619 56.7146C45.4012 56.7289 45.4386 56.7299 45.4731 56.7179C45.5071 56.706 45.5392 56.6873 45.5684 56.6625C45.5981 56.6376 45.6255 56.6094 45.6499 56.5774C45.6748 56.5449 45.6959 56.5153 45.7131 56.4881C45.7448 56.4431 45.7687 56.4255 45.7855 56.4355C45.8027 56.445 45.8042 56.4699 45.7898 56.5096C45.751 56.5965 45.6993 56.6955 45.6346 56.8068C45.5699 56.9182 45.4975 57.02 45.417 57.1127C45.337 57.2049 45.2526 57.2766 45.1649 57.3272C45.0772 57.3779 44.9905 57.3879 44.9043 57.3569C44.8118 57.3234 44.748 57.2713 44.7135 57.2011C44.679 57.1308 44.6613 57.0525 44.6604 56.9664C44.6599 56.8804 44.6719 56.7939 44.6953 56.7074C44.7193 56.6204 44.7428 56.5459 44.7653 56.4828L44.7663 56.4823C44.8051 56.3839 44.8496 56.2826 44.899 56.1755C44.9488 56.068 44.9972 55.9633 45.0423 55.8591C45.0653 55.8157 45.0758 55.7856 45.0739 55.7698C45.0715 55.754 45.0408 55.7684 44.9809 55.8099C44.8175 55.9304 44.656 56.0331 44.4974 56.121C44.3393 56.2075 44.1692 56.2759 43.9904 56.327C43.7254 56.404 43.4542 56.4422 43.1753 56.4408C42.8969 56.4398 42.6171 56.4087 42.3348 56.3485C42.1163 56.3026 41.8949 56.2434 41.6731 56.1688C41.4502 56.0948 41.2221 56.002 40.9888 55.8926C40.8858 55.8443 40.7961 55.7923 40.7175 55.7387C40.6404 55.6842 40.5776 55.6216 40.5316 55.5485C40.4851 55.4754 40.4545 55.3899 40.4415 55.2919C40.4286 55.1939 40.4386 55.0783 40.4717 54.9445C40.4942 54.8594 40.5263 54.7724 40.5666 54.6835C40.6049 54.5956 40.649 54.5115 40.6974 54.4317C40.7405 54.3605 40.7755 54.3304 40.8005 54.339C40.8244 54.348 40.8254 54.3958 40.8024 54.4799C40.7822 54.5588 40.7765 54.6314 40.7851 54.6983C40.7942 54.7653 40.8225 54.8274 40.8694 54.8862C40.9873 55.0257 41.1287 55.1342 41.2935 55.2116C41.4589 55.2895 41.6251 55.3607 41.7929 55.4247C42.4 55.6623 43.0713 55.7913 43.805 55.8123C43.9535 55.8171 44.0997 55.8099 44.2425 55.7908C44.3867 55.7712 44.5262 55.7339 44.6632 55.6785C44.8726 55.5963 45.048 55.483 45.188 55.3382C45.3284 55.192 45.3638 55.1638 45.4798 54.9703C45.5042 54.9239 45.5315 54.8842 45.5622 54.8513L45.8598 54.5468C45.9106 54.4957 45.9637 54.4455 46.0188 54.3963C46.0093 54.3891 46.0294 54.3605 46.0792 54.3093C46.1439 54.2539 46.2086 54.197 46.2728 54.1383C46.3375 54.0795 46.4099 54.0317 46.4889 53.9968C46.556 53.9691 46.6442 53.9337 46.7554 53.8912C46.8527 53.8539 47.3357 53.6828 47.4794 53.6255C47.7674 53.5093 48.0521 53.3817 48.3353 53.2412L48.4886 53.1743ZM51.6484 60.8178C51.4807 60.7385 51.2325 60.6032 51.2382 60.3112C51.6067 60.2013 52.0749 60.1803 52.2556 60.7667C52.0754 60.899 51.7812 60.8804 51.6484 60.8178ZM28.351 60.8178C28.5187 60.7385 28.7669 60.6032 28.7607 60.3112C28.3927 60.2013 27.9245 60.1803 27.7439 60.7667C27.924 60.899 28.2183 60.8804 28.351 60.8178ZM25.667 52.7022C24.8194 52.435 24.1816 53.0993 24.3517 53.7746L27.5345 60.3256C27.8517 59.9366 28.1651 59.8969 28.4756 59.8783L25.667 52.7022ZM54.3324 52.7022C55.1801 52.435 55.8179 53.0993 55.6478 53.7746L52.465 60.3256C52.1477 59.9366 51.8344 59.8969 51.5238 59.8783L54.3324 52.7022ZM45.6192 58.6099C45.6374 58.5602 45.716 58.4728 45.855 58.3471C45.9939 58.2214 46.0768 58.1636 46.1032 58.1731C46.1895 58.2042 46.258 58.2744 46.3083 58.3839C46.3581 58.4938 46.3691 58.5879 46.3404 58.6673C46.314 58.7399 46.2436 58.8183 46.1291 58.9024C46.0141 58.986 45.9355 59.0204 45.8924 59.0051C45.8722 58.998 45.819 58.9335 45.7313 58.8125C45.7012 58.7719 45.671 58.7313 45.6408 58.6902C45.6182 58.6601 45.6111 58.6329 45.6192 58.6099ZM33.4506 58.6916C33.4482 58.674 33.4817 58.5774 33.5517 58.4006C33.6216 58.2243 33.6672 58.1344 33.6882 58.1311C33.7472 58.1215 33.8224 58.1468 33.9144 58.2071C34.0065 58.2711 34.0577 58.3356 34.0683 58.4016C34.0807 58.478 34.0558 58.5817 33.9945 58.7122C33.9327 58.8393 33.8843 58.9057 33.8498 58.9115C33.832 58.9139 33.8037 58.9034 33.7644 58.8795C33.7247 58.8556 33.6854 58.8302 33.6456 58.8049C33.5996 58.7872 33.557 58.77 33.5167 58.7533C33.4765 58.7361 33.4544 58.7155 33.4506 58.6916ZM32.9661 58.101C32.9618 58.0732 32.9977 57.9643 33.0749 57.7741C33.1516 57.5844 33.2004 57.4873 33.221 57.484C33.2666 57.4773 33.3375 57.4979 33.4348 57.5466C33.5282 57.5958 33.5948 57.646 33.6351 57.6967C33.6715 57.6126 33.7098 57.528 33.7501 57.4434C33.8061 57.3239 33.8411 57.2637 33.855 57.2613C33.9178 57.2513 34.0002 57.2775 34.1028 57.3397C34.2068 57.4085 34.2642 57.4792 34.2757 57.5523C34.2892 57.6355 34.2585 57.7454 34.1837 57.8816C34.1109 58.0073 34.0553 58.0728 34.017 58.079C33.9892 58.0833 33.9413 58.0642 33.8742 58.0216C33.7783 57.9585 33.6998 57.9136 33.6389 57.8878C33.5421 58.1559 33.4539 58.2959 33.3739 58.3088C33.36 58.3108 33.2891 58.2792 33.1607 58.2142C33.0327 58.1492 32.9676 58.1115 32.9661 58.101ZM47.397 54.9163C47.4013 54.9124 47.4056 54.9081 47.41 54.9043C47.4272 54.8881 47.4411 54.878 47.4517 54.8742C47.4622 54.8709 47.467 54.8761 47.4656 54.8904C47.4641 54.9053 47.4497 54.9335 47.4234 54.976C47.2614 55.247 47.11 55.5256 46.9686 55.8128C46.5891 56.5836 46.8651 56.0183 46.6696 56.501C46.6011 56.6893 46.5747 56.8388 46.5891 56.9488C46.6039 57.0582 46.6658 57.1332 46.7755 57.1724C46.8148 57.1868 46.8522 57.1877 46.8862 57.1758C46.9207 57.1638 46.9528 57.1457 46.982 57.1208C47.0117 57.096 47.0391 57.0673 47.064 57.0353C47.0884 57.0028 47.1095 56.9731 47.1267 56.9459C47.1579 56.901 47.1823 56.8833 47.1991 56.8933C47.2164 56.9034 47.2178 56.9277 47.2034 56.9679C47.1646 57.0544 47.1129 57.1538 47.0482 57.2646C46.9835 57.376 46.9111 57.4783 46.8306 57.5705C46.7501 57.6627 46.6663 57.7344 46.5786 57.7856C46.4909 57.8357 46.4041 57.8458 46.3179 57.8147C46.2249 57.7813 46.1617 57.7296 46.1272 57.6594C46.0927 57.5887 46.0749 57.5108 46.0744 57.4243C46.0735 57.3382 46.085 57.2517 46.109 57.1652C46.1329 57.0787 46.1559 57.0037 46.1789 56.9411L46.1871 56.9335C46.2446 56.7762 46.3346 56.5774 46.4564 56.3375C46.7314 55.7951 46.3227 56.577 46.8608 55.5528C46.9073 55.4649 46.9638 55.3808 47.0309 55.3C47.0697 55.2546 47.1172 55.2011 47.1723 55.1409L47.397 54.9163ZM35.9088 55.3669C36.2059 55.3273 36.4939 55.2766 36.7733 55.2145C37.0527 55.1528 37.3277 55.0649 37.5985 54.9507C37.839 54.8484 38.071 54.7289 38.2938 54.5927C38.5161 54.4561 38.7299 54.3112 38.9335 54.1578C39.2206 53.9418 39.4889 53.7153 39.7386 53.4783C39.9877 53.2412 40.2436 53.0028 40.5048 52.7624C40.5824 52.6893 40.6605 52.62 40.7396 52.5545C40.8182 52.4885 40.903 52.4269 40.994 52.37C41.0784 52.3175 41.1383 52.3017 41.1737 52.3227C41.2092 52.3438 41.2106 52.3963 41.1776 52.48C41.1555 52.5435 41.132 52.6095 41.1071 52.6778C41.0822 52.7457 41.053 52.8087 41.0194 52.8675C41.0031 52.8986 40.9849 52.9239 40.9648 52.943C40.9447 52.9621 40.9183 52.9813 40.8857 53.0009C40.8393 53.0257 40.7746 53.0773 40.6902 53.1543C40.6064 53.2317 40.4995 53.3325 40.3692 53.4558C40.2173 53.6011 40.0658 53.7488 39.9149 53.8988C39.7639 54.0489 39.6101 54.197 39.453 54.3428C39.2958 54.4885 39.1362 54.6305 38.9747 54.7676C38.8128 54.9057 38.645 55.0343 38.4711 55.1543C37.7422 55.6646 36.9286 55.9906 36.0305 56.1325L35.4387 56.2128C35.2739 56.2333 35.1345 56.2405 35.019 56.2338C34.8925 56.2252 34.7674 56.2114 34.6428 56.1918C34.5187 56.1722 34.3975 56.1416 34.2805 56.0995C34.235 56.0818 34.1986 56.068 34.1722 56.058C34.1454 56.0479 34.1214 56.0427 34.0999 56.0427C34.0788 56.0427 34.0587 56.0513 34.04 56.068C34.0213 56.0852 33.9973 56.1143 33.9681 56.154C33.9418 56.1903 33.9144 56.2319 33.8862 56.2792C33.8579 56.3265 33.8243 56.3834 33.7851 56.4498C33.7103 56.565 33.6164 56.652 33.5023 56.7108C33.3887 56.7695 33.2623 56.7887 33.1233 56.7681C33.0466 56.7552 32.9766 56.7413 32.9134 56.7265C32.8506 56.7117 32.7792 56.7141 32.7006 56.7337C32.6283 56.7519 32.5593 56.7772 32.4932 56.8087C32.4265 56.8408 32.3628 56.8866 32.3005 56.9464C32.2071 57.0319 32.1457 57.0711 32.116 57.0635C32.0863 57.0558 32.1016 56.9956 32.162 56.8828C32.2305 56.7509 32.3106 56.6228 32.403 56.4976C32.496 56.3729 32.6005 56.2601 32.7165 56.1602C32.7759 56.1077 32.8406 56.0594 32.9101 56.0145C32.9795 55.97 33.0548 55.9447 33.1362 55.939C33.2033 55.9356 33.2704 55.9423 33.3375 55.9605C33.4046 55.9781 33.4726 55.9906 33.5416 55.9973C33.6178 56.0068 33.6854 55.9982 33.7434 55.971C33.8014 55.9442 33.8531 55.9041 33.8982 55.8505C33.9504 55.7961 33.9964 55.7387 34.0371 55.679C34.0774 55.6193 34.1176 55.5595 34.1583 55.4998C34.2168 55.4195 34.2724 55.3655 34.3251 55.3373C34.3778 55.3096 34.4574 55.3067 34.5647 55.3287C34.8072 55.3722 35.0333 55.398 35.2432 55.4056C35.4531 55.4133 35.6755 55.4004 35.9088 55.3669ZM46.1789 54.8904C46.1957 54.8441 46.2738 54.7581 46.4128 54.6324C46.5517 54.5072 46.6346 54.4489 46.6614 54.4584C46.7477 54.4895 46.8158 54.5598 46.8661 54.6697C46.9164 54.7791 46.9269 54.8732 46.8982 54.9526C46.8718 55.0257 46.8019 55.1031 46.6878 55.1853C46.5738 55.2675 46.4952 55.301 46.4521 55.2852C46.4319 55.2785 46.3783 55.214 46.2911 55.0931C46.2594 55.0558 46.2287 55.0166 46.1985 54.9755C46.177 54.9421 46.1708 54.9134 46.1789 54.8904ZM48.5404 52.5822C48.9463 52.7547 50.0393 53.408 49.9339 53.376C49.9895 53.3411 50.1385 53.246 50.1955 53.2107C55.4868 49.9218 59.0596 44.155 59.177 37.5519C59.3639 27.1414 50.9004 18.4977 40.3376 18.3099L39.9997 18.307C39.8871 18.307 39.7745 18.308 39.6619 18.3099C29.099 18.4977 20.6355 27.1414 20.8219 37.5519C20.9398 44.155 24.5127 49.9218 29.8039 53.2107C29.8609 53.246 29.9841 53.3249 30.0402 53.3598C30.0287 53.3239 31.0963 52.7093 31.2995 52.6592C31.1485 52.6276 31 52.5846 30.8553 52.5297C30.3444 52.3361 29.8959 52.0011 29.5241 51.6049C29.4421 51.5175 29.363 51.4267 29.2883 51.3325C29.2121 51.2369 29.1397 51.1385 29.0731 51.0362L28.9965 50.911C28.823 50.857 28.6548 50.7892 28.4933 50.705C28.0572 50.478 27.6854 50.1411 27.3825 49.7569C27.3327 49.6933 27.2843 49.6283 27.2378 49.5619C27.1607 49.452 27.0883 49.3383 27.0212 49.2216C26.9681 49.1289 26.9182 49.0343 26.8737 48.9368L26.7955 48.7576C26.8281 48.7509 26.8597 48.7447 26.8923 48.738C26.6235 48.6138 26.3705 48.457 26.1462 48.2639C25.7734 47.9433 25.4893 47.5304 25.2827 47.0869C25.2487 47.0138 25.2166 46.9392 25.1864 46.8642C25.1366 46.7395 25.0925 46.6123 25.0541 46.4833C25.0235 46.381 24.9966 46.2773 24.9755 46.1727L24.9411 45.9801L25.1677 45.9877C24.8093 45.7593 24.4849 45.4745 24.2357 45.1294C23.9482 44.7313 23.7675 44.264 23.6702 43.7846C23.6544 43.7058 23.6405 43.626 23.6285 43.5462C23.6094 43.4128 23.596 43.279 23.5883 43.1447C23.5826 43.0382 23.5806 42.9311 23.5849 42.8241L23.596 42.6291C23.6549 42.6453 23.7143 42.6611 23.7733 42.6773C23.8705 42.7046 23.9664 42.738 24.0608 42.7744C24.1441 42.8064 24.2271 42.8413 24.3085 42.8785C24.2769 42.858 24.2457 42.837 24.2151 42.8154C24.1485 42.7696 24.0833 42.7218 24.0196 42.6721C23.6333 42.371 23.2946 42.0016 23.0655 41.5667C22.8369 41.1323 22.7238 40.6444 22.6951 40.156C22.6903 40.0757 22.6879 39.9949 22.6874 39.9142C22.6869 39.7794 22.6927 39.6451 22.7042 39.5113C22.7138 39.4047 22.7267 39.2986 22.7459 39.193L22.7847 39.0014C22.8408 39.0257 22.8973 39.0496 22.9534 39.074C23.0458 39.1146 23.1359 39.1615 23.2241 39.2107C23.3343 39.2719 23.5313 39.3947 23.5241 39.3875C23.4656 39.3316 23.4086 39.2738 23.3535 39.2145C23.02 38.8566 22.7444 38.4379 22.5873 37.9724C22.4306 37.5075 22.397 37.0076 22.4459 36.5216C22.454 36.4413 22.4646 36.361 22.477 36.2812C22.4981 36.1483 22.525 36.0164 22.558 35.886C22.5839 35.7823 22.6136 35.6795 22.6496 35.5787L22.7181 35.3956C22.7698 35.4281 22.8216 35.4611 22.8733 35.4936C22.9582 35.5486 23.0396 35.6088 23.1187 35.6714C23.227 35.7565 23.331 35.8472 23.4311 35.9419C23.4719 35.9815 23.5126 36.0212 23.5524 36.0623L23.5576 36.0499C23.4809 35.9505 23.4081 35.8477 23.3401 35.7421C23.2965 35.6742 23.2543 35.605 23.2145 35.5347C22.973 35.1094 22.8015 34.6386 22.7564 34.1498C22.7118 33.6609 22.7948 33.1672 22.9553 32.7056C22.9816 32.6291 23.0104 32.5536 23.041 32.4786C23.0918 32.3543 23.1489 32.232 23.2107 32.113C23.2605 32.0179 23.3132 31.9247 23.3712 31.8348L23.48 31.6724C23.5231 31.7163 23.5658 31.7598 23.6084 31.8038C23.6784 31.8764 23.7436 31.9538 23.8063 32.0332C23.8145 32.0432 23.8226 32.0537 23.8308 32.0642C23.7153 31.68 23.6578 31.2781 23.6856 30.8776C23.7196 30.3878 23.8801 29.9137 24.1125 29.4831C24.1509 29.4119 24.1911 29.3417 24.2338 29.2728C24.3037 29.1581 24.3794 29.0468 24.4599 28.9388C24.5237 28.8532 24.5908 28.7691 24.6627 28.6898L24.7963 28.5469C24.8313 28.5966 24.8668 28.6468 24.9018 28.697C24.9593 28.7801 25.0115 28.8666 25.0604 28.9546L25.0623 28.9579C25.0436 28.5851 25.0781 28.2095 25.185 27.8511C25.3249 27.3808 25.5856 26.9527 25.9066 26.5828C25.9594 26.5221 26.0145 26.4623 26.0705 26.404C26.1644 26.3075 26.2622 26.2153 26.3643 26.1273C26.4457 26.0576 26.5296 25.9902 26.6168 25.9285L26.7783 25.8176L26.8717 26.0466C26.9206 25.757 27.0045 25.474 27.1305 25.2083C27.3408 24.7644 27.6643 24.3816 28.0376 24.0647C28.0994 24.0126 28.1627 23.962 28.2274 23.9132C28.3347 23.832 28.4459 23.7555 28.5599 23.6843C28.651 23.6274 28.7439 23.5739 28.8398 23.5261L29.0166 23.4415C29.031 23.5008 29.0458 23.5601 29.0602 23.6193C29.0832 23.7178 29.1 23.8177 29.1139 23.9171C29.1321 24.0533 29.1445 24.1909 29.1503 24.328C29.1527 24.3849 29.1541 24.4418 29.1541 24.4986L29.1809 24.4877C29.2576 24.296 29.3573 24.1139 29.4838 23.95C29.5202 23.9022 29.5595 23.8559 29.6002 23.8119C29.8355 23.5582 30.1331 23.3675 30.4504 23.2317C30.6061 23.1653 30.7676 23.1104 30.9324 23.0731L31.1342 23.032C31.1332 23.096 31.1318 23.1601 31.1303 23.2241C31.1279 23.2967 31.1212 23.3694 31.1121 23.4415C31.1011 23.5319 31.0853 23.6217 31.0661 23.7106C30.9827 24.0881 30.827 24.4561 30.5773 24.7548C30.412 24.9527 30.2088 25.1156 29.9865 25.2461L29.9831 25.2575C30.0358 25.2523 30.0881 25.248 30.1408 25.2442C30.2218 25.2389 30.3032 25.236 30.3847 25.2351C30.4182 25.2346 30.4182 25.2346 30.4513 25.2346C30.5692 25.2356 30.6866 25.2399 30.804 25.2523L30.9985 25.2757C30.9775 25.3374 30.9569 25.399 30.9348 25.4606C30.8984 25.561 30.8557 25.6595 30.8102 25.756C30.7556 25.8712 30.6957 25.9844 30.6315 26.0943C30.5912 26.1636 30.5491 26.232 30.5045 26.2989C30.2309 26.7132 29.883 27.0855 29.4589 27.3503C29.3032 27.4473 29.1383 27.529 28.9677 27.5968C28.9519 27.6661 28.9337 27.735 28.9141 27.8033C28.8757 27.9352 28.8312 28.0657 28.7808 28.1937C28.7516 28.2683 28.72 28.3424 28.6869 28.415C28.4718 28.8843 28.1699 29.3206 27.7693 29.6513C27.6284 29.7679 27.4765 29.8707 27.3178 29.96C27.3169 29.9806 27.3155 30.0007 27.3145 30.0207C27.3059 30.1579 27.291 30.2951 27.2699 30.4308C27.2575 30.5101 27.2431 30.589 27.2263 30.6669C27.119 31.172 26.9196 31.6633 26.601 32.0733C26.4745 32.2358 26.3312 32.3844 26.1755 32.5187C26.1865 32.588 26.1951 32.6573 26.2018 32.7271C26.2157 32.8637 26.2229 33.0014 26.2234 33.139C26.2238 33.2188 26.2224 33.2991 26.2186 33.3789C26.1932 33.8946 26.0748 34.4112 25.8261 34.8661C25.7207 35.0597 25.5932 35.2398 25.4495 35.4071L25.4993 35.5132C25.5415 35.605 25.5774 35.6996 25.61 35.7952C25.6551 35.9251 25.6939 36.057 25.7264 36.1909C25.7456 36.2687 25.7624 36.3471 25.7773 36.4255C25.8721 36.933 25.8764 37.463 25.7399 37.9634C25.6805 38.1813 25.5951 38.3916 25.4907 38.5913L25.5496 38.6783C25.6057 38.7624 25.656 38.8499 25.7039 38.9388C25.7686 39.0601 25.8281 39.1844 25.8817 39.3115C25.9129 39.3851 25.9421 39.4597 25.9689 39.5352C26.1434 40.0212 26.232 40.5435 26.1769 41.0592C26.1266 41.5275 25.9613 41.9782 25.7312 42.3873L25.5995 42.6066C25.6191 42.6253 25.6383 42.6439 25.6575 42.663C25.6704 42.6334 25.6828 42.6042 25.6963 42.5756C25.7519 42.4532 25.8127 42.3333 25.8793 42.2162C25.932 42.123 25.9886 42.0317 26.0499 41.9442L26.1644 41.7856C26.2056 41.831 26.2469 41.8764 26.2881 41.9218C26.3551 41.9968 26.4175 42.0766 26.4774 42.1579C26.5588 42.2687 26.635 42.3839 26.7059 42.502C26.7471 42.5703 26.7869 42.6401 26.8243 42.7113C27.0653 43.1677 27.2268 43.6723 27.2445 44.1908C27.2493 44.3256 27.2445 44.4599 27.2311 44.5937L27.2431 44.565C27.2934 44.5994 27.3442 44.6339 27.3945 44.6683C27.4774 44.7261 27.557 44.7892 27.6341 44.8546C27.7391 44.9435 27.8402 45.0377 27.9365 45.1361C27.9926 45.193 28.0472 45.2518 28.0999 45.3125C28.4411 45.7005 28.7157 46.154 28.8537 46.6539C28.8795 46.7466 28.9002 46.8398 28.9169 46.934C28.9989 46.9679 29.0789 47.0061 29.158 47.0467C29.2811 47.1093 29.4009 47.1777 29.5174 47.2513C29.5849 47.2943 29.6515 47.3392 29.7172 47.3856C30.1302 47.68 30.4959 48.0499 30.7451 48.4938C30.7963 48.5861 30.8428 48.6802 30.8845 48.7772C30.9454 48.7949 31.0057 48.8145 31.0656 48.8355C31.196 48.8804 31.3244 48.932 31.45 48.9894C31.5228 49.0224 31.5951 49.0577 31.6661 49.095C32.1247 49.3344 32.5449 49.6589 32.8545 50.0757C33.1401 50.4604 33.3265 50.9115 33.4348 51.3755C33.453 51.4539 33.4688 51.5323 33.4827 51.6111C33.4889 51.6451 33.4942 51.679 33.4995 51.7129L33.5095 51.7096C35.271 51.0773 37.0182 50.7997 39.6236 50.7958C39.7486 50.7911 39.8742 50.7877 39.9997 50.7863L40.3759 50.7958C43.2966 50.8001 45.1386 51.1485 47.1306 51.9543C47.1066 51.874 47.0865 51.7927 47.0697 51.7105C46.9936 51.3421 46.9844 50.954 47.0841 50.5894C47.1838 50.2243 47.3894 49.8945 47.6429 49.6159C47.7559 49.4912 47.8796 49.3746 48.0137 49.2723L48.18 49.1514C48.2054 49.2102 48.2313 49.269 48.2567 49.3273C48.2845 49.3946 48.3089 49.463 48.331 49.5323C48.3583 49.6193 48.3813 49.7067 48.4009 49.7956C48.4326 49.9409 48.4536 50.0895 48.4618 50.2391C48.5087 50.2123 48.5562 50.1875 48.6046 50.1641C48.5346 49.8056 48.5289 49.4295 48.6262 49.0754C48.7258 48.7108 48.9309 48.3806 49.1844 48.1019C49.298 47.9772 49.4216 47.8606 49.5558 47.7583L49.7221 47.6374C49.7475 47.6962 49.7729 47.755 49.7983 47.8138C49.8265 47.8807 49.851 47.9495 49.8725 48.0188C49.8999 48.1053 49.9233 48.1932 49.9425 48.2821C49.9741 48.4274 49.9952 48.576 50.0033 48.7251C50.0105 48.7208 50.0182 48.717 50.0254 48.7127C49.9617 48.3657 49.9597 48.0035 50.0532 47.6618C50.1533 47.2967 50.3584 46.9669 50.6119 46.6883C50.7255 46.5636 50.8486 46.447 50.9828 46.3447L51.1491 46.2238L51.2526 46.4675C51.2589 46.3978 51.2684 46.328 51.2823 46.2592C51.3552 45.8879 51.5358 45.5442 51.7682 45.2475C51.8722 45.1151 51.9872 44.9899 52.1132 44.8781L52.2704 44.7457L52.3826 44.9626C52.3811 44.9129 52.3816 44.8628 52.384 44.8126C52.4022 44.435 52.5311 44.0685 52.718 43.7416C52.8014 43.5954 52.8967 43.4549 53.0055 43.3263L53.1416 43.1724C53.1794 43.2241 53.2168 43.2762 53.2547 43.3278C53.2969 43.387 53.3352 43.4487 53.3716 43.5117C53.4171 43.5901 53.4588 43.6714 53.4972 43.7536C53.5594 43.8888 53.6126 44.0293 53.6529 44.1732C53.6797 44.1488 53.7075 44.1254 53.7353 44.102C53.5475 43.8152 53.4075 43.4922 53.3587 43.1514C53.305 42.7767 53.3615 42.393 53.4833 42.037C53.5374 41.8773 53.6045 41.7216 53.6869 41.5744L53.7914 41.3975C53.8379 41.4415 53.8848 41.485 53.9313 41.529C53.984 41.5791 54.0338 41.6327 54.0813 41.6876C54.1407 41.756 54.1973 41.8276 54.2505 41.9012C54.3372 42.0221 54.4158 42.1502 54.4829 42.284L54.5193 42.2372C54.2912 41.9729 54.1081 41.6656 54.0152 41.3278C53.915 40.9631 53.9232 40.5751 53.9989 40.2066C54.0329 40.0417 54.0799 39.8788 54.1431 39.7225L54.2241 39.5342C54.2763 39.5715 54.3281 39.6093 54.3798 39.647C54.4383 39.69 54.4944 39.7368 54.5485 39.7856C54.6166 39.8463 54.6813 39.9098 54.7431 39.9767C54.7666 40.0016 54.8058 40.046 54.8087 40.0494C54.8087 40.0499 54.8092 40.0499 54.8087 40.0494C54.698 39.9127 54.6031 39.7641 54.5289 39.6045C54.3703 39.2609 54.3147 38.8766 54.329 38.5005C54.3353 38.3323 54.3544 38.1641 54.3918 37.9997L54.4407 37.8004C54.4982 37.8291 54.5557 37.8578 54.6132 37.8864C54.6717 37.9165 54.7292 37.9495 54.7852 37.9849C54.7517 37.9433 54.72 37.9008 54.6903 37.8563C54.4785 37.5428 54.3621 37.1725 54.3156 36.7992C54.295 36.632 54.2873 36.4628 54.2974 36.2946L54.3137 36.09C54.3751 36.1091 54.4364 36.1282 54.4977 36.1474C54.5672 36.1698 54.6348 36.1961 54.7019 36.2248C54.7852 36.2606 54.8672 36.3008 54.9472 36.3443C55.0785 36.415 55.205 36.4962 55.3238 36.5875C55.3282 36.5665 55.3329 36.545 55.3377 36.524C55.0852 36.3873 54.8537 36.2105 54.6693 35.9906C54.4258 35.7005 54.2715 35.344 54.1867 34.9775C54.1489 34.8136 54.1235 34.6458 54.1158 34.4776L54.1115 34.2726C54.1742 34.285 54.237 34.2979 54.2998 34.3103C54.3573 34.3228 54.4143 34.3376 54.4704 34.3543C54.456 34.3414 54.4417 34.3285 54.4273 34.3151C54.1517 34.0556 53.9567 33.7197 53.8292 33.3655C53.7722 33.2069 53.7276 33.0434 53.7003 32.8771L53.6716 32.674C53.7353 32.6793 53.7995 32.6845 53.8633 32.6898C53.9356 32.6965 54.008 32.7075 54.0794 32.7209C54.0947 32.7237 54.11 32.7266 54.1249 32.7295C54.1005 32.7137 54.0765 32.697 54.0525 32.6798C53.7459 32.4575 53.5091 32.1488 53.3376 31.8138C53.2609 31.6637 53.1957 31.5075 53.1474 31.3459L53.0927 31.1481C53.1612 31.1452 53.2298 31.1414 53.2983 31.139L53.4603 31.1404C53.4377 31.1314 53.4152 31.1218 53.3932 31.1118C53.0482 30.9541 52.7554 30.6984 52.5206 30.4035C52.4156 30.2716 52.3207 30.1311 52.2412 29.9825L52.1487 29.7995C52.2153 29.7827 52.2814 29.7655 52.348 29.7498C52.4238 29.7326 52.5603 29.7034 52.5603 29.7034C52.51 29.6857 52.4602 29.6661 52.4113 29.6442C52.0898 29.5013 51.8094 29.2752 51.578 29.0129C51.4663 28.8867 51.3643 28.751 51.2771 28.6066L51.1755 28.4284C51.2411 28.4083 51.3063 28.3878 51.3724 28.3687C51.3993 28.361 51.4261 28.3538 51.4534 28.3476C51.1208 28.2 50.8338 27.9624 50.599 27.6876C50.4897 27.5596 50.3896 27.4224 50.3052 27.2762L50.2065 27.0965L50.3536 27.054C50.0129 26.8982 49.7221 26.6468 49.4882 26.3567C49.3823 26.2258 49.2865 26.0857 49.206 25.9376L49.1125 25.755C49.126 25.7512 49.1207 25.7526 49.1312 25.7498C48.8753 25.6179 48.6463 25.4348 48.4493 25.2265C48.3334 25.1037 48.2265 24.9718 48.135 24.8303L48.0272 24.6554C48.0919 24.6334 48.1566 24.6105 48.2217 24.5894C48.3233 24.5574 48.4268 24.5321 48.5313 24.5125C48.6904 24.4824 48.8519 24.4652 49.0133 24.4614H49.1365C49.08 24.34 49.033 24.2138 48.9947 24.0862C48.9463 23.9247 48.9099 23.7593 48.8916 23.5916L48.8734 23.3875C48.9372 23.3961 49.0004 23.4048 49.0641 23.4129C49.136 23.4239 49.2079 23.4382 49.2783 23.4554C49.367 23.4769 49.4547 23.5027 49.5409 23.5319C49.7154 23.5916 49.8859 23.6671 50.0455 23.7608C50.0503 23.5806 50.0743 23.4009 50.114 23.2255C50.1509 23.0611 50.2013 22.8991 50.2674 22.7443L50.3527 22.5574C50.404 22.5961 50.4548 22.6348 50.506 22.6736C50.5635 22.718 50.6186 22.7658 50.6718 22.815C50.7384 22.8772 50.8022 22.9421 50.8626 23.01C51.129 23.3077 51.3413 23.6628 51.4323 24.0537C51.4376 24.0771 51.4539 24.1096 51.4539 24.1096L51.5023 24.0131L51.5957 23.8449C51.6436 23.8874 51.6916 23.93 51.7395 23.9725C51.7932 24.0212 51.8444 24.0733 51.8938 24.1268C51.9551 24.1938 52.0136 24.264 52.0687 24.3362C52.2891 24.6253 52.4611 24.9584 52.5354 25.3154L52.6365 25.119C52.6854 25.1601 52.7347 25.2012 52.7836 25.2423C52.8392 25.29 52.8915 25.3402 52.9423 25.3923C53.0055 25.4578 53.0659 25.5261 53.1229 25.5969C53.3184 25.8396 53.4794 26.1154 53.5743 26.4126L53.7205 26.5311C53.7765 26.5775 53.8297 26.6272 53.8815 26.6783C53.9457 26.7424 54.007 26.8098 54.0655 26.8795C54.3214 27.1863 54.5212 27.5481 54.5988 27.9419C54.6012 27.9529 54.6031 27.9639 54.6051 27.9749L54.6443 27.9056C54.6918 27.9481 54.7397 27.9906 54.7871 28.0336C54.8408 28.0829 54.8916 28.135 54.9405 28.189C55.0014 28.2563 55.0593 28.3266 55.114 28.3992C55.354 28.7185 55.5352 29.0903 55.5927 29.4874C55.6286 29.7364 55.6162 29.9902 55.5692 30.2368L55.5697 30.2353C55.6334 30.1321 55.7038 30.0327 55.7805 29.939L55.9147 29.7837C55.953 29.8348 55.9914 29.8865 56.0297 29.9376C56.0724 29.9964 56.1116 30.0575 56.149 30.1201C56.1955 30.198 56.2381 30.2783 56.2774 30.3605C56.449 30.7209 56.5534 31.1204 56.5309 31.5213C56.5252 31.6207 56.5123 31.7187 56.4926 31.8157L56.6445 31.679C56.6761 31.735 56.7078 31.7904 56.7389 31.8463C56.7739 31.9103 56.805 31.9758 56.8338 32.0427C56.8697 32.1259 56.9023 32.2109 56.9306 32.2974C57.0552 32.6764 57.1074 33.086 57.0336 33.4807C57.013 33.5901 56.9838 33.6977 56.9459 33.8023L57.024 33.7426L57.1812 33.6322C57.2061 33.691 57.2306 33.7502 57.255 33.809C57.2823 33.8769 57.3058 33.9457 57.3264 34.015C57.3523 34.1025 57.3743 34.1904 57.3925 34.2793C57.4716 34.6707 57.4749 35.0836 57.3556 35.4668C57.3034 35.6341 57.2291 35.7937 57.1385 35.9433L57.266 35.864L57.4337 35.7698C57.4524 35.8315 57.4706 35.8926 57.4888 35.9538C57.509 36.0236 57.5253 36.0948 57.5387 36.166C57.5555 36.2554 57.5679 36.3452 57.5765 36.4355C57.6144 36.8327 57.5751 37.2441 57.4165 37.6131C57.3192 37.8391 57.1807 38.0446 57.0159 38.2277L57.0221 38.2243C57.1366 38.1588 57.256 38.101 57.3786 38.0527L57.5717 37.982C57.5804 38.0456 57.5885 38.1091 57.5966 38.1722C57.6053 38.2444 57.6096 38.317 57.6115 38.3897C57.6139 38.4805 57.612 38.5713 57.6062 38.6621C57.5799 39.0602 57.475 39.4597 57.2588 39.7985C57.1223 40.0131 56.9454 40.199 56.7461 40.3572C56.8558 40.3185 56.9675 40.286 57.081 40.2621L57.2833 40.2238C57.2809 40.2879 57.279 40.3519 57.2766 40.4155C57.2732 40.4881 57.2655 40.5607 57.2555 40.6324C57.243 40.7223 57.2262 40.8116 57.2056 40.9C57.1141 41.2886 56.9454 41.6661 56.6766 41.9648C56.4327 42.2367 56.1164 42.437 55.78 42.5751C55.6986 42.6085 55.6162 42.6391 55.5318 42.6649C55.5318 42.6955 55.5308 42.7261 55.5299 42.7567C55.6914 42.6759 55.862 42.6133 56.0359 42.566C56.1989 42.522 56.3661 42.49 56.5343 42.4761L56.7399 42.4632C56.7293 42.5263 56.7193 42.5894 56.7087 42.653C56.6963 42.7242 56.68 42.7954 56.6608 42.8652C56.6368 42.9531 56.6091 43.0396 56.5774 43.1246C56.4385 43.4984 56.2233 43.8515 55.9195 44.1149C55.6435 44.3543 55.3042 44.5139 54.953 44.609C54.8447 44.6386 54.7339 44.6625 54.6228 44.6793C54.6137 44.7313 54.6031 44.783 54.5912 44.8346C54.7646 44.7863 54.9443 44.7567 55.124 44.7433C55.1863 44.7385 55.2491 44.7361 55.3119 44.7352C55.3353 44.7347 55.3588 44.7347 55.3823 44.7347L55.6435 44.7505L55.8347 44.7748C55.8112 44.8393 55.7882 44.9039 55.7637 44.9679C55.7019 45.1246 55.6238 45.2752 55.5352 45.4181C55.3358 45.7378 55.0746 46.0255 54.7502 46.2219C54.4258 46.4183 54.0492 46.5163 53.673 46.545C53.6093 46.5497 53.5446 46.5526 53.4804 46.5536C53.4746 46.5693 53.4684 46.5846 53.4622 46.6004C53.559 46.588 53.6577 46.5818 53.7554 46.5798L53.9442 46.5832C54.0497 46.5884 54.1551 46.5994 54.2595 46.6162L54.5164 46.6692L54.7014 46.7213C54.6688 46.7815 54.6367 46.8417 54.6031 46.9015C54.5197 47.0477 54.4201 47.1853 54.3113 47.3144C54.0679 47.6016 53.7674 47.8486 53.4181 47.9958C53.1493 48.1086 52.8589 48.1602 52.5675 48.166C52.6806 48.1755 52.7927 48.1913 52.9039 48.2133C53.0161 48.2358 53.1277 48.2639 53.2365 48.3007L53.4301 48.3705C53.3932 48.4279 53.3567 48.4862 53.3189 48.543C53.2245 48.6831 53.1157 48.813 52.9978 48.9335C52.7343 49.2025 52.4166 49.4272 52.0572 49.5485C51.9019 49.6011 51.7414 49.6336 51.5789 49.6494C51.5737 49.6479 51.7284 49.6871 51.8089 49.7144L52.0025 49.7841C51.9656 49.842 51.9292 49.8998 51.8914 49.9571C51.797 50.0967 51.6882 50.2267 51.5703 50.3471C51.3063 50.6162 50.989 50.8408 50.6297 50.9621C50.2703 51.0835 49.8812 51.0983 49.5079 51.0448C49.4293 51.0334 49.3507 51.0195 49.2731 51.0018C49.2606 51.031 49.2472 51.0592 49.2338 51.0874L49.3929 51.084C49.575 51.0859 49.7561 51.1055 49.9348 51.1409C50.047 51.1633 50.1586 51.1915 50.2674 51.2279L50.461 51.2976C50.4236 51.3555 50.3877 51.4133 50.3498 51.4706C50.2554 51.6107 50.1466 51.7406 50.0283 51.8611C49.7647 52.1301 49.447 52.3543 49.0881 52.4761C48.9108 52.5359 48.7268 52.5698 48.5404 52.5822ZM32.0269 52.3165C31.6704 52.2099 31.3287 52.0527 31.0273 51.8338C30.6789 51.581 30.3924 51.2527 30.1633 50.89C29.9122 50.9077 29.6625 50.9488 29.4191 51.0114L29.4105 51.0133C29.5226 51.1677 29.6462 51.3134 29.7785 51.4501C29.8274 51.5012 29.8782 51.5504 29.9295 51.5987C30.2548 51.9017 30.6353 52.1526 31.0589 52.294C31.2904 52.371 31.5314 52.4154 31.7739 52.4331C31.7547 52.4422 31.9239 52.3633 32.0269 52.3165ZM47.8671 52.2472C47.9313 52.2601 47.9955 52.2702 48.0602 52.2783C48.3889 52.3189 48.7306 52.3003 49.0426 52.1836C49.3052 52.0857 49.54 51.9246 49.7432 51.7335C49.7877 51.6914 49.8309 51.6479 49.8725 51.603L50.0014 51.4534C49.9454 51.4391 49.8884 51.4271 49.8313 51.4166C49.6861 51.3904 49.5385 51.376 49.3905 51.3741C49.3804 51.3741 49.3699 51.3741 49.3598 51.3741C49.2568 51.375 49.1537 51.3822 49.0522 51.3975C48.9975 51.4759 48.9371 51.5509 48.8715 51.6212C48.6218 51.8874 48.3013 52.0809 47.962 52.2123L47.8671 52.2472ZM33.0207 51.8936C32.9048 51.6384 32.7644 51.3942 32.5962 51.1696C32.4294 50.9459 32.2354 50.7423 32.0125 50.5736C31.7547 50.3786 31.4615 50.2348 31.1553 50.1335C30.9976 50.0814 30.8361 50.0403 30.6732 50.0092C30.4614 49.9691 30.2462 49.9457 30.0306 49.938H30.0224C30.0234 49.9404 30.0239 49.9433 30.0248 49.9461C30.0962 50.1416 30.1815 50.3318 30.2807 50.5148C30.3593 50.6596 30.447 50.7997 30.5438 50.933C30.7326 51.193 30.9578 51.4281 31.2204 51.6145C31.4619 51.786 31.7322 51.9146 32.0135 52.0078C32.1596 52.0561 32.3087 52.0948 32.4596 52.1249L32.6388 52.0489C32.4558 51.9251 32.2765 51.7956 32.0983 51.6651C31.897 51.5141 31.6972 51.3607 31.5036 51.1992C31.3091 51.0381 31.1183 50.8723 30.9372 50.6917L30.9382 50.6907C31.172 50.7944 31.3953 50.9134 31.6153 51.0372C31.8357 51.1605 32.0508 51.2919 32.2641 51.4252C32.4754 51.5614 32.6858 51.6991 32.8904 51.8448C32.9206 51.8663 32.9508 51.8878 32.981 51.9093L33.0207 51.8936ZM47.8743 51.9347C47.8848 51.9304 47.8954 51.9261 47.9064 51.9218C48.2126 51.7966 48.5011 51.613 48.7158 51.3588C48.896 51.1452 49.0215 50.8895 49.1039 50.6243C49.1221 50.5655 49.1384 50.5062 49.1528 50.447L49.1911 50.253L49.0023 50.3127C48.9443 50.3332 48.8873 50.3557 48.8308 50.3801C48.5596 50.4981 48.3046 50.6625 48.1058 50.8833C47.9074 51.1041 47.7717 51.375 47.6836 51.6565C47.6807 51.667 47.6774 51.6776 47.674 51.6881C47.7559 51.592 47.8412 51.4993 47.928 51.4071C48.0444 51.2871 48.1628 51.1691 48.2888 51.0572C48.4143 50.9445 48.5447 50.8365 48.6885 50.7395L48.6894 50.7404C48.6166 50.8976 48.5303 51.0429 48.4393 51.1844C48.3482 51.3263 48.2505 51.462 48.1503 51.5958C48.0607 51.711 47.9701 51.8252 47.8743 51.9347ZM48.1738 50.4279C48.1771 50.2807 48.1652 50.133 48.1412 49.9887C48.1311 49.928 48.1192 49.8678 48.1048 49.8085L48.0526 49.6178L47.9102 49.7555C47.8681 49.7994 47.8269 49.8453 47.7876 49.8921C47.5978 50.1187 47.4435 50.3796 47.3654 50.6659C47.2873 50.9516 47.2873 51.2546 47.3352 51.5457C47.3443 51.5997 47.3683 51.7005 47.3683 51.7005C47.3697 51.6957 47.3712 51.6905 47.3721 51.6857C47.4694 51.322 47.6357 50.9712 47.8891 50.6893C47.974 50.5947 48.0679 50.5091 48.1685 50.4317L48.1738 50.4279ZM33.1731 51.5428C33.1343 51.3526 33.0816 51.1653 33.0136 50.9832C32.9163 50.7222 32.7869 50.4723 32.6201 50.2487C32.428 49.9896 32.1869 49.7688 31.921 49.5863C31.7787 49.4883 31.6292 49.4009 31.4744 49.323C31.288 49.2293 31.0949 49.15 30.8965 49.085L30.8883 49.0821C30.8888 49.0854 30.8888 49.0878 30.8888 49.0907C30.9022 49.2986 30.9305 49.505 30.9746 49.7086C30.9799 49.7335 30.9856 49.7583 30.9913 49.7827C31.3546 49.8764 31.7053 50.0193 32.0197 50.2238C32.094 50.2721 32.1659 50.3237 32.2349 50.3782C32.4328 50.5344 32.6096 50.7156 32.7658 50.9125C32.9215 51.1089 33.0567 51.3211 33.1731 51.5428ZM49.4087 50.7337C49.4729 50.7461 49.5371 50.7562 49.6018 50.7643C49.9305 50.8049 50.2722 50.7863 50.5846 50.6697C50.8467 50.5722 51.082 50.4107 51.2847 50.22C51.3293 50.1779 51.3724 50.134 51.4141 50.089L51.543 49.9395C51.4793 49.9232 51.4146 49.9098 51.3494 49.8988C51.2114 49.8749 51.072 49.862 50.932 49.8606H50.9014C50.7983 49.8611 50.6958 49.8687 50.5942 49.884C50.5391 49.9624 50.4792 50.0369 50.4131 50.1072C50.1634 50.3739 49.8433 50.5674 49.5036 50.6984C49.4724 50.7108 49.4408 50.7222 49.4087 50.7337ZM29.4048 50.7151C29.4896 50.6945 29.6789 50.6577 29.6952 50.6549C29.3329 50.4972 28.9931 50.2854 28.7075 50.0116C28.397 49.7139 28.1584 49.3492 27.9815 48.9583C27.9245 48.9545 27.8675 48.9521 27.811 48.9507C27.7707 48.9497 27.7304 48.9493 27.6907 48.9493C27.544 48.9502 27.3979 48.9583 27.2517 48.9736L27.2187 48.9774C27.2326 49.0028 27.2464 49.0281 27.2603 49.053C27.4396 49.3684 27.6576 49.6632 27.9159 49.9194C28.12 50.1215 28.3505 50.2993 28.6045 50.435C28.8551 50.5688 29.1268 50.6596 29.4048 50.7151ZM30.4101 49.6752C30.2496 49.3588 30.0421 49.0654 29.7799 48.8245C29.5571 48.619 29.2989 48.4537 29.0252 48.3237C28.7023 48.1708 28.3568 48.0647 28.0055 48.0016L27.9724 47.9963C27.9734 47.9987 27.9739 48.0016 27.9744 48.0044C28.018 48.208 28.0759 48.4083 28.1493 48.6028C28.2072 48.7571 28.2748 48.9077 28.3525 49.053C28.4991 49.3287 28.6836 49.5858 28.9093 49.8023C29.1354 50.0188 29.4 50.1927 29.6817 50.3289C29.757 50.3653 29.8336 50.3987 29.9113 50.4303C29.8681 50.338 29.8279 50.2448 29.7905 50.1502C29.757 50.0637 29.7018 49.8979 29.7037 49.9031C29.5552 49.7545 29.4086 49.6035 29.2667 49.4477C29.0961 49.2618 28.9299 49.0711 28.7756 48.868L28.7765 48.8666C28.9936 49.0018 29.1987 49.15 29.3995 49.3029C29.5476 49.4147 29.6918 49.5304 29.8346 49.6479L29.9467 49.646C30.1015 49.6475 30.2563 49.6575 30.4101 49.6752ZM49.46 50.403C49.7618 50.2778 50.0455 50.0957 50.2573 49.8448C50.4375 49.6317 50.563 49.376 50.6459 49.1103C50.6642 49.052 50.68 48.9927 50.6943 48.933L50.7332 48.7394L50.5439 48.7987C50.4864 48.8193 50.4289 48.8417 50.3728 48.8661C50.1016 48.9841 49.8462 49.1485 49.6478 49.3693C49.5002 49.5332 49.3871 49.7253 49.3028 49.9285L49.4614 49.9017L49.4695 49.8936C49.586 49.7731 49.7043 49.6551 49.8308 49.5433C49.9564 49.431 50.0867 49.3225 50.23 49.2255L50.2314 49.2264C50.1586 49.3837 50.0719 49.5289 49.9808 49.6704C49.8903 49.8128 49.792 49.9485 49.6919 50.0819C49.619 50.176 49.5453 50.2692 49.4686 50.36C49.4657 50.3743 49.4628 50.3887 49.46 50.403ZM48.9587 50.0202C49.0593 49.7115 49.2132 49.4176 49.4307 49.1753C49.5175 49.0792 49.6128 48.9923 49.7154 48.9139C49.7187 48.7667 49.7067 48.6195 49.6828 48.4747C49.6732 48.414 49.6607 48.3543 49.6468 48.2945L49.5941 48.1043L49.4523 48.2415C49.4096 48.2859 49.3684 48.3313 49.3291 48.3787C49.1394 48.6047 48.9851 48.8661 48.907 49.1519C48.8289 49.4381 48.8289 49.7407 48.8768 50.0322L48.8796 50.0479L48.9587 50.0202ZM30.5931 48.8384C30.5548 48.7533 30.5117 48.6702 30.4642 48.5894C30.3061 48.3208 30.0996 48.0823 29.8667 47.8754C29.5935 47.6326 29.284 47.431 28.9562 47.2704L28.9485 47.2671C28.9481 47.2699 28.9481 47.2728 28.9476 47.2757C28.9318 47.4898 28.9318 47.7053 28.949 47.9199C28.9505 47.938 28.9524 47.9567 28.9538 47.9748C29.3645 48.143 29.7488 48.3786 30.0627 48.6926C30.2941 48.9239 30.4844 49.193 30.6372 49.4811L30.6066 49.2216C30.597 49.1151 30.5931 48.8384 30.5931 48.8384ZM50.8798 49.3282C50.9292 49.3368 50.9795 49.3445 51.0293 49.3507C51.3581 49.3913 51.6997 49.3727 52.0121 49.2561C52.2743 49.1586 52.5095 48.997 52.7122 48.8064C52.7568 48.7643 52.7999 48.7203 52.8416 48.6754L52.9705 48.5258C52.9068 48.5096 52.8421 48.4962 52.7769 48.4852C52.6389 48.4613 52.4995 48.4484 52.3596 48.447C52.3495 48.447 52.3389 48.447 52.3289 48.447C52.2259 48.4475 52.1233 48.4551 52.0217 48.4699C51.9666 48.5488 51.9067 48.6233 51.8406 48.6936C51.5909 48.9602 51.2708 49.1538 50.9311 49.2847C50.9172 49.29 50.9033 49.2957 50.8894 49.3005C50.886 49.3096 50.8827 49.3187 50.8798 49.3282ZM50.9833 48.3915C51.0724 48.3017 51.163 48.2138 51.2584 48.1297C51.3834 48.0174 51.5138 47.9089 51.6575 47.8119L51.659 47.8128C51.5856 47.97 51.4994 48.1153 51.4083 48.2568C51.3178 48.3987 51.2196 48.5344 51.1194 48.6682C51.0859 48.7113 51.0528 48.7538 51.0188 48.7963C51.0106 48.846 51.001 48.8948 50.9905 48.944C51.2536 48.8217 51.4975 48.6534 51.6848 48.4312C51.865 48.2176 51.9906 47.9624 52.0735 47.6967C52.0912 47.6379 52.1075 47.5791 52.1219 47.5194L52.1602 47.3258L51.9714 47.3851C51.9134 47.4056 51.8564 47.4281 51.8003 47.4525C51.5286 47.5705 51.2737 47.7349 51.0753 47.9557C50.9478 48.0972 50.8467 48.2592 50.7667 48.4312L50.9833 48.3915ZM27.5761 48.6606C27.1592 48.3944 26.7836 48.0541 26.5138 47.6374C26.2804 47.2766 26.1314 46.8671 26.049 46.446C25.8166 46.3748 25.577 46.3246 25.3354 46.295L25.3024 46.2912C25.3033 46.2936 25.3038 46.2964 25.3048 46.2993C25.3589 46.5 25.4284 46.6969 25.5123 46.8876C25.5784 47.0381 25.6541 47.1849 25.7394 47.3258C25.9009 47.593 26.0993 47.8396 26.3365 48.0436C26.5679 48.2429 26.8339 48.3992 27.1142 48.5187C27.245 48.5741 27.523 48.6625 27.523 48.6625C27.5407 48.6616 27.5584 48.6611 27.5761 48.6606ZM50.4092 48.5387C50.5099 48.2549 50.6565 47.9863 50.8582 47.7617C50.9445 47.6656 51.0403 47.5786 51.1429 47.5003C51.1462 47.3531 51.1342 47.2059 51.1103 47.0611C51.1002 47.0004 51.0883 46.9407 51.0744 46.8809L51.0216 46.6902L50.8798 46.8279C50.8372 46.8723 50.7959 46.9177 50.7566 46.9645C50.5669 47.1911 50.4126 47.452 50.3345 47.7383C50.2593 48.0126 50.2564 48.3022 50.2985 48.5822L50.4092 48.5387ZM28.2619 47.7574C28.2485 47.6981 28.2341 47.6398 28.2178 47.5815C28.1426 47.3134 28.0352 47.0534 27.8886 46.8159C27.7185 46.5416 27.4971 46.3017 27.2479 46.0972C27.1142 45.9877 26.9724 45.8878 26.8253 45.7971C26.6475 45.6881 26.4615 45.5925 26.2694 45.5108L26.2617 45.5079C26.2617 45.5108 26.2617 45.5132 26.2617 45.516C26.2569 45.7244 26.2675 45.9323 26.2943 46.1387C26.3154 46.3022 26.3465 46.4642 26.3882 46.6233C26.4707 46.9335 26.5957 47.2341 26.773 47.5022C26.9412 47.7555 27.153 47.9777 27.3893 48.1689C27.5163 48.2721 27.787 48.4422 27.787 48.4422C27.7597 48.3538 27.7357 48.2644 27.7141 48.1746C27.7031 48.1282 27.6926 48.0814 27.683 48.0346C27.6466 47.9782 27.6102 47.9213 27.5738 47.8649C27.441 47.6518 27.3102 47.4367 27.1875 47.2164C27.0644 46.9966 26.9465 46.7729 26.843 46.5397L26.8439 46.5387C27.0241 46.7203 27.1899 46.911 27.3505 47.1055C27.5062 47.2933 27.6543 47.4859 27.7999 47.6804L27.6289 47.6656L27.8119 47.6814C27.9125 47.6909 28.0127 47.7067 28.1119 47.7258C28.1622 47.7354 28.212 47.7459 28.2619 47.7574ZM52.3495 47.7899L52.3231 47.8692C52.3418 47.8706 52.36 47.8716 52.3787 47.8725C52.7094 47.8893 53.0486 47.8463 53.3515 47.7072C53.6059 47.5911 53.8288 47.4128 54.0171 47.2078C54.0588 47.1629 54.0986 47.116 54.1369 47.0683L54.2548 46.9096C54.1196 46.8857 53.9831 46.8738 53.8465 46.8704C53.8225 46.8699 53.7986 46.8699 53.7746 46.8699C53.6165 46.8718 53.4578 46.8881 53.304 46.9225C53.2547 47.0047 53.2005 47.084 53.1402 47.1586C52.9284 47.42 52.6528 47.624 52.3533 47.7765L52.3495 47.7899ZM28.6605 47.214C28.6452 47.051 28.6165 46.889 28.5729 46.7313C28.4852 46.4126 28.3347 46.1139 28.1469 45.8429C28.0529 45.7072 27.9494 45.5782 27.8387 45.4563C27.6988 45.3019 27.5474 45.1581 27.3859 45.0262L27.3792 45.021C27.3782 45.0238 27.3773 45.0267 27.3763 45.0291C27.3135 45.2274 27.2656 45.4305 27.2331 45.636C27.2292 45.6613 27.2254 45.6862 27.222 45.7115C27.5829 45.9691 27.9029 46.2859 28.1363 46.6635C28.3587 47.0224 28.4991 47.4267 28.5762 47.8405C28.6021 47.8487 28.6275 47.8563 28.6534 47.8649C28.651 47.8329 28.6495 47.8013 28.6481 47.7693C28.6428 47.635 28.6433 47.5003 28.65 47.3665C28.6524 47.3153 28.6558 47.2647 28.6605 47.214ZM52.4736 47.1571L52.4453 47.3889C52.6451 47.2604 52.8253 47.1008 52.9653 46.9082C53.1296 46.6821 53.236 46.4183 53.2993 46.1473C53.3132 46.0876 53.3251 46.0279 53.3347 45.9672L53.3592 45.7712L53.1751 45.8444C53.1191 45.8687 53.0635 45.8955 53.0089 45.9237C52.7472 46.0608 52.5043 46.2434 52.3227 46.478C52.1866 46.6534 52.0878 46.8537 52.0184 47.064C52.0706 47.0482 52.1238 47.0338 52.1765 47.0214L52.1832 47.0138C52.2905 46.8857 52.4003 46.7591 52.5182 46.6382C52.6346 46.5172 52.7568 46.3997 52.8934 46.2926L52.8943 46.2936C52.833 46.4556 52.7573 46.6066 52.6768 46.7543C52.614 46.8704 52.5464 46.9832 52.477 47.0941L52.4736 47.1571ZM51.6805 47.1877C51.7577 46.869 51.8904 46.5607 52.0922 46.3003C52.1703 46.1999 52.2575 46.1077 52.3519 46.0231L52.3567 46.0188C52.35 45.8721 52.327 45.7258 52.2925 45.583C52.2781 45.5237 52.2618 45.4644 52.2431 45.4061L52.177 45.2202C52.1765 45.2207 52.1765 45.2207 52.176 45.2212C52.131 45.2685 52.0874 45.3172 52.0452 45.3674C52.0064 45.4147 51.9685 45.463 51.9326 45.5127C51.7601 45.7526 51.6254 46.0241 51.5679 46.3146C51.5109 46.6057 51.5329 46.9082 51.6024 47.1949C51.6043 47.2035 51.6063 47.2116 51.6087 47.2202C51.6321 47.2092 51.6561 47.1982 51.6805 47.1877ZM41.6285 44.0365C42.9185 44.5072 44.2981 44.7199 45.6873 44.6525C44.0556 45.181 42.3861 45.2436 40.8201 44.9149L40.8072 45.237L39.9997 46.3452L39.1923 45.237L39.1793 44.9149C37.6133 45.2436 35.9433 45.181 34.3122 44.6525C35.7009 44.7199 37.0809 44.5072 38.3709 44.0365C36.2582 42.933 34.5594 41.0358 33.7635 38.5952C32.5842 34.9784 33.6993 31.009 36.5912 28.5287C33.4487 33.1648 34.58 39.4267 39.0883 42.6902L38.7749 34.9622V28.8829C39.2632 28.6492 39.6849 28.296 39.9997 27.8568C40.3145 28.296 40.7362 28.6492 41.224 28.8829V34.9622L40.9111 42.6902C45.4189 39.4267 46.5508 33.1648 43.4082 28.5287C46.3001 31.009 47.4152 34.9784 46.2359 38.5952C45.44 41.0358 43.7412 42.933 41.6285 44.0365ZM53.5714 46.2601C53.616 46.2582 53.6601 46.2549 53.7042 46.2506C54.0339 46.2195 54.363 46.1273 54.6429 45.9462C54.8777 45.7942 55.0718 45.5858 55.2285 45.3555C55.263 45.3048 55.2956 45.2532 55.3267 45.2002L55.4202 45.0262C55.3924 45.0252 55.3651 45.0253 55.3373 45.0253C55.2822 45.0257 55.227 45.0272 55.1719 45.031C54.9371 45.0463 54.7014 45.0917 54.4814 45.1763L54.479 45.182C54.4431 45.2685 54.4014 45.3531 54.3535 45.4338C54.1675 45.7478 53.8968 46.0064 53.594 46.2076L53.5825 46.2152C53.5791 46.23 53.5753 46.2453 53.5714 46.2601ZM24.5649 43.3392C24.54 43.3244 24.5146 43.3101 24.4892 43.2957C24.2951 43.1873 24.0919 43.0945 23.883 43.0181L23.8748 43.0152C23.8748 43.0181 23.8749 43.0209 23.8753 43.0238C23.8811 43.2317 23.9027 43.4391 23.94 43.6436C23.9693 43.8057 24.0086 43.9662 24.0584 44.123C24.1538 44.4202 24.2889 44.706 24.4724 44.9598C24.6507 45.2068 24.873 45.4205 25.1179 45.6016C25.264 45.7096 25.4188 45.8066 25.5789 45.8926C25.5607 45.874 25.542 45.8549 25.5238 45.8362C25.185 45.4826 24.9027 45.0683 24.7393 44.6052C24.596 44.2004 24.5467 43.7674 24.5649 43.3392ZM26.4079 45.2542C26.4275 44.8465 26.382 44.4341 26.2416 44.0494C26.1347 43.7569 25.9747 43.485 25.7835 43.2394C25.5587 42.9517 25.2909 42.6974 24.9971 42.4804L24.9904 42.4757C24.9899 42.4781 24.989 42.4809 24.988 42.4838C24.9353 42.685 24.8975 42.89 24.8749 43.0969C24.8577 43.2604 24.85 43.4252 24.8538 43.5901C24.861 43.9017 24.9099 44.2143 25.0139 44.5086C25.1184 44.8035 25.2765 45.0773 25.4667 45.3249C25.563 45.4501 25.6675 45.5686 25.7787 45.6809C25.8429 45.7454 25.9086 45.8076 25.9766 45.8678L25.9718 45.7631C25.8803 45.5352 25.7979 45.3039 25.7174 45.0721C25.6373 44.8336 25.5607 44.5947 25.4926 44.3519C25.4241 44.1096 25.3613 43.8649 25.3153 43.614L25.3163 43.6135C25.4495 43.8315 25.5664 44.0556 25.6766 44.2821C25.7883 44.5082 25.8908 44.7376 25.99 44.9684C26.012 45.0205 26.0336 45.0726 26.0552 45.1246L26.1779 45.1648C26.2555 45.1911 26.3321 45.2212 26.4079 45.2542ZM53.6591 45.5806L53.6486 45.8057C53.8489 45.6403 54.0233 45.442 54.1441 45.2116C54.2735 44.9641 54.3405 44.6874 54.3635 44.4102C54.3688 44.3495 54.3717 44.2878 54.3727 44.2267L54.3679 44.0298L54.1968 44.1282C54.1446 44.1607 54.0937 44.1951 54.0439 44.2315C53.8048 44.4049 53.5911 44.6205 53.4454 44.879C53.3357 45.074 53.2667 45.2891 53.2288 45.5094L53.3654 45.463L53.3855 45.4291C53.4727 45.2867 53.5633 45.1457 53.662 45.009C53.7602 44.8723 53.8638 44.7385 53.9831 44.6128L53.984 44.6133C53.9471 44.7825 53.8944 44.9431 53.836 45.1012C53.7828 45.2479 53.7219 45.3908 53.6582 45.5328L53.6591 45.5806ZM52.9164 45.6451C52.949 45.3278 53.0347 45.0147 53.1914 44.7366C53.2552 44.6238 53.3295 44.5182 53.4128 44.4198C53.3841 44.2754 53.3404 44.134 53.2853 43.9978C53.2628 43.9409 53.2379 43.885 53.2111 43.83L53.1186 43.6556L53.0093 43.82C52.9777 43.8726 52.9475 43.9261 52.9192 43.9806C52.7832 44.2425 52.6892 44.5306 52.6754 44.8264C52.661 45.1208 52.7261 45.4147 52.8349 45.6871L52.9164 45.6451ZM26.7385 45.4128C26.7855 45.2871 26.8262 45.1586 26.8588 45.0286C26.9292 44.75 26.9652 44.4618 26.9522 44.1741C26.9383 43.8611 26.866 43.5524 26.7543 43.2604C26.6216 42.912 26.4347 42.5851 26.2109 42.2874L26.1908 42.2611C26.1893 42.2635 26.1879 42.2659 26.1865 42.2683C26.0791 42.4465 25.9847 42.6329 25.9052 42.825C25.8956 42.8484 25.886 42.8723 25.8769 42.8962C26.1678 43.2303 26.405 43.6126 26.5444 44.0341C26.6882 44.4685 26.726 44.933 26.6911 45.388C26.6848 45.3846 26.7169 45.4013 26.7385 45.4128ZM54.7378 44.3624C54.802 44.349 54.8653 44.3328 54.928 44.3141C55.2457 44.2214 55.5515 44.0685 55.7915 43.8382C55.9933 43.6446 56.1447 43.4033 56.2549 43.1476C56.2789 43.0917 56.3009 43.0343 56.3215 42.9765L56.38 42.7882L56.1859 42.8274C56.1265 42.8417 56.0671 42.8585 56.0086 42.8766C55.8265 42.934 55.6492 43.0119 55.4868 43.1127C55.4676 43.2064 55.4422 43.2991 55.4101 43.3899C55.2874 43.733 55.0703 44.0379 54.8116 44.2926C54.7871 44.3165 54.7632 44.3399 54.7378 44.3624ZM54.4177 43.6838C54.4311 43.6451 54.445 43.6064 54.4589 43.5677C54.5178 43.4114 54.5796 43.2556 54.6506 43.1032C54.721 42.9502 54.7977 42.7992 54.8907 42.6534L54.8921 42.6539C54.8878 42.8269 54.8662 42.9947 54.8389 43.1605C54.8125 43.3268 54.7766 43.4902 54.7383 43.6527C54.7119 43.755 54.6851 43.8568 54.6554 43.9581L54.6602 44.0322C54.8839 43.799 55.0689 43.5218 55.1624 43.2107C55.2429 42.9435 55.2558 42.6592 55.2261 42.3825C55.2194 42.3218 55.2108 42.2611 55.1997 42.2009L55.158 42.0078L55.0085 42.1373C54.9635 42.1789 54.9199 42.2224 54.8782 42.2673C54.676 42.4828 54.5073 42.7347 54.4134 43.0162C54.3372 43.2446 54.3118 43.4869 54.3218 43.7273L54.4273 43.68L54.4177 43.6838ZM54.0406 43.8831C54.0104 43.561 54.0343 43.2317 54.1369 42.9239C54.1781 42.8016 54.2313 42.684 54.2941 42.5713C54.2385 42.4351 54.1685 42.3046 54.0889 42.1813C54.0559 42.1297 54.0209 42.079 53.984 42.0303L53.8599 41.8764L53.7842 42.059C53.7631 42.1163 53.7435 42.1741 53.7262 42.2329C53.6424 42.5158 53.605 42.8169 53.6471 43.1103C53.6893 43.4033 53.8101 43.6809 53.9701 43.929L54.0406 43.8831ZM46.4329 42.8193C46.4271 42.8274 46.4214 42.8355 46.4156 42.8422C50.2051 40.6582 51.5018 35.8253 49.3109 32.0475C48.2366 30.1947 46.4564 28.8552 44.3738 28.3357C48.9544 31.7684 49.8764 38.2535 46.4329 42.8193ZM30.688 32.0475C28.4976 35.8253 29.7943 40.6582 33.5838 42.8422C33.5781 42.8355 33.5723 42.8274 33.5665 42.8193C30.1231 38.2535 31.0446 31.7684 35.6252 28.3357C33.5431 28.8552 31.7624 30.1947 30.688 32.0475ZM24.9885 42.1225C25.047 42.1588 25.1505 42.2319 25.1457 42.2291C25.2688 41.7488 25.3062 41.2394 25.1979 40.7529C25.1337 40.4652 25.0206 40.1894 24.8759 39.9333C24.6962 39.6159 24.4686 39.3254 24.2103 39.0683L24.1868 39.0449C24.1858 39.0477 24.1844 39.0501 24.1835 39.053C24.103 39.2446 24.0363 39.4425 23.9851 39.6441C23.9443 39.8038 23.9137 39.9658 23.894 40.1292C23.8576 40.4389 23.8619 40.7552 23.9237 41.0616C23.9851 41.3679 24.1029 41.6613 24.2568 41.9333C24.3377 42.0766 24.4288 42.2143 24.528 42.3462C24.5754 42.4092 24.6248 42.4709 24.676 42.5316L24.6971 42.446C24.6377 42.2047 24.5879 41.9615 24.5405 41.7177C24.4949 41.4707 24.4523 41.2231 24.4197 40.9732C24.3857 40.7237 24.3583 40.4723 24.3478 40.2176L24.3493 40.2171C24.4504 40.4518 24.5342 40.6898 24.6119 40.9297C24.6904 41.1691 24.759 41.4109 24.8251 41.6532C24.863 41.7985 24.8999 41.9438 24.9348 42.0895L24.9885 42.1225ZM23.6439 39.8406C23.4536 39.6886 23.249 39.5548 23.0353 39.4386L23.0061 39.4229C23.0061 39.4257 23.0056 39.4286 23.0051 39.4315C22.9811 39.6451 22.9735 39.8606 22.9826 40.0757C22.9893 40.2329 23.0056 40.3901 23.032 40.5454C23.0856 40.8618 23.1834 41.172 23.3362 41.4554C23.4766 41.7158 23.6616 41.9505 23.8725 42.1579C24.0019 42.2855 24.1413 42.403 24.2879 42.5106C24.2721 42.4895 24.2563 42.4685 24.241 42.447C23.9554 42.0499 23.7349 41.5997 23.6381 41.1184C23.5533 40.6974 23.5658 40.2621 23.6439 39.8406ZM55.5357 42.3576C55.5975 42.3361 55.6583 42.3122 55.7178 42.2859C56.0216 42.154 56.3062 41.9648 56.5151 41.7063C56.691 41.4888 56.8108 41.2307 56.8879 40.9636C56.9047 40.9048 56.92 40.8451 56.933 40.7854L56.9675 40.5908L56.7796 40.6544C56.7221 40.6759 56.6656 40.6998 56.6095 40.7251C56.4365 40.8049 56.2702 40.9039 56.1217 41.0243C56.115 41.1199 56.1011 41.215 56.0805 41.3087C56.0019 41.6647 55.8246 41.9944 55.5999 42.2793C55.5788 42.3055 55.5577 42.3318 55.5357 42.3576ZM25.4145 42.3538C25.5146 42.1875 25.6033 42.014 25.6771 41.8343C25.7859 41.5686 25.8621 41.2881 25.8899 41.0018C25.92 40.6898 25.8918 40.3744 25.8228 40.069C25.7403 39.7058 25.6009 39.3555 25.4217 39.0296L25.4054 39.0009C25.4035 39.0028 25.4016 39.0052 25.4001 39.0071C25.2688 39.1691 25.149 39.3397 25.0431 39.5194C25.0302 39.5414 25.0177 39.5634 25.0053 39.5853C25.2463 39.9572 25.4274 40.3691 25.5055 40.8054C25.5904 41.2766 25.5564 41.7631 25.4461 42.2276C25.4361 42.2697 25.4255 42.3117 25.4145 42.3538ZM54.78 41.9529C54.7124 41.6422 54.6966 41.3182 54.7589 41.0057C54.7843 40.879 54.8221 40.7553 54.8705 40.6358C54.7982 40.5077 54.7129 40.3868 54.6185 40.2745C54.5787 40.2272 54.5375 40.1818 54.4953 40.1378L54.3525 40.0002L54.3008 40.1909C54.2864 40.2506 54.2744 40.3108 54.2648 40.371C54.2169 40.6621 54.2174 40.965 54.296 41.2508C54.3741 41.5342 54.527 41.7928 54.7143 42.0174L54.78 41.9529ZM55.4532 41.9892C55.6286 41.7421 55.7618 41.4621 55.8121 41.1624C55.8586 40.8867 55.8356 40.6033 55.7714 40.3328C55.757 40.2731 55.7407 40.2138 55.7225 40.1555L55.6569 39.9691L55.5246 40.1163C55.4853 40.1631 55.4479 40.2114 55.4115 40.2611C55.2385 40.5005 55.1029 40.7715 55.0449 41.0621C55.0004 41.2833 55.0023 41.5113 55.0358 41.7345L55.1475 41.6546C55.1513 41.6379 55.1552 41.6207 55.159 41.604C55.1978 41.4415 55.2395 41.2795 55.2913 41.1194C55.3416 40.9588 55.3986 40.7992 55.4729 40.6429L55.4743 40.6434C55.4916 40.8155 55.4915 40.9846 55.4853 41.1524C55.48 41.3206 55.4647 41.4874 55.447 41.6532C55.4384 41.7216 55.4293 41.7904 55.4192 41.8582L55.4532 41.9892ZM56.1979 40.3724C56.2549 40.3409 56.311 40.3075 56.3661 40.2721C56.6435 40.0924 56.8932 39.8587 57.0571 39.5696C57.1951 39.3268 57.2708 39.0525 57.3034 38.7763C57.3101 38.7151 57.3154 38.6539 57.3182 38.5928L57.3202 38.3954L57.1457 38.4886C57.0925 38.5196 57.0403 38.5521 56.9895 38.5865C56.8319 38.6936 56.6838 38.8183 56.5573 38.9612C56.5659 39.0568 56.5683 39.1524 56.563 39.2484C56.5439 39.6126 56.4231 39.9662 56.2482 40.2845C56.2319 40.3141 56.2151 40.3433 56.1979 40.3724ZM54.871 40.123C54.9242 40.1889 54.975 40.2568 55.0219 40.327C55.0277 40.3175 55.0335 40.3075 55.0392 40.2979C54.9803 40.2425 54.9242 40.1842 54.871 40.123ZM55.7154 39.5251C55.7249 39.4138 55.7369 39.302 55.7532 39.1901C55.7772 39.0238 55.8069 38.857 55.8548 38.6907C55.9003 38.8575 55.9291 39.0248 55.9501 39.1916C55.9727 39.3584 55.9851 39.5251 55.9947 39.6919C55.9995 39.8195 56.0033 39.9471 56.0024 40.0747C56.0057 40.0857 56.0091 40.0967 56.0124 40.1082L56.0177 40.0977C56.1715 39.8057 56.2741 39.4797 56.2746 39.1476C56.275 38.8685 56.2061 38.5923 56.0982 38.3361C56.0743 38.2793 56.0489 38.2238 56.0211 38.1689L55.9257 37.9959L55.8193 38.1627C55.7887 38.2157 55.759 38.2692 55.7316 38.3242C55.5999 38.5885 55.5107 38.8781 55.5011 39.1744C55.4959 39.3392 55.515 39.5036 55.5534 39.6637C55.5668 39.6513 55.7154 39.5251 55.7154 39.5251ZM55.319 39.9089C55.2429 39.6685 55.2017 39.4171 55.2098 39.1648C55.2141 39.0358 55.2314 38.9077 55.2591 38.782C55.1671 38.6673 55.0627 38.5617 54.951 38.4666C54.9045 38.4265 54.8562 38.3882 54.8068 38.3519L54.6443 38.2396L54.6237 38.436C54.6199 38.4972 54.618 38.5584 54.618 38.6195C54.6185 38.9149 54.6688 39.2135 54.7934 39.4826C54.8926 39.6967 55.0363 39.8869 55.204 40.0527L55.319 39.9089ZM24.781 39.1213C24.8222 39.0726 24.862 39.0234 24.9008 38.9727C25.1716 38.6205 25.3853 38.2186 25.485 37.7842C25.5506 37.497 25.5669 37.1992 25.5463 36.9058C25.5204 36.5421 25.4399 36.1827 25.3172 35.8401L25.3057 35.809C25.3038 35.8109 25.3014 35.8128 25.2995 35.8148C25.1438 35.9533 24.9986 36.1034 24.8658 36.264C24.8495 36.2836 24.8337 36.3032 24.8174 36.3232C24.9967 36.728 25.1097 37.1634 25.1179 37.6069C25.1265 38.0852 25.0153 38.5607 24.8328 39.0014C24.8165 39.0415 24.7992 39.0817 24.781 39.1213ZM22.87 35.8468L22.8676 35.8549C22.8115 36.0551 22.7708 36.2597 22.7454 36.4661C22.7253 36.6296 22.7152 36.7944 22.7166 36.9588C22.7195 37.2709 22.7636 37.5839 22.8637 37.8802C22.9634 38.1765 23.1172 38.4527 23.3041 38.7027C23.4028 38.8351 23.5107 38.9603 23.6257 39.0783C23.6314 39.0845 23.6424 39.095 23.6424 39.095C23.6309 39.0726 23.6195 39.0501 23.608 39.0276C23.3894 38.5904 23.2428 38.111 23.2241 37.6207C23.2073 37.1916 23.2888 36.7634 23.4326 36.36C23.2687 36.1803 23.0885 36.015 22.8963 35.8668L22.87 35.8468ZM24.527 38.9765C24.6042 38.8021 24.6689 38.6219 24.7182 38.4379C24.7935 38.1607 24.8342 37.8731 24.8261 37.5858C24.817 37.2723 24.7499 36.9627 24.643 36.6683C24.5865 36.5125 24.5189 36.361 24.4422 36.2138C24.343 36.0231 24.2285 35.8401 24.1005 35.6671L24.0957 35.6599C24.0938 35.6623 24.0924 35.6647 24.091 35.6671C23.9769 35.8496 23.8773 36.0408 23.7929 36.2386C23.7277 36.3911 23.6721 36.5479 23.6276 36.7075C23.5442 37.009 23.5006 37.323 23.5164 37.636C23.5313 37.939 23.5998 38.2382 23.7052 38.5225C23.7618 38.6745 23.8284 38.8226 23.9036 38.9665L24.0076 38.7404L24.033 38.6922C24.0277 38.5799 24.0234 38.4671 24.0196 38.3548C24.0143 38.1034 24.0114 37.8525 24.0191 37.6007C24.0253 37.3488 24.0378 37.0965 24.068 36.8432H24.0694C24.1322 37.0903 24.1767 37.3392 24.2155 37.5882C24.2548 37.8367 24.2846 38.0862 24.3109 38.3361C24.3258 38.4905 24.3397 38.6449 24.3512 38.7992L24.527 38.9765ZM56.461 38.3481C56.5127 38.3084 56.5625 38.2664 56.6109 38.2224C56.8563 38.0011 57.0652 37.7306 57.1807 37.4191C57.2775 37.1572 57.3087 36.8742 57.2962 36.5966C57.2933 36.5354 57.2885 36.4742 57.2814 36.4136L57.2521 36.2181L57.0945 36.3381C57.047 36.3768 57.001 36.4174 56.956 36.4594C56.8175 36.5899 56.6915 36.7366 56.5894 36.8981C56.6133 36.9909 56.6311 37.085 56.6412 37.1811C56.6809 37.5433 56.6186 37.9118 56.4964 38.2535C56.4854 38.2855 56.4734 38.317 56.461 38.3481ZM55.5381 38.068C55.4144 37.8324 55.3262 37.5782 55.2922 37.3139C55.2755 37.1858 55.2716 37.0568 55.2793 36.9282C55.17 36.8298 55.0498 36.7424 54.9242 36.6659C54.872 36.6339 54.8183 36.6038 54.7637 36.5756L54.5849 36.491L54.5964 36.6879C54.6022 36.749 54.6103 36.8097 54.6204 36.8704C54.6683 37.1615 54.7661 37.4482 54.9319 37.6943C55.0713 37.9008 55.2563 38.0733 55.4614 38.2143L55.5381 38.068ZM56.1797 37.8539C56.2108 37.906 56.2405 37.9596 56.2688 38.0136C56.3527 37.7268 56.3881 37.4234 56.3402 37.1275C56.2961 36.8518 56.1835 36.5899 56.0359 36.3543C56.0033 36.3022 55.9693 36.2516 55.9329 36.2018L55.8112 36.0461L55.7331 36.2276C55.711 36.2845 55.6904 36.3423 55.6722 36.4011C55.5845 36.6826 55.5428 36.9827 55.5812 37.2771C55.6032 37.4506 55.6535 37.6188 55.7225 37.7794L55.8509 37.6183C55.8414 37.4969 55.8342 37.3751 55.8328 37.2523C55.8289 37.0845 55.8318 36.9153 55.8524 36.7433H55.8538C55.9252 36.9005 55.9794 37.0611 56.0273 37.2222C56.0762 37.3832 56.115 37.5462 56.1509 37.7091C56.161 37.7574 56.1706 37.8052 56.1797 37.8539ZM56.4816 36.297C56.5285 36.252 56.5741 36.2047 56.6177 36.1564C56.8386 35.9108 57.0183 35.6202 57.1007 35.2986C57.1702 35.0281 57.1716 34.7433 57.1299 34.4685C57.1213 34.4078 57.1098 34.3476 57.0964 34.2879L57.047 34.0967L56.9028 34.232C56.8596 34.2754 56.818 34.3209 56.7777 34.3672C56.6531 34.5115 56.5434 34.6707 56.4586 34.8418C56.4921 34.9311 56.5194 35.0234 56.5396 35.117C56.6167 35.4735 56.5927 35.8468 56.507 36.199C56.4993 36.232 56.4907 36.2645 56.4816 36.297ZM55.492 36.047C55.3651 35.8434 55.2668 35.6226 55.2112 35.3894C55.182 35.2656 55.1652 35.1395 55.159 35.0133L55.1585 35.0066C55.0397 34.9201 54.9113 34.8456 54.7785 34.7825C54.7229 34.7562 54.6664 34.7318 54.6094 34.7094L54.4225 34.6434L54.4546 34.8384C54.4666 34.8981 54.481 34.9579 54.4972 35.0171C54.5754 35.3015 54.7018 35.5768 54.8926 35.8042C55.0397 35.9796 55.2218 36.1225 55.4197 36.2367L55.492 36.047ZM55.5956 34.0762C55.574 34.1378 55.5543 34.1999 55.5371 34.263C55.5208 34.3218 55.5069 34.3815 55.4949 34.4418C55.4369 34.7309 55.4264 35.0339 55.4949 35.3225C55.5289 35.4649 55.5817 35.6021 55.6478 35.7326L55.7489 35.5663L55.7949 35.6102C55.7743 35.4984 55.7561 35.3856 55.7427 35.2719C55.7221 35.1051 55.7072 34.9364 55.7096 34.7634L55.7106 34.7629C55.7982 34.9125 55.8687 35.0664 55.9329 35.2217C55.9985 35.377 56.0541 35.5347 56.1068 35.6934C56.1504 35.832 56.1931 35.9715 56.2286 36.1125C56.231 36.1015 56.2333 36.0905 56.2362 36.079C56.3076 35.7569 56.321 35.4157 56.2348 35.095C56.162 34.8255 56.023 34.577 55.8514 34.3576C55.8136 34.3094 55.7743 34.2621 55.7335 34.2167L55.596 34.0743L55.5956 34.0762ZM25.9081 32.7199C25.9081 32.7199 25.656 32.8972 25.5228 32.9708C25.4538 33.009 25.3838 33.0458 25.3124 33.0802C25.3891 33.5084 25.3968 33.9505 25.3033 34.3763C25.2008 34.8437 24.9827 35.2805 24.7034 35.6676C24.678 35.7029 24.6516 35.7378 24.6253 35.7722C24.6765 35.7345 24.7269 35.6958 24.7762 35.6551C25.1208 35.3746 25.4217 35.0329 25.6196 34.6329C25.7499 34.3686 25.8347 34.0833 25.8827 33.7928C25.9406 33.4387 25.9464 33.0764 25.9081 32.7199ZM24.401 35.5863L24.4044 35.582C24.712 35.1787 24.9507 34.7127 25.0393 34.2105C25.0915 33.9123 25.0915 33.6064 25.0527 33.3067C25.0072 32.9531 24.9094 32.6062 24.7724 32.2774L24.7594 32.2468C24.7575 32.2487 24.7556 32.2506 24.7532 32.2525C24.6051 32.3992 24.4681 32.5565 24.3435 32.7232C24.2448 32.8556 24.1542 32.9937 24.0732 33.1371C23.9208 33.4095 23.8039 33.7034 23.7431 34.0102C23.6827 34.3166 23.6793 34.6324 23.7172 34.9421C23.7368 35.1056 23.7685 35.2676 23.8092 35.4272C23.8178 35.4602 23.8269 35.4931 23.836 35.5256L23.9697 35.3273C23.998 35.1682 24.0296 35.0095 24.0617 34.8513C24.1144 34.6057 24.17 34.3605 24.2357 34.1173C24.2999 33.874 24.3708 33.6312 24.459 33.3918H24.4604C24.4638 33.647 24.4499 33.8993 24.4298 34.1502C24.4106 34.4016 24.3814 34.6511 24.3497 34.9001C24.3258 35.0711 24.3009 35.2422 24.2726 35.4124L24.401 35.5863ZM23.5236 32.1464L23.5193 32.1536C23.4187 32.3361 23.3314 32.5254 23.2591 32.7204C23.2016 32.8747 23.1537 33.0329 23.1172 33.1935C23.0473 33.4974 23.0181 33.8124 23.0468 34.1235C23.0751 34.4346 23.1613 34.739 23.285 35.0253C23.3501 35.1768 23.4263 35.323 23.5107 35.4649C23.514 35.4702 23.5174 35.4759 23.5207 35.4817L23.5241 35.4869C23.5178 35.4616 23.5116 35.4363 23.5054 35.4109C23.3894 34.9158 23.3602 34.3949 23.4695 33.896C23.5572 33.4955 23.7292 33.118 23.9525 32.7749C23.8313 32.555 23.6884 32.3467 23.5289 32.1531L23.5236 32.1464ZM55.2376 34.2578C55.0938 34.0752 54.975 33.8731 54.895 33.6542C54.8513 33.5347 54.8197 33.4119 54.7986 33.2872L54.7977 33.2809C54.6693 33.2083 54.5332 33.1495 54.3937 33.1022C54.3358 33.0826 54.2768 33.0649 54.2174 33.0496L54.0243 33.0057L54.0789 33.1959C54.0981 33.2537 54.1191 33.3115 54.1422 33.3684C54.2528 33.6418 54.4115 33.9003 54.6276 34.1039C54.7919 34.2587 54.9865 34.3782 55.1935 34.4685L55.2376 34.2578ZM56.2635 34.4073C56.3047 34.3572 56.344 34.3051 56.3819 34.252C56.5721 33.982 56.7164 33.6728 56.7605 33.3436C56.7974 33.0669 56.7657 32.7839 56.6924 32.5158C56.6761 32.4566 56.6579 32.3983 56.6378 32.34L56.5659 32.156L56.4389 32.3075C56.4011 32.3557 56.3647 32.4054 56.3306 32.4561C56.2238 32.6143 56.1332 32.7849 56.0695 32.9646C56.1131 33.0497 56.1509 33.1381 56.1821 33.2289C56.3004 33.5739 56.3206 33.9471 56.2774 34.3075C56.2731 34.3409 56.2688 34.3739 56.2635 34.4073ZM56.0043 34.0843C56.0177 33.7985 55.9837 33.5089 55.8768 33.2427C55.7728 32.9837 55.6056 32.7529 55.4096 32.555C55.3665 32.5115 55.3214 32.4695 55.2754 32.4289L55.1226 32.3036L55.0862 32.4977C55.0771 32.5584 55.0699 32.6191 55.0651 32.6802C55.0416 32.9746 55.067 33.2762 55.1686 33.5548C55.2146 33.6795 55.275 33.798 55.3464 33.9094L55.402 33.7775L55.4844 33.604L55.4575 33.6604C55.4403 33.5992 55.424 33.5376 55.4091 33.4759C55.3684 33.3125 55.3344 33.1467 55.3162 32.9746L55.3176 32.9741C55.4221 33.1123 55.5098 33.257 55.5922 33.4038C55.6751 33.5505 55.7489 33.7005 55.8203 33.8516C55.8294 33.8726 55.839 33.8936 55.8485 33.9146L56.0043 34.0843ZM54.7962 32.4671C54.6525 32.317 54.5279 32.1498 54.4321 31.9648C54.3731 31.852 54.3262 31.734 54.2893 31.6131L54.2873 31.6069C54.1508 31.5514 54.0084 31.5103 53.8642 31.4812C53.8038 31.4692 53.743 31.4592 53.6821 31.4511L53.4852 31.4324L53.5638 31.6136C53.5901 31.669 53.6184 31.7235 53.6486 31.777C53.7933 32.0341 53.9835 32.2707 54.2241 32.4451C54.3894 32.5651 54.5758 32.6535 54.7704 32.7156L54.7867 32.5378C54.7896 32.5144 54.7929 32.4905 54.7962 32.4671ZM25.9651 32.3161C26.1208 32.1837 26.2631 32.0365 26.3868 31.874C26.577 31.6246 26.7189 31.3412 26.8209 31.0449C26.9417 30.6927 27.0078 30.3218 27.0265 29.9505L27.0279 29.917C27.0251 29.918 27.0227 29.919 27.0198 29.9199C26.8229 29.9887 26.6312 30.0719 26.4467 30.1694C26.4242 30.1813 26.4016 30.1933 26.3791 30.2057C26.3887 30.6482 26.3264 31.0936 26.163 31.506C26.001 31.9166 25.7461 32.286 25.4423 32.6052L25.6575 32.4738C25.7504 32.4207 25.9651 32.3161 25.9651 32.3161ZM55.885 32.5383C55.92 32.4829 55.9521 32.4265 55.9827 32.3691C56.1375 32.0771 56.241 31.7517 56.2425 31.4195C56.2439 31.1405 56.1758 30.8637 56.069 30.6071C56.045 30.5507 56.0196 30.4948 55.9923 30.4403L55.8974 30.2669L55.7906 30.4332C55.7594 30.4857 55.7302 30.5397 55.7024 30.5942C55.6166 30.7643 55.5486 30.945 55.5083 31.1318C55.563 31.2107 55.6119 31.2934 55.654 31.3794C55.8155 31.7068 55.8835 32.0743 55.8859 32.437C55.8864 32.4704 55.8859 32.5044 55.885 32.5383ZM25.1591 32.4795C25.2717 32.3667 25.3776 32.2477 25.4749 32.1216C25.6508 31.8941 25.7988 31.6437 25.9018 31.3751C26.014 31.0821 26.071 30.7706 26.0854 30.4575C26.1021 30.0857 26.0614 29.7115 25.9752 29.3493L25.967 29.3173C25.9646 29.3192 25.9627 29.3206 25.9603 29.3225C25.7907 29.4434 25.6297 29.5768 25.4802 29.7221C25.3618 29.8368 25.2501 29.9586 25.1476 30.0876C24.9478 30.339 24.7815 30.6186 24.6727 30.9216C24.5702 31.2074 24.5189 31.5099 24.5069 31.8124C24.5031 31.9046 24.5031 31.9964 24.5064 32.0881C24.5644 32.0293 24.6248 31.9725 24.6866 31.9175L24.8514 31.7799L24.8567 31.7899L24.8615 31.7775C24.953 31.5433 25.047 31.3106 25.1505 31.0807C25.253 30.8504 25.3618 30.6224 25.4873 30.3997L25.4883 30.4002C25.4514 30.6525 25.3972 30.8996 25.3369 31.1443C25.2779 31.389 25.2094 31.6308 25.138 31.8716C25.1073 31.972 25.0757 32.0719 25.0436 32.1713C25.0503 32.1866 25.0565 32.2019 25.0628 32.2176C25.0977 32.3036 25.1299 32.3911 25.1591 32.4795ZM55.5917 32.3256C55.5759 32.0155 55.5054 31.7044 55.3531 31.432C55.2165 31.1882 55.0215 30.9804 54.8015 30.8093C54.7531 30.7715 54.7033 30.7357 54.6525 30.7013L54.4848 30.5966L54.4738 30.7935C54.4723 30.8547 54.4733 30.9163 54.4762 30.9775C54.4901 31.2719 54.5538 31.5682 54.6908 31.8315C54.7416 31.9299 54.8025 32.0231 54.871 32.1101L54.9563 31.8492L54.9735 31.8602C54.9549 31.8143 54.9362 31.7689 54.9189 31.7225C54.8576 31.5658 54.8025 31.4062 54.7627 31.2375L54.7637 31.237C54.8854 31.3603 54.9908 31.4927 55.0914 31.6279C55.1926 31.7627 55.285 31.9022 55.3746 32.0432C55.412 32.1039 55.4489 32.1641 55.4849 32.2257L55.5917 32.3256ZM25.0862 29.7106C25.0043 29.4817 24.9008 29.2609 24.7801 29.0501L24.7633 29.0215C24.7613 29.0239 24.7599 29.0262 24.758 29.0282C24.6253 29.1978 24.505 29.377 24.4 29.5648C24.3229 29.7025 24.2534 29.8444 24.1945 29.9906C24.0771 30.2798 23.9975 30.5861 23.9759 30.8977C23.9544 31.2093 23.9908 31.5232 24.067 31.8257C24.1072 31.9854 24.1585 32.1426 24.2194 32.2955C24.2228 32.3036 24.2256 32.3113 24.229 32.3194C24.2294 32.3232 24.2251 32.2711 24.2227 32.242C24.1873 31.7345 24.2419 31.216 24.4298 30.7404C24.5802 30.3591 24.8107 30.014 25.0862 29.7106ZM54.1815 30.8236C53.9711 30.6917 53.7789 30.5297 53.6232 30.3362C53.5432 30.2368 53.4737 30.1307 53.4133 30.0193C53.4133 30.0193 53.3045 29.9959 53.2513 29.9897C53.177 29.9811 53.1023 29.9768 53.0271 29.9744C52.9993 29.9739 52.971 29.9739 52.9427 29.9739C52.8905 29.9749 52.8388 29.9768 52.7865 29.9801L52.5896 30.0007C52.648 30.0924 52.7127 30.1804 52.7822 30.2645C52.9935 30.5187 53.2547 30.739 53.5614 30.868C53.7598 30.9517 53.972 30.9966 54.1862 31.0129L54.1815 30.8236ZM54.6515 28.5665C54.6386 28.6023 54.514 29.2336 54.513 29.3068C54.582 29.3737 54.6463 29.4454 54.7052 29.5213C54.9285 29.8105 55.0675 30.1569 55.1422 30.512C55.1494 30.545 55.1557 30.578 55.1614 30.6114C55.1844 30.5503 55.205 30.4886 55.2237 30.4265C55.3171 30.1096 55.354 29.7703 55.2898 29.4444C55.2357 29.1706 55.1144 28.913 54.9587 28.6826C54.9242 28.6315 54.8883 28.5823 54.8504 28.5335L54.7229 28.3825L54.6515 28.5665ZM54.8346 30.4733C54.7584 30.1679 54.6266 29.8726 54.4201 29.6322C54.2385 29.42 54.0056 29.2547 53.7564 29.1304C53.7013 29.1027 53.6457 29.0774 53.5887 29.054L53.4037 28.9842L53.4315 29.1796C53.4425 29.2399 53.4555 29.2996 53.4703 29.3593C53.5427 29.6451 53.6639 29.9233 53.8503 30.1541C53.9524 30.2807 54.0722 30.3916 54.2035 30.4876L54.2394 30.2779C54.1747 30.188 54.112 30.0967 54.0525 30.0026C53.9615 29.8607 53.8757 29.7149 53.8029 29.5577L53.8043 29.5567C53.9476 29.6542 54.0774 29.7627 54.2025 29.8759C54.3285 29.9878 54.4469 30.1063 54.5629 30.2267C54.6156 30.2836 54.6678 30.3404 54.7196 30.3983C54.7584 30.4222 54.7967 30.4475 54.8346 30.4733ZM26.2713 29.3369C26.2981 29.4544 26.3446 29.6881 26.3446 29.6881C26.715 29.4415 27.0471 29.1304 27.2824 28.751C27.4377 28.5006 27.5493 28.2243 27.625 27.94C27.7185 27.5873 27.7587 27.2212 27.7535 26.8575L27.753 26.8241C27.7501 26.8255 27.7477 26.8265 27.7448 26.8274C27.5527 26.9092 27.3667 27.0043 27.1889 27.1132C27.0485 27.1992 26.9129 27.2939 26.7845 27.3976C26.5416 27.594 26.3235 27.8234 26.1534 28.0862C25.9828 28.3486 25.8621 28.6406 25.782 28.9421C25.7662 29.0023 25.7518 29.0626 25.7389 29.1232L25.9483 28.9808L26.1328 28.8709L26.1596 28.9498C26.2924 28.7534 26.4275 28.5584 26.5708 28.3677C26.7208 28.1651 26.877 27.9663 27.0476 27.7765L27.049 27.777C26.9575 28.0155 26.8506 28.2444 26.7385 28.47C26.6273 28.6965 26.5075 28.9173 26.3853 29.1371C26.3475 29.2031 26.3096 29.2695 26.2708 29.3354L26.2713 29.3369ZM27.3121 29.5352C27.315 29.5964 27.3159 29.6222 27.3159 29.6222C27.4386 29.5438 27.5551 29.4559 27.6638 29.3584C27.8953 29.1505 28.0879 28.902 28.2451 28.6344C28.4258 28.3266 28.5618 27.9926 28.6548 27.648L28.6567 27.6399C28.6543 27.6403 28.6515 27.6408 28.6486 27.6408C28.4344 27.6661 28.2221 27.7077 28.0141 27.7656C27.9964 27.7703 27.9787 27.7756 27.9609 27.7808C27.8737 28.2143 27.7151 28.6358 27.4659 29.0028C27.2953 29.2537 27.0869 29.4764 26.854 29.6704C26.9422 29.6384 27.0318 29.6088 27.1224 29.5839L27.3121 29.5352ZM53.156 29.2877C52.9782 29.1777 52.8148 29.0454 52.6754 28.8896C52.5896 28.793 52.5134 28.6888 52.4468 28.5785C52.3581 28.5665 52.269 28.5598 52.1794 28.5579C52.1597 28.5579 52.1396 28.5574 52.12 28.5574C51.9546 28.5589 51.7898 28.5761 51.6273 28.6066L51.6259 28.6071C51.6892 28.6955 51.7582 28.7801 51.832 28.8604C52.0557 29.1037 52.3279 29.3106 52.6408 29.4238C52.8258 29.4907 53.0204 29.5252 53.2163 29.5347L53.2159 29.5323C53.1948 29.4602 53.156 29.2877 53.156 29.2877ZM26.807 27.0167C26.8018 26.9737 26.7956 26.9311 26.7888 26.8886C26.7563 26.6831 26.7078 26.4805 26.6451 26.2822L26.6422 26.274C26.6403 26.276 26.6379 26.2774 26.636 26.2793C26.3532 26.5106 26.0988 26.7782 25.8889 27.0764C25.7049 27.3388 25.5559 27.6265 25.4643 27.9338C25.3752 28.2334 25.3417 28.5479 25.3498 28.8594C25.3546 29.0243 25.3704 29.1887 25.3963 29.3512C25.3977 29.3598 25.3992 29.3684 25.4006 29.377L25.4116 29.2991C25.4845 28.816 25.6412 28.3405 25.9085 27.928C26.1429 27.5677 26.4563 27.2642 26.807 27.0167ZM54.33 28.6152C54.3588 28.3816 54.352 28.1436 54.2945 27.9147C54.2265 27.6437 54.0923 27.3928 53.9246 27.1701C53.8877 27.1214 53.8489 27.0736 53.8091 27.0272L53.674 26.8824L53.6122 27.0697C53.5949 27.1285 53.5796 27.1883 53.5661 27.248C53.5254 27.4339 53.5048 27.626 53.512 27.8167L53.5163 27.8205C53.5868 27.8826 53.6529 27.9491 53.7142 28.0208C53.9519 28.2979 54.1091 28.6372 54.2016 28.988C54.2088 29.0148 54.2155 29.0415 54.2217 29.0678L54.2298 29.074C54.2337 29.0621 54.2423 29.0277 54.2423 29.0277C54.2605 28.8881 54.2907 28.75 54.33 28.6152ZM52.3873 27.5519C52.3979 27.6164 52.4103 27.6805 52.4252 27.744C52.4391 27.8038 52.4549 27.863 52.4731 27.9218C52.5599 28.2038 52.6955 28.4748 52.8929 28.6965C52.9576 28.7687 53.0285 28.8351 53.1037 28.8958L53.0999 28.6071L53.1469 28.6176C53.1267 28.5904 53.1066 28.5627 53.087 28.5345C52.9892 28.3978 52.8958 28.2564 52.8153 28.1029L52.8162 28.102C52.9643 28.1923 53.0999 28.2941 53.2307 28.4002C53.362 28.5058 53.4861 28.6181 53.6083 28.7328L53.6356 28.7591C53.6749 28.7744 53.7138 28.7906 53.7526 28.8074C53.7871 28.8231 53.8216 28.8389 53.8561 28.8556C53.7636 28.5947 53.627 28.3476 53.4354 28.146C53.2427 27.9433 53.0022 27.7904 52.7467 27.6786C52.6907 27.6537 52.6337 27.6313 52.5757 27.6107L52.3869 27.5505L52.3873 27.5519ZM51.0902 27.2418C51.0269 27.2427 50.9637 27.2456 50.9004 27.2508L50.6541 27.2829C50.7159 27.3722 50.7835 27.4583 50.8559 27.5395C51.0753 27.7866 51.3441 27.9978 51.6556 28.1168C51.854 28.1923 52.0653 28.2301 52.2776 28.2401L52.1933 28.0026C52.0093 27.8869 51.8411 27.7474 51.6987 27.583C51.6154 27.4865 51.5425 27.3827 51.4783 27.2733L51.4754 27.2681C51.4333 27.2614 51.2138 27.2265 51.0902 27.2418ZM42.0857 27.7651C41.4095 28.2391 40.4751 28.0776 39.9997 27.4028C39.5244 28.0776 38.5899 28.2391 37.9138 27.7651C37.3464 27.3679 37.1274 26.6339 37.3848 25.9911C37.5295 26.7567 38.2694 27.2609 39.037 27.1156C39.4415 27.0401 39.7937 26.7916 39.9997 26.436C40.2058 26.7916 40.558 27.0401 40.9619 27.1156C41.7301 27.2609 42.47 26.7567 42.6147 25.9911C42.872 26.6339 42.653 27.3679 42.0857 27.7651ZM53.3711 26.8652C53.3639 26.7878 53.352 26.7113 53.3342 26.6353C53.271 26.3634 53.1407 26.1101 52.9772 25.885C52.9408 25.8353 52.9035 25.7871 52.8637 25.7402L52.7314 25.593L52.6662 25.7794C52.648 25.8382 52.6317 25.897 52.6174 25.9567C52.5737 26.1421 52.5493 26.3338 52.5532 26.5245C52.6241 26.5885 52.6911 26.6578 52.7525 26.7319C52.9571 26.9794 53.0985 27.2738 53.189 27.5806C53.2005 27.5878 53.212 27.5949 53.2235 27.6021C53.2336 27.4224 53.2643 27.2432 53.3098 27.0697C53.327 27.0033 53.3711 26.8652 53.3711 26.8652ZM51.4338 26.2406C51.4429 26.3056 51.4543 26.3696 51.4682 26.4337C51.4807 26.4934 51.496 26.5527 51.5128 26.6114C51.5952 26.8953 51.7256 27.1687 51.9197 27.3933C51.9738 27.4563 52.0328 27.5147 52.095 27.5691C52.0864 27.5113 52.0797 27.4525 52.0754 27.3942L52.0644 27.1892L52.0879 27.1935C52.0026 27.0678 51.9221 26.9383 51.8521 26.7988L51.8531 26.7978C51.9997 26.8905 52.1334 26.9947 52.2623 27.1032C52.3255 27.1562 52.3874 27.2102 52.4482 27.2661L52.7261 27.3565C52.7549 27.3675 52.7836 27.3785 52.8119 27.3904C52.7281 27.194 52.6164 27.01 52.4712 26.8523C52.2824 26.6463 52.0443 26.4891 51.7908 26.3734C51.7352 26.3476 51.6781 26.3242 51.6206 26.3022L51.4333 26.2392L51.4338 26.2406ZM28.8221 27.335L28.8412 27.3345C28.9859 27.2781 29.1259 27.2107 29.2591 27.1314C29.5365 26.966 29.7804 26.7486 29.9889 26.5029C30.0962 26.3768 30.1945 26.243 30.2845 26.1034C30.401 25.9228 30.5031 25.7326 30.5903 25.5362L30.5941 25.5285L30.3881 25.5252C30.3119 25.5266 30.2357 25.529 30.16 25.5343C30.068 25.54 29.9759 25.5491 29.8844 25.561C29.732 25.9768 29.5106 26.3687 29.2083 26.6936C28.9265 26.9961 28.5824 27.2351 28.2125 27.4181L28.5024 27.367C28.6083 27.3517 28.7152 27.3402 28.8221 27.335ZM28.0376 27.1801C28.1416 27.1304 28.2436 27.0759 28.3424 27.0167C28.5815 26.8733 28.8043 26.7003 28.9946 26.4963C29.2145 26.2602 29.3875 25.983 29.5188 25.6891C29.5864 25.5381 29.6429 25.3818 29.6899 25.2231C29.7512 25.0167 29.7958 24.8059 29.8245 24.5928L29.8255 24.5842C29.8226 24.5852 29.8197 24.5856 29.8173 24.5866C29.6151 24.6377 29.4162 24.7032 29.2241 24.784C29.0717 24.848 28.9236 24.9206 28.7808 25.0038C28.5106 25.1605 28.2599 25.3541 28.0515 25.5878C27.8483 25.8153 27.6873 26.0776 27.5632 26.3553C27.5215 26.4494 27.4837 26.5445 27.4496 26.6415C27.4755 26.6291 27.5014 26.6172 27.5278 26.6052C27.625 26.5613 27.7247 26.5202 27.8258 26.4853L27.9121 26.4571C28.0774 26.2783 28.2456 26.101 28.4205 25.9295C28.6002 25.7527 28.7847 25.5797 28.9831 25.4181L28.984 25.4191C28.857 25.6404 28.7162 25.8506 28.571 26.0566C28.4262 26.263 28.2743 26.4633 28.1196 26.6616C28.0937 26.6941 28.0683 26.7261 28.0424 26.7586C28.0443 26.8088 28.0453 26.859 28.0453 26.9092C28.0457 26.9995 28.0429 27.0898 28.0376 27.1801ZM51.2804 26.8408C51.0188 26.6984 50.7787 26.5135 50.5904 26.2826C50.5084 26.1823 50.437 26.0743 50.3757 25.961C50.323 25.9515 50.2698 25.9438 50.2161 25.9381C50.1418 25.93 50.0671 25.9261 49.9918 25.9247L49.7762 25.93L49.5544 25.9538C49.6138 26.0451 49.679 26.1326 49.7489 26.2157C49.9617 26.469 50.2243 26.6874 50.5319 26.815C50.714 26.89 50.9071 26.9331 51.1031 26.9512L51.325 26.9584C51.3092 26.9197 51.2943 26.8805 51.2804 26.8408ZM28.8613 24.6301C28.8685 24.3873 28.8527 24.1441 28.8173 23.9041L28.8125 23.8717C28.8101 23.8731 28.8077 23.8745 28.8053 23.876C28.6256 23.9816 28.4536 24.1006 28.2916 24.232C28.1636 24.3357 28.0419 24.4475 27.9284 24.567C27.7075 24.8002 27.5172 25.0645 27.3825 25.3565C27.2551 25.6322 27.1774 25.9295 27.1391 26.2301C27.1171 26.4021 27.1075 26.5761 27.1094 26.7495L27.1324 26.674C27.2848 26.1885 27.5254 25.7254 27.8737 25.3507C28.1536 25.0506 28.4938 24.8126 28.8613 24.6301ZM51.6599 26.0074C51.5876 25.8511 51.496 25.7039 51.383 25.573C51.1994 25.3622 50.966 25.1988 50.7159 25.0755C50.6608 25.0487 50.6048 25.0234 50.5477 25L50.3623 24.9321L50.3915 25.1271C50.4025 25.1873 50.4159 25.247 50.4313 25.3063C50.5055 25.5921 50.6287 25.8693 50.8161 26.0991C50.9186 26.2243 51.0384 26.3338 51.1697 26.4284C51.1491 26.3233 51.1343 26.2162 51.1266 26.1092C51.0892 26.0556 51.0528 26.0012 51.0173 25.9462C50.9253 25.8047 50.8386 25.6595 50.7653 25.5027L50.7662 25.5017C50.91 25.5983 51.0408 25.7063 51.1668 25.8181C51.197 25.8449 51.2263 25.8716 51.2555 25.8984C51.2555 25.8984 51.243 25.896 51.3063 25.908C51.3777 25.9223 51.4481 25.9405 51.5181 25.9615C51.5655 25.9753 51.613 25.9911 51.6599 26.0074ZM52.2158 26.2712C52.2886 25.9806 52.3112 25.6748 52.2513 25.3799C52.1957 25.1065 52.0725 24.8499 51.9149 24.62C51.8804 24.5699 51.8439 24.5202 51.8056 24.4724L51.6777 24.3218L51.6072 24.5063C51.5871 24.5641 51.5694 24.6229 51.5536 24.6822C51.5047 24.8661 51.475 25.0568 51.474 25.2475C51.474 25.2475 51.6087 25.3866 51.6671 25.4606C51.8324 25.6719 51.9527 25.9147 52.0351 26.1694C52.0965 26.2009 52.1568 26.2348 52.2158 26.2712ZM50.1931 25.5309C49.9516 25.4138 49.7278 25.2599 49.5419 25.0659C49.4542 24.9737 49.3756 24.8738 49.3061 24.7677L49.3028 24.7624L49.1111 24.7515C49.0958 24.751 49.0804 24.751 49.0651 24.751C48.8701 24.7524 48.6755 24.7758 48.4848 24.8188H48.4833C48.5495 24.9053 48.6218 24.9875 48.698 25.0654C48.93 25.301 49.2089 25.4984 49.5256 25.6012C49.5798 25.6184 49.6344 25.6332 49.6895 25.6456C49.7604 25.6394 49.8318 25.6356 49.9027 25.6341C49.9339 25.6337 49.9655 25.6337 49.9966 25.6341C50.0757 25.6356 50.1548 25.6399 50.2338 25.648L50.1931 25.5309ZM50.5832 24.7018C50.4993 24.5541 50.3977 24.4164 50.2765 24.297C50.0771 24.101 49.8313 23.9562 49.5721 23.853C49.5151 23.8306 49.4571 23.8095 49.3986 23.7909L49.2084 23.7374L49.2529 23.9295C49.2688 23.9887 49.2865 24.0475 49.3066 24.1053C49.4034 24.3844 49.5477 24.6506 49.7528 24.8652C49.8563 24.9732 49.9727 25.0664 50.0987 25.1462L50.0973 25.1386C50.081 25.0454 50.069 24.9512 50.0623 24.8566V24.8499C50.0211 24.7997 49.9804 24.7491 49.9411 24.697C49.8385 24.5636 49.7408 24.4255 49.655 24.275L49.6559 24.274C49.8074 24.3591 49.9459 24.4561 50.08 24.5579L50.0872 24.5636L50.2439 24.5971C50.3153 24.6134 50.3853 24.6339 50.4543 24.6564C50.4979 24.6707 50.5405 24.6855 50.5832 24.7018ZM51.1501 24.9899C51.2109 24.676 51.2157 24.3462 51.1271 24.0365C51.0499 23.7684 50.9066 23.5218 50.7317 23.3053C50.6934 23.2576 50.6532 23.2112 50.6115 23.1663L50.472 23.0262L50.4159 23.216C50.4006 23.2748 50.3877 23.335 50.3767 23.3952C50.3422 23.5825 50.3278 23.7751 50.3417 23.9653C50.4155 24.026 50.4859 24.0915 50.5506 24.1627C50.7456 24.3749 50.8913 24.6272 50.9958 24.8948C51.048 24.9249 51.0997 24.9565 51.1501 24.9899ZM30.1346 24.4121C30.1288 24.513 30.1168 24.6134 30.1015 24.7128C30.0957 24.7519 30.089 24.7911 30.0823 24.8303C30.1945 24.7419 30.2975 24.6415 30.3861 24.5288C30.5591 24.3085 30.676 24.048 30.7494 23.7789C30.7656 23.7197 30.7795 23.6595 30.7915 23.5992L30.8236 23.4033C30.8227 23.4038 30.8222 23.4038 30.8212 23.4038C30.7589 23.4239 30.6966 23.4458 30.6358 23.4697C30.5788 23.4922 30.5222 23.517 30.4666 23.5433C30.1988 23.6709 29.9486 23.8449 29.7579 24.0733C29.6846 24.1608 29.6209 24.2549 29.5658 24.3539L29.5749 24.3515C29.6918 24.3171 29.8106 24.2869 29.9309 24.264L29.9855 24.2544C30.1039 24.1417 30.2266 24.0322 30.3626 23.9338L30.3636 23.9342C30.298 24.0891 30.2199 24.2339 30.136 24.3744L30.1346 24.4121Z" fill="white"/>
</svg>
