<svg width="80" height="80" viewBox="0 0 80 80" fill="none" xmlns="http://www.w3.org/2000/svg">
<path fill-rule="evenodd" clip-rule="evenodd" d="M40.0381 18.9374C42.4812 18.9374 44.4641 20.941 44.4641 23.4125C44.4641 25.8844 42.481 27.888 40.0381 27.888C37.5912 27.888 35.608 25.8844 35.608 23.4125C35.608 20.941 37.5912 18.9374 40.0381 18.9374ZM50.3442 16C52.7917 16 54.7735 18.0039 54.7735 20.4754C54.7737 22.9473 52.7917 24.9511 50.344 24.9511C47.9005 24.9511 45.9174 22.9473 45.9174 20.4754C45.9174 18.0039 47.9008 16 50.3442 16ZM30.593 23.5163C33.0389 23.5163 35.0214 25.5207 35.0214 27.9934C35.0214 30.4644 33.0389 32.4685 30.593 32.4685C28.1475 32.4685 26.1646 30.4644 26.1646 27.9934C26.1646 25.5207 28.1475 23.5163 30.593 23.5163ZM39.9429 51.5129L40.0105 44.441C40.3038 44.4269 43.2563 44.3107 45.0713 45.2255C45.7359 45.5601 45.8043 45.9915 45.8032 46.4481C45.8021 48.5712 40.0673 51.6026 39.5035 51.8901C32.2413 55.5957 22 56.2257 22 56.2257L22.0962 64C26.478 63.3927 34.3834 62.4991 43.9233 57.3305C48.6418 54.7738 53.7485 50.5653 52.796 44.5415C51.8756 38.7302 45.7893 37.0927 40.0576 37.3436L39.9901 44.4158C39.6997 44.4302 36.7453 44.5467 34.93 43.6322C34.2651 43.2975 34.1981 42.8664 34.1981 42.4092C34.1987 40.2859 39.933 37.2545 40.4973 36.9678C47.7603 33.2614 58 32.6314 58 32.6314L57.904 24.8568C53.5209 25.4654 45.6166 26.3583 36.0775 31.5266C31.3582 34.083 26.2531 38.2918 27.2064 44.3156C28.1265 50.1282 34.2129 51.7644 39.9429 51.5129Z" fill="white"/>
</svg>
