<svg width="80" height="66" viewBox="0 0 80 66" fill="none" xmlns="http://www.w3.org/2000/svg">
<g clip-path="url(#clip0_1_25880)">
<path fill-rule="evenodd" clip-rule="evenodd" d="M19.9687 16.0647C20.1935 16.0635 20.417 16.027 20.6418 16.025C33.4256 16.027 46.2087 16.025 58.9925 16.0257C59.2218 16.0296 59.4544 16.008 59.6825 16.0491C60.8408 16.07 61.9628 16.6184 62.7442 17.4698C63.5384 18.3218 63.9925 19.4826 63.9847 20.6512C63.9821 21.3456 63.9841 22.04 63.9835 22.735C56.2955 22.7344 48.607 22.7357 40.9192 22.7344C40.5019 22.6869 40.0821 22.7122 39.6643 22.6953C39.3701 22.638 39.0696 22.6947 38.7742 22.6563C38.5318 22.6249 38.287 22.6445 38.044 22.6302C37.0729 22.5683 36.0973 22.5201 35.1268 22.4295C34.0261 22.3526 32.9546 22.0667 31.8637 21.9156C30.6283 21.7149 29.3721 21.7332 28.1315 21.8641C27.5633 21.9338 26.944 22.0335 26.5138 22.4471C26.3078 22.6243 26.2411 22.9409 26.3544 23.1871C26.5695 23.5343 26.9634 23.7154 27.347 23.804C27.6028 23.8815 27.8736 23.8085 28.1327 23.8678C28.48 23.8893 28.8305 23.8522 29.177 23.8991C30.3645 23.9395 31.5572 23.8796 32.7304 23.6867C32.7894 23.6822 32.849 23.6776 32.9087 23.6737C33.3006 23.6053 33.6951 23.5532 34.0883 23.4939C35.6153 23.2913 37.1591 23.251 38.6925 23.1656C39.3273 23.1558 39.9616 23.1272 40.5953 23.0927C48.3913 23.0939 56.1874 23.0927 63.9835 23.0933C63.9835 23.7447 63.9835 24.3961 63.9835 25.0475C55.7689 25.0442 47.5543 25.054 39.3397 25.043C39.2283 25.0208 39.1155 25.0097 39.0041 24.9908C38.7476 24.9706 38.493 24.9355 38.2378 24.9081C36.6441 24.7055 35.053 24.4397 33.4451 24.3889C32.9378 24.3199 32.4221 24.4065 31.9148 24.3349C29.821 24.3264 27.7279 24.3329 25.6341 24.3316C25.0536 24.3993 24.4673 24.3264 23.8869 24.3954C23.2649 24.4 22.5789 24.3538 22.0437 24.7316C21.7477 24.9153 21.5171 25.3002 21.6596 25.6494C21.8066 26.0076 22.1915 26.1653 22.5374 26.2611C23.2306 26.435 23.951 26.3705 24.6578 26.3822C25.4559 26.4467 26.2585 26.4017 27.0587 26.4154C27.9436 26.4285 28.8305 26.3829 29.7135 26.4487C31.153 26.4428 32.5938 26.4786 34.0287 26.3594C34.3092 26.3464 34.5904 26.3281 34.8696 26.2949C35.4974 26.2454 36.1225 26.1725 36.7477 26.1002C36.92 26.0813 37.093 26.0597 37.2653 26.0344C37.634 25.9979 38.0007 25.9477 38.368 25.9028C38.4263 25.8969 38.4845 25.8917 38.5435 25.8858C39.501 25.723 40.4727 25.85 41.4348 25.7641C45.4521 25.7634 49.4699 25.7647 53.4879 25.7634C53.6602 25.7601 53.8312 25.7275 54.0048 25.7308C57.3308 25.7328 60.6575 25.7308 63.9835 25.7315C63.9835 26.3717 63.9835 27.0127 63.9835 27.6531C57.0516 27.6531 50.1198 27.6531 43.1879 27.6531C42.8063 27.6642 42.4253 27.64 42.0471 27.5977C40.8848 27.5183 39.7252 27.397 38.5623 27.3183C37.6139 27.2329 36.6635 27.1678 35.7125 27.1241C34.2121 27.029 32.7078 26.9874 31.2028 27.003C30.2985 26.9372 29.3895 26.9822 28.4833 26.9691C26.9725 26.9685 25.4611 26.9711 23.9497 26.9678C23.8486 26.9672 23.7475 26.9737 23.6484 26.9945C23.25 27.0134 22.8509 26.9919 22.4525 27.0049C21.8189 27.0811 21.1523 26.9509 20.546 27.2023C20.1708 27.3404 19.8145 27.6492 19.8042 28.0791C19.8372 28.2999 19.9642 28.5084 20.1592 28.6217C20.5978 28.8979 21.1335 28.9578 21.6408 28.9637C22.2335 29.0204 22.8335 28.9741 23.4288 28.9872C24.5068 29.051 25.5887 29.0086 26.6687 29.021C27.7052 29.021 28.7417 29.0204 29.7783 29.021C30.901 29.1103 32.0262 29.008 33.1496 28.9885C35.6244 28.866 38.0984 28.6895 40.5706 28.5084C41.3992 28.4595 42.2271 28.4113 43.055 28.369C46.6836 28.3703 50.3121 28.369 53.9406 28.3696C54.3948 28.3644 54.8496 28.3885 55.3018 28.3383C58.1957 28.3351 61.0896 28.3383 63.9835 28.337C63.9835 28.9559 63.9835 29.5747 63.9835 30.1935C57.1378 30.1942 50.2921 30.1929 43.4464 30.1942C42.8718 30.2137 42.3061 30.0926 41.7348 30.0535C41.5411 30.0255 41.3467 30.0066 41.1524 29.9883C40.9587 29.961 40.7643 29.9415 40.5693 29.9232C40.3756 29.8952 40.1806 29.8763 39.9863 29.8587C39.5561 29.804 39.124 29.7623 38.6912 29.7278C37.6151 29.6222 36.5339 29.5591 35.4534 29.5356C35.0387 29.4679 34.615 29.5467 34.1992 29.4881C33.5241 29.4503 32.8458 29.5135 32.172 29.4451C29.409 29.4437 26.6467 29.4451 23.8836 29.4437C23.8045 29.4457 23.7262 29.4542 23.6484 29.4698C22.9915 29.4959 22.3327 29.4464 21.6777 29.5102C21.2242 29.4874 20.774 29.5473 20.3211 29.5435C19.8767 29.5728 19.4064 29.6965 19.0961 30.0385C18.8628 30.2593 18.8039 30.671 19.021 30.9211C19.3228 31.282 19.8152 31.381 20.2583 31.4331C20.7098 31.4989 21.1679 31.4299 21.6201 31.4899C22.3514 31.5185 23.0861 31.4599 23.8162 31.5282C24.5937 31.5315 25.3704 31.5257 26.1478 31.5302C26.5786 31.5784 27.0126 31.5576 27.4454 31.5615C28.2662 31.5608 29.0876 31.5621 29.9091 31.5602C30.8148 31.6233 31.7257 31.5856 32.634 31.5908C33.1179 31.5257 33.6076 31.594 34.0928 31.5413C36.0804 31.4742 38.068 31.3439 40.0523 31.1798C40.6749 31.1426 41.2962 31.0781 41.9187 31.0299C42.073 31.0084 42.2297 31.0072 42.3845 30.9856C43.3401 30.8684 44.3028 30.9205 45.2635 30.91C48.3945 30.9107 51.5255 30.9088 54.6565 30.9114C55.7118 30.8443 56.7718 30.8918 57.8296 30.8775C59.8807 30.8775 61.9324 30.8775 63.9835 30.8775C63.9835 31.4638 63.9835 32.05 63.9835 32.6363C57.4623 32.6369 50.9412 32.635 44.4194 32.6376C44.0612 32.6474 43.7107 32.562 43.3556 32.5281C43.1827 32.5034 43.0103 32.4819 42.8374 32.4636C42.45 32.4083 42.06 32.377 41.6713 32.3334C41.4562 32.3021 41.2398 32.2819 41.0241 32.2682C40.2512 32.1907 39.4771 32.1399 38.7022 32.106C38.3414 32.0552 37.9753 32.1112 37.6151 32.0591C37.1876 32.0292 36.7574 32.0787 36.3311 32.0227C35.3775 31.9959 34.42 32.0552 33.4684 31.9842C29.97 31.9862 26.4724 31.9842 22.9747 31.9849C22.7668 31.9875 22.5568 31.9679 22.3528 32.0103C21.8481 32.0344 21.3415 31.9901 20.8388 32.0487C20.2382 32.0461 19.5878 32.0129 19.0592 32.3503C18.7657 32.506 18.5512 32.8369 18.605 33.1776C18.6523 33.4623 18.9147 33.6309 19.1499 33.7534C19.5865 33.9436 20.0691 33.9775 20.5388 33.9788C21.1504 34.0504 21.771 33.9579 22.3832 34.0322C22.9695 34.0446 23.5565 34.0316 24.1427 34.0368C25.132 34.1221 26.129 34.0173 27.1189 34.1013C28.2863 34.1175 29.4557 34.0667 30.6217 34.1358C31.7891 34.1299 32.9579 34.1417 34.1259 34.1299C34.5716 34.066 35.0238 34.1332 35.4708 34.083C37.301 34.0263 39.133 33.9391 40.9593 33.7847C41.3234 33.7769 41.6843 33.7241 42.0476 33.7013C42.2841 33.6713 42.5226 33.6531 42.7609 33.6368C42.9547 33.6082 43.1497 33.5886 43.3447 33.571C43.7003 33.5312 44.0553 33.4746 44.4123 33.4511C47.9559 33.4492 51.499 33.4511 55.0426 33.4499C55.6659 33.3912 56.293 33.4277 56.9182 33.418C59.2737 33.418 61.6286 33.418 63.9835 33.418C63.9828 34.0368 63.9841 34.6562 63.9828 35.2751C57.0943 35.2737 50.2059 35.2751 43.3168 35.2744C43.1302 35.2712 42.9456 35.2438 42.7609 35.2191C42.4836 35.1917 42.2064 35.1617 41.9291 35.1344C41.7354 35.107 41.5411 35.0874 41.3467 35.0692C41.153 35.0419 40.958 35.0223 40.7636 35.0041C40.3542 34.9546 39.9442 34.9116 39.5334 34.8738C39.2969 34.8412 39.0598 34.821 38.8221 34.8093C38.2189 34.7474 37.6139 34.7045 37.0081 34.6797C36.5132 34.6393 36.015 34.6243 35.5181 34.6159C35.1029 34.5487 34.6792 34.6276 34.2633 34.5689C33.7106 34.5383 33.1561 34.5748 32.6028 34.5507C32.4409 34.5162 32.275 34.524 32.1111 34.5246C29.3235 34.5286 26.5358 34.5207 23.7482 34.5286C23.0861 34.6035 22.4176 34.5142 21.7555 34.5846C21.4367 34.6113 21.1135 34.5579 20.7979 34.6165C20.3173 34.612 19.8081 34.6217 19.3857 34.8836C19.1305 35.0464 18.8622 35.3011 18.8914 35.6334C18.8719 35.8561 19.0287 36.0404 19.1939 36.1668C19.5463 36.4183 19.9869 36.5004 20.4105 36.5231C20.8271 36.5786 21.2502 36.5101 21.6673 36.572C22.2543 36.585 22.8412 36.5733 23.4282 36.5766C24.3112 36.643 25.1994 36.5968 26.085 36.6085C27.6158 36.6971 29.1538 36.5864 30.6846 36.6762C31.313 36.671 31.9414 36.6808 32.5698 36.6716C33.0751 36.6052 33.5869 36.6762 34.0928 36.6222C35.8427 36.5635 37.5925 36.4606 39.3397 36.3264C39.9014 36.2886 40.4631 36.2463 41.0241 36.1962C41.2832 36.1779 41.5423 36.1623 41.8009 36.131C42.3489 36.0939 42.895 36.034 43.4431 35.9916C47.0516 35.9903 50.66 35.9903 54.2684 35.9916C55.1509 35.9271 56.0371 35.9707 56.9213 35.9584C59.2756 35.9584 61.6292 35.9584 63.9835 35.9584C63.9835 36.5447 63.9835 37.1309 63.9835 37.7171C56.9434 37.7178 49.9034 37.7165 42.8633 37.7178C42.6378 37.7152 42.415 37.682 42.1902 37.6748C42.0347 37.652 41.8779 37.6514 41.7231 37.6292C38.7061 37.4071 35.6872 37.1791 32.665 37.0866C32.1694 37.0325 31.6693 37.0944 31.1737 37.0528C30.947 37.0228 30.7176 37.0339 30.4902 37.0332C28.4606 37.0332 26.4309 37.0332 24.4019 37.0332C23.7534 37.0195 23.1081 37.0892 22.459 37.0664C21.8539 37.1413 21.2275 37.0221 20.6405 37.228C20.29 37.355 19.9046 37.5869 19.8301 37.9849C19.7355 38.3106 19.9972 38.607 20.2654 38.7497C20.6619 38.9411 21.107 39.0219 21.5449 39.0206C22.2802 39.0792 23.0187 39.0434 23.756 39.0512C24.9182 39.1189 26.0843 39.0708 27.2485 39.0851C28.3712 39.0987 29.4965 39.0519 30.6172 39.1189C31.6894 39.1092 32.7655 39.147 33.8337 39.059C34.2659 39.0473 34.6992 39.0317 35.1294 38.9959C35.4534 38.9789 35.7779 38.9665 36.1005 38.9307C36.7062 38.9027 37.3106 38.85 37.9151 38.8018C39.354 38.7008 40.7908 38.5646 42.231 38.478C43.0453 38.4115 43.8623 38.4383 44.6786 38.4337C47.6152 38.4337 50.5518 38.4337 53.4885 38.4337C53.6958 38.4311 53.9057 38.45 54.111 38.4083C57.4015 38.3907 60.6924 38.4063 63.9828 38.4005C63.9841 39.0193 63.9828 39.6388 63.9835 40.2576C55.8194 40.2576 47.6547 40.2576 39.4906 40.2576C38.8525 40.2791 38.2222 40.1501 37.5899 40.085C37.3276 40.0485 37.0645 40.0166 36.8034 39.9742C36.5903 39.9456 36.3778 39.9104 36.1633 39.8896C35.6049 39.8088 35.0432 39.7391 34.481 39.6935C33.8837 39.6388 33.2844 39.5977 32.6845 39.6029C32.3197 39.558 31.9518 39.5763 31.5851 39.5736C29.6863 39.5736 27.7881 39.5736 25.8893 39.5736C25.6522 39.5743 25.4151 39.5632 25.1793 39.5932C24.7569 39.6374 24.3287 39.5671 23.9082 39.6316C23.3945 39.6512 22.8619 39.5906 22.3735 39.7899C22.0314 39.9117 21.701 40.1775 21.622 40.5495C21.5669 40.8165 21.7477 41.0653 21.9511 41.2178C22.3903 41.4933 22.9235 41.5591 23.4314 41.5643C24.3138 41.6412 25.2027 41.5428 26.0843 41.6249C28.0284 41.6262 29.9726 41.6249 31.9168 41.6255C32.3392 41.6106 32.7661 41.6575 33.1859 41.6001C33.5532 41.5949 33.9212 41.5826 34.2859 41.537C34.9357 41.4972 35.5829 41.4204 36.2295 41.3422C36.4018 41.3239 36.5747 41.3018 36.7465 41.2771C36.9194 41.2594 37.0924 41.2367 37.2647 41.2119C37.6333 41.1761 38 41.124 38.3673 41.0816C38.5623 41.0634 38.7573 41.0451 38.951 41.0126C39.845 40.9839 40.7416 41.0439 41.6337 40.9735C45.4767 40.9748 49.3203 40.9742 53.1633 40.9742C53.5928 40.9696 54.0243 40.993 54.4524 40.9429C57.6288 40.9389 60.8058 40.9435 63.9821 40.9403C63.9847 41.6028 63.9828 42.2659 63.9835 42.9283C57.1163 42.9283 50.2486 42.9283 43.3816 42.9283C42.1636 42.9231 40.945 42.9498 39.7291 42.8893C39.2341 42.8482 38.7359 42.8365 38.239 42.8235C36.9414 42.7479 35.6379 42.6854 34.3449 42.5271C33.631 42.4163 32.919 42.2913 32.2038 42.189C31.9693 42.1564 31.7354 42.1259 31.5002 42.1037C31.164 42.0567 30.8252 42.0457 30.4864 42.045C29.9046 41.961 29.3228 42.0796 28.7398 42.0483C28.2986 42.0913 27.8555 42.0685 27.4156 42.1186C27.0055 42.2255 26.5514 42.404 26.3512 42.8078C26.1828 43.1185 26.311 43.5185 26.5773 43.7296C27.0068 44.0891 27.575 44.2226 28.1198 44.2741C28.3336 44.308 28.5493 44.3295 28.7664 44.3386C29.9156 44.4461 31.0811 44.3829 32.2135 44.1562C32.9333 44.0194 33.6523 43.8801 34.3702 43.7347C35.2901 43.624 36.2152 43.5621 37.1377 43.4899C38.5072 43.4117 39.8768 43.3628 41.2469 43.3185C48.8254 43.3205 56.4044 43.3185 63.9835 43.3192C63.964 44.2188 64.0262 45.1216 63.9439 46.0179C63.7457 47.5461 62.7409 48.9512 61.3383 49.5843C60.8609 49.8325 60.3264 49.9302 59.7984 49.9901C46.7043 50.0051 33.6102 49.9908 20.5161 49.9973C19.5755 49.9953 18.6367 49.6911 17.884 49.1218C16.7613 48.3043 16.07 46.9488 16.0182 45.5593C16.0007 37.2788 16.0169 28.9969 16.0104 20.7157C16.015 19.6005 16.381 18.4743 17.1196 17.6307C17.8289 16.7722 18.8648 16.2002 19.9687 16.0647Z" fill="white"/>
</g>
<defs>
<clipPath id="clip0_1_25880">
<rect width="48" height="34" fill="white" transform="translate(16 16)"/>
</clipPath>
</defs>
</svg>
