<svg width="80" height="80" viewBox="0 0 80 80" fill="none" xmlns="http://www.w3.org/2000/svg">
<path d="M51.6347 22.7662L50.3083 21.9703L40.0389 16L19.5 27.9406V51.8215L26.9503 56.2542L38.4974 49.3181L31.1518 45.0476V34.7144L51.6347 22.7662Z" fill="white"/>
<path d="M28.3653 57.2338L29.6918 58.0297L39.9611 64L60.5 52.0595V28.1785L53.0499 23.7457L41.5027 30.6819L48.8484 34.9524V45.2856L28.3653 57.2338Z" fill="white"/>
<path d="M47 40C47 43.8555 43.8555 47 39.9999 47C36.1445 47 33 43.8555 33 40C33 36.1445 36.1445 33 39.9999 33C43.8555 33 47 36.1445 47 40Z" fill="white"/>
</svg>
