<svg width="80" height="80" viewBox="0 0 80 80" fill="none" xmlns="http://www.w3.org/2000/svg">
<path fill-rule="evenodd" clip-rule="evenodd" d="M53.4955 64C51.1265 62.1587 48.5995 60.9132 45.5271 59.5064L31.3283 53.1658C27.761 51.5614 25.3956 49.4221 25.3956 45.8224C25.3956 42.3233 27.0738 40.6293 29.2553 39.2376L30.0437 38.7386C29.5013 39.3348 29.1575 39.9336 29.1575 41.0771C29.1575 43.2822 31.0321 44.0285 33.018 44.9242L49.5368 52.2713C52.4103 53.5164 55.0399 55.6585 55.0399 59.3061C55.0399 61.3113 54.284 63.1055 53.4955 64ZM30.5313 54.3681L24.564 57.964C24.7115 61.0156 27.2679 63.5438 30.3382 63.5438C31.5247 63.5438 32.655 63.1062 33.901 62.357L39.8332 58.5663L30.5313 54.3681ZM29.8994 23.5992C27.3209 25.1896 25.6872 27.3491 25.6872 30.6493C25.6872 34.2335 27.9135 36.2849 31.479 37.8765L49.1351 45.7238C51.2197 46.667 51.873 47.7816 51.873 49.1779C51.873 49.9737 51.4245 50.7728 50.7849 51.3213L51.8203 50.6659C54.0413 49.2713 55.4358 47.3776 55.4358 44.3775C55.4358 40.5304 52.9058 38.4209 49.7845 37.0263L32.6023 29.3916C30.9231 28.6452 29.2501 27.8036 29.2501 25.7603C29.2501 24.9015 29.5041 24.195 29.8994 23.5992ZM44.7607 44.2985C46.1839 44.9326 47.6044 45.5725 49.0206 46.2221C49.1369 46.2769 49.2526 46.3328 49.3667 46.3922C49.4721 46.447 49.5763 46.5042 49.6788 46.5643C50.3117 46.9347 50.9165 47.4313 51.1919 48.1314C51.2745 48.3413 51.3255 48.5625 51.3511 48.7864C51.3744 48.9916 51.3843 49.2033 51.3563 49.4084C51.3228 49.654 51.2394 49.8914 51.1249 50.1106C50.9797 50.3886 50.7845 50.6339 50.5592 50.8511C50.469 50.934 50.3783 51.0164 50.2871 51.0984L41.4127 47.1231L43.0099 46.2197C44.3495 45.4733 44.7825 45.0164 44.7825 44.5192C44.7825 44.4417 44.7756 44.3684 44.7607 44.2985ZM30.5178 38.9569L39.447 42.925L37.1128 44.2712C36.4714 44.6696 36.0247 45.0299 36.0247 45.5289C36.0247 45.5983 36.0348 45.6661 36.0543 45.7324C34.9864 45.257 33.9191 44.7802 32.8528 44.301C32.6144 44.1935 32.3758 44.0861 32.1397 43.9735C31.9994 43.9067 31.8598 43.8383 31.7217 43.767C31.6159 43.7124 31.5109 43.6562 31.4072 43.5978C30.8245 43.2694 30.2428 42.8561 29.9248 42.2499C29.8713 42.1479 29.8259 42.0417 29.789 41.9325C29.7238 41.7399 29.6854 41.5388 29.6686 41.3363C29.643 41.0268 29.6575 40.7076 29.7124 40.4018C29.7507 40.1892 29.814 39.9812 29.9085 39.7866C29.9787 39.6419 30.0658 39.5078 30.1609 39.3784C30.2133 39.31 30.2675 39.2434 30.3234 39.1778C30.388 39.104 30.4528 39.0303 30.5178 38.9569ZM51.9081 24.9986L40.974 31.6413L50.3812 35.8395L51.522 35.184C53.6449 33.976 54.8391 32.2876 54.8391 29.8345C54.8391 27.5434 53.3855 25.8587 51.9081 24.9986ZM30.8996 22.9824L42.2201 16C43.6971 16.8452 45.1335 18.5614 45.1335 20.8536C45.1335 23.3069 43.9061 24.9452 41.834 26.2032L37.2708 28.9842C36.8666 29.2307 36.323 29.6298 36.323 30.2419C36.323 30.3442 36.3456 30.443 36.3872 30.5385C35.0883 29.9613 33.7908 29.3808 32.4958 28.7948C32.3441 28.725 32.1926 28.6548 32.0427 28.5812C31.8969 28.5096 31.7529 28.4349 31.6102 28.3573C31.4963 28.2955 31.3843 28.23 31.2742 28.1616C30.7537 27.8386 30.2602 27.4277 29.9883 26.8665C29.9309 26.7478 29.8839 26.6241 29.8479 26.4973C29.7796 26.2574 29.7514 26.0084 29.7508 25.7594C29.75 25.4734 29.7835 25.1865 29.8537 24.9091C29.9423 24.5587 30.0921 24.2308 30.2843 23.9256L30.8996 22.9824Z" fill="white"/>
</svg>
