<svg width="80" height="80" viewBox="0 0 80 80" fill="none" xmlns="http://www.w3.org/2000/svg">
<path fill-rule="evenodd" clip-rule="evenodd" d="M58.917 34.5915C60.1329 37.2319 60.811 40.1699 60.811 43.2649C60.811 45.7363 60.3786 48.1076 59.5854 50.3073C59.265 50.2559 58.9363 50.2292 58.6015 50.2292C55.1955 50.2292 52.4302 52.9924 52.4302 56.3959C52.4302 57.4661 52.7036 58.4729 53.1845 59.3505C49.9799 61.9771 45.9776 63.667 41.5981 64V58.5034C49.3104 57.7037 55.3322 51.1815 55.3322 43.2649C55.3322 41.1669 54.9092 39.1667 54.1438 37.3453L58.917 34.5915ZM21.0176 34.7344L25.7957 37.491C25.0685 39.2733 24.6677 41.2227 24.6677 43.2649C24.6677 51.074 30.5273 57.5264 38.0887 58.4675V63.9738C33.8318 63.5859 29.9436 61.9144 26.8155 59.3505C27.2963 58.4729 27.5697 57.4661 27.5697 56.3959C27.5697 52.9924 24.8044 50.2292 21.3984 50.2292C21.0636 50.2292 20.7349 50.2559 20.4145 50.3073C19.6213 48.1076 19.189 45.7363 19.189 43.2649C19.189 40.2257 19.8428 37.3379 21.0176 34.7344ZM21.3984 51.7508C23.964 51.7508 26.047 53.8322 26.047 56.3959C26.047 58.9595 23.964 61.0409 21.3984 61.0409C18.8329 61.0409 16.75 58.9595 16.75 56.3959C16.75 53.8322 18.8329 51.7508 21.3984 51.7508ZM58.6015 51.7508C61.1671 51.7508 63.25 53.8322 63.25 56.3959C63.25 58.9595 61.1671 61.0409 58.6015 61.0409C56.0359 61.0409 53.953 58.9595 53.953 56.3959C53.953 53.8322 56.0359 51.7508 58.6015 51.7508ZM33.5532 50.9178C33.9656 51.705 34.4452 52.4573 34.988 53.1612C35.617 53.977 36.3311 54.7278 37.12 55.3909C37.5045 55.714 37.9068 56.0161 38.3247 56.2944C35.3986 55.9218 32.7715 54.5863 30.7722 52.6162C31.6171 51.9533 32.5406 51.3904 33.5136 50.936L33.5532 50.9178ZM46.471 50.929L46.4864 50.936C47.4594 51.3904 48.3828 51.9533 49.2277 52.6162C47.237 54.5779 44.6238 55.9105 41.7126 56.2896C42.1279 56.0125 42.5278 55.7121 42.91 55.3909C43.7877 54.6532 44.5727 53.8069 45.2513 52.8833C45.7065 52.2639 46.1139 51.6095 46.471 50.929ZM40.4037 49.5254C40.9782 49.5417 41.5509 49.5843 42.1208 49.6614C43.3693 49.8303 44.5974 50.1517 45.7657 50.623C45.3556 51.3973 44.8767 52.1356 44.3334 52.8234C43.7298 53.5876 43.0465 54.2894 42.293 54.907C41.7034 55.3902 41.0708 55.8214 40.4037 56.1901V49.5254ZM39.5962 49.5254V56.1733C38.9402 55.8084 38.3177 55.3829 37.7371 54.907C36.9836 54.2894 36.3002 53.5876 35.6966 52.8234C35.151 52.1326 34.6704 51.391 34.259 50.613C35.4199 50.1472 36.6394 49.8291 37.8791 49.6614C38.449 49.5843 39.0217 49.5417 39.5962 49.5254ZM53.1389 43.6684C53.0412 46.9022 51.7712 49.8437 49.7396 52.0826C48.8353 51.3656 47.844 50.7579 46.7982 50.2695C47.7611 48.2044 48.2692 45.9418 48.323 43.6684H53.1389ZM26.861 43.6684H31.7071C31.7607 45.9374 32.2671 48.1956 33.2271 50.2578L33.2017 50.2695C32.156 50.7579 31.1646 51.3656 30.2603 52.0826C28.2288 49.8437 26.9588 46.9022 26.861 43.6684ZM47.5564 43.6684C47.5028 45.8367 47.0158 47.9942 46.0949 49.9623C44.8539 49.4564 43.5479 49.112 42.2197 48.9322C41.6169 48.8507 41.0113 48.806 40.4037 48.7894V43.6684H47.5564ZM39.5962 43.6684V48.7894C38.9886 48.806 38.383 48.8507 37.7803 48.9322C36.4611 49.1108 35.1638 49.4517 33.9304 49.9521C33.0126 47.9867 32.5271 45.833 32.4737 43.6684H39.5962ZM26.861 42.8614C26.9588 39.6275 28.2289 36.686 30.2605 34.447C31.1722 35.1695 32.1717 35.7802 33.2274 36.2713C32.2678 38.3334 31.7609 40.5918 31.7072 42.8614H26.861ZM32.4737 42.8614C32.5274 40.6963 33.0132 38.5425 33.9306 36.5773C34.3867 36.7626 34.8517 36.9261 35.323 37.0673C36.7088 37.4826 38.1501 37.7061 39.5962 37.7411V42.8614H32.4737ZM48.3231 42.8614C48.2694 40.5877 47.761 38.325 46.7975 36.2596C47.8439 35.7706 48.8349 35.1639 49.7394 34.447C51.7711 36.686 53.0412 39.6275 53.1389 42.8614H48.3231ZM40.4037 37.7411C41.8499 37.7061 43.2912 37.4826 44.677 37.0673C45.1571 36.9235 45.6305 36.7565 46.0947 36.567C47.0152 38.5349 47.5026 40.6925 47.5563 42.8614H40.4037V37.7411ZM39.5962 30.3562V37.0051C38.2216 36.9703 36.8518 36.7573 35.5345 36.3625C35.103 36.2333 34.6772 36.0844 34.2591 35.9164C34.2811 35.8746 34.3034 35.833 34.326 35.7914C34.6961 35.1072 35.1203 34.452 35.5953 33.8359C36.2561 32.979 37.0159 32.1975 37.8617 31.5217C38.4064 31.0863 38.9868 30.6951 39.5962 30.3562ZM40.4037 30.3396C41.0242 30.6823 41.6147 31.0791 42.1684 31.5217C43.0141 32.1975 43.7739 32.979 44.4347 33.8359C44.9099 34.452 45.334 35.1072 45.7042 35.7914C45.7248 35.8296 45.7453 35.8679 45.7656 35.9064C45.3395 36.0785 44.9054 36.2307 44.4654 36.3625C43.1482 36.7573 41.7783 36.9703 40.4037 37.0051V30.3396ZM38.3242 30.2355C37.9534 30.4823 37.5952 30.7478 37.2508 31.0301C36.3651 31.7561 35.571 32.592 34.8826 33.5065C34.3892 34.162 33.95 34.8579 33.5678 35.5837L33.5534 35.6113C32.5654 35.1532 31.6287 34.5849 30.7725 33.9134C32.7716 31.9435 35.3984 30.6081 38.3242 30.2355ZM41.7134 30.2404C44.6242 30.6196 47.2369 31.952 49.2274 33.9134C48.3782 34.5794 47.4499 35.1439 46.4707 35.6C46.0597 34.817 45.5823 34.0687 45.0421 33.3683C44.413 32.5525 43.699 31.8017 42.91 31.1387C42.528 30.8176 42.1285 30.5173 41.7134 30.2404ZM22.7257 31.6706C25.4554 27.6193 29.5743 24.5788 34.3976 23.2328C35.3773 25.3451 37.5186 26.8117 40 26.8117C42.4814 26.8117 44.6227 25.3451 45.6024 23.2328C50.3741 24.5644 54.4563 27.5544 57.1861 31.5408L52.4229 34.2888C49.6362 30.4456 45.1081 27.944 40 27.944C34.8354 27.944 30.2639 30.5011 27.4853 34.4165L22.7257 31.6706ZM40 16C42.5655 16 44.6485 18.0814 44.6485 20.645C44.6485 23.2087 42.5655 25.2901 40 25.2901C37.4345 25.2901 35.3515 23.2087 35.3515 20.645C35.3515 18.0814 37.4345 16 40 16Z" fill="white"/>
</svg>
