<svg width="80" height="80" viewBox="0 0 80 80" fill="none" xmlns="http://www.w3.org/2000/svg">
<path fill-rule="evenodd" clip-rule="evenodd" d="M57.7143 64H23.2133V58.574L23.8885 57.7821C22.09 56.1514 20.5397 54.2519 19.3011 52.1474L28.2228 57.2561H29.2086L18.4243 50.5166C18.079 49.8102 17.7674 49.0844 17.4916 48.3412L30.3061 57.2561H30.9841L16.9712 46.7745C16.7144 45.9014 16.5059 45.0077 16.3489 44.0968L31.9862 57.2561H32.6947L16.0755 41.9141C16.0254 41.2827 16 40.6443 16 40C16 39.8585 16.0012 39.7172 16.0038 39.5764L33.3741 57.2561H33.866L16.1062 37.7306C16.1901 36.8374 16.3231 35.9583 16.5024 35.0963L34.5175 57.2561H34.9664L16.9878 33.1689C17.2105 32.4185 17.469 31.6835 17.7613 30.9656L35.46 57.2561H35.8787L18.6415 29.0502C19.0286 28.2973 19.4544 27.5674 19.9163 26.8631L36.3529 57.2561H36.7362L32.516 48.5362C32.4709 48.5146 32.4262 48.4924 32.3816 48.4697C32.1626 48.3531 31.9534 48.2201 31.774 48.0471C31.6046 47.8838 31.4661 47.6919 31.3504 47.4876C31.2024 47.2265 31.0894 46.9472 30.959 46.6773C30.9183 46.5975 30.8771 46.5188 30.8324 46.4413C30.8068 46.3986 30.7849 46.3663 30.7478 46.3337C30.6896 46.2866 30.6276 46.2447 30.5692 46.1979C30.5134 46.1497 30.4573 46.0982 30.4191 46.0342C30.388 45.9821 30.3689 45.9253 30.3486 45.8683L30.3472 45.8679C30.3051 45.844 30.2702 45.8206 30.2426 45.7796C30.2167 45.7412 30.2019 45.6958 30.2001 45.6495C30.1986 45.61 30.2056 45.6108 30.2074 45.5715C30.2078 45.5615 30.2049 45.5516 30.2054 45.5416C30.2074 45.4975 30.2114 45.4941 30.2244 45.4527C30.233 45.3908 30.2428 45.3293 30.2542 45.2678C30.2668 45.2093 30.2807 45.155 30.3096 45.1024C30.3921 44.9523 30.551 44.8611 30.7027 44.7894L28.1154 39.4436C28.0941 39.437 28.0742 39.4306 28.0317 39.4169C27.7682 39.3258 27.4903 39.2085 27.3156 38.9798C27.2715 38.922 27.2334 38.8614 27.2024 38.7956C27.1656 38.7176 27.1397 38.6349 27.1222 38.5506C27.1015 38.4508 27.094 38.3492 27.091 38.2475C27.088 38.1488 27.0943 38.0487 27.0817 37.9504C27.0804 37.9426 27.0812 37.9427 27.0767 37.9362C27.0593 37.9128 27.0408 37.8915 27.0217 37.8691C26.9384 37.7775 26.8522 37.6888 26.7699 37.5962C26.704 37.518 26.6414 37.4373 26.5914 37.3477C26.5137 37.2083 26.4682 37.052 26.4734 36.8917C26.4758 36.8199 26.4907 36.7508 26.5111 36.6823C26.5487 36.5766 26.5883 36.4717 26.626 36.3661L21.1798 25.1129C21.6712 24.4927 22.1925 23.8973 22.7417 23.3289L24.3019 27.0056C24.3045 26.8901 24.311 26.7722 24.3331 26.659C24.4055 26.2867 24.6837 25.9762 25.037 25.8449C25.168 25.7962 25.3199 25.767 25.4587 25.7972C25.5589 25.819 25.6523 25.858 25.7439 25.9039C25.8276 25.9459 25.9075 25.9945 25.9836 26.0484L24.4018 21.7655C24.968 21.2806 25.557 20.8217 26.167 20.3905L28.2798 27.0514C28.3481 26.9927 28.4143 26.9318 28.4805 26.8707C28.7114 26.6512 28.9328 26.4223 29.1622 26.2012C29.3207 26.0533 29.4893 25.8962 29.685 25.7947L27.921 19.261C28.6393 18.8414 29.3813 18.4581 30.1446 18.1135L32.2207 27.7796C32.2372 27.7635 32.2535 27.7473 32.2698 27.7308C32.3249 27.6715 32.3773 27.6104 32.422 27.5428C32.4595 27.4861 32.4929 27.4259 32.5172 27.3623C32.572 27.2187 32.5777 27.0642 32.5745 26.9122C32.5662 26.7314 32.544 26.5518 32.5327 26.3712C32.5259 26.2089 32.5261 26.0392 32.5923 25.8875C32.6913 25.6604 32.9356 25.5426 33.1608 25.4754C33.2059 25.4619 33.2519 25.4503 33.2979 25.4401C33.3695 25.4242 33.4419 25.412 33.5146 25.4023L33.532 25.4L32.1758 17.3064C32.8688 17.0672 33.576 16.8589 34.2959 16.6832L35.3398 25.3428C35.4695 25.3372 35.5445 25.3347 35.7234 25.3282C35.986 25.3202 36.2486 25.313 36.5113 25.3094C36.6942 25.3068 36.8795 25.3109 37.0622 25.3048C37.0954 25.3025 37.1285 25.2998 37.1616 25.2969L36.4984 16.2541C37.2663 16.1416 38.046 16.0656 38.8357 16.0279L39.1103 27.3398C39.1313 27.3612 39.1509 27.3843 39.169 27.4094C39.2153 27.4739 39.2441 27.5524 39.2694 27.6268C39.332 27.8108 39.3592 28.0051 39.3746 28.1981C39.3813 28.282 39.3857 28.3661 39.3888 28.4502C39.3939 28.5843 39.3972 28.7185 39.4044 28.8526C39.4104 28.9369 39.4178 29.021 39.426 29.1052C39.4497 29.3253 39.4752 29.5451 39.4964 29.7655C39.501 29.8188 39.5053 29.872 39.5092 29.9253L39.5142 29.9234C39.5568 29.9048 39.5978 29.884 39.6383 29.8613C39.8073 29.7619 39.9585 29.6363 40.1064 29.5083C40.2414 29.3914 40.3743 29.2721 40.5106 29.1567C40.5837 29.0965 40.5834 29.0968 40.6578 29.0378C40.7346 28.9797 40.8129 28.9234 40.8936 28.8715L41.2202 16.0306C41.9908 16.0693 42.7518 16.1443 43.5016 16.2541L42.6057 28.4701C42.9705 28.4356 43.3378 28.4123 43.7041 28.4343C43.896 28.4458 44.0905 28.4692 44.2773 28.5191L45.7041 16.6832C46.4241 16.859 47.1314 17.0673 47.8242 17.3064L45.7719 29.5538C45.9303 29.5432 46.0888 29.5342 46.2473 29.5264C46.391 29.5207 46.4528 29.5175 46.5969 29.5146C46.7913 29.5107 46.9865 29.51 47.1806 29.5238C47.2531 29.529 47.3269 29.5354 47.3997 29.5474L49.8554 18.1135C50.6186 18.4581 51.3606 18.8414 52.079 19.261L49.0335 30.5412C49.0578 30.5518 49.0819 30.5631 49.1059 30.5746C49.2201 30.6291 49.3307 30.69 49.4383 30.7567C49.7587 30.9552 50.0406 31.228 50.22 31.5615C50.235 31.5894 50.2492 31.6176 50.2627 31.6462L53.833 20.3905C54.443 20.8217 55.032 21.2807 55.5982 21.7655L49.9197 37.1409C49.9747 37.2414 50.0097 37.3521 50.0179 37.4681C50.0232 37.5439 50.0135 37.6163 50.0038 37.6912C49.9964 37.7484 49.9906 37.8058 49.985 37.8632C49.9751 37.9884 49.9752 37.9879 49.9679 38.1131C49.9393 38.8332 49.9916 39.5519 50.0707 40.2673L57.2583 23.3289C57.8074 23.8972 58.3288 24.4926 58.8202 25.1129L51.2859 40.6806C51.5086 40.7752 51.7083 40.9143 51.8468 41.1193C51.897 41.1937 51.9374 41.2746 51.9663 41.3596C51.9977 41.4521 52.0152 41.5489 52.0162 41.6466C52.0168 41.6992 52.0126 41.7517 52.004 41.8034L60.0837 26.8631C60.5455 27.5673 60.9713 28.2972 61.3585 29.0502L51.4111 45.3276C51.4821 45.3854 51.557 45.4385 51.6332 45.4896C51.8089 45.6038 51.9908 45.7079 52.1675 45.8205C52.1838 45.8313 52.2002 45.8422 52.2164 45.8532L62.2387 30.9656C62.531 31.6834 62.7894 32.4185 63.0122 33.1689L52.9276 46.6799C52.9465 46.7334 52.9623 46.7881 52.9754 46.8435C53.0293 47.0715 53.0295 47.3046 53.0502 47.5369C53.1277 47.5743 53.21 47.6021 53.2894 47.6351L53.3001 47.64L63.4976 35.0963C63.6769 35.9584 63.8099 36.8375 63.8938 37.7306L51.6208 51.2238C51.619 51.2651 51.6178 51.3064 51.6171 51.3476C51.6152 51.4658 51.6176 51.5839 51.6254 51.7015L51.657 51.6984C51.7561 51.6905 51.7557 51.6906 51.8551 51.6846C51.9565 51.6808 51.9561 51.68 52.0572 51.6799C52.0726 51.6799 52.0881 51.6804 52.1036 51.6809L63.9962 39.5764L63.9979 39.6821C63.9993 39.7879 64 39.8939 64 40C64 40.6443 63.9746 41.2827 63.9245 41.9141L52.8749 52.1145C52.8706 52.1442 52.8656 52.1733 52.8613 52.2013C52.8519 52.2804 52.8501 52.4604 52.8471 52.5388C52.841 52.6988 52.8358 52.8587 52.8299 53.0187C52.8249 53.0904 52.8167 53.1538 52.7881 53.2196C52.7828 53.2319 52.7765 53.2434 52.7693 53.2542L63.6511 44.0968L63.621 44.2674C63.4679 45.1195 63.2696 45.956 63.0288 46.7745L49.0159 57.2561H49.6939L62.5084 48.3412L62.4562 48.4803C62.1935 49.175 61.8994 49.8544 61.5757 50.5166L50.7914 57.2561H51.7772L60.6989 52.1474L60.6498 52.2303C59.5404 54.0982 58.1849 55.803 56.628 57.2998L57.7143 58.574V64ZM57.1143 59.174H23.8133V63.4H57.1143V59.174ZM46.9607 62.0761C46.9607 62.2051 46.9042 62.3814 46.7913 62.605C46.6827 62.8201 46.5715 62.9846 46.4575 63.0985C46.3833 63.0985 46.2839 63.0727 46.1591 63.0211C46.0344 62.9695 45.9452 62.9174 45.8914 62.8647C46.086 62.7754 46.2597 62.6717 46.4123 62.5534C46.5919 62.4147 46.6983 62.2895 46.7317 62.1777C46.6833 62.0433 46.5838 61.9255 46.4333 61.8245L46.6559 61.3939C46.7354 61.4627 46.8061 61.567 46.8679 61.7067C46.9298 61.8465 46.9607 61.9696 46.9607 62.0761ZM56.552 62.6647L56.2923 62.9098L56.0375 62.655L56.302 62.4131L56.552 62.6647ZM49.1507 62.6421L48.8911 62.8873L48.6363 62.6324L48.9008 62.3905L49.1507 62.6421ZM28.4322 60.1038H28.7824V61.6032C28.7824 61.7992 28.7697 61.95 28.7444 62.0555C28.7104 62.1934 28.6487 62.3041 28.5592 62.3876C28.4698 62.471 28.3519 62.5128 28.2055 62.5128C28.0338 62.5128 27.9016 62.4474 27.809 62.3165C27.7164 62.1856 27.6698 61.9936 27.669 61.7405L28.0001 61.6888C28.0041 61.8245 28.0187 61.9204 28.0441 61.9764C28.0821 62.0615 28.1398 62.104 28.2174 62.104C28.2957 62.104 28.3511 62.0736 28.3836 62.0127C28.416 61.9519 28.4322 61.8256 28.4322 61.6339V60.1038ZM30.7256 62.4724H30.3433L30.1914 61.9344H29.4958L29.3522 62.4724H28.9794L29.6572 60.1038H30.0288L30.7256 62.4724ZM27.4731 60.5045H26.5342V61.0296H27.4078V61.4287H26.5342V62.0733H27.5063V62.4724H26.1828V60.1038H27.4731V60.5045ZM31.2645 62.4724H30.9131V60.1038H31.6526C31.8386 60.1038 31.9737 60.1251 32.058 60.1676C32.1423 60.2102 32.2098 60.2858 32.2604 60.3946C32.311 60.5034 32.3364 60.6278 32.3364 60.7679C32.3364 60.9456 32.298 61.0923 32.2212 61.2081C32.1445 61.3239 32.0297 61.3969 31.877 61.4271C31.953 61.4874 32.0157 61.5536 32.0651 61.6258C32.1146 61.6979 32.1813 61.8261 32.2651 62.0103L32.4776 62.4724H32.0574L31.8034 61.957C31.7132 61.7728 31.6515 61.6567 31.6182 61.6088C31.585 61.5609 31.5498 61.528 31.5126 61.5103C31.4754 61.4925 31.4164 61.4836 31.3357 61.4836H31.2645V62.4724ZM34.2368 62.4724H33.8546L33.7026 61.9344H33.007L32.8634 62.4724H32.4907L33.1685 60.1038H33.54L34.2368 62.4724ZM35.501 60.5045H34.9858V62.4724H34.6345V60.5045H34.1181V60.1038H35.501V60.5045ZM36.9966 62.4724H36.4043V60.1038H37.0999C37.2376 60.1038 37.3403 60.1116 37.4079 60.1272C37.4756 60.1429 37.5361 60.1754 37.5896 60.225C37.643 60.2745 37.6875 60.3405 37.7231 60.4229C37.7587 60.5053 37.7765 60.5977 37.7765 60.7C37.7765 60.8109 37.7546 60.9127 37.7106 61.0054C37.6667 61.098 37.6072 61.1675 37.532 61.2138C37.638 61.2558 37.7195 61.3274 37.7765 61.4287C37.8335 61.5299 37.862 61.6489 37.862 61.7857C37.862 61.8934 37.8436 61.9982 37.8068 62.1C37.77 62.2018 37.7197 62.2831 37.656 62.3439C37.5923 62.4048 37.5138 62.4422 37.4204 62.4562C37.3619 62.4649 37.2206 62.4702 36.9966 62.4724ZM39.728 62.4724H39.3458L39.1938 61.9344H38.4982L38.3546 62.4724H37.9819L38.6597 60.1038H39.0312L39.728 62.4724ZM40.2444 62.4724H39.9179V60.1038H40.2598L40.972 61.6856V60.1038H41.2984V62.4724H40.9459L40.2444 60.9278V62.4724ZM42.0261 62.4724H41.6747V60.1038H42.0261V61.1556L42.7359 60.1038H43.2084L42.5531 61.0264L43.244 62.4724H42.7893L42.311 61.3608L42.0261 61.7566V62.4724ZM25.9561 60.5045H25.4409V62.4724H25.0896V60.5045H24.5732V60.1038H25.9561V60.5045ZM54.2667 62.147H54.1619C54.0426 62.147 53.9292 62.1051 53.8216 62.0212C53.7625 61.975 53.6862 61.8917 53.5926 61.7713C53.4991 61.6508 53.4244 61.5686 53.3685 61.5245C53.3749 61.5632 53.3781 61.6035 53.3781 61.6455C53.3781 61.7003 53.3722 61.7583 53.3604 61.8196C53.2647 61.9573 53.1094 62.0508 52.8943 62.1002C52.7589 62.1314 52.5729 62.147 52.3363 62.147C52.0149 62.147 51.7982 62.1244 51.6864 62.0793C51.523 62.0137 51.4413 61.875 51.4413 61.6632C51.4413 61.4729 51.5074 61.274 51.6396 61.0665C51.6902 61.0622 51.7224 61.0799 51.7364 61.1197C51.674 61.2219 51.6429 61.3202 51.6429 61.4148C51.6429 61.5503 51.7197 61.6369 51.8735 61.6745C51.9606 61.696 52.1417 61.7067 52.417 61.7067C52.6707 61.7067 52.8562 61.6971 52.9733 61.6777C53.0787 61.6605 53.1685 61.6256 53.2427 61.5729C53.118 61.3643 52.9008 61.1896 52.5911 61.0488C52.5976 60.8305 52.6148 60.6472 52.6427 60.4988C53.1083 60.2365 53.555 60.0591 53.9829 59.9666L53.7894 60.3827C53.6389 60.4193 53.4443 60.4865 53.2056 60.5843C53.0153 60.6617 52.8777 60.7235 52.7927 60.7698C52.9615 60.8332 53.155 60.9493 53.3733 61.1181C53.455 61.1815 53.5555 61.2745 53.6749 61.3971C53.7824 61.5078 53.8609 61.5809 53.9103 61.6164C53.992 61.6756 54.0775 61.7051 54.1668 61.7051H54.3313C54.5646 61.7051 54.6812 61.6702 54.6812 61.6003C54.6812 61.5519 54.6205 61.4455 54.499 61.281L54.7473 60.9423C54.8699 61.1057 54.9312 61.2767 54.9312 61.4552C54.8936 61.6831 54.8419 61.8379 54.7764 61.9196C54.6549 62.0712 54.485 62.147 54.2667 62.147ZM55.902 62.147H55.7972C55.5919 62.147 55.458 62.0621 55.3956 61.8922C55.3537 61.7772 55.3258 61.5207 55.3118 61.1229C55.3053 60.9262 55.2973 60.7896 55.2876 60.7133C55.2693 60.5649 55.2349 60.4332 55.1844 60.3182L55.4795 60.0085C55.529 60.087 55.5596 60.208 55.5714 60.3714C55.5757 60.4305 55.5779 60.5558 55.5779 60.7472V61.2229C55.5779 61.3648 55.5881 61.4681 55.6085 61.5326C55.6451 61.6476 55.7182 61.7051 55.8279 61.7051H55.9666C56.1999 61.7051 56.3165 61.6702 56.3165 61.6003C56.3165 61.5519 56.2558 61.4455 56.1343 61.281L56.3826 60.9423C56.5052 61.1057 56.5665 61.2767 56.5665 61.4552C56.5289 61.6831 56.4772 61.8379 56.4117 61.9196C56.2902 62.0712 56.1203 62.147 55.902 62.147ZM45.7689 61.3874C45.7689 61.438 45.7382 61.5288 45.6769 61.66C45.6157 61.7911 45.5657 61.8723 45.527 61.9035C45.4797 61.9411 45.3318 61.9884 45.0835 62.0454C44.7878 62.1131 44.5142 62.147 44.2626 62.147C43.925 62.147 43.6928 62.0809 43.5659 61.9486C43.4853 61.8648 43.4449 61.7406 43.4449 61.5761C43.4449 61.3525 43.5089 61.1418 43.6369 60.9439C43.6422 60.9429 43.6481 60.9423 43.6546 60.9423C43.7019 60.9423 43.7347 60.9606 43.753 60.9971C43.6874 61.152 43.6546 61.2702 43.6546 61.3519C43.6546 61.5896 43.9105 61.7084 44.4222 61.7084C44.8867 61.7084 45.2506 61.653 45.5141 61.5422C45.4689 61.4251 45.4098 61.3175 45.3367 61.2197L45.5818 60.8875C45.6312 60.9488 45.6759 61.0375 45.7156 61.1536C45.7511 61.2568 45.7689 61.3347 45.7689 61.3874ZM48.046 62.147H47.8251C47.6197 62.147 47.4859 62.0621 47.4235 61.8922C47.3816 61.7772 47.3536 61.5207 47.3397 61.1229C47.3332 60.9262 47.3251 60.7896 47.3155 60.7133C47.2972 60.5649 47.2628 60.4332 47.2122 60.3182L47.5074 60.0085C47.5568 60.087 47.5875 60.208 47.5993 60.3714C47.6036 60.4305 47.6058 60.5558 47.6058 60.7472V61.2229C47.6058 61.3648 47.616 61.4681 47.6364 61.5326C47.6729 61.6476 47.7461 61.7051 47.8557 61.7051H48.117C48.2922 61.7051 48.4358 61.6874 48.5476 61.6519C48.6239 61.6283 48.7674 61.5637 48.9782 61.4584C48.5685 61.2971 48.3374 61.2165 48.2847 61.2165C48.2374 61.2165 48.1992 61.2315 48.1702 61.2616C48.1444 61.2874 48.1089 61.3433 48.0638 61.4294C48.0466 61.4369 48.031 61.4406 48.017 61.4406C47.988 61.4406 47.9649 61.4261 47.9476 61.3971C48.0208 61.2068 48.0767 61.0756 48.1154 61.0036C48.1874 60.8681 48.2568 60.8004 48.3234 60.8004C48.3664 60.8004 48.514 60.8568 48.7661 60.9697C49.0182 61.0826 49.2018 61.1391 49.3168 61.1391C49.4437 61.1391 49.6415 61.1133 49.9103 61.0617L49.7394 61.4519C49.5985 61.467 49.4824 61.4842 49.391 61.5035C49.4555 61.6379 49.5803 61.7051 49.7652 61.7051H50.1071C50.3404 61.7051 50.457 61.6702 50.457 61.6003C50.457 61.5519 50.3963 61.4455 50.2748 61.281L50.5232 60.9423C50.6457 61.1057 50.707 61.2767 50.707 61.4552C50.6694 61.6831 50.6178 61.8379 50.5522 61.9196C50.4307 62.0712 50.2608 62.147 50.0426 62.147H49.9087C49.727 62.147 49.5824 62.0927 49.4749 61.9841C49.3889 61.897 49.3142 61.7573 49.2507 61.5648C48.9067 61.8078 48.7019 61.9476 48.6363 61.9841C48.4417 62.0927 48.2449 62.147 48.046 62.147ZM37.0394 61.44H36.7557V62.0733H37.0809C37.2075 62.0733 37.2879 62.0685 37.3219 62.0588C37.3741 62.0459 37.4167 62.0143 37.4495 61.9643C37.4823 61.9142 37.4988 61.8471 37.4988 61.7631C37.4988 61.692 37.4861 61.6317 37.4608 61.5822C37.4354 61.5326 37.3988 61.4965 37.351 61.4739C37.3031 61.4513 37.1993 61.44 37.0394 61.44ZM39.0811 61.5353L38.8413 60.6564L38.6063 61.5353H39.0811ZM30.0786 61.5353L29.8389 60.6564L29.6038 61.5353H30.0786ZM33.5899 61.5353L33.3501 60.6564L33.1151 61.5353H33.5899ZM31.5387 60.5045H31.2645V61.1055H31.5244C31.693 61.1055 31.7982 61.0958 31.8402 61.0765C31.8821 61.0571 31.915 61.0237 31.9387 60.9763C31.9625 60.9289 31.9743 60.8696 31.9743 60.7986C31.9743 60.7188 31.9587 60.6545 31.9274 60.6055C31.8962 60.5565 31.8521 60.5255 31.7951 60.5126C31.7666 60.5072 31.6811 60.5045 31.5387 60.5045ZM36.9575 60.498H36.7557V61.0458H36.986C37.1229 61.0458 37.2079 61.0431 37.2412 61.0377C37.3013 61.028 37.3486 60.9997 37.383 60.9529C37.4174 60.906 37.4347 60.8443 37.4347 60.7679C37.4347 60.6946 37.4198 60.6351 37.3901 60.5893C37.3605 60.5435 37.3163 60.5158 37.2578 60.5061C37.223 60.5007 37.1229 60.498 36.9575 60.498ZM44.5755 60.7165L44.3368 60.9423L44.1029 60.7052L44.3464 60.4875L44.5755 60.7165ZM45.1657 60.6859L44.927 60.9101L44.6932 60.6746L44.9383 60.4553L45.1657 60.6859ZM54.9554 60.4649L54.6957 60.7101L54.4409 60.4553L54.7054 60.2134L54.9554 60.4649ZM50.936 60.4779L50.7135 60.7004L50.4877 60.502L50.2813 60.7101L50.0442 60.502L50.2667 60.2746L50.4925 60.4762L50.6989 60.265L50.936 60.4779ZM37.5093 57.2561L36.2583 53.8688L36.2294 53.864L36.1397 53.8471C36.096 53.8349 36.0585 53.8214 36.0234 53.7913C35.9447 53.724 35.9156 53.6117 35.9516 53.5146C35.9676 53.4713 35.9938 53.4413 36.026 53.4093L36.0739 53.3695L35.6619 52.2538C35.6222 52.2801 35.5793 52.3013 35.5338 52.319C35.4745 52.342 35.4128 52.3586 35.3503 52.3702C35.3181 52.3762 35.2861 52.3806 35.2535 52.3837C35.195 52.3893 35.1329 52.3902 35.0711 52.3845L37.1383 57.2561H37.5093ZM37.8608 57.2561H38.1792L37.293 53.9738C37.1313 53.9659 36.97 53.955 36.8089 53.9398L37.8608 57.2561ZM38.5516 57.2561H38.87L38.3236 53.9957L38.1768 53.9947L37.8504 53.9915L38.5516 57.2561ZM39.187 57.2561H39.5054L39.2668 54.0027L39.2139 54.0031C39.0741 54.0014 38.9342 54.0001 38.7944 53.9991L39.187 57.2561ZM40.1715 57.2561L40.2552 53.9677C40.1383 54.0419 40.0079 54.0205 39.8776 53.9998C39.8488 53.9967 39.8196 53.9979 39.7905 53.9976L39.7572 53.9974L39.8363 57.2561H40.1715ZM40.813 57.2561L41.3568 52.7452C41.3481 52.7687 41.3392 52.7922 41.3297 52.8154C41.3069 52.8656 41.2831 52.9148 41.2525 52.9606C41.1497 53.1142 41.0027 53.2373 40.8565 53.3473C40.8303 53.3661 40.8038 53.3845 40.7772 53.4027L40.4946 57.2561H40.813ZM41.4484 57.2561L42.6675 51.5802C42.6394 51.6411 42.6113 51.7021 42.5823 51.7628C42.5467 51.8338 42.5468 51.8335 42.5096 51.9032C42.3868 52.1156 42.2315 52.3421 41.9803 52.4072C41.9673 52.4105 41.9543 52.4134 41.9411 52.4157L41.13 57.2561H41.4484ZM41.8208 57.2561H42.1392L43.5309 52.8686C43.5086 52.8522 43.4883 52.8335 43.4709 52.8116C43.4364 52.7684 43.4145 52.7152 43.3989 52.6627C43.3634 52.5427 43.3669 52.4159 43.3847 52.2932C43.389 52.2641 43.3957 52.2258 43.4014 52.1969C43.4144 52.1318 43.4288 52.067 43.4406 52.0017C43.461 51.8669 43.4761 51.7312 43.4905 51.5956C43.5069 51.4264 43.5193 51.2569 43.5182 51.0867C43.5179 51.0505 43.5172 51.0143 43.5158 50.9781L41.8208 57.2561ZM42.4907 57.2561H42.8617L44.4781 53.4468C44.4506 53.4417 44.4236 53.4345 44.3971 53.4239C44.2852 53.3794 44.1996 53.2869 44.1635 53.1719C44.146 53.1161 44.1417 53.0584 44.1398 53.0003L44.1393 52.9821C44.1169 52.9791 44.0944 52.9766 44.0719 52.9747L42.4907 57.2561ZM43.2638 57.2561H43.6471L45.5537 53.7306C45.4244 53.7269 45.2954 53.7163 45.1679 53.6917C45.1143 53.6814 45.0598 53.6704 45.0079 53.6524L43.2638 57.2561ZM44.54 57.2561L46.9316 53.7035C46.7167 53.7068 46.5018 53.7071 46.287 53.7124L44.1213 57.2561H44.54ZM45.4825 57.2561L48.424 53.6379L48.4067 53.639C48.1728 53.6529 47.9389 53.6661 47.7049 53.6771L45.0336 57.2561H45.4825ZM46.6259 57.2561L50.3038 53.5127C50.1648 53.5217 50.0257 53.5301 49.8867 53.5395L49.4899 53.5666L46.134 57.2561H46.6259ZM48.0138 57.2561L52.6634 53.3433C52.5916 53.3789 52.5047 53.3926 52.4307 53.3979C52.4127 53.3992 52.3946 53.4 52.3764 53.4004C52.3418 53.4013 52.3059 53.4006 52.2713 53.3992C52.221 53.3972 52.1768 53.3936 52.1253 53.3896C52.0638 53.3847 52.0027 53.3787 51.941 53.3771C51.84 53.3789 51.739 53.3879 51.6383 53.3953C51.5828 53.3999 51.5274 53.4046 51.472 53.4096L47.3053 57.2561H48.0138ZM35.697 51.6208C35.7031 51.6202 35.7092 51.6197 35.7154 51.6193C35.7564 51.6198 35.7561 51.6197 35.7972 51.6231C35.8089 51.6248 35.8206 51.6267 35.8322 51.6289L35.8355 51.6295C35.8465 51.6317 35.8575 51.634 35.8684 51.6365L35.8732 51.6376C35.8838 51.6401 35.8944 51.6428 35.9048 51.6456L35.9166 51.6489L35.9281 51.6524L35.9435 51.6569L35.9554 51.6608L35.9657 51.6644L35.9789 51.6688L35.9936 51.6741L36.0139 51.6819L36.0314 51.6889L36.0485 51.6961L36.0686 51.7049L36.0827 51.7113L36.1054 51.7221C36.1878 51.7619 36.2668 51.8101 36.3429 51.8612C36.4794 51.9527 36.614 52.054 36.7175 52.1829C36.9344 52.4529 36.9908 52.8091 36.8958 53.139C36.8653 53.2446 36.8237 53.3438 36.7588 53.4328L36.7577 53.4341C36.8904 53.4478 37.0232 53.4582 37.156 53.4662L37.174 53.4673L37.2899 53.4736L37.3222 53.4751L37.4425 53.4803L37.5852 53.4852L37.7307 53.489L37.8389 53.4914C37.9725 53.493 38.1061 53.4941 38.2398 53.4951L38.734 53.4986C38.8948 53.4997 39.0555 53.5011 39.2162 53.5031L39.3589 53.5019L39.6164 53.4985L39.6266 53.4984C39.6833 53.4978 39.74 53.4974 39.7967 53.4976C39.8704 53.4992 39.8701 53.4962 39.9431 53.5039L39.9613 53.5068C39.9714 53.4745 39.9827 53.4435 39.9956 53.4122C40.0252 53.3529 40.0606 53.3022 40.1114 53.2591C40.1655 53.218 40.2203 53.1781 40.276 53.139L40.4188 53.0426L40.4899 52.9939L40.5604 52.9444C40.6017 52.9133 40.6418 52.8814 40.6812 52.8479L40.7216 52.8107L40.7415 52.7919L40.7613 52.7724L40.7806 52.7524L40.7892 52.7429L40.7991 52.7317L40.8074 52.7217L40.8165 52.7104L40.8292 52.6936L40.8367 52.6827C40.8626 52.6439 40.8792 52.5985 40.8949 52.5549C40.9143 52.5011 40.933 52.4472 40.9534 52.3937C40.9731 52.3464 40.973 52.3468 40.9949 52.3004C41.0285 52.2389 41.0644 52.1808 41.1133 52.1301C41.2054 52.0346 41.3242 51.9762 41.4525 51.9509L41.4748 51.9468C41.4832 51.9453 41.4918 51.944 41.5004 51.9429C41.6113 51.9281 41.7238 51.9417 41.8344 51.927C41.85 51.9243 41.8659 51.9215 41.8794 51.913L41.8963 51.8994L41.9128 51.8847L41.9182 51.8796L41.9338 51.864L41.9485 51.8479L41.9627 51.831L41.9766 51.8134L41.9814 51.8071L41.9945 51.7889L42.0065 51.7713L42.0255 51.7416L42.0393 51.7185L42.0533 51.6944L42.0627 51.6777C42.0767 51.6526 42.09 51.6274 42.103 51.6031C42.1779 51.4537 42.2442 51.3002 42.3177 51.1502C42.3606 51.0679 42.4087 50.9887 42.452 50.9067C42.5037 50.8089 42.5533 50.7101 42.6067 50.6132C42.6371 50.5615 42.6682 50.5107 42.7021 50.4612C42.7401 50.4086 42.7799 50.3578 42.8245 50.3106C42.8629 50.27 42.9039 50.232 42.9473 50.1969L42.9681 50.1808L42.9826 50.1695L42.9986 50.1577L43.0188 50.1433L43.0297 50.1358L43.0558 50.1183L43.0585 50.1166C43.0701 50.109 43.0818 50.1016 43.0936 50.0944C43.2563 49.9944 43.4562 49.895 43.6479 49.9706C43.691 49.9877 43.7314 50.0156 43.7662 50.0458L43.7672 50.0467C43.8032 50.078 43.8344 50.1146 43.8606 50.1544C43.9004 50.2149 43.9281 50.2828 43.9475 50.3523C43.9842 50.4832 43.99 50.6195 44.0014 50.7541C44.013 50.8911 44.0197 51.0277 44.0179 51.1653C44.0163 51.2844 44.0096 51.4033 43.9996 51.522L43.9993 51.5261L43.9989 51.5299C43.9967 51.5563 43.9943 51.5827 43.9918 51.609C43.9886 51.6413 43.9853 51.6737 43.9818 51.706L43.9783 51.7366L43.9731 51.7834L43.9702 51.8073L43.9685 51.8221L43.9659 51.8422L43.9627 51.869L43.9572 51.9122L43.9549 51.9311L43.9405 52.0399C43.9259 52.1494 43.8972 52.2563 43.8796 52.3653C43.8756 52.3956 43.8727 52.4253 43.8716 52.4559L43.8717 52.4611C43.9461 52.468 44.0211 52.4695 44.0956 52.4744L44.1342 52.478L44.1613 52.4809L44.1941 52.485L44.2113 52.4875L44.2267 52.4899L44.2495 52.494C44.2852 52.5007 44.3202 52.5097 44.3544 52.5223C44.4763 52.5671 44.5726 52.658 44.6135 52.7824C44.6321 52.8391 44.6371 52.898 44.6388 52.9573L44.6862 52.9564L44.6955 52.9563L44.7191 52.9562L44.7521 52.9567C44.855 52.9642 44.9474 52.991 45.0303 53.0539C45.0547 53.0725 45.0773 53.0933 45.0992 53.1147C45.1209 53.136 45.1417 53.1614 45.1673 53.1785L45.1828 53.1833L45.1984 53.1875L45.2295 53.1946C45.2518 53.1991 45.2744 53.2028 45.2965 53.2068C45.477 53.2349 45.6595 53.237 45.8422 53.2312L45.8837 53.2299L45.9459 53.2274L46.1986 53.2156L46.2636 53.213C46.2847 53.2123 46.306 53.2116 46.3271 53.2111L46.3286 53.211C46.5206 53.2091 46.7126 53.208 46.9047 53.2049C47.0375 53.2015 47.1702 53.1974 47.3029 53.1925L47.4497 53.1869L47.494 53.1851L47.6807 53.1771L47.6991 53.1762L47.8715 53.168L47.9101 53.1661L48.131 53.1545C48.372 53.1402 48.6129 53.1249 48.8539 53.1091L49.3959 53.0731L50.4455 53.0024C50.5819 52.9922 50.7181 52.9799 50.8542 52.9668C50.991 52.9538 51.1277 52.94 51.2644 52.927L51.3111 52.9225L51.37 52.9171L51.4093 52.9133L51.4554 52.9092L51.4698 52.9079C51.5131 52.9041 51.5564 52.9003 51.5997 52.8968C51.7 52.8895 51.8002 52.8831 51.9006 52.8778L51.9274 52.8776H51.9364L51.9543 52.8779L51.9723 52.8783L52.0079 52.8797L52.0438 52.8817C52.1389 52.8875 52.2338 52.898 52.3291 52.9006H52.3329C52.336 52.7162 52.347 52.5315 52.3541 52.3472L52.3618 52.1712C52.3146 52.1741 52.2675 52.1777 52.2202 52.1802L52.173 52.1823C52.1387 52.1821 52.1045 52.1816 52.0703 52.1811L52.019 52.1807C52.0019 52.1806 51.9847 52.1806 51.9676 52.1807L51.9174 52.1829L51.8689 52.1855L51.7711 52.192L51.7233 52.1959L51.6678 52.2005L51.6153 52.2054C51.456 52.2204 51.297 52.2391 51.1375 52.2545C51.0395 52.2627 51.0399 52.2627 50.9416 52.2691C50.858 52.2726 50.7747 52.2751 50.691 52.2744L50.6658 52.2737L50.6511 52.2734L50.6479 52.2732C50.639 52.273 50.6291 52.2725 50.611 52.2714C50.5159 52.2616 50.4265 52.2351 50.3393 52.1964C50.2387 52.1518 50.1451 52.0931 50.0442 52.0489C50.0165 52.0381 49.9901 52.0303 49.9611 52.0229L49.9361 52.0182L49.911 52.014L49.9012 52.0125L49.8858 52.0103L49.8608 52.007L49.8419 52.0048L49.8098 52.0013L49.7586 51.9966C49.692 51.9909 49.6253 51.9865 49.559 51.9791C49.5023 51.971 49.5028 51.971 49.4468 51.9607C49.3861 51.9464 49.3268 51.9306 49.2692 51.9063C49.2082 51.8806 49.1498 51.8504 49.0929 51.8176L49.0889 51.8153C49.073 51.8062 49.0572 51.7968 49.0414 51.7872L49.0396 51.7861L49.0077 51.7664L48.9948 51.7583L48.99 51.7553L48.9839 51.7514L48.9718 51.7437L48.9582 51.7348L48.9394 51.7228L48.9088 51.7026L48.9007 51.6974L48.8916 51.6914L48.8891 51.6897L48.8126 51.6392L48.7712 51.6122L48.7459 51.5958L48.7331 51.5877L48.687 51.5589C48.6407 51.5325 48.5942 51.5074 48.5453 51.4859L48.5234 51.4774L48.5177 51.4753L48.5061 51.4713L48.483 51.4638L48.4745 51.4611C48.407 51.4409 48.338 51.4293 48.2669 51.4186C48.1882 51.4068 48.1091 51.3974 48.0299 51.3899C47.9297 51.3803 47.8288 51.3729 47.7276 51.3686L47.7195 51.3683L47.6625 51.3664L47.6496 51.366L47.6043 51.3651L47.5888 51.3649L47.5421 51.3646L47.5303 51.3645L47.4721 51.3651L47.4628 51.3653L47.4151 51.3664L47.3962 51.3671L47.3574 51.3687L47.337 51.3697L47.2795 51.3732L47.2226 51.3777L47.1573 51.3841L47.138 51.3863L47.0894 51.3921L47.0713 51.3943L47.0076 51.4029L46.9107 51.4171C46.823 51.4303 46.7356 51.4441 46.6479 51.4556C46.5697 51.4646 46.57 51.4645 46.4913 51.4719C46.3388 51.4824 46.1867 51.4856 46.0348 51.4659C45.9151 51.4503 45.8048 51.4233 45.6998 51.3619L45.6825 51.3515L45.6781 51.3487L45.6756 51.3472L45.6721 51.345L45.6655 51.3408L45.6608 51.3376L45.6518 51.3318L45.6363 51.321L45.6322 51.3183L45.6307 51.3172C45.6211 51.3104 45.6115 51.3034 45.602 51.2962L45.5999 51.2946L45.5951 51.2909L45.5834 51.282L45.5724 51.2732L45.5682 51.27L45.5655 51.2677L45.5613 51.2644L45.5541 51.2584L45.5372 51.2446L45.5235 51.2329L45.5179 51.2283L45.5125 51.2236L45.5066 51.2186L45.4944 51.2079L45.4752 51.1913L45.4461 51.1656C45.4133 51.1367 45.3806 51.1078 45.3471 51.0801C45.2143 50.9768 45.0712 50.8875 44.936 50.7874C44.9214 50.776 44.9069 50.7644 44.8926 50.7527L44.8808 50.7431L44.8697 50.7339L44.867 50.7317C44.8572 50.7236 44.8476 50.7154 44.8379 50.7071L44.8323 50.7022L44.8113 50.6837L44.8084 50.681L44.8055 50.6784L44.7851 50.6597L44.7792 50.6542L44.7743 50.6496L44.7684 50.6439L44.7594 50.6353L44.7504 50.6263L44.744 50.62L44.7399 50.6158L44.7343 50.6101L44.7145 50.5894L44.7124 50.5872C44.7034 50.5776 44.6946 50.5677 44.6858 50.5577C44.6774 50.548 44.6691 50.5382 44.6609 50.5283L44.6587 50.5257L44.6532 50.5188L44.642 50.505L44.6366 50.4979L44.6326 50.493L44.6281 50.4869L44.6211 50.4778L44.6127 50.4663L44.6076 50.4595L44.6047 50.4555L44.6009 50.4502L44.5835 50.4253L44.5825 50.4239C44.5754 50.4133 44.5683 50.4026 44.5614 50.3919L44.5605 50.3905L44.5563 50.3837L44.5444 50.3647L44.5411 50.3592L44.5385 50.355L44.5341 50.3473L44.5269 50.3353L44.5215 50.3256L44.5175 50.3188L44.5144 50.313L44.5102 50.3056L44.5022 50.2905L44.4977 50.2821L44.496 50.2789L44.4942 50.2754L44.4802 50.2477L44.4788 50.2449L44.4775 50.2421L44.4642 50.214L44.4627 50.2106L44.4611 50.2071L44.457 50.1976L44.4504 50.1828L44.4473 50.1754L44.4444 50.1688L44.4412 50.1607L44.4372 50.1512L44.4327 50.1395L44.4289 50.13L44.4268 50.1245L44.4248 50.1193L44.4184 50.1017L44.4144 50.0908L44.4136 50.0883L44.4132 50.0872C44.3998 50.049 44.388 50.01 44.3778 49.9707C44.3295 49.7849 44.314 49.5929 44.2833 49.4038C44.2753 49.3609 44.2664 49.3187 44.2557 49.2764C44.2377 49.2172 44.2174 49.1579 44.1774 49.1095C44.1418 49.0664 44.0937 49.0383 44.0419 49.0193L44.018 49.0112L44.0162 49.0107L43.9929 49.0041L43.9887 49.003L43.9661 48.9977L43.9356 48.9916C43.8943 48.9842 43.8525 48.9798 43.8107 48.9788L43.7856 48.9787C43.7688 48.9788 43.7521 48.9796 43.7353 48.9809C43.5648 48.9943 43.406 49.0632 43.2553 49.1395L43.1845 49.1775C43.0295 49.2622 42.8787 49.3544 42.7237 49.4389C42.6237 49.4909 42.5211 49.5369 42.4166 49.5778L42.4154 49.5783L42.4126 49.5794L42.3992 49.5845L42.374 49.5942L42.3669 49.5968L42.3595 49.5996L42.3468 49.6042L42.3311 49.61L42.3175 49.6148L42.3061 49.619L42.2972 49.6221L42.2881 49.6253L42.266 49.6328L42.2524 49.6375L42.2481 49.639C42.2323 49.6443 42.2164 49.6495 42.2006 49.6546L42.1984 49.6553L42.1859 49.6592L42.1578 49.6681L42.1511 49.6701L42.1442 49.6723L42.1308 49.6763L42.114 49.6814L42.1011 49.6852L42.0897 49.6886L42.0798 49.6914L42.0701 49.6942L42.0497 49.6999L42.035 49.7041L42.0295 49.7056L42.026 49.7066L41.9881 49.7168L41.98 49.719L41.9635 49.7232L41.9375 49.73L41.9326 49.7312L41.9249 49.7332L41.9079 49.7374L41.893 49.7411L41.8875 49.7424C41.8599 49.7491 41.8323 49.7556 41.8047 49.7618L41.8037 49.7621L41.8014 49.7626L41.7584 49.7721L41.7141 49.7815L41.7025 49.784C41.4813 49.8298 41.2572 49.8633 41.0347 49.8917C41.0137 49.8944 40.9927 49.8971 40.9718 49.8997C40.8972 49.909 40.8226 49.9179 40.7479 49.9268C40.7147 49.9307 40.6812 49.9346 40.6476 49.9382L40.6453 49.9384L40.629 49.9401L40.6024 49.9428L40.5983 49.9431L40.5936 49.9436L40.5768 49.9451L40.5535 49.9471L40.548 49.9476L40.5418 49.9481L40.5252 49.9492L40.5044 49.9508L40.4975 49.9511L40.4898 49.9517L40.4738 49.9524L40.4554 49.9534L40.4471 49.9537L40.4378 49.9541L40.4226 49.9545L40.4063 49.955L40.3967 49.9551L40.3858 49.9553L40.3716 49.9552L40.3573 49.9553C40.211 49.9545 40.0664 49.9341 39.9298 49.875C39.8271 49.8305 39.7364 49.7703 39.653 49.7009L39.6489 49.6975L39.6369 49.6874L39.6244 49.6765L39.6205 49.6732L39.6182 49.6711C39.5986 49.6538 39.5794 49.6361 39.5605 49.6179L39.5577 49.6152L39.5536 49.6112L39.544 49.6019L39.5309 49.5889L39.5215 49.5795L39.5152 49.573L39.497 49.5545L39.4832 49.5399L39.4774 49.5339L39.4732 49.5294C39.4606 49.516 39.4481 49.5025 39.4357 49.489L39.4341 49.4873L39.4284 49.4809L39.4091 49.4597L39.4011 49.4507L39.3914 49.44L39.3553 49.3991L39.3518 49.3952L39.3502 49.3933L39.3492 49.3922L39.2846 49.3186L39.2496 49.279L39.2289 49.2557L39.219 49.2447L39.1806 49.2026C39.1485 49.1697 39.1156 49.1379 39.0812 49.1073L39.0597 49.0899L39.0523 49.0843L39.0378 49.0733L39.0285 49.0667L39.0155 49.0574L39.005 49.0504L38.9928 49.0422L38.9811 49.0349L38.9697 49.0277L38.9568 49.02L38.9463 49.0139L38.9318 49.0058L38.9226 49.0007L38.9061 48.9921C38.7091 48.8901 38.4812 48.8476 38.2652 48.8066L38.1208 48.7792L38.1064 48.7764C38.0631 48.7682 38.0199 48.7598 37.9766 48.7511C37.8929 48.7329 37.8098 48.7137 37.7271 48.6913C37.7122 48.687 37.6974 48.6826 37.6827 48.678L37.6792 48.6769L37.6686 48.6735L37.6476 48.6668L37.6386 48.6638L37.6318 48.6616L37.6222 48.6583L37.6082 48.6536L37.5943 48.6486L37.5847 48.6453L37.5779 48.6428L37.5692 48.6397L37.5493 48.6323L37.5381 48.6282L37.5343 48.6267L37.5305 48.6253L37.4972 48.6123L37.4919 48.6102L37.4848 48.6073L37.4538 48.5946L37.4506 48.5932L37.4461 48.5913L37.4159 48.5783C37.2746 48.5165 37.1392 48.4422 37.0089 48.3569C36.8548 48.2559 36.7099 48.1425 36.5688 48.0243L36.565 48.0212L36.5576 48.015L36.5257 47.9881L36.5132 47.9775L36.5097 47.9745L36.5035 47.9693L36.458 47.9303L36.4557 47.9284L36.3727 47.8565L36.3481 47.8351L36.3435 47.8312L36.3426 47.8304L36.2378 47.7391L36.1286 47.6449L36.0385 47.5699L36.006 47.543L35.9488 47.4959L35.7589 47.3401L35.7107 47.3004L35.6025 47.2115L35.5857 47.1975L35.5739 47.1878L35.5151 47.1389L35.5016 47.1276L35.4818 47.1112L35.4541 47.0878L35.428 47.0659L35.3902 47.034C35.2249 46.8912 35.0622 46.7456 34.9077 46.5911C34.8145 46.498 34.7201 46.4046 34.644 46.2966C34.514 46.1117 34.4295 45.8976 34.3677 45.6814C34.2859 45.3954 34.2419 45.0987 34.2147 44.8028C34.2053 44.7003 34.2053 44.5972 34.1982 44.4946C34.1939 44.4515 34.189 44.4089 34.1802 44.3666C34.1704 44.3266 34.159 44.2822 34.1284 44.2526C34.1172 44.2434 34.1055 44.2376 34.0916 44.2341C34.0493 44.2262 34.005 44.234 33.9633 44.2412C33.8991 44.2521 33.8355 44.2655 33.7711 44.2756C33.7475 44.2782 33.7242 44.2806 33.701 44.2822L33.6963 44.2826L33.6853 44.2833L33.6789 44.2837L33.6762 44.2838C33.6668 44.2844 33.6574 44.2848 33.6479 44.285C33.6001 44.2843 33.5529 44.2814 33.5058 44.2718C33.4435 44.259 33.3815 44.2353 33.3221 44.2147C33.1662 44.1606 33.0116 44.0856 32.9097 43.9509C32.8463 43.8669 32.8173 43.7634 32.7735 43.6691L32.7672 43.6567C32.7406 43.6459 32.7134 43.6369 32.6848 43.6331L32.6732 43.632L32.6702 43.6318L32.6596 43.6316L32.6485 43.6321L32.6336 43.6337L32.6189 43.6368L32.6145 43.6379L32.6037 43.6411L32.6 43.6423L32.5863 43.6476L32.5832 43.649L32.5727 43.6539L32.5682 43.6562L32.5585 43.6615L32.5548 43.6635L32.5429 43.6709L32.5238 43.6841L32.5211 43.6861L32.5028 43.7002C32.4841 43.7153 32.4663 43.7315 32.4491 43.7471C32.3742 43.8218 32.3068 43.903 32.2345 43.9801C32.1319 44.084 32.0239 44.1828 31.9243 44.2897C31.901 44.3159 31.8786 44.3424 31.857 44.3701C31.8226 44.4179 31.7907 44.4673 31.7594 44.5172L31.7436 44.5427L31.726 44.571L31.6974 44.6173L31.6826 44.641L31.6739 44.655L31.6708 44.6599L31.6662 44.6672L31.6492 44.6936L31.6383 44.7107L31.6358 44.7144L31.6343 44.7167L31.632 44.7201L31.62 44.7382L31.6014 44.7655C31.5739 44.8033 31.5457 44.84 31.516 44.8761C31.4765 44.921 31.4371 44.9647 31.3893 45.001C31.3133 45.0588 31.2259 45.1006 31.1395 45.1404C31.0976 45.1597 31.0554 45.1784 31.0134 45.1975L30.9884 45.2088L30.9261 45.2378L30.9209 45.2402C30.8971 45.2516 30.8734 45.2632 30.8499 45.2753C30.82 45.292 30.7911 45.3093 30.7639 45.3302C30.7564 45.3366 30.7565 45.3363 30.7495 45.3432C30.742 45.3778 30.7361 45.4125 30.7303 45.4475L30.7248 45.4844C30.7432 45.5151 30.7585 45.5467 30.7734 45.5792C30.7996 45.6425 30.8186 45.7087 30.8456 45.7716C30.8634 45.7935 30.886 45.8111 30.9079 45.8286C30.962 45.8696 31.0174 45.9087 31.0702 45.9514C31.104 45.9811 31.1037 45.9809 31.1361 46.0124C31.1701 46.0497 31.1698 46.0495 31.2012 46.0891C31.2345 46.1387 31.2646 46.1897 31.2944 46.2415C31.4413 46.5066 31.5581 46.7861 31.6895 47.0589C31.7284 47.1353 31.7678 47.2107 31.8107 47.2849C31.8961 47.4263 31.9926 47.5599 32.1098 47.6759L32.1335 47.6987L32.1401 47.705L32.1636 47.7265C32.3457 47.8894 32.5636 48.0092 32.7845 48.1106L32.8701 48.1492L32.8968 48.161L32.9469 48.183L33.0719 48.2371L33.2195 48.3002L33.224 48.3022C33.2694 48.3216 33.3148 48.3412 33.3601 48.361L33.3646 48.363C33.4223 48.3882 33.4797 48.4138 33.5368 48.4402C33.6015 48.4711 33.6656 48.5029 33.7293 48.5358C33.8274 48.5888 33.9259 48.6422 34.0149 48.7099C34.2029 48.853 34.3615 49.0357 34.5049 49.2222C34.5298 49.2545 34.5544 49.2872 34.5785 49.3204L34.5928 49.3399L34.6017 49.3525L34.6124 49.3674L34.6252 49.3858L34.6353 49.4001L34.648 49.4187C34.658 49.4335 34.6679 49.4484 34.6777 49.4634L34.6963 49.4923L34.7114 49.5164C34.7204 49.531 34.7292 49.5456 34.7378 49.5603L34.7533 49.587L34.7711 49.6191L34.782 49.6394L34.7954 49.6652L34.8064 49.6872C34.8113 49.6972 34.8161 49.7072 34.8209 49.7174C34.882 49.8481 34.9257 49.9863 34.9566 50.1271C34.9602 50.1437 34.9636 50.1602 34.9669 50.1768L34.9746 50.2177L34.9775 50.2337L34.9824 50.2631L34.9863 50.2873L34.9895 50.3087L34.9941 50.3409L35.0013 50.3979L35.0069 50.4486L35.0111 50.4918C35.0265 50.6576 35.0315 50.8243 35.0361 50.9905C35.0402 51.141 35.0497 51.291 35.0551 51.4413C35.0591 51.5528 35.0542 51.6643 35.0594 51.7758C35.0621 51.8107 35.0642 51.8459 35.0719 51.8801C35.1533 51.9028 35.2489 51.8834 35.3274 51.8616C35.3406 51.8573 35.3401 51.8574 35.353 51.8527L35.3603 51.8498C35.367 51.8327 35.3745 51.816 35.3832 51.7998C35.4009 51.772 35.4182 51.7445 35.4435 51.7225C35.4491 51.7176 35.4547 51.713 35.4605 51.7086L35.4746 51.698L35.489 51.6882L35.5047 51.6785L35.5207 51.6697L35.537 51.6617L35.5536 51.6544L35.5705 51.6479L35.5876 51.6421L35.6051 51.6371L35.6228 51.6326L35.6459 51.6278L35.6629 51.625L35.6802 51.6226L35.697 51.6208ZM36.3715 52.5608L36.4383 52.7713C36.431 52.6974 36.4089 52.6259 36.3715 52.5608ZM31.4132 28.7255C31.3424 28.6957 31.2651 28.6784 31.1923 28.6665L31.1428 28.6592L31.1266 28.6572L31.0928 28.6533L31.0739 28.6514L31.0424 28.6486L31.0229 28.6471L30.9911 28.6451L30.9724 28.6441L30.9372 28.6428L30.922 28.6423L30.8723 28.6416H30.8596L30.8222 28.6419L30.8016 28.6423L30.7721 28.6432L30.7491 28.644L30.7222 28.6453L30.6978 28.6466L30.6469 28.6499L30.6268 28.6515C30.5868 28.6547 30.5469 28.6585 30.5071 28.6629L30.4609 28.6682C30.4185 28.6733 30.3762 28.6789 30.3343 28.6849L30.2916 28.6917C30.3081 28.5666 30.3228 28.4414 30.3368 28.3159L30.3445 28.2371L30.3523 28.1545L30.3619 28.0489L30.3681 27.9765L30.3715 27.9356L30.3805 27.8202C30.3877 27.7073 30.3945 27.5945 30.3986 27.4814C30.4013 27.4054 30.4032 27.3285 30.4037 27.2525C30.4042 27.1785 30.4035 27.1032 30.4012 27.0292C30.3986 26.9469 30.3956 26.9002 30.3894 26.8185C30.3775 26.6649 30.3571 26.5016 30.2947 26.3593C30.2619 26.2847 30.2126 26.2127 30.13 26.1922C30.1042 26.1884 30.0817 26.188 30.0558 26.1902L30.0384 26.1938L30.0328 26.1951L30.0213 26.198L30.0147 26.1999L30.0044 26.2029L29.9976 26.2051L29.9876 26.2085L29.9809 26.2109L29.9709 26.2147L29.9646 26.2172L29.954 26.2216L29.9485 26.224L29.9342 26.2306L29.9327 26.2313L29.906 26.2449L29.9026 26.2468L29.8798 26.2598L29.8601 26.2719L29.8499 26.2783L29.8235 26.2959L29.8209 26.2977L29.7907 26.3193C29.6895 26.3932 29.5977 26.4787 29.5062 26.5641C29.3068 26.7562 29.1135 26.9544 28.915 27.1475C28.8218 27.2361 28.7279 27.3236 28.6313 27.4086C28.5512 27.4791 28.4684 27.5468 28.3834 27.6113C28.3169 27.6618 28.2487 27.7102 28.1786 27.7556C28.1273 27.7888 28.0751 27.8204 28.0216 27.8499C27.8535 27.9425 27.6721 28.0157 27.4815 28.0448C27.445 28.0504 27.4082 28.0544 27.3715 28.0562L27.3347 28.0571C27.2858 28.0572 27.2369 28.0527 27.1886 28.0415C27.1084 28.0229 27.0332 27.9878 26.9649 27.9422C26.8122 27.8404 26.6939 27.6925 26.5871 27.5457L26.5408 27.481L26.536 27.4742L26.5334 27.4705L26.5238 27.4566C26.423 27.3127 26.3276 27.1648 26.2265 27.0211C26.1709 26.945 26.1141 26.8707 26.0547 26.7975C25.9131 26.6311 25.7546 26.4786 25.5616 26.3729C25.5198 26.35 25.4768 26.3294 25.4327 26.3113C25.41 26.302 25.3863 26.2908 25.3615 26.2879C25.3111 26.2819 25.2581 26.2962 25.2113 26.3136C25.1098 26.3514 25.0173 26.4169 24.9475 26.4995C24.8932 26.5637 24.8527 26.6393 24.8317 26.7209C24.8191 26.7697 24.8142 26.8201 24.8099 26.8702C24.802 26.9625 24.7999 27.0553 24.801 27.148C24.8047 27.4503 24.8406 27.7524 24.8909 28.0502C24.9293 28.277 24.9767 28.5026 25.0346 28.7254L25.0396 28.744L25.0633 28.8318L25.0666 28.8438L25.0916 28.9314L25.0951 28.9434L25.1171 29.0165L25.124 29.0389L25.1507 29.1229C25.2071 29.2963 25.2708 29.4678 25.3478 29.6331L25.3742 29.6882L25.3831 29.706L25.4017 29.7429L25.4242 29.7852L25.4281 29.7922L25.4536 29.8373L25.4688 29.8629L25.4747 29.8724C25.4874 29.8932 25.5006 29.9138 25.5143 29.9339L25.5335 29.9616L25.5507 29.9852L25.568 30.0081L25.5852 30.0299C25.5957 30.043 25.6064 30.0558 25.6174 30.0683L25.6459 30.374L25.6548 30.4666L25.6596 30.5171L25.674 30.6602C25.7181 31.0383 25.7707 31.4342 25.9472 31.7773C25.9908 31.8619 26.0441 31.9403 26.1005 32.0168C26.1773 32.121 26.2568 32.2228 26.3383 32.3233L26.4406 32.4483L26.4614 32.4736L26.5148 32.538L26.6771 32.7333L26.6987 32.7592L26.7536 32.8253L26.7903 32.8697C26.8242 32.9107 26.8579 32.9519 26.8915 32.9931C26.9879 33.1141 27.0823 33.236 27.175 33.3598C27.2366 33.4446 27.2975 33.5299 27.3557 33.6172C27.4139 33.7044 27.4725 33.7888 27.505 33.8891C27.544 34.0099 27.5571 34.1384 27.561 34.2646C27.5657 34.4137 27.5565 34.5631 27.5402 34.7113L27.5392 34.7207L27.5391 34.7221L27.5388 34.7244L27.5311 34.7897C27.4706 35.2739 27.349 35.7512 27.2031 36.2162C27.1594 36.3555 27.1129 36.494 27.0633 36.6313C27.0353 36.7088 26.9981 36.7855 26.9789 36.8658C26.9764 36.88 26.9746 36.8938 26.9736 36.9082C26.9744 37.0504 27.0601 37.1646 27.1481 37.2691C27.2448 37.3779 27.3477 37.4808 27.4422 37.5916C27.4752 37.6332 27.5086 37.6757 27.5321 37.7237C27.5709 37.803 27.5804 37.8918 27.586 37.9787C27.5907 38.0878 27.5892 38.197 27.594 38.3061L27.597 38.3413L27.5977 38.3481L27.6014 38.3815C27.6085 38.4391 27.6201 38.496 27.6414 38.5506C27.6703 38.6249 27.7162 38.6849 27.7723 38.7345C27.7935 38.7533 27.8162 38.7706 27.84 38.7867L27.8658 38.8033L27.8924 38.819L27.9193 38.8337L27.9437 38.8462L27.9504 38.8494L27.9804 38.8634L27.9904 38.8679L28.0255 38.8829L28.0626 38.8975L28.0722 38.9012L28.0901 38.9078L28.1275 38.9213L28.1419 38.9263L28.1898 38.9426C28.2477 38.9619 28.2744 38.9694 28.3332 38.9872C28.5516 39.0498 28.7718 39.1056 28.9901 39.1683C29.015 39.1757 29.0399 39.1832 29.0647 39.1909L29.1308 39.2114L29.1476 39.2168L29.2008 39.234L29.2259 39.2423L29.2449 39.2488L29.2704 39.2574L29.2874 39.2633L29.3037 39.269L29.3203 39.2749L29.3398 39.2818L29.3607 39.2895L29.3812 39.2969L29.3947 39.3021L29.4087 39.3072L29.4334 39.3168L29.458 39.3263L29.4793 39.3348C29.5231 39.3523 29.5667 39.3707 29.6099 39.3902C29.7428 39.45 29.872 39.5184 29.9942 39.598C30.0633 39.643 30.1301 39.6915 30.194 39.7437C30.2454 39.7856 30.2965 39.8286 30.3376 39.8812C30.4754 40.0576 30.5009 40.2968 30.5057 40.5129C30.5068 40.5641 30.5064 40.6159 30.5054 40.6671C30.5038 40.7482 30.5004 40.8152 30.4971 40.8998C30.4927 41.013 30.4922 41.0126 30.4896 41.1258C30.4892 41.1961 30.4905 41.2657 30.4943 41.3359C30.5067 41.4824 30.5342 41.6481 30.654 41.7477C30.6971 41.7835 30.7494 41.8007 30.7969 41.8289C30.8215 41.8469 30.8211 41.8466 30.8441 41.8666C30.9323 41.9566 30.9858 42.0703 31.0261 42.1886C31.0672 42.3096 31.0957 42.4355 31.1163 42.5615C31.1642 42.8536 31.1861 43.1494 31.1925 43.4457L31.1941 43.5323L31.1944 43.5601V43.5835L31.1948 43.6299L31.1947 43.6555L31.1948 43.6716L31.1946 43.6942L31.1945 43.7274L31.194 43.7831L31.1937 43.8016L31.1935 43.8249L31.1926 43.8683L31.1922 43.8945L31.1919 43.9075L31.1916 43.9224L31.1901 43.9793L31.1895 44.0058L31.1892 44.0125C31.1883 44.0473 31.1871 44.0822 31.1859 44.117L31.1814 44.2111L31.3084 44.299L31.3669 44.2051C31.3866 44.1738 31.4064 44.1427 31.4268 44.1119L31.4496 44.0808L31.4729 44.0504L31.4925 44.0257C31.5018 44.0139 31.5114 44.0022 31.5212 43.9906C31.6407 43.8561 31.7763 43.7378 31.8992 43.6067C31.951 43.5487 32.0021 43.4904 32.0553 43.4338C32.1051 43.3841 32.1553 43.3353 32.2114 43.2927C32.2475 43.2653 32.2855 43.2405 32.3251 43.2191L32.342 43.2102L32.3591 43.2017L32.3769 43.1933L32.3939 43.1859L32.4116 43.1787L32.4287 43.1722L32.4538 43.1636L32.4656 43.1599L32.4817 43.1552L32.5067 43.1488L32.521 43.1455L32.536 43.1425L32.5609 43.1383L32.5778 43.1359L32.5915 43.1345C32.5998 43.1336 32.608 43.1329 32.6163 43.1324C32.6274 43.1317 32.6386 43.1312 32.6497 43.1311L32.6832 43.1315C32.7055 43.1323 32.7277 43.1342 32.7499 43.1371C32.8114 43.1452 32.8718 43.1612 32.9298 43.1831C32.9923 43.2066 33.0527 43.2343 33.1027 43.2791C33.1733 43.3423 33.217 43.4307 33.2529 43.5166C33.2715 43.561 33.2862 43.6097 33.3106 43.6516C33.322 43.6645 33.3362 43.674 33.3505 43.6833C33.394 43.7084 33.4404 43.7264 33.4877 43.7429C33.5033 43.7482 33.5212 43.7551 33.5399 43.7618L33.5599 43.7687L33.585 43.7764C33.5948 43.7791 33.6046 43.7814 33.6141 43.7831C33.6328 43.7852 33.6512 43.785 33.67 43.7838C33.7588 43.7739 33.8459 43.7534 33.9342 43.7397C33.9757 43.7352 34.0156 43.7317 34.0572 43.7308C34.1182 43.7322 34.178 43.738 34.2368 43.7551C34.276 43.7665 34.3141 43.7818 34.35 43.8012C34.3902 43.823 34.4278 43.8491 34.4619 43.8796C34.6098 44.0117 34.6637 44.1996 34.6902 44.3892C34.7024 44.5122 34.7034 44.6356 34.7128 44.7587C34.741 45.0386 34.7793 45.3195 34.8618 45.5892C34.9137 45.7587 34.9831 45.9244 35.0949 46.0633C35.1234 46.0954 35.1528 46.1266 35.1827 46.1574L35.2612 46.2375L35.3303 46.3045L35.4003 46.3705L35.4285 46.3966L35.471 46.4357L35.501 46.4628L35.5425 46.5002L35.573 46.5272L35.6149 46.5642L35.6448 46.5903L35.6881 46.6279L35.7164 46.6522L35.7625 46.6916L35.7875 46.7128L35.8305 46.7491L35.8906 46.7993L35.992 46.8837L36.0174 46.9046C36.1619 47.024 36.3075 47.1426 36.4515 47.2631C36.6108 47.3993 36.7677 47.5381 36.9282 47.6727C37.0514 47.7728 37.1781 47.8705 37.3117 47.9564L37.3629 47.9886L37.4147 48.0194L37.4672 48.0489L37.4934 48.063L37.5201 48.0768L37.547 48.0902L37.5741 48.1032L37.6014 48.1158L37.6289 48.1279L37.6566 48.1396L37.6846 48.1509L37.7127 48.1616L37.7411 48.1719L37.7883 48.1878L37.8357 48.2026L37.8549 48.2082L37.8834 48.2163L37.9042 48.2219L37.9313 48.229L37.9534 48.2346L37.9789 48.2409L38.0028 48.2465L38.0256 48.2517L38.0528 48.2578L38.1035 48.2686C38.2534 48.2995 38.405 48.3237 38.554 48.3544C38.621 48.3697 38.6874 48.3853 38.7538 48.403C38.7977 48.4156 38.8414 48.4289 38.8848 48.4436L38.9064 48.4509L38.944 48.4643L38.9814 48.4783L39.0185 48.4931L39.0446 48.5041L39.0749 48.5174L39.0915 48.5251L39.1048 48.5313L39.1274 48.5423L39.1345 48.5459L39.1634 48.5608C39.1742 48.5665 39.1849 48.5724 39.1954 48.5784L39.2214 48.5934L39.2322 48.5999L39.2496 48.6107L39.266 48.6212L39.2774 48.6287L39.2992 48.6436L39.3048 48.6475L39.3317 48.6672L39.3527 48.6833L39.371 48.6979C39.3822 48.7069 39.3932 48.7161 39.404 48.7255L39.4135 48.7337L39.4254 48.7444L39.4429 48.76L39.4526 48.7689L39.4635 48.7793L39.478 48.793L39.4906 48.8052L39.5 48.8147L39.5123 48.8269L39.5277 48.8425L39.5459 48.8614L39.564 48.8805L39.579 48.8966L39.6115 48.9323L39.6349 48.9585C39.7128 49.0458 39.7883 49.136 39.8684 49.2209C39.9 49.2526 39.9323 49.283 39.9663 49.3122C40.023 49.3578 40.0838 49.4013 40.1531 49.4257C40.2194 49.449 40.2911 49.4552 40.3609 49.4558L40.4094 49.4553L40.4491 49.4537L40.489 49.4512L40.5289 49.4479L40.569 49.444L40.6089 49.4397L40.6894 49.4302C40.7628 49.4215 40.8361 49.4127 40.9094 49.4036L40.9973 49.3923L41.072 49.3822C41.2843 49.3531 41.4959 49.3175 41.7047 49.2702C41.7291 49.2646 41.7535 49.2589 41.7778 49.253L41.8248 49.2413L41.8618 49.2318L41.9056 49.22L41.9499 49.2077L41.994 49.1948L42.0369 49.1816L42.0821 49.1671L42.127 49.1519L42.147 49.1449L42.1718 49.136L42.1915 49.1288L42.2163 49.1195L42.2357 49.112L42.2607 49.1021L42.2797 49.0945L42.305 49.0839L42.3233 49.0762L42.3495 49.0647L42.3666 49.0571L42.4096 49.0372L42.4522 49.0165C42.6468 48.9153 42.8319 48.7971 43.0261 48.6951C43.1293 48.6428 43.2349 48.5949 43.3441 48.5577L43.3663 48.5502L43.4016 48.5391L43.4371 48.5287L43.4729 48.5193L43.5089 48.5107L43.5464 48.5029C43.5581 48.5006 43.57 48.4984 43.5819 48.4964L43.6118 48.4918L43.6421 48.4878L43.6727 48.4845L43.6911 48.4828L43.7035 48.4818L43.731 48.4801C43.7541 48.4789 43.7773 48.4782 43.8006 48.4782H43.8033L43.8284 48.4784L43.8599 48.4794L43.8787 48.4804L43.8914 48.4812L43.9188 48.4834C43.9426 48.4855 43.9663 48.4883 43.9898 48.4918L44.0168 48.4961L44.0478 48.5018L44.0786 48.5084L44.1039 48.5146C44.128 48.5206 44.1518 48.5275 44.1753 48.5353C44.3024 48.577 44.4197 48.6429 44.5143 48.7374C44.564 48.787 44.6064 48.8436 44.6412 48.9045C44.6837 48.979 44.714 49.0577 44.7369 49.139L44.742 49.1573L44.7481 49.1809C44.751 49.1924 44.7537 49.2039 44.7563 49.2155C44.7598 49.231 44.7631 49.2466 44.7663 49.2622L44.7739 49.3016L44.7767 49.3176L44.7809 49.3424L44.7865 49.3775L44.7938 49.4262L44.8049 49.5066L44.8094 49.5404L44.82 49.6178L44.826 49.6594L44.8302 49.6873L44.8326 49.7022L44.8408 49.7507C44.8505 49.7976 44.8614 49.8436 44.8743 49.8897L44.8827 49.9145L44.8916 49.939L44.9011 49.9632L44.9112 49.9871L44.9219 50.0108L44.9332 50.0341L44.945 50.0571L44.9575 50.0798L44.9705 50.1021L44.9842 50.1241L44.9984 50.1457L45.0133 50.1669L45.0288 50.1876L45.045 50.208L45.0617 50.2279L45.0799 50.2482C45.1284 50.3007 45.1831 50.3457 45.2392 50.3898C45.3665 50.484 45.4992 50.5706 45.6269 50.6643L45.663 50.6933L45.6984 50.7231L45.7161 50.7384C45.7425 50.7612 45.7685 50.7844 45.7949 50.8073L45.8055 50.8165L45.8405 50.8464L45.8752 50.875L45.9105 50.9025C45.9366 50.9206 45.9627 50.9382 45.9925 50.9499C46.0265 50.9615 46.0638 50.9654 46.0992 50.97L46.1255 50.9731L46.1518 50.9757L46.178 50.9777L46.2041 50.9792L46.2298 50.9802L46.2527 50.9807L46.3009 50.9809L46.3191 50.9806C46.5814 50.9751 46.8405 50.9198 47.1001 50.8875C47.181 50.8793 47.1807 50.8794 47.262 50.8734C47.2902 50.872 47.3184 50.8708 47.3466 50.8699L47.3625 50.8693C47.3897 50.8684 47.4169 50.8677 47.4441 50.8673L47.4887 50.8666L47.5442 50.8664C47.5727 50.8664 47.6014 50.8666 47.6299 50.8671L47.6441 50.8674C47.6721 50.8679 47.7 50.8686 47.7279 50.8695L47.7392 50.8699C47.7983 50.872 47.8573 50.875 47.9162 50.879L47.923 50.8794C47.9534 50.8815 47.9837 50.8838 48.014 50.8864C48.0651 50.8907 48.1163 50.8957 48.1674 50.9015C48.348 50.9218 48.5328 50.9442 48.7033 51.0104L48.745 51.0274L48.7859 51.0458L48.8022 51.0537L48.8133 51.059L48.8262 51.0654L48.8513 51.0784L48.8658 51.0861L48.8887 51.0987L48.905 51.1078L48.9257 51.1197L48.9437 51.1303L48.9623 51.1415L48.982 51.1535L48.9986 51.1639L49.0346 51.1867L49.0732 51.2117L49.0952 51.226L49.1706 51.2758L49.2473 51.3259L49.2838 51.3492L49.321 51.3723L49.3571 51.3925L49.3951 51.4127C49.4172 51.4242 49.4397 51.4351 49.4626 51.4452C49.5141 51.4658 49.5676 51.4752 49.6223 51.4831C49.734 51.4956 49.8462 51.5012 49.9578 51.5148C50.0213 51.5247 50.0837 51.537 50.1446 51.5551L50.1675 51.562L50.1792 51.5658L50.2014 51.5736L50.204 51.5746C50.2144 51.5784 50.2248 51.5824 50.2351 51.5867C50.3409 51.6303 50.4385 51.6912 50.5422 51.7394C50.5649 51.749 50.5874 51.7577 50.6109 51.765C50.6244 51.7683 50.6375 51.7715 50.6513 51.7729C50.6806 51.7746 50.7101 51.775 50.7395 51.7748L50.8277 51.7735C50.9283 51.7692 51.0285 51.7616 51.1287 51.7523C51.0964 51.2898 51.1306 50.8227 51.2205 50.3679C51.2242 50.3491 51.228 50.3305 51.2319 50.3118L51.2426 50.2621L51.2544 50.2094L51.26 50.1856C51.2788 50.1058 51.2995 50.0266 51.3224 49.9479C51.3587 49.8233 51.3989 49.7006 51.4573 49.5844C51.5835 49.3332 51.7706 49.1193 51.9587 48.913C52.02 48.8457 52.0819 48.7789 52.1427 48.7112C52.1692 48.6817 52.194 48.6505 52.2231 48.6235C52.2371 48.6121 52.2513 48.6028 52.2672 48.5944C52.3581 48.5534 52.4593 48.5686 52.5539 48.5878L52.5607 48.5892C52.6694 48.6142 52.7758 48.6486 52.8847 48.6728C52.9214 48.6799 52.9629 48.6882 53.0031 48.6878L53.0165 48.6874C53.043 48.6857 53.0687 48.6797 53.0917 48.6663C53.1285 48.6448 53.1592 48.61 53.1832 48.5752C53.2385 48.4947 53.2683 48.3912 53.2598 48.2935C53.256 48.2504 53.244 48.2058 53.2166 48.1714C53.2001 48.1506 53.1799 48.1389 53.1572 48.1255C53.0969 48.0951 53.0347 48.071 52.9719 48.0462C52.9289 48.029 52.8864 48.0113 52.8441 47.9926C52.8033 47.9729 52.7644 47.9522 52.7257 47.9285C52.687 47.902 52.6499 47.8727 52.623 47.8338C52.5806 47.7727 52.5677 47.6964 52.5571 47.6244C52.5421 47.4997 52.5382 47.3741 52.5291 47.2489L52.5266 47.2172L52.5232 47.178L52.5177 47.1239C52.5007 46.9987 52.4751 46.8746 52.4208 46.7597L52.4102 46.7383L52.4066 46.7314L52.399 46.7172L52.3945 46.7092L52.3871 46.6964L52.3823 46.6883L52.3746 46.6758L52.3697 46.6681L52.3612 46.6551L52.3566 46.6483L52.3455 46.6324L52.3431 46.629L52.3291 46.6101L52.3247 46.6044L52.3146 46.5916L52.3088 46.5845L52.2996 46.5733L52.2933 46.5659L52.2841 46.5553L52.2776 46.548L52.2719 46.5417L52.2451 46.5132L52.2438 46.5119L52.2158 46.4843L52.2127 46.4813L52.1839 46.4547L52.1795 46.4507L52.162 46.4355L52.1408 46.4175L52.1245 46.4041L52.1039 46.3876L52.0865 46.374L52.0664 46.3588L52.048 46.3451L52.0296 46.3317C51.9992 46.3097 51.9683 46.2885 51.9372 46.2679L51.9287 46.2622C51.9006 46.2436 51.8725 46.2255 51.8446 46.2077C51.6822 46.1075 51.5176 46.0108 51.3576 45.9068C51.2729 45.85 51.1899 45.7906 51.1106 45.7269L51.107 45.7241L51.0997 45.7181L51.083 45.7046L51.0725 45.6958L51.066 45.6904L51.0602 45.6855L51.0504 45.6773L51.0335 45.6626L51.0257 45.6559L51.0227 45.6532C51.0105 45.6425 50.9983 45.6315 50.9863 45.6206L50.9852 45.6195L50.9556 45.5917L50.9511 45.5873L50.9476 45.584L50.9402 45.5767L50.9251 45.5619L50.9161 45.5527L50.9099 45.5466L50.9041 45.5406L50.8952 45.5315L50.8806 45.5159L50.8731 45.508L50.8701 45.5047C50.859 45.4928 50.8481 45.4807 50.8374 45.4684C50.7298 45.3451 50.6365 45.2084 50.5652 45.061C50.5585 45.047 50.552 45.033 50.5457 45.0189L50.5445 45.0164L50.544 45.0152C50.5381 45.0017 50.5323 44.9882 50.5268 44.9746L50.5254 44.9714L50.5245 44.9693C50.5191 44.9559 50.5138 44.9424 50.5088 44.9289L50.5077 44.9261L50.5068 44.9235L50.5037 44.9153L50.4978 44.8983L50.4914 44.8804L50.4893 44.8738L50.4866 44.866L50.4812 44.8485L50.4766 44.8345L50.4745 44.8272L50.4711 44.8164L50.4661 44.7981L50.4632 44.7882L50.4614 44.7813L50.4572 44.7664L50.4524 44.747L50.4511 44.7417L50.4499 44.7369L50.4448 44.7161L50.4402 44.6949L50.4339 44.6655C50.352 44.2596 50.405 43.8284 50.4717 43.4223C50.489 43.3164 50.4973 43.2732 50.5191 43.1511C50.5255 43.1204 50.5329 43.0905 50.5417 43.0604C50.6006 42.8845 50.7072 42.7349 50.829 42.5964C50.9607 42.4466 51.107 42.3104 51.2433 42.165C51.2847 42.1191 51.2844 42.1195 51.3243 42.0728C51.4409 41.9266 51.5559 41.7495 51.5026 41.5538C51.4906 41.5096 51.4733 41.4673 51.4502 41.4278C51.4217 41.3792 51.3852 41.3356 51.3437 41.2975C51.2818 41.2408 51.2094 41.1963 51.1338 41.1604C51.1216 41.1546 51.1094 41.149 51.0971 41.1437L51.0677 41.1314L51.0392 41.1201L51.0321 41.1174L51.0064 41.108L50.996 41.1044L50.972 41.0962L50.9596 41.0922L50.9366 41.0851L50.9228 41.081L50.9007 41.0746L50.8856 41.0705L50.8642 41.0648L50.8282 41.0559L50.7917 41.0476L50.775 41.0441L50.7538 41.0398L50.737 41.0366L50.7158 41.0326L50.699 41.0296L50.6775 41.026L50.6611 41.0233L50.639 41.0199L50.6232 41.0175L50.6001 41.0142L50.5853 41.0122L50.5099 41.003L50.4607 40.9979L50.4444 40.9964L50.4114 40.9934L50.362 40.9896L50.3413 40.9882L50.3125 40.9864L50.2913 40.9852L50.2629 40.9838L50.2414 40.9829L50.2132 40.9819L50.1916 40.9812L50.1634 40.9805L50.1419 40.98L50.1133 40.9797L50.0921 40.9795H50.0441L50.0164 40.9798L49.996 40.98L49.9476 40.9811L49.9149 40.9821L49.8996 40.9826L49.8647 40.984L49.8526 40.9845L49.8145 40.9864L49.807 40.9868L49.7643 40.9893L49.7317 40.9914C49.7145 40.9926 49.6972 40.9939 49.68 40.9952L49.6614 40.9969C49.6008 40.5904 49.5534 40.1818 49.5182 39.7723C49.4821 39.3528 49.4583 38.9317 49.4586 38.5106C49.4587 38.4462 49.4594 38.3818 49.4609 38.3174L49.4625 38.2512L49.4656 38.1647L49.4667 38.139L49.4683 38.1028L49.4695 38.0784L49.4706 38.0589L49.472 38.0319L49.4743 37.992L49.4763 37.9611L49.4807 37.899C49.4826 37.8724 49.4847 37.846 49.4869 37.8195C49.4924 37.7552 49.4997 37.691 49.5079 37.627C49.5125 37.5918 49.5181 37.5585 49.5195 37.5233C49.5188 37.503 49.5168 37.484 49.5132 37.464C49.4701 37.2933 49.3053 37.1859 49.1662 37.097C49.1369 37.0782 49.1074 37.0598 49.0779 37.0412C49.0194 37.0042 48.9612 36.9674 48.9038 36.9286C48.8632 36.8997 48.8635 36.9 48.824 36.8699C48.8154 36.8627 48.8067 36.8555 48.7981 36.848L48.7951 36.8455L48.7901 36.841L48.7782 36.8307L48.7719 36.8248L48.7667 36.8202L48.7582 36.8121L48.756 36.8101L48.7551 36.8093C48.7486 36.803 48.7422 36.7967 48.7359 36.7901L48.7345 36.7888L48.7329 36.787C48.7244 36.7781 48.7162 36.7691 48.7083 36.7597L48.7043 36.755L48.7035 36.754L48.7012 36.7513L48.6972 36.7461L48.695 36.7432L48.6934 36.7411L48.6897 36.7363L48.6869 36.7324L48.686 36.7312L48.6841 36.7285C48.664 36.7003 48.6475 36.6698 48.6363 36.6361C48.6094 36.5555 48.624 36.47 48.646 36.3899C48.6995 36.1951 48.8141 36.0187 48.9304 35.8565C48.9817 35.785 49.0353 35.7152 49.0898 35.6462C49.1478 35.5726 49.2022 35.5062 49.2626 35.432C49.3605 35.3117 49.4586 35.1916 49.5541 35.0694C49.6091 34.9972 49.6628 34.9244 49.7152 34.8503C49.836 34.6709 49.9536 34.4814 50.009 34.27C50.0674 34.0466 50.0968 33.8169 50.1055 33.5863L50.1077 33.5103L50.108 33.4855L50.1085 33.434L50.1084 33.4047L50.108 33.3575L50.1074 33.3268L50.1061 33.2803L50.105 33.2497L50.1028 33.202L50.1013 33.1731L50.0978 33.1197L50.0962 33.0967L50.09 33.0215L50.0879 33.0007L50.0823 32.9459L50.0787 32.9149L50.0733 32.8704L50.0688 32.8364L50.063 32.7951L50.0577 32.7595L50.0515 32.7203L50.0455 32.6835L50.0388 32.6461L50.0319 32.6081L50.0254 32.5745C50.0183 32.5381 50.0107 32.5019 50.0027 32.4658C49.9904 32.4106 49.977 32.3556 49.9626 32.3009C49.9048 32.082 49.8326 31.8626 49.7039 31.6742C49.5503 31.4491 49.3347 31.2736 49.101 31.1369C49.0325 31.0968 48.9621 31.06 48.8905 31.0258C48.8511 31.007 48.8117 30.9881 48.7703 30.9742C48.7097 30.9538 48.6469 30.9422 48.5838 30.9323C48.4234 30.9115 48.2618 30.9033 48.1011 30.8854C47.9909 30.8696 47.8511 30.8553 47.7728 30.7654C47.7311 30.7174 47.708 30.657 47.6874 30.5978C47.6572 30.4996 47.6329 30.3999 47.6021 30.3019C47.5777 30.2336 47.5491 30.1632 47.495 30.1127L47.4838 30.103L47.48 30.1L47.4721 30.0942L47.4674 30.091L47.46 30.0862L47.4548 30.0832L47.4474 30.0791L47.442 30.0763L47.4343 30.0727L47.4289 30.0702L47.4207 30.0669L47.4155 30.0648L47.4064 30.0616L47.4019 30.06L47.3882 30.0559L47.3847 30.0549L47.3744 30.0522L47.353 30.0475L47.3356 30.0443L47.3239 30.0422L47.3064 30.0396L47.2943 30.0379L47.2669 30.0343C47.1555 30.02 47.0428 30.0157 46.9306 30.0136C46.5726 30.0067 46.2141 30.0241 45.8566 30.0488L45.687 30.061L45.4994 30.0753L45.4309 30.0811C45.41 30.0462 45.388 30.0123 45.3655 29.9784C45.3223 29.9167 45.2774 29.8571 45.2309 29.7979C45.0573 29.5869 44.8596 29.3967 44.634 29.2416C44.5373 29.1751 44.4357 29.1106 44.3278 29.0636L44.3023 29.053L44.2943 29.0498L44.2763 29.0428L44.2676 29.0396L44.2488 29.0329L44.2419 29.0305L44.2166 29.0221L44.2112 29.0204C44.1241 28.993 44.0341 28.9746 43.9442 28.961C43.7597 28.933 43.5724 28.9253 43.386 28.9261C43.1068 28.9272 42.8281 28.9483 42.5504 28.9777L42.5142 28.9816L42.4013 28.9942L42.2508 29.0121C42.111 29.0292 41.9714 29.0482 41.8313 29.0638C41.7736 29.0702 41.7163 29.0747 41.659 29.0831C41.6222 29.0899 41.5862 29.0981 41.55 29.1077C41.3053 29.1818 41.0947 29.3265 40.8974 29.4859C40.693 29.651 40.5012 29.831 40.2999 29.9999C40.2327 30.0546 40.2329 30.0544 40.1646 30.1077C39.988 30.2392 39.8065 30.3554 39.5967 30.4253L39.5593 30.4364L39.5229 30.4459L39.5226 30.4547C39.5171 30.598 39.5026 30.7458 39.4712 30.8891C39.4642 30.95 39.457 31.0109 39.4497 31.0718C39.4373 31.1616 39.4255 31.2513 39.4096 31.3406C39.399 31.4005 39.387 31.4601 39.3724 31.5192C39.3594 31.5721 39.3444 31.6245 39.326 31.6758C39.3001 31.7478 39.2665 31.82 39.2205 31.8819L39.2127 31.8924L39.2063 31.9002L39.205 31.9019L39.203 31.9042L39.1956 31.9133L39.1906 31.9187L39.1885 31.9211L39.1846 31.9252L39.1773 31.9332L39.1735 31.9369L39.1711 31.9394L39.1653 31.9449L39.158 31.9521L39.1535 31.956L39.1519 31.9574C39.1462 31.9625 39.1404 31.9674 39.1343 31.9721L39.1333 31.973L39.132 31.9739C39.1261 31.9786 39.12 31.9831 39.1137 31.9874L39.1044 31.9936L39.1033 31.9943L39.1022 31.9951L39.0967 31.9985L39.0928 32.0009L39.0913 32.0018L39.0844 32.0057L39.0808 32.0078L39.0685 32.0143C39.0377 32.0299 39.0049 32.0413 38.9712 32.0488C38.9488 32.0539 38.9272 32.0573 38.9062 32.0582L38.8937 32.0584C38.8521 32.0581 38.813 32.0469 38.7754 32.0175C38.7341 31.9852 38.7016 31.9412 38.674 31.8972C38.6611 31.8768 38.6488 31.8561 38.6367 31.8353C38.5365 31.8755 38.4329 31.907 38.3278 31.9315C38.077 31.9899 37.8199 32.0068 37.5632 32.0135C37.3822 32.0163 37.2014 32.0139 37.0204 32.0123C36.8651 32.0109 36.7097 32.0146 36.5544 32.0101C36.4307 32.0045 36.308 31.9928 36.1849 31.9784C36.0944 31.9661 36.0041 31.9523 35.9139 31.9379C35.9009 31.939 35.888 31.94 35.875 31.9409C35.8338 31.9438 35.7924 31.946 35.751 31.9469L35.7097 31.9475C35.5445 31.9479 35.3809 31.9269 35.2282 31.8567C35.2059 31.8465 35.1841 31.8355 35.1627 31.8239C35.1091 31.8181 35.0555 31.8137 35.0017 31.8119C34.8764 31.8077 34.7509 31.8173 34.6256 31.818C34.5705 31.8169 34.5164 31.8141 34.4616 31.8089C34.3942 31.7998 34.3273 31.7863 34.2654 31.7572C34.2101 31.7312 34.161 31.6931 34.1152 31.6532C34.0504 31.5967 33.991 31.5335 33.9348 31.4686C33.8094 31.3239 33.6916 31.1729 33.5643 31.0299C33.5266 30.989 33.4883 30.9492 33.4487 30.9102C33.3265 30.7969 33.1907 30.6911 33.0194 30.6771L32.9977 30.6765L32.8851 30.6425C32.8566 30.6451 32.8281 30.6475 32.7995 30.6497L32.7875 30.6507L32.7385 30.6541C32.7055 30.6555 32.6725 30.6567 32.6395 30.657H32.6065C32.5625 30.6566 32.5185 30.6544 32.4747 30.649C32.4041 30.6403 32.3338 30.6239 32.2691 30.5937C32.1747 30.5494 32.1057 30.4773 32.0535 30.392L31.7214 30.292C31.6633 30.1555 31.5952 30.0235 31.5368 29.8872C31.5146 29.8324 31.4935 29.7774 31.477 29.7206C31.4446 29.6088 31.426 29.4917 31.409 29.3767C31.3776 29.1653 31.3598 28.9364 31.4132 28.7255ZM33.6673 49.0762L34.5405 51.134C34.5388 51.0908 34.5374 51.0476 34.5362 51.0044C34.5332 50.8973 34.5294 50.7905 34.5241 50.6835C34.5182 50.5977 34.5114 50.5126 34.5011 50.4273C34.4794 50.271 34.4478 50.1159 34.386 49.97C34.3088 49.7875 34.186 49.6222 34.0627 49.4687C33.9497 49.3279 33.8255 49.1817 33.6739 49.0805L33.6673 49.0762ZM33.0859 34.1141C34.3095 34.6434 35.2934 35.5871 35.5493 37.3584C35.779 37.371 35.9788 37.4503 36.1655 37.5954C36.0502 37.8335 35.9572 38.0819 35.8879 38.3377H35.1132C34.9459 39.0712 34.9459 39.833 35.1132 40.5665H35.8879C35.9832 40.918 36.1231 41.2558 36.3043 41.5717L35.7565 42.1195C36.1569 42.7565 36.6956 43.2952 37.3326 43.6956L37.8804 43.1478C38.1963 43.329 38.5341 43.4689 38.8856 43.5641V44.3389C39.6191 44.5061 40.3809 44.5061 41.1144 44.3389V43.5641C41.4659 43.4689 41.8037 43.329 42.1196 43.1478L43.3526 44.3808C42.3971 45.0324 41.2427 45.4135 40 45.4135C36.7098 45.4135 34.0386 42.7423 34.0386 39.4521C34.0386 38.9966 34.0793 38.5224 34.1011 38.0228C34.1202 37.586 33.976 36.849 33.5779 36.4507C32.8799 35.7521 32.1724 35.2889 32.1724 35.2889L33.0859 34.1141ZM46.9141 44.7901C45.6905 44.2608 44.7066 43.3171 44.4507 41.5458C44.221 41.5331 44.0212 41.4539 43.8345 41.3088C43.9498 41.0707 44.0428 40.8223 44.1121 40.5665H44.8868C45.0541 39.833 45.0541 39.0712 44.8868 38.3377H44.1121C44.0168 37.9862 43.8769 37.6484 43.6957 37.3325L44.2435 36.7847C43.8431 36.1477 43.3044 35.609 42.6674 35.2086L42.1196 35.7564C41.8037 35.5752 41.4659 35.4353 41.1144 35.34V34.5653C40.3809 34.398 39.6191 34.398 38.8856 34.5653V35.34C38.5341 35.4353 38.1963 35.5752 37.8804 35.7564L36.6474 34.5234C37.6029 33.8718 38.7573 33.4907 40 33.4907C43.2902 33.4907 45.9614 36.1619 45.9614 39.4521C45.9614 39.9076 45.9207 40.3818 45.8989 40.8814C45.8798 41.3182 46.024 42.0552 46.4221 42.4535C47.1201 43.1521 47.8276 43.6153 47.8276 43.6153L46.9141 44.7901ZM51.6434 42.4702C51.5148 42.6141 51.371 42.747 51.2425 42.8844C51.2065 42.9244 51.1715 42.9648 51.1377 43.0067C51.0901 43.0699 51.0442 43.1343 51.0189 43.2099C50.9993 43.2771 50.9904 43.3554 50.9792 43.4192C50.9684 43.4808 50.9618 43.5239 50.9519 43.5855C50.941 43.6579 50.9301 43.7319 50.9207 43.8066L51.6434 42.4702ZM40.8122 35.3689C40.276 35.2622 39.724 35.2622 39.1878 35.3689L39.2077 36.0032C38.8231 36.0916 38.456 36.2437 38.1215 36.4531L37.6871 35.9905C37.2325 36.2943 36.8422 36.6846 36.5384 37.1392L37.0011 37.5736C36.7916 37.908 36.6395 38.2752 36.5511 38.6598L35.9168 38.6399C35.8102 39.1761 35.8102 39.7281 35.9168 40.2643L36.5511 40.2444C36.6395 40.629 36.7916 40.9961 37.0011 41.3306L36.5384 41.765C36.8422 42.2196 37.2325 42.6099 37.6871 42.9137L38.1215 42.451C38.456 42.6605 38.8231 42.8126 39.2077 42.901L39.1878 43.5353C39.724 43.6419 40.276 43.6419 40.8122 43.5353L40.7923 42.901C41.1769 42.8126 41.544 42.6605 41.8785 42.451L42.3129 42.9137C42.7675 42.6099 43.1578 42.2196 43.4616 41.765L42.9989 41.3306C43.2084 40.9961 43.3605 40.629 43.4489 40.2444L44.0832 40.2643C44.1898 39.7281 44.1898 39.1761 44.0832 38.6399L43.4489 38.6598C43.3605 38.2752 43.2084 37.908 42.9989 37.5736L43.4616 37.1392C43.1578 36.6846 42.7675 36.2943 42.3129 35.9905L41.8785 36.4531C41.544 36.2437 41.1769 36.0916 40.7923 36.0032L40.8122 35.3689ZM39.8196 37.1832V36.8071H40.1804V37.1819C40.5959 37.104 40.7831 36.7836 40.7778 36.8101C40.7096 37.1319 40.5512 37.4803 40.1804 37.5671V38.3393C40.9224 38.2551 41.2555 37.6922 41.2465 37.7363C41.1308 38.2742 40.8529 38.8592 40.1804 38.951V39.653C41.0926 39.5721 41.5017 38.9248 41.4908 38.9749C41.3504 39.5855 41.0104 40.2504 40.1804 40.3383V41.1866C41.3463 41.1021 41.8687 40.25 41.8549 40.3149C41.6683 41.1515 41.1974 42.0676 40 42.0721C38.7999 42.0758 38.3296 41.1532 38.1516 40.3112C38.1402 40.2505 38.6545 41.1082 39.8196 41.1875V40.3399C38.9838 40.2592 38.6433 39.588 38.5091 38.972C38.5001 38.9251 38.9045 39.5793 39.8196 39.6543V38.9528C39.1422 38.867 38.8641 38.2764 38.7535 37.7337C38.746 37.6924 39.0753 38.2614 39.8196 38.3406V37.569C39.4459 37.4852 39.2874 37.1333 39.2222 36.8085C39.2178 36.7836 39.4029 37.1076 39.8196 37.1832ZM29.8679 40.1224L30.0021 40.4387C29.9995 40.3963 29.995 40.354 29.9871 40.3121C29.9794 40.2713 29.9692 40.2281 29.9462 40.1929C29.9259 40.1653 29.8959 40.1435 29.8679 40.1224ZM34.5064 31.3102C34.5215 31.3125 34.5366 31.3138 34.5521 31.3153C34.6858 31.3223 34.8196 31.3124 34.9534 31.3111C35.0192 31.3121 35.0187 31.3121 35.0842 31.3155C35.4434 31.3474 35.796 31.4157 36.1522 31.4694C36.2469 31.4823 36.3413 31.4933 36.4365 31.5023C36.5125 31.5079 36.5883 31.5114 36.6645 31.5123C36.9606 31.5109 37.2567 31.5182 37.5528 31.5136C37.7545 31.5083 37.9566 31.4972 38.1549 31.4574C38.2778 31.4327 38.399 31.397 38.513 31.3444C38.6324 31.2893 38.7593 31.2152 38.842 31.1106C38.9058 31.0299 38.9445 30.9317 38.9704 30.8329C39.0114 30.6766 39.0232 30.513 39.025 30.352C39.026 30.264 39.0235 30.176 39.0189 30.0881C39.0142 29.9956 39.0065 29.9033 38.9985 29.811C38.9716 29.5316 38.936 29.2531 38.9118 28.9735C38.896 28.7538 38.8936 28.5336 38.8815 28.3137C38.8763 28.2399 38.8698 28.1667 38.8615 28.0932C38.8469 27.9898 38.8298 27.887 38.7961 27.7879C38.7853 27.7562 38.7752 27.7141 38.7528 27.6882C38.7365 27.6718 38.7175 27.659 38.6983 27.6463C38.6756 27.6325 38.6527 27.6196 38.6293 27.6071C38.5126 27.549 38.3934 27.4962 38.2774 27.4366C38.1295 27.3567 37.9889 27.2651 37.8726 27.1422C37.7664 27.0301 37.6883 26.8958 37.614 26.7614C37.5294 26.6085 37.4572 26.4489 37.4023 26.2828C37.3523 26.1316 37.3182 25.9769 37.2883 25.8208L37.2844 25.7874C37.2669 25.789 37.2493 25.7906 37.2317 25.7922L37.1982 25.7953L37.1892 25.7961L37.1658 25.7983L37.1566 25.799L37.1373 25.8006L37.1278 25.8014L37.0881 25.8042C36.9845 25.8077 36.8808 25.8059 36.7771 25.8066C36.5499 25.8082 36.4863 25.8099 36.259 25.8138L36.1739 25.8159L36.1608 25.8163L36.1516 25.8165L36.0037 25.8208L35.9566 25.8223L35.9368 25.8229L35.9289 25.8232C35.8962 25.8242 35.8635 25.8253 35.8308 25.8264L35.8294 25.8265L35.821 25.8268L35.7485 25.8293L35.7316 25.83L35.7221 25.8303L35.6294 25.8338L35.6148 25.8343L35.6023 25.8348L35.5784 25.8357L35.5074 25.8385L35.505 25.8386C35.47 25.84 35.4351 25.8414 35.4001 25.8429C35.2328 25.8497 35.0654 25.857 34.898 25.8642C34.5934 25.8725 34.2887 25.8606 33.9841 25.868C33.8615 25.8723 33.7374 25.8781 33.6146 25.8928C33.5889 25.8958 33.5633 25.8993 33.5377 25.9032L33.5359 25.9034L33.5343 25.9037L33.5237 25.9054L33.5163 25.9065L33.5152 25.9067L33.5131 25.9071L33.5046 25.9085L33.4968 25.9098L33.4947 25.9102L33.4919 25.9107L33.4847 25.912L33.4773 25.9133L33.4742 25.9139L33.4708 25.9145L33.4645 25.9157L33.4578 25.917L33.4538 25.9178L33.4497 25.9186L33.4384 25.9209L33.4334 25.922L33.4287 25.9229L33.4241 25.9239L33.419 25.925L33.413 25.9264L33.4077 25.9275L33.4039 25.9284L33.3996 25.9294L33.3926 25.931L33.3868 25.9324L33.3838 25.9331L33.3804 25.9339L33.3722 25.936L33.366 25.9375L33.3637 25.9381L33.3611 25.9387L33.3516 25.9412L33.3437 25.9433L33.342 25.9438L33.3304 25.947L33.3245 25.9486C33.3179 25.9505 33.3105 25.9526 33.3038 25.9546C33.238 25.9743 33.1726 25.9989 33.1136 26.0346C33.0941 26.0464 33.0675 26.0597 33.0546 26.0797C33.044 26.0981 33.0404 26.1203 33.0368 26.141C33.0247 26.2252 33.0299 26.3107 33.0352 26.3953L33.0368 26.4147C33.0418 26.4777 33.0476 26.5407 33.0532 26.6037C33.0598 26.6773 33.0662 26.7508 33.071 26.8246C33.072 26.8455 33.0728 26.8665 33.0733 26.8875C33.0801 27.1251 33.0614 27.363 32.9668 27.5843C32.9227 27.6875 32.8651 27.7851 32.7994 27.876C32.7244 27.9797 32.6373 28.0725 32.5456 28.1614L32.5327 28.1733L32.5283 28.1773L32.52 28.1849L32.4971 28.2056L32.4942 28.2082L32.4672 28.2322L32.4408 28.2552L32.4268 28.2673L32.4147 28.2777L32.398 28.2921L32.3411 28.3404C32.2624 28.4071 32.1836 28.4735 32.1081 28.5439C32.0332 28.6168 31.9567 28.6968 31.9155 28.7947C31.8652 28.9146 31.8766 29.0643 31.8892 29.1891C31.8969 29.2663 31.909 29.3431 31.923 29.4194C31.9345 29.4825 31.9453 29.5462 31.9653 29.6072C31.9912 29.6861 32.0274 29.7612 32.0625 29.8363L32.0826 29.8786L33.0781 30.1785L33.0467 30.1776C33.0948 30.1816 33.0944 30.1815 33.1422 30.188C33.188 30.1966 33.1877 30.1965 33.2329 30.2074C33.3026 30.2277 33.3696 30.2522 33.4345 30.2849C33.6489 30.3933 33.8191 30.5593 33.976 30.7391L34.0007 30.7676L34.0251 30.7962L34.049 30.8246L34.0721 30.8522L34.0919 30.8761C34.1182 30.9079 34.1443 30.9398 34.1705 30.9716L34.2125 31.0225L34.2495 31.0669L34.2723 31.0938L34.2969 31.1226L34.3198 31.149L34.3412 31.1731C34.3742 31.2088 34.4076 31.2434 34.4436 31.276C34.4542 31.2849 34.4692 31.3018 34.4834 31.3058C34.4911 31.3076 34.4987 31.309 34.5064 31.3102ZM38.8382 16.0278C39.2231 16.0093 39.6105 16 40 16C40.4089 16 40.8162 16.0103 41.2202 16.0306L38.8382 16.0278Z" fill="white"/>
</svg>
