<svg width="80" height="80" viewBox="0 0 80 80" fill="none" xmlns="http://www.w3.org/2000/svg">
<path fill-rule="evenodd" clip-rule="evenodd" d="M49.9411 64H30.0589L16 49.9411V30.0589L30.0589 16H49.9411L64 30.0589V49.9411L49.9411 64ZM47.0416 57L57 47.0416V32.9584L47.0416 23H32.9584L23 32.9584V47.0416L32.9584 57H47.0416ZM32.893 40L44.6352 51.804L39.9392 56.5L28.1971 44.7578L28.196 44.7589L23.5 40L29.3119 34.2511H38.7038L32.893 40ZM50.6881 45.7489H41.2962L47.107 40L35.3648 28.196L40.0608 23.5L51.8029 35.2422L51.804 35.2411L56.5 40L50.6881 45.7489Z" fill="white"/>
</svg>
