<svg width="80" height="80" viewBox="0 0 80 80" fill="none" xmlns="http://www.w3.org/2000/svg">
<path d="M39.1957 51.8071C39.2306 51.2993 39.0106 50.8159 38.6232 50.5074C36.6298 50.2218 34.833 49.3241 33.4298 48.011C32.9452 47.8989 32.4275 48.029 32.0512 48.3747L31.9699 48.4494C30.3338 49.9524 26.7347 53.2589 25.0846 54.786C24.5976 55.2334 24.4945 55.9623 24.8384 56.5271C25.4912 57.5773 25.9706 58.5245 26.3938 59.3606C27.2784 61.1085 27.9173 62.3708 29.3804 63.0737C30.8435 63.7766 32.2287 63.4867 34.1467 63.0854C35.0643 62.8934 36.1039 62.6759 37.3322 62.5294C37.9883 62.445 38.4933 61.9092 38.5387 61.2496C38.7036 58.9698 39.0473 53.9675 39.1957 51.8071Z" fill="white"/>
<path d="M47.9526 48.3642C47.5758 48.0191 47.058 47.8896 46.5735 48.0024C45.1719 49.3174 43.3762 50.2174 41.3834 50.5056C40.9964 50.8146 40.7771 51.2983 40.8126 51.806L40.8133 51.8151C40.9649 53.9803 41.3144 58.9713 41.4821 61.2477C41.5283 61.9072 42.0341 62.4423 42.6902 62.5258C43.9187 62.6707 44.9585 62.8869 45.8763 63.0777C47.7949 63.4765 49.1807 63.7646 50.6428 63.0597C52.1049 62.3549 52.7422 61.0917 53.6245 59.3427C54.0466 58.506 54.5247 57.5582 55.1761 56.5071C55.5193 55.9419 55.4152 55.2131 54.9276 54.7663C53.2689 53.2354 49.6432 49.9133 48.0145 48.4209L47.9526 48.3642Z" fill="white"/>
<path d="M31.042 47.112C31.4614 46.8222 31.7024 46.3479 31.7014 45.8522C30.8637 44.4268 30.3833 42.7669 30.3833 40.9958C30.3833 40.7399 30.3933 40.4863 30.4131 40.2354C30.1979 39.789 29.7743 39.4673 29.2708 39.3891L29.2204 39.3813C27.0532 39.0447 22.1555 38.2842 19.912 37.9441C19.2584 37.8425 18.6241 38.2165 18.3969 38.8375C17.9826 40.0025 17.5408 40.9678 17.1508 41.8199C16.3355 43.6011 15.7467 44.8876 16.1093 46.4691C16.4721 48.0506 17.5628 48.9523 19.0729 50.2007C19.7953 50.7979 20.6136 51.4744 21.4942 52.3427C21.9693 52.8027 22.7033 52.8633 23.2474 52.4874C25.1166 51.2059 29.1873 48.3934 30.9944 47.1449L31.042 47.112Z" fill="white"/>
<path d="M50.7211 39.375C50.2177 39.4539 49.7946 39.776 49.58 40.2227C49.6004 40.4778 49.6108 40.7356 49.6108 40.9958C49.6108 42.7624 49.1328 44.4184 48.2991 45.8413C48.2987 46.3371 48.5404 46.8109 48.9601 47.1002L49.006 47.1318C50.8139 48.3774 54.8903 51.1858 56.7618 52.4653C57.3064 52.8405 58.0403 52.7789 58.5148 52.3184C59.3943 51.4488 60.2118 50.7711 60.9335 50.1729C62.4418 48.9226 63.5313 48.0196 63.8919 46.4376C64.2525 44.8556 63.662 43.57 62.8444 41.7899C62.4533 40.9383 62.0101 39.9736 61.5943 38.8091C61.3663 38.1885 60.7314 37.8152 60.078 37.9176C57.8175 38.2633 52.8615 39.0397 50.7211 39.375Z" fill="white"/>
<path d="M29.629 37.813C30.1161 37.9598 30.6362 37.8531 31.023 37.5446C31.7344 35.6996 32.9993 34.1286 34.6138 33.0352C34.8298 32.5882 34.8176 32.0557 34.5643 31.6128L34.5191 31.5337C33.4209 29.6133 30.9842 25.3523 29.858 23.3993C29.5298 22.8252 28.8416 22.5629 28.2143 22.7726C27.0449 23.1754 26.0144 23.4322 25.1048 23.6588C23.2033 24.1326 21.8299 24.4749 20.8192 25.7446C19.8086 27.0142 19.7836 28.4287 19.749 30.3869C19.7324 31.3239 19.7137 32.3853 19.5837 33.615C19.5203 34.2731 19.9307 34.8844 20.5641 35.075C22.7513 35.7422 27.5545 37.1884 29.629 37.813Z" fill="white"/>
<path d="M45.4174 31.6057C45.1647 32.0489 45.1532 32.5814 45.3697 33.028C46.9858 34.1194 48.2527 35.6889 48.9665 37.5328C49.3538 37.8408 49.874 37.9467 50.3609 37.7994L50.5176 37.752C52.6674 37.1016 57.2893 35.7032 59.4222 35.0494C60.0553 34.8579 60.4649 34.2461 60.4006 33.5881C60.269 32.3586 60.2489 31.2972 60.2311 30.3603C60.1939 28.402 60.167 26.9876 59.1547 25.7193C58.1423 24.4509 56.7686 24.1105 54.8665 23.6392C53.9566 23.4137 52.9257 23.1583 51.7557 22.757C51.1281 22.5482 50.4403 22.8115 50.1128 23.3859C48.9735 25.3678 46.49 29.7242 45.4174 31.6057Z" fill="white"/>
<path d="M36.0336 30.9047C36.222 31.3768 36.6291 31.7172 37.1113 31.8277C38.0223 31.5411 38.9918 31.3865 39.997 31.3865C41.0023 31.3865 41.9717 31.5411 42.8828 31.8277C43.365 31.7172 43.7721 31.3768 43.9605 30.9047C44.7631 28.8932 46.6213 24.2358 47.4608 22.1096C47.7058 21.4956 47.4828 20.7939 46.9281 20.4338C45.8845 19.7698 45.0418 19.1237 44.298 18.5533C42.7432 17.3611 41.6203 16.5 39.997 16.5C38.3737 16.5001 37.2508 17.3612 35.696 18.5534C34.9522 19.1237 34.1095 19.7699 33.066 20.4338C32.5113 20.7939 32.2882 21.4956 32.5333 22.1096C33.3727 24.2358 35.231 28.8932 36.0336 30.9047Z" fill="white"/>
<path d="M47.5177 41.0072C47.5177 36.8564 44.1478 33.4865 39.997 33.4865C35.8462 33.4865 32.4763 36.8564 32.4763 41.0072C32.4763 45.158 35.8462 48.5279 39.997 48.5279C44.1478 48.5279 47.5177 45.158 47.5177 41.0072Z" fill="white"/>
</svg>
