<svg width="29" height="29" viewBox="0 0 29 29" fill="none" xmlns="http://www.w3.org/2000/svg">
<path d="M11.875 23.25V24.125L15.8125 21.1719C16.25 20.8437 16.7969 20.625 17.3984 20.625H25C25.4375 20.625 25.875 20.2422 25.875 19.75L25.875 4C25.875 3.5625 25.4375 3.125 25 3.125L4 3.125C3.50781 3.125 3.125 3.5625 3.125 4L3.125 19.75C3.125 20.2422 3.50781 20.625 4 20.625H9.25C10.6719 20.625 11.875 21.8281 11.875 23.25ZM11.8203 27.4609L11.5469 27.625L10.6172 28.3359C10.3438 28.5547 10.0156 28.5547 9.6875 28.4453C9.41406 28.2812 9.25 28.0078 9.25 27.625V26.4766V26.1484V26.0938V25.875V23.25H6.625H4C2.03125 23.25 0.5 21.7188 0.5 19.75L0.5 4C0.5 2.08594 2.03125 0.5 4 0.5L25 0.5C26.9141 0.5 28.5 2.08594 28.5 4L28.5 19.75C28.5 21.7187 26.9141 23.25 25 23.25H17.3984L11.875 27.4062L11.8203 27.4609ZM10.0703 7.44531C10.5625 6.95312 11.3828 6.95312 11.875 7.44531L14.4453 10.0156L17.0156 7.44531C17.5625 6.95312 18.3828 6.95312 18.875 7.44531C19.4219 7.99219 19.4219 8.8125 18.875 9.30469L16.3047 11.875L18.875 14.4453C19.4219 14.9922 19.4219 15.8125 18.875 16.3047C18.3828 16.8516 17.5625 16.8516 17.0156 16.3047L14.4453 13.7344L11.875 16.3047C11.3828 16.8516 10.5625 16.8516 10.0703 16.3047C9.52344 15.8125 9.52344 14.9922 10.0703 14.4453L12.6406 11.875L10.0703 9.30469C9.52344 8.8125 9.52344 7.99219 10.0703 7.44531Z" fill="#E8000F"/>
</svg>
