<svg width="29" height="29" viewBox="0 0 29 29" fill="none" xmlns="http://www.w3.org/2000/svg">
<path d="M11.875 23.25V24.125L15.8125 21.1719C16.25 20.8437 16.7969 20.625 17.3984 20.625H25C25.4375 20.625 25.875 20.2422 25.875 19.75L25.875 4C25.875 3.5625 25.4375 3.125 25 3.125L4 3.125C3.50781 3.125 3.125 3.5625 3.125 4L3.125 19.75C3.125 20.2422 3.50781 20.625 4 20.625H9.25C10.6719 20.625 11.875 21.8281 11.875 23.25ZM11.8203 27.4609L11.5469 27.625L10.6172 28.3359C10.3438 28.5547 10.0156 28.5547 9.6875 28.4453C9.41406 28.2812 9.25 28.0078 9.25 27.625V26.4766V26.1484V26.0938V25.875V23.25H6.625H4C2.03125 23.25 0.5 21.7188 0.5 19.75L0.5 4C0.5 2.08594 2.03125 0.5 4 0.5L25 0.5C26.9141 0.5 28.5 2.08594 28.5 4L28.5 19.75C28.5 21.7187 26.9141 23.25 25 23.25H17.3984L11.875 27.4062L11.8203 27.4609ZM9.74219 6.95312C10.1797 5.69531 11.3281 4.875 12.6406 4.875L15.8125 4.875C17.7266 4.875 19.2578 6.46094 19.2578 8.375C19.2578 9.57812 18.6016 10.7266 17.5625 11.3281L15.7578 12.3672C15.7578 13.0781 15.2109 13.625 14.4453 13.625C13.7344 13.625 13.1328 13.0781 13.1328 12.3125V11.6016C13.1328 11.1094 13.4063 10.6719 13.8438 10.4531L16.25 9.08594C16.5234 8.92187 16.6328 8.64844 16.6328 8.375C16.6328 7.88281 16.3047 7.5 15.8125 7.5L12.6406 7.5C12.4766 7.5 12.3125 7.66406 12.2578 7.82812L12.2031 7.88281C11.9844 8.53906 11.2188 8.92187 10.5625 8.70312C9.85156 8.42969 9.52344 7.66406 9.74219 7.00781V6.95312ZM16.25 17.125C16.25 18.1094 15.4297 18.875 14.5 18.875C13.5156 18.875 12.75 18.1094 12.75 17.125C12.75 16.1953 13.5156 15.375 14.5 15.375C15.4297 15.375 16.25 16.1953 16.25 17.125Z" fill="#003399"/>
</svg>
