<svg width="29" height="21" viewBox="0 0 29 21" fill="none" xmlns="http://www.w3.org/2000/svg">
<path d="M4 2.625C3.50781 2.625 3.125 3.0625 3.125 3.5V4.75781L12.5313 12.4687C13.6797 13.3984 15.2656 13.3984 16.4141 12.4687L25.875 4.75781V3.5C25.875 3.0625 25.4375 2.625 25 2.625L4 2.625ZM3.125 8.14844L3.125 17.5C3.125 17.9922 3.50781 18.375 4 18.375L25 18.375C25.4375 18.375 25.875 17.9922 25.875 17.5V8.14844L18.1094 14.4922C15.9766 16.2422 12.9688 16.2422 10.8906 14.4922L3.125 8.14844ZM0.5 3.5C0.5 1.58594 2.03125 0 4 0L25 0C26.9141 0 28.5 1.58594 28.5 3.5L28.5 17.5C28.5 19.4687 26.9141 21 25 21L4 21C2.03125 21 0.5 19.4688 0.5 17.5L0.5 3.5Z" fill="#003399"/>
</svg>
