<svg width="29" height="29" viewBox="0 0 29 29" fill="none" xmlns="http://www.w3.org/2000/svg">
<path d="M11.875 23.25V24.125L15.8125 21.1719C16.25 20.8437 16.7969 20.625 17.3984 20.625H25C25.4375 20.625 25.875 20.2422 25.875 19.75L25.875 4C25.875 3.5625 25.4375 3.125 25 3.125L4 3.125C3.50781 3.125 3.125 3.5625 3.125 4L3.125 19.75C3.125 20.2422 3.50781 20.625 4 20.625H9.25C10.6719 20.625 11.875 21.8281 11.875 23.25ZM11.8203 27.4609L11.5469 27.625L10.6172 28.3359C10.3438 28.5547 10.0156 28.5547 9.6875 28.4453C9.41406 28.2812 9.25 28.0078 9.25 27.625V26.4766V26.1484V26.0938V25.875V23.25H6.625H4C2.03125 23.25 0.5 21.7188 0.5 19.75L0.5 4C0.5 2.08594 2.03125 0.5 4 0.5L25 0.5C26.9141 0.5 28.5 2.08594 28.5 4L28.5 19.75C28.5 21.7187 26.9141 23.25 25 23.25H17.3984L11.875 27.4062L11.8203 27.4609ZM11 10.125C10.0156 10.125 9.25 9.35937 9.25 8.375C9.25 7.44531 10.0156 6.625 11 6.625C11.9297 6.625 12.75 7.44531 12.75 8.375C12.75 9.35937 11.9297 10.125 11 10.125ZM18 10.125C17.0156 10.125 16.25 9.35937 16.25 8.375C16.25 7.44531 17.0156 6.625 18 6.625C18.9297 6.625 19.75 7.44531 19.75 8.375C19.75 9.35937 18.9297 10.125 18 10.125ZM8.70313 13.5703C9.25 13.0781 10.0703 13.1328 10.5625 13.625C11.4922 14.7187 12.9141 15.375 14.4453 15.375C16.0312 15.375 17.3984 14.7187 18.3828 13.625C18.875 13.1328 19.6953 13.0781 20.2422 13.5703C20.7891 14.0078 20.8438 14.8828 20.3516 15.375C18.875 17.0156 16.7969 18 14.4453 18C12.1484 18 10.0156 17.0156 8.59375 15.375C8.10156 14.8828 8.15625 14.0078 8.70313 13.5703Z" fill="#00CFC1"/>
</svg>
