<svg width="28" height="29" viewBox="0 0 28 29" fill="none" xmlns="http://www.w3.org/2000/svg">
<path d="M11.375 23.25V24.125L15.3125 21.1719C15.75 20.8437 16.2969 20.625 16.8984 20.625H24.5C24.9375 20.625 25.375 20.2422 25.375 19.75L25.375 4C25.375 3.5625 24.9375 3.125 24.5 3.125L3.5 3.125C3.00781 3.125 2.625 3.5625 2.625 4L2.625 19.75C2.625 20.2422 3.00781 20.625 3.5 20.625H8.75C10.1719 20.625 11.375 21.8281 11.375 23.25ZM11.3203 27.4609L11.0469 27.625L10.1172 28.3359C9.84375 28.5547 9.51563 28.5547 9.1875 28.4453C8.91406 28.2812 8.75 28.0078 8.75 27.625V26.4766V26.1484V26.0938V25.875V23.25H6.125H3.5C1.53125 23.25 0 21.7188 0 19.75L0 4C0 2.08594 1.53125 0.5 3.5 0.5L24.5 0.5C26.4141 0.5 28 2.08594 28 4L28 19.75C28 21.7187 26.4141 23.25 24.5 23.25H16.8984L11.375 27.4062L11.3203 27.4609ZM14 4.875C14.7109 4.875 15.3125 5.47656 15.3125 6.1875V12.3125C15.3125 13.0781 14.7109 13.625 14 13.625C13.2344 13.625 12.6875 13.0781 12.6875 12.3125V6.1875C12.6875 5.47656 13.2344 4.875 14 4.875ZM15.75 17.125C15.75 18.1094 14.9297 18.875 14 18.875C13.0156 18.875 12.25 18.1094 12.25 17.125C12.25 16.1953 13.0156 15.375 14 15.375C14.9297 15.375 15.75 16.1953 15.75 17.125Z" fill="#996600"/>
</svg>
