<svg width="143" height="132" viewBox="0 0 143 132" fill="none" xmlns="http://www.w3.org/2000/svg">
<g opacity="0.2">
<path d="M72.0002 9.08545L32.6367 31.8119C26.4487 35.3846 22.6367 41.9871 22.6367 49.1325V94.5854" stroke="#E8000F" stroke-width="4"/>
<path d="M121.363 37.5854V83.0384C121.363 90.1838 117.551 96.7863 111.363 100.359L72 123.085" stroke="#996600" stroke-width="4"/>
</g>
<g opacity="0.1">
<path d="M76.9686 9.30231L35.7742 28.5116C29.2983 31.5313 24.9254 37.7765 24.3026 44.8946L20.3412 90.1746" stroke="#E8000F" stroke-width="20"/>
<path d="M123.66 41.9962L119.698 87.2762C119.076 94.3943 114.703 100.639 108.227 103.659L67.0326 122.868" stroke="#996600" stroke-width="20"/>
</g>
<path d="M74.25 46.25V73.25C74.25 74.5625 73.2188 75.5 72 75.5C70.6875 75.5 69.75 74.5625 69.75 73.25V46.25C69.75 45.0312 70.6875 44 72 44C73.2188 44 74.25 45.0312 74.25 46.25ZM72 86C70.3125 86 69 84.6875 69 83C69 81.4062 70.3125 80 72 80C73.5938 80 75 81.4062 75 83C75 84.6875 73.5938 86 72 86Z" fill="#E8000F"/>
<ellipse opacity="0.4" cx="126.477" cy="21.328" rx="3.5" ry="2.5" transform="rotate(-45 126.477 21.328)" fill="#E8000F"/>
<ellipse opacity="0.5" cx="137.977" cy="64.8281" rx="5" ry="4" fill="#E8000F"/>
<ellipse opacity="0.5" cx="113.698" cy="109.34" rx="3" ry="2.5" transform="rotate(37 113.698 109.34)" fill="#E8000F"/>
<ellipse opacity="0.3" cx="24.2964" cy="98.8988" rx="3.5" ry="2.5" transform="rotate(135 24.2964 98.8988)" fill="#996600"/>
<ellipse opacity="0.5" cx="6.82933" cy="73.6575" rx="6" ry="4" transform="rotate(165 6.82933 73.6575)" fill="#996600"/>
<ellipse opacity="0.4" cx="14.0738" cy="30.8874" rx="3" ry="2.5" transform="rotate(-150 14.0738 30.8874)" fill="#996600"/>
</svg>
