<svg width="143" height="132" viewBox="0 0 143 132" fill="none" xmlns="http://www.w3.org/2000/svg">
<g opacity="0.2">
<path d="M72.0002 9.08533L32.6367 31.8118C26.4487 35.3845 22.6367 41.987 22.6367 49.1323V94.5853" stroke="#00E8D9" stroke-width="4"/>
<path d="M121.363 37.5853V83.0383C121.363 90.1836 117.551 96.7862 111.363 100.359L72 123.085" stroke="#003399" stroke-width="4"/>
</g>
<g opacity="0.1">
<path d="M76.9686 9.30231L35.7742 28.5116C29.2983 31.5313 24.9254 37.7765 24.3026 44.8946L20.3412 90.1746" stroke="#00E8D9" stroke-width="20"/>
<path d="M123.66 41.9962L119.698 87.2762C119.076 94.3943 114.703 100.639 108.227 103.659L67.0326 122.868" stroke="#003399" stroke-width="20"/>
</g>
<path d="M92.3438 50.6562C93.1875 51.5938 93.1875 53 92.3438 53.8438L67.5938 78.5938C66.6562 79.5312 65.25 79.5312 64.4062 78.5938L51.6562 65.8438C50.7188 65 50.7188 63.5938 51.6562 62.75C52.5 61.8125 53.9062 61.8125 54.75 62.75L65.9062 73.9062L89.1562 50.6562C90 49.8125 91.4062 49.8125 92.25 50.6562H92.3438Z" fill="#00E8D9"/>
<ellipse opacity="0.4" cx="126.477" cy="21.3279" rx="3.5" ry="2.5" transform="rotate(-45 126.477 21.3279)" fill="#00E8D9"/>
<ellipse opacity="0.5" cx="137.977" cy="64.828" rx="5" ry="4" fill="#00E8D9"/>
<ellipse opacity="0.5" cx="113.698" cy="109.339" rx="3" ry="2.5" transform="rotate(37 113.698 109.339)" fill="#00E8D9"/>
<ellipse opacity="0.3" cx="24.2964" cy="98.8986" rx="3.5" ry="2.5" transform="rotate(135 24.2964 98.8986)" fill="#003399"/>
<ellipse opacity="0.5" cx="6.82933" cy="73.6575" rx="6" ry="4" transform="rotate(165 6.82933 73.6575)" fill="#003399"/>
<ellipse opacity="0.4" cx="14.0738" cy="30.8873" rx="3" ry="2.5" transform="rotate(-150 14.0738 30.8873)" fill="#003399"/>
</svg>
