<svg width="140" height="140" viewBox="0 0 140 140" fill="none" xmlns="http://www.w3.org/2000/svg">
<mask id="mask0_5252_6132" style="mask-type:alpha" maskUnits="userSpaceOnUse" x="9" y="3" width="122" height="134">
<path d="M60 5.7735C66.188 2.20085 73.812 2.20085 80 5.7735L120.622 29.2265C126.81 32.7992 130.622 39.4017 130.622 46.547V93.453C130.622 100.598 126.81 107.201 120.622 110.774L80 134.227C73.812 137.799 66.188 137.799 60 134.227L19.3782 110.774C13.1902 107.201 9.37822 100.598 9.37822 93.453V46.547C9.37822 39.4017 13.1902 32.7992 19.3782 29.2265L60 5.7735Z" fill="#EDEFF5"/>
</mask>
<g mask="url(#mask0_5252_6132)">
<path d="M60 5.7735C66.188 2.20085 73.812 2.20085 80 5.7735L120.622 29.2265C126.81 32.7992 130.622 39.4017 130.622 46.547V93.453C130.622 100.598 126.81 107.201 120.622 110.774L80 134.227C73.812 137.799 66.188 137.799 60 134.227L19.3782 110.774C13.1902 107.201 9.37822 100.598 9.37822 93.453V46.547C9.37822 39.4017 13.1902 32.7992 19.3782 29.2265L60 5.7735Z" fill="#EDEFF5"/>
<path opacity="0.5" d="M54.25 49H88.75C89.9688 49 91 50.0312 91 51.25C91 52.5625 89.9688 53.5 88.75 53.5H54.25C52.0938 53.5 50.5 55.1875 50.5 57.25V82.75C50.5 84.9062 52.0938 86.5 54.25 86.5H85.75C87.8125 86.5 89.5 84.9062 89.5 82.75V66.25C89.5 64.1875 87.8125 62.5 85.75 62.5H57.25C55.9375 62.5 55 61.5625 55 60.25C55 59.0312 55.9375 58 57.25 58H85.75C90.25 58 94 61.75 94 66.25V82.75C94 87.3438 90.25 91 85.75 91H54.25C49.6562 91 46 87.3438 46 82.75V57.25C46 52.75 49.6562 49 54.25 49ZM82 77.5C80.3125 77.5 79 76.1875 79 74.5C79 72.9062 80.3125 71.5 82 71.5C83.5938 71.5 85 72.9062 85 74.5C85 76.1875 83.5938 77.5 82 77.5Z" fill="#6D8AC4"/>
</g>
</svg>
