<svg width="140" height="140" viewBox="0 0 140 140" fill="none" xmlns="http://www.w3.org/2000/svg">
<mask id="mask0_5252_15843" style="mask-type:alpha" maskUnits="userSpaceOnUse" x="9" y="3" width="122" height="134">
<path d="M60 5.7735C66.188 2.20085 73.812 2.20085 80 5.7735L120.622 29.2265C126.81 32.7992 130.622 39.4017 130.622 46.547V93.453C130.622 100.598 126.81 107.201 120.622 110.774L80 134.227C73.812 137.799 66.188 137.799 60 134.227L19.3782 110.774C13.1902 107.201 9.37822 100.598 9.37822 93.453V46.547C9.37822 39.4017 13.1902 32.7992 19.3782 29.2265L60 5.7735Z" fill="#EDEFF5"/>
</mask>
<g mask="url(#mask0_5252_15843)">
<path d="M60 5.7735C66.188 2.20085 73.812 2.20085 80 5.7735L120.622 29.2265C126.81 32.7992 130.622 39.4017 130.622 46.547V93.453C130.622 100.598 126.81 107.201 120.622 110.774L80 134.227C73.812 137.799 66.188 137.799 60 134.227L19.3782 110.774C13.1902 107.201 9.37822 100.598 9.37822 93.453V46.547C9.37822 39.4017 13.1902 32.7992 19.3782 29.2265L60 5.7735Z" fill="#EDEFF5"/>
<path opacity="0.5" d="M56.5 56.5C56.5 59.875 53.7812 62.5 50.5 62.5V77.5C53.7812 77.5 56.5 80.2188 56.5 83.5H89.5C89.5 80.2188 92.125 77.5 95.5 77.5V62.5C92.125 62.5 89.5 59.875 89.5 56.5H56.5ZM46 58C46 54.7188 48.625 52 52 52H94C97.2812 52 100 54.7188 100 58V82C100 85.375 97.2812 88 94 88H52C48.625 88 46 85.375 46 82V58ZM73 61C76.1875 61 79.0938 62.7812 80.7812 65.5C82.375 68.3125 82.375 71.7812 80.7812 74.5C79.0938 77.3125 76.1875 79 73 79C69.7188 79 66.8125 77.3125 65.125 74.5C63.5312 71.7812 63.5312 68.3125 65.125 65.5C66.8125 62.7812 69.7188 61 73 61Z" fill="#6D8AC4"/>
</g>
</svg>
