<svg width="140" height="140" viewBox="0 0 140 140" fill="none" xmlns="http://www.w3.org/2000/svg">
<mask id="mask0_5252_15789" style="mask-type:alpha" maskUnits="userSpaceOnUse" x="9" y="3" width="122" height="134">
<path d="M60 5.7735C66.188 2.20085 73.812 2.20085 80 5.7735L120.622 29.2265C126.81 32.7992 130.622 39.4017 130.622 46.547V93.453C130.622 100.598 126.81 107.201 120.622 110.774L80 134.227C73.812 137.799 66.188 137.799 60 134.227L19.3782 110.774C13.1902 107.201 9.37822 100.598 9.37822 93.453V46.547C9.37822 39.4017 13.1902 32.7992 19.3782 29.2265L60 5.7735Z" fill="#EDEFF5"/>
</mask>
<g mask="url(#mask0_5252_15789)">
<path d="M60 5.7735C66.188 2.20085 73.812 2.20085 80 5.7735L120.622 29.2265C126.81 32.7992 130.622 39.4017 130.622 46.547V93.453C130.622 100.598 126.81 107.201 120.622 110.774L80 134.227C73.812 137.799 66.188 137.799 60 134.227L19.3782 110.774C13.1902 107.201 9.37822 100.598 9.37822 93.453V46.547C9.37822 39.4017 13.1902 32.7992 19.3782 29.2265L60 5.7735Z" fill="#EDEFF5"/>
<path opacity="0.5" d="M61 56.5V61H73V56.5C73 53.2188 70.2812 50.5 67 50.5C63.625 50.5 61 53.2188 61 56.5ZM56.5 65.5H50.5V85C50.5 87.5312 52.4688 89.5 55 89.5H79C81.4375 89.5 83.5 87.5312 83.5 85V65.5H77.5V70.75C77.5 72.0625 76.4688 73 75.25 73C73.9375 73 73 72.0625 73 70.75V65.5H61V70.75C61 72.0625 59.9688 73 58.75 73C57.4375 73 56.5 72.0625 56.5 70.75V65.5ZM56.5 61V56.5C56.5 50.7812 61.1875 46 67 46C72.7188 46 77.5 50.7812 77.5 56.5V61H83.5C85.9375 61 88 63.0625 88 65.5V85C88 89.9688 83.9688 94 79 94H55C50.0312 94 46 89.9688 46 85V65.5C46 63.0625 47.9688 61 50.5 61H56.5Z" fill="#6D8AC4"/>
</g>
</svg>
