<svg width="140" height="140" viewBox="0 0 140 140" fill="none" xmlns="http://www.w3.org/2000/svg">
<mask id="mask0_5252_6180" style="mask-type:alpha" maskUnits="userSpaceOnUse" x="9" y="3" width="122" height="134">
<path d="M60 5.7735C66.188 2.20085 73.812 2.20085 80 5.7735L120.622 29.2265C126.81 32.7992 130.622 39.4017 130.622 46.547V93.453C130.622 100.598 126.81 107.201 120.622 110.774L80 134.227C73.812 137.799 66.188 137.799 60 134.227L19.3782 110.774C13.1902 107.201 9.37822 100.598 9.37822 93.453V46.547C9.37822 39.4017 13.1902 32.7992 19.3782 29.2265L60 5.7735Z" fill="#EDEFF5"/>
</mask>
<g mask="url(#mask0_5252_6180)">
<path d="M60 5.7735C66.188 2.20085 73.812 2.20085 80 5.7735L120.622 29.2265C126.81 32.7992 130.622 39.4017 130.622 46.547V93.453C130.622 100.598 126.81 107.201 120.622 110.774L80 134.227C73.812 137.799 66.188 137.799 60 134.227L19.3782 110.774C13.1902 107.201 9.37822 100.598 9.37822 93.453V46.547C9.37822 39.4017 13.1902 32.7992 19.3782 29.2265L60 5.7735Z" fill="#EDEFF5"/>
<path opacity="0.5" d="M67.6562 50.2188L70 54.0625L72.25 50.2188C73.75 47.5938 76.4688 46 79.4688 46H79.75C84.25 46 88 49.75 88 54.25C88 55.6562 87.625 56.875 87.0625 58H89.5C91.9375 58 94 60.0625 94 62.5V68.5C94 70.4688 92.6875 72.1562 91 72.8125V73V88C91 91.375 88.2812 94 85 94H55C51.625 94 49 91.375 49 88V73V72.8125C47.2188 72.1562 46 70.4688 46 68.5V62.5C46 60.0625 47.9688 58 50.5 58H52.8438C52.2812 56.875 52 55.6562 52 54.25C52 49.75 55.6562 46 60.25 46H60.4375C63.4375 46 66.1562 47.5938 67.6562 50.2188ZM89.5 62.5H79.75H73V68.5H86.5H89.5V62.5ZM67 62.5H60.25H50.5V68.5H53.5H67V62.5ZM67 73H53.5V88C53.5 88.8438 54.1562 89.5 55 89.5H67V73ZM73 89.5H85C85.75 89.5 86.5 88.8438 86.5 88V73H73V89.5ZM79.75 58C81.8125 58 83.5 56.4062 83.5 54.25C83.5 52.1875 81.8125 50.5 79.75 50.5H79.4688C78.0625 50.5 76.8438 51.25 76.0938 52.4688L72.8125 58H73H79.75ZM67 58H67.0938L63.8125 52.4688C63.1562 51.25 61.8438 50.5 60.4375 50.5H60.25C58.0938 50.5 56.5 52.1875 56.5 54.25C56.5 56.4062 58.0938 58 60.25 58H67Z" fill="#6D8AC4"/>
</g>
</svg>
