<svg width="86" height="76" viewBox="0 0 86 76" fill="none" xmlns="http://www.w3.org/2000/svg">
<rect x="18.5" y="21.8026" width="54.096" height="33" rx="3.5" stroke="#00E8D9" stroke-width="3"/>
<rect x="24.7148" y="42.5883" width="8.57143" height="2.57143" fill="#003399"/>
<rect x="35.8574" y="42.5883" width="8.57143" height="2.57143" fill="#003399"/>
<rect x="47" y="42.5883" width="8.57143" height="2.57143" fill="#003399"/>
<rect x="58.1426" y="42.5883" width="8.57143" height="2.57143" fill="#003399"/>
<rect x="25.2148" y="30.2312" width="7.57143" height="5" rx="1.5" stroke="#003399"/>
<path d="M23.4277 30.913V34.5495L21.6095 32.7312L23.4277 30.913Z" fill="#003399"/>
<path d="M28.5583 65.4049C27.6761 66.4948 27.8837 74.8505 28.8697 75.6289C30.2191 76.7707 30.6343 75.3695 30.4786 70.1277C30.3229 65.0416 29.8558 63.8479 28.5583 65.4049Z" fill="#4C87FF"/>
<path d="M7.1918 66.9657C3.97408 70.2353 3.1437 71.9999 4.90825 71.9999C6.10193 71.9999 12.2779 65.772 12.2779 64.5784C12.2779 62.8657 10.4095 63.748 7.1918 66.9657Z" fill="#6D8AC4"/>
<path d="M0.14754 48.1834C-0.423346 49.6885 0.510827 49.9999 5.6488 49.9999C10.8387 49.9999 11.6172 49.7404 11.0463 48.2353C10.5792 47.0935 0.56273 46.9898 0.14754 48.1834Z" fill="#003399"/>
<path d="M82.75 1.25C82.5 1.95 82 2.45 81.65 2.4C81.3 2.3 81 2.6 81 3C81 3.4 81.3 3.7 81.65 3.6C82 3.55 82.5 4.05 82.75 4.75C83 5.45 83.35 6 83.5 6C83.65 6 84 5.45 84.25 4.75C84.5 4.05 85 3.55 85.35 3.6C85.7 3.7 86 3.4 86 3C86 2.6 85.65 2.25 85.25 2.25C84.85 2.25 84.45 1.75 84.35 1.1C84.15 -0.35 83.35 -0.300001 82.75 1.25Z" fill="#00E8D9"/>
<path d="M71.8575 8.13734C71.6499 8.34494 71.4942 9.17532 71.4942 10.0057C71.4942 11.2513 71.2866 11.4589 69.9892 11.4589C69.1069 11.4589 68.2765 11.7184 68.1208 11.9778C67.6018 12.8082 68.8474 14.0538 70.093 13.8981C70.9234 13.8462 71.2866 14.1576 71.4942 15.3513C71.8575 17.4791 73.7778 17.5829 73.9854 15.4551C74.1411 14.3652 74.4525 14.0538 75.3347 14.0538C76.736 14.0538 77.9816 12.8082 77.4626 11.9778C77.3069 11.7184 76.4765 11.4589 75.6461 11.4589C74.3487 11.4589 74.1411 11.2513 73.9854 9.7981C73.8297 8.18924 72.6879 7.30696 71.8575 8.13734Z" fill="#00E8D9"/>
<path d="M80.8165 25.0695C80.557 25.7961 80.038 26.3151 79.6747 26.2632C79.3114 26.1594 79 26.4708 79 26.886C79 27.3011 79.3114 27.6125 79.6747 27.5087C80.038 27.4568 80.557 27.9758 80.8165 28.7024C81.0759 29.429 81.4392 29.9999 81.5949 29.9999C81.7506 29.9999 82.1139 29.429 82.3734 28.7024C82.6329 27.9758 83.1519 27.4568 83.5152 27.5087C83.8785 27.6125 84.1899 27.3011 84.1899 26.886C84.1899 26.4708 83.8266 26.1075 83.4114 26.1075C82.9962 26.1075 82.581 25.5885 82.4772 24.9138C82.2696 23.4087 81.4392 23.4606 80.8165 25.0695Z" fill="#00CFC1"/>
</svg>
