<svg width="36" height="37" viewBox="0 0 36 37" fill="none" xmlns="http://www.w3.org/2000/svg">
<path d="M3.37584 18.5V21.3125C3.37584 22.2969 2.6024 23 1.68834 23C0.703964 23 0.000839233 22.2969 0.000839233 21.3125V18.5C0.000839233 8.58594 8.01646 0.5 18.0008 0.5C23.4149 0.5 28.3368 2.96094 31.6415 6.82812C32.204 7.53125 32.1337 8.58594 31.4305 9.21875C30.7274 9.78125 29.6727 9.71094 29.0399 9.00781C26.368 5.91406 22.4305 3.875 18.0008 3.875C9.9149 3.875 3.37584 10.4844 3.37584 18.5ZM35.579 14.8438C35.8602 16.0391 36.0008 17.2344 36.0008 18.5V21.3828C36.0008 22.2969 35.2274 23.0703 34.3133 23.0703C33.329 23.0703 32.6258 22.2969 32.6258 21.3828V18.5703C32.6258 17.5156 32.4852 16.4609 32.2743 15.4766C32.0633 14.6328 32.6962 13.7188 33.6102 13.5078C34.5243 13.2969 35.368 13.9297 35.579 14.8438ZM18.0008 6.125C24.8212 6.125 30.3758 11.6797 30.3758 18.5V20.2578C30.3758 22.2266 30.2352 24.1953 30.0243 26.0938C29.8837 26.9375 29.1805 27.5 28.3368 27.5C27.3524 27.5 26.5087 26.5859 26.6493 25.6016C26.8602 23.8438 27.0008 22.0859 27.0008 20.2578V18.5C27.0008 13.5781 22.9227 9.5 18.0008 9.5C17.1571 9.5 16.3837 9.64062 15.6102 9.85156C14.9071 10.0625 14.0633 9.85156 13.5712 9.28906C12.7977 8.44531 13.079 7.10938 14.1337 6.75781C15.329 6.33594 16.6649 6.125 18.0008 6.125ZM10.5477 10.9766C11.1102 11.6797 11.1102 12.6641 10.5477 13.3672C9.56334 14.8438 9.00084 16.6016 9.00084 18.5V20.2578C9.00084 22.2969 8.71959 24.3359 8.29771 26.3047C8.15709 27.0078 7.45396 27.5 6.75084 27.5C5.62584 27.5 4.78209 26.4453 5.06334 25.3203C5.4149 23.7031 5.62584 22.0156 5.62584 20.2578V18.5C5.62584 15.6875 6.5399 13.0156 8.15709 10.9766C8.7899 10.2031 9.9149 10.2734 10.5477 10.9766ZM24.7508 18.5V20.2578C24.7508 23.0703 24.4696 25.8828 23.9071 28.5547C23.7665 29.2578 23.1337 29.75 22.4305 29.75C21.4462 29.75 20.6727 28.8359 20.8837 27.8516C21.3758 25.3906 21.6571 22.8594 21.6571 20.2578V18.5C21.6571 16.5312 19.9696 14.8438 18.0008 14.8438C15.9618 14.8438 14.3446 16.5312 14.3446 18.5V20.2578C14.3446 23.1406 13.9227 25.9531 13.2196 28.6953C13.0087 29.3281 12.4462 29.75 11.743 29.75C10.6883 29.75 9.98521 28.7656 10.2665 27.7109C10.8993 25.3203 11.2508 22.7891 11.2508 20.2578V18.5C11.2508 14.7734 14.2743 11.75 18.0008 11.75C21.7274 11.75 24.7508 14.7734 24.7508 18.5ZM18.0008 16.8125C18.9149 16.8125 19.6883 17.5859 19.6883 18.5V20.2578C19.6883 24.8984 18.7743 29.4688 17.1571 33.8281L16.7352 34.8828C16.3837 35.7266 15.3993 36.2188 14.5555 35.8672C13.7118 35.5156 13.2196 34.5312 13.5712 33.6875L13.993 32.6328C15.5399 28.6953 16.3133 24.4766 16.3133 20.2578V18.5C16.3133 17.5859 17.0165 16.8125 18.0008 16.8125Z" fill="#003399"/>
</svg>
