<svg width="14" height="15" viewBox="0 0 14 15" fill="none" xmlns="http://www.w3.org/2000/svg">
<path d="M7 0.25C7.98438 0.25 8.85938 0.824219 9.29688 1.67188C10.1992 1.37109 11.2383 1.58984 11.9492 2.30078C12.6602 3.01172 12.8789 4.05078 12.5781 4.95312C13.4258 5.39062 14 6.26562 14 7.25C14 8.26172 13.4258 9.13672 12.5781 9.57422C12.8789 10.4766 12.6602 11.4883 11.9492 12.1992C11.2383 12.9102 10.1992 13.1289 9.29688 12.8555C8.85938 13.7031 7.98438 14.25 7 14.25C5.98828 14.25 5.11328 13.7031 4.67578 12.8555C3.77344 13.1289 2.76172 12.9102 2.05078 12.1992C1.33984 11.4883 1.12109 10.4766 1.39453 9.57422C0.546875 9.13672 0 8.26172 0 7.25C0 6.26562 0.546875 5.39062 1.39453 4.95312C1.12109 4.05078 1.33984 3.01172 2.05078 2.30078C2.76172 1.58984 3.77344 1.37109 4.67578 1.67188C5.11328 0.824219 5.98828 0.25 7 0.25ZM10.0898 5.96484C10.3359 5.71875 10.3359 5.30859 10.0898 5.0625C9.81641 4.78906 9.40625 4.78906 9.16016 5.0625L6.125 8.09766L4.83984 6.8125C4.56641 6.53906 4.15625 6.53906 3.91016 6.8125C3.63672 7.05859 3.63672 7.46875 3.91016 7.71484L5.66016 9.46484C5.90625 9.73828 6.31641 9.73828 6.58984 9.46484L10.0898 5.96484Z" fill="white"/>
</svg>
