<svg width="69" height="75" viewBox="0 0 69 75" fill="none" xmlns="http://www.w3.org/2000/svg">
<path fill-rule="evenodd" clip-rule="evenodd" d="M33 23H5C3.89543 23 3 23.8954 3 25V51C3 52.1046 3.89543 53 5.00001 53H33V56H5.00001C2.23858 56 0 53.7614 0 51V25C0 22.2386 2.23858 20 5 20H33V23Z" fill="#00E8D9"/>
<path d="M32.25 20V26.5H29.25V31H32.25V38H35.25V42.5H32.25V47H29.25V51.5H32.25V56" stroke="#00E8D9" stroke-width="2.5"/>
<path fill-rule="evenodd" clip-rule="evenodd" d="M33 56C33.0007 56 33.0014 56 33.0021 56C34.1097 56 57.0526 31.8468 56.9999 30.7234C56.9999 30.3149 55.1011 27.7106 52.7804 24.9532L48.6138 20H33.0548H33V23V23.1177C33.105 23.0414 33.1783 23 33.2131 23C33.3688 23 34.0213 23.6813 34.8881 24.5864C35.4888 25.2137 36.1925 25.9485 36.905 26.6383L40.175 29.7021H33.4768C33.3164 29.7021 33.1575 29.7019 33 29.7016V31V32.0902C37.043 32.1995 41.1791 32.4503 41.1244 32.7149C40.7552 34.1957 33.3713 53 33.1076 53C33.0874 53 33.051 52.9534 33 52.8646V53V56ZM53.0969 29.3957C53.0969 29.2426 51.8311 27.6596 50.3543 25.8723L47.559 22.6043H41.9155L36.2194 22.5532L40.0696 26.1277L43.867 29.6511L48.5083 29.7021C51.0399 29.7021 53.0969 29.5489 53.0969 29.3957ZM37.4324 48.4426C37.6434 48.5957 52.5695 32.7149 52.5695 32.3064C52.5695 31.7957 44.6054 31.9489 44.2362 32.5106C43.656 33.3277 37.327 48.2894 37.4324 48.4426Z" fill="#00E8D9"/>
<circle cx="18" cy="38" r="6" stroke="#003399" stroke-width="2"/>
<circle cx="18" cy="38" r="9.5" stroke="#003399" stroke-width="3" stroke-dasharray="2 9"/>
<path d="M65.75 1.25C65.5 1.95 65 2.45 64.65 2.4C64.3 2.3 64 2.6 64 3C64 3.4 64.3 3.7 64.65 3.6C65 3.55 65.5 4.05 65.75 4.75C66 5.45 66.35 6 66.5 6C66.65 6 67 5.45 67.25 4.75C67.5 4.05 68 3.55 68.35 3.6C68.7 3.7 69 3.4 69 3C69 2.6 68.65 2.25 68.25 2.25C67.85 2.25 67.45 1.75 67.35 1.1C67.15 -0.35 66.35 -0.300001 65.75 1.25Z" fill="#00E8D9"/>
<path d="M16.999 65.2371C14.3521 67.8321 13.3661 69.1295 13.5737 69.7523C14.1445 71.2055 15.1825 70.6865 18.8673 66.9498C22.2407 63.5764 22.3964 63.265 21.618 62.4346C20.7876 61.6561 20.4762 61.8118 16.999 65.2371Z" fill="#6D8AC4"/>
<path d="M43.9165 62.5896C43.7089 63.1605 44.7469 64.5618 47.1861 67.001C49.1583 68.9732 50.9228 70.582 51.1823 70.582C51.3899 70.582 51.7013 70.2187 51.9089 69.7517C52.1165 69.1808 51.0785 67.7795 48.6393 65.3403C46.6671 63.3681 44.9026 61.7592 44.6431 61.7592C44.4355 61.7592 44.1241 62.1225 43.9165 62.5896Z" fill="#6D8AC4"/>
<path d="M31.9102 64.4646C31.5988 66.4367 31.495 71.0038 31.7545 72.7684C31.9621 74.5329 32.2216 75 33.052 75C34.038 75 34.0899 74.6886 33.9342 69.7063C33.7785 65.0873 33.6748 64.3608 32.8963 64.2051C32.3773 64.1013 31.9102 64.2051 31.9102 64.4646Z" fill="#003399"/>
<path d="M54.8575 8.13734C54.6499 8.34494 54.4942 9.17532 54.4942 10.0057C54.4942 11.2513 54.2866 11.4589 52.9892 11.4589C52.1069 11.4589 51.2765 11.7184 51.1208 11.9778C50.6018 12.8082 51.8474 14.0538 53.093 13.8981C53.9234 13.8462 54.2866 14.1576 54.4942 15.3513C54.8575 17.4791 56.7778 17.5829 56.9854 15.4551C57.1411 14.3652 57.4525 14.0538 58.3347 14.0538C59.736 14.0538 60.9816 12.8082 60.4626 11.9778C60.3069 11.7184 59.4765 11.4589 58.6461 11.4589C57.3487 11.4589 57.1411 11.2513 56.9854 9.7981C56.8297 8.18924 55.6879 7.30696 54.8575 8.13734Z" fill="#00E8D9"/>
<path d="M63.8165 25.0696C63.557 25.7962 63.038 26.3152 62.6747 26.2633C62.3114 26.1595 62 26.4709 62 26.8861C62 27.3013 62.3114 27.6127 62.6747 27.5089C63.038 27.457 63.557 27.9759 63.8165 28.7025C64.0759 29.4291 64.4392 30 64.5949 30C64.7506 30 65.1139 29.4291 65.3734 28.7025C65.6329 27.9759 66.1519 27.457 66.5152 27.5089C66.8785 27.6127 67.1899 27.3013 67.1899 26.8861C67.1899 26.4709 66.8266 26.1076 66.4114 26.1076C65.9962 26.1076 65.581 25.5886 65.4772 24.9139C65.2696 23.4089 64.4392 23.4608 63.8165 25.0696Z" fill="#00CFC1"/>
<path d="M31.0154 0.729233C30.1331 1.81911 30.3407 10.1748 31.3268 10.9533C32.6761 12.0951 33.0913 10.6938 32.9356 5.45202C32.7799 0.365945 32.3128 -0.827729 31.0154 0.729233Z" fill="#4C87FF"/>
<path d="M16.8707 8.20704C20.0884 11.4767 20.9188 13.2412 19.1542 13.2412C17.9606 13.2412 11.7846 7.01336 11.7846 5.81969C11.7846 4.10703 13.653 4.98931 16.8707 8.20704Z" fill="#6D8AC4"/>
</svg>
