<svg width="29" height="31" viewBox="0 0 29 31" fill="none" xmlns="http://www.w3.org/2000/svg">
<path d="M25.875 15.5C25.875 11.4531 23.6875 7.73438 20.1875 5.65625C16.6328 3.63281 12.3125 3.63281 8.8125 5.65625C5.25781 7.73438 3.125 11.4531 3.125 15.5C3.125 19.6016 5.25781 23.3203 8.8125 25.3984C12.3125 27.4219 16.6328 27.4219 20.1875 25.3984C23.6875 23.3203 25.875 19.6016 25.875 15.5ZM0.5 15.5C0.5 10.5234 3.125 5.92969 7.5 3.41406C11.8203 0.898438 17.125 0.898438 21.5 3.41406C25.8203 5.92969 28.5 10.5234 28.5 15.5C28.5 20.5312 25.8203 25.125 21.5 27.6406C17.125 30.1562 11.8203 30.1562 7.5 27.6406C3.125 25.125 0.5 20.5312 0.5 15.5ZM15.8125 8.0625V15.5C15.8125 15.9375 15.5938 16.375 15.2109 16.5938L9.96094 20.0938C9.35938 20.5312 8.53906 20.3672 8.15625 19.7656C7.71875 19.1641 7.88281 18.3438 8.48438 17.9062L13.1875 14.8438V8.0625C13.1875 7.35156 13.7344 6.75 14.5 6.75C15.2109 6.75 15.8125 7.35156 15.8125 8.0625Z" fill="#00CFC1"/>
</svg>
