<svg width="18" height="21" viewBox="0 0 18 21" fill="none" xmlns="http://www.w3.org/2000/svg">
<path d="M15.25 13.625C15.5625 13.625 15.875 13.3516 15.875 13V5.03125L13.2188 2.375H7.75C7.39844 2.375 7.125 2.6875 7.125 3V13C7.125 13.3516 7.39844 13.625 7.75 13.625H15.25ZM7.75 15.5C6.34375 15.5 5.25 14.4062 5.25 13V3C5.25 1.63281 6.34375 0.5 7.75 0.5H13.2188C13.6875 0.5 14.1953 0.734375 14.5469 1.08594L17.1641 3.70312C17.5156 4.05469 17.75 4.5625 17.75 5.03125V13C17.75 14.4062 16.6172 15.5 15.25 15.5H7.75ZM2.75 5.5H4V7.375H2.75C2.39844 7.375 2.125 7.6875 2.125 8V18C2.125 18.3516 2.39844 18.625 2.75 18.625H10.25C10.5625 18.625 10.875 18.3516 10.875 18V16.75H12.75V18C12.75 19.4062 11.6172 20.5 10.25 20.5H2.75C1.34375 20.5 0.25 19.4062 0.25 18V8C0.25 6.63281 1.34375 5.5 2.75 5.5Z" fill="#7C8699"/>
</svg>
