<svg width="27" height="24" viewBox="0 0 27 24" fill="none" xmlns="http://www.w3.org/2000/svg">
<path d="M13.5469 21.75C17.0156 21.75 20.2031 19.9219 21.9844 16.875C23.7188 13.875 23.7188 10.1719 21.9844 7.125C20.2031 4.125 17.0156 2.25 13.5469 2.25C10.0312 2.25 6.84375 4.125 5.0625 7.125C3.32812 10.1719 3.32812 13.875 5.0625 16.875C6.84375 19.9219 10.0312 21.75 13.5469 21.75ZM13.5469 0C17.8125 0 21.75 2.29688 23.9062 6C26.0625 9.75 26.0625 14.2969 23.9062 18C21.75 21.75 17.8125 24 13.5469 24C9.23438 24 5.29688 21.75 3.14062 18C0.984375 14.2969 0.984375 9.75 3.14062 6C5.29688 2.29688 9.23438 0 13.5469 0ZM15.0469 5.25C15.0469 6.09375 14.3438 6.75 13.5469 6.75C12.7031 6.75 12.0469 6.09375 12.0469 5.25C12.0469 4.45312 12.7031 3.75 13.5469 3.75C14.3438 3.75 15.0469 4.45312 15.0469 5.25ZM13.5469 19.125C12.0938 19.125 10.9219 17.9531 10.9219 16.5C10.9219 15.0938 12.0938 13.875 13.5469 13.875C14.0156 13.875 14.4375 14.0156 14.8594 14.25L20.0156 10.7344C20.5312 10.3594 21.2344 10.5 21.5625 11.0156C21.9375 11.5312 21.7969 12.2344 21.2812 12.5625L16.125 16.125C16.125 16.2656 16.1719 16.3594 16.1719 16.5C16.1719 17.9531 14.9531 19.125 13.5469 19.125ZM19.5469 7.5C19.5469 8.34375 18.8438 9 18.0469 9C17.2031 9 16.5469 8.34375 16.5469 7.5C16.5469 6.70312 17.2031 6 18.0469 6C18.8438 6 19.5469 6.70312 19.5469 7.5ZM6.79688 10.5C7.59375 10.5 8.29688 11.2031 8.29688 12C8.29688 12.8438 7.59375 13.5 6.79688 13.5C5.95312 13.5 5.29688 12.8438 5.29688 12C5.29688 11.2031 5.95312 10.5 6.79688 10.5ZM10.5469 7.5C10.5469 8.34375 9.84375 9 9.04688 9C8.20312 9 7.54688 8.34375 7.54688 7.5C7.54688 6.70312 8.20312 6 9.04688 6C9.84375 6 10.5469 6.70312 10.5469 7.5Z" fill="#00CFC1"/>
</svg>
