<svg width="28" height="29" viewBox="0 0 28 29" fill="none" xmlns="http://www.w3.org/2000/svg">
<path d="M11.375 23.25V24.125L15.3125 21.1719C15.75 20.8437 16.2969 20.625 16.8984 20.625H24.5C24.9375 20.625 25.375 20.2422 25.375 19.75L25.375 4C25.375 3.5625 24.9375 3.125 24.5 3.125L3.5 3.125C3.00781 3.125 2.625 3.5625 2.625 4L2.625 19.75C2.625 20.2422 3.00781 20.625 3.5 20.625H8.75C10.1719 20.625 11.375 21.8281 11.375 23.25ZM11.3203 27.4609L11.0469 27.625L10.1172 28.3359C9.84375 28.5547 9.51563 28.5547 9.1875 28.4453C8.91406 28.2812 8.75 28.0078 8.75 27.625V26.4766V26.1484V26.0938V25.875V23.25H6.125H3.5C1.53125 23.25 0 21.7188 0 19.75L0 4C0 2.08594 1.53125 0.5 3.5 0.5L24.5 0.5C26.4141 0.5 28 2.08594 28 4L28 19.75C28 21.7187 26.4141 23.25 24.5 23.25H16.8984L11.375 27.4062L11.3203 27.4609ZM9.57031 7.44531C10.0625 6.95312 10.8828 6.95312 11.375 7.44531L13.9453 10.0156L16.5156 7.44531C17.0625 6.95312 17.8828 6.95312 18.375 7.44531C18.9219 7.99219 18.9219 8.8125 18.375 9.30469L15.8047 11.875L18.375 14.4453C18.9219 14.9922 18.9219 15.8125 18.375 16.3047C17.8828 16.8516 17.0625 16.8516 16.5156 16.3047L13.9453 13.7344L11.375 16.3047C10.8828 16.8516 10.0625 16.8516 9.57031 16.3047C9.02344 15.8125 9.02344 14.9922 9.57031 14.4453L12.1406 11.875L9.57031 9.30469C9.02344 8.8125 9.02344 7.99219 9.57031 7.44531Z" fill="#E8000F"/>
</svg>
