<svg width="25" height="29" viewBox="0 0 25 29" fill="none" xmlns="http://www.w3.org/2000/svg">
<path d="M12.75 3.125C10.2891 3.125 8.375 5.09375 8.375 7.5V11H17.125V7.5C17.125 5.09375 15.1562 3.125 12.75 3.125ZM5.75 7.5C5.75 3.67188 8.86719 0.5 12.75 0.5C16.5781 0.5 19.75 3.67188 19.75 7.5V11H21.5C23.4141 11 25 12.5859 25 14.5V25C25 26.9688 23.4141 28.5 21.5 28.5H4C2.03125 28.5 0.5 26.9688 0.5 25V14.5C0.5 12.5859 2.03125 11 4 11H5.75V7.5ZM4 13.625C3.50781 13.625 3.125 14.0625 3.125 14.5V25C3.125 25.4922 3.50781 25.875 4 25.875H21.5C21.9375 25.875 22.375 25.4922 22.375 25V14.5C22.375 14.0625 21.9375 13.625 21.5 13.625H4ZM14.0625 18V21.5C14.0625 22.2656 13.4609 22.8125 12.75 22.8125C11.9844 22.8125 11.4375 22.2656 11.4375 21.5V18C11.4375 17.2891 11.9844 16.6875 12.75 16.6875C13.4609 16.6875 14.0625 17.2891 14.0625 18Z" fill="#00CFC1"/>
</svg>
