<svg width="22" height="25" viewBox="0 0 22 25" fill="none" xmlns="http://www.w3.org/2000/svg">
<path d="M11 2.75C8.89062 2.75 7.25 4.4375 7.25 6.5V9.5H14.75V6.5C14.75 4.4375 13.0625 2.75 11 2.75ZM5 6.5C5 3.21875 7.67188 0.5 11 0.5C14.2812 0.5 17 3.21875 17 6.5V9.5H18.5C20.1406 9.5 21.5 10.8594 21.5 12.5V21.5C21.5 23.1875 20.1406 24.5 18.5 24.5H3.5C1.8125 24.5 0.5 23.1875 0.5 21.5V12.5C0.5 10.8594 1.8125 9.5 3.5 9.5H5V6.5ZM3.5 11.75C3.07812 11.75 2.75 12.125 2.75 12.5V21.5C2.75 21.9219 3.07812 22.25 3.5 22.25H18.5C18.875 22.25 19.25 21.9219 19.25 21.5V12.5C19.25 12.125 18.875 11.75 18.5 11.75H3.5ZM12.125 15.5V18.5C12.125 19.1562 11.6094 19.625 11 19.625C10.3438 19.625 9.875 19.1562 9.875 18.5V15.5C9.875 14.8906 10.3438 14.375 11 14.375C11.6094 14.375 12.125 14.8906 12.125 15.5Z" fill="#7C8699"/>
</svg>
