<svg width="25" height="18" viewBox="0 0 25 18" fill="none" xmlns="http://www.w3.org/2000/svg">
<path d="M3.54688 2.25C3.125 2.25 2.79688 2.625 2.79688 3V4.07812L10.8594 10.6875C11.8438 11.4844 13.2031 11.4844 14.1875 10.6875L22.2969 4.07812V3C22.2969 2.625 21.9219 2.25 21.5469 2.25H3.54688ZM2.79688 6.98438V15C2.79688 15.4219 3.125 15.75 3.54688 15.75H21.5469C21.9219 15.75 22.2969 15.4219 22.2969 15V6.98438L15.6406 12.4219C13.8125 13.9219 11.2344 13.9219 9.45312 12.4219L2.79688 6.98438ZM0.546875 3C0.546875 1.35938 1.85938 0 3.54688 0H21.5469C23.1875 0 24.5469 1.35938 24.5469 3V15C24.5469 16.6875 23.1875 18 21.5469 18H3.54688C1.85938 18 0.546875 16.6875 0.546875 15V3Z" fill="#7C8699"/>
</svg>
