<svg width="32" height="37" viewBox="0 0 32 37" fill="none" xmlns="http://www.w3.org/2000/svg">
<path d="M10.3748 9.5V11.75H21.6248V9.5C21.6248 6.40625 19.0936 3.875 15.9998 3.875C12.8357 3.875 10.3748 6.40625 10.3748 9.5ZM6.9998 11.75V9.5C6.9998 4.57812 11.0076 0.5 15.9998 0.5C20.9217 0.5 24.9998 4.57812 24.9998 9.5V11.75H27.2498C29.7107 11.75 31.7498 13.7891 31.7498 16.25V32C31.7498 34.5312 29.7107 36.5 27.2498 36.5H4.7498C2.21855 36.5 0.249802 34.5312 0.249802 32V16.25C0.249802 13.7891 2.21855 11.75 4.7498 11.75H6.9998ZM6.9998 15.125H4.7498C4.11699 15.125 3.6248 15.6875 3.6248 16.25V32C3.6248 32.6328 4.11699 33.125 4.7498 33.125H27.2498C27.8123 33.125 28.3748 32.6328 28.3748 32V16.25C28.3748 15.6875 27.8123 15.125 27.2498 15.125H24.9998H21.6248H10.3748H6.9998ZM13.1873 16.25C14.1014 16.25 14.8748 17.0234 14.8748 17.9375V19.625H17.1248V17.9375C17.1248 17.0234 17.8279 16.25 18.8123 16.25C19.7264 16.25 20.4998 17.0234 20.4998 17.9375V19.625H22.1873C23.1014 19.625 23.8748 20.3984 23.8748 21.3125C23.8748 22.2969 23.1014 23 22.1873 23H20.4998V25.25H22.1873C23.1014 25.25 23.8748 26.0234 23.8748 26.9375C23.8748 27.9219 23.1014 28.625 22.1873 28.625H20.4998V30.3125C20.4998 31.2969 19.7264 32 18.8123 32C17.8279 32 17.1248 31.2969 17.1248 30.3125V28.625H14.8748V30.3125C14.8748 31.2969 14.1014 32 13.1873 32C12.2029 32 11.4998 31.2969 11.4998 30.3125V28.625H9.8123C8.82793 28.625 8.1248 27.9219 8.1248 26.9375C8.1248 26.0234 8.82793 25.25 9.8123 25.25H11.4998V23H9.8123C8.82793 23 8.1248 22.2969 8.1248 21.3125C8.1248 20.3984 8.82793 19.625 9.8123 19.625H11.4998V17.9375C11.4998 17.0234 12.2029 16.25 13.1873 16.25ZM14.8748 25.25H17.1248V23H14.8748V25.25Z" fill="#003399"/>
</svg>
