<svg width="25" height="24" viewBox="0 0 25 24" fill="none" xmlns="http://www.w3.org/2000/svg">
<path d="M11.4219 1.17188C11.375 0.5625 11.8906 0 12.5469 0C13.1562 0 13.6719 0.5625 13.625 1.17188V1.59375C15.6875 1.78125 17.6094 2.625 19.1562 3.84375L19.3906 3.5625C19.8125 3.09375 20.5625 3.09375 20.9844 3.51562C21.4531 3.98438 21.4531 4.73438 20.9844 5.15625L20.6562 5.39062C21.9219 6.9375 22.7656 8.85938 22.9531 10.9219H23.375C23.9844 10.875 24.5 11.3906 24.5 12C24.5 12.6562 23.9844 13.1719 23.375 13.125H22.9531C22.7656 15.1875 21.9219 17.1094 20.6562 18.6562L20.9844 18.8906C21.4531 19.3125 21.4531 20.0625 20.9844 20.4844C20.5625 20.9531 19.8125 20.9531 19.3906 20.4844L19.1562 20.1562C17.6094 21.4219 15.6875 22.2656 13.625 22.4531V22.875C13.6719 23.4844 13.1562 24 12.5 24C11.8906 24 11.375 23.4844 11.4219 22.875V22.4531C9.35938 22.2656 7.4375 21.4219 5.89062 20.1562L5.65625 20.4844C5.23438 20.9531 4.48438 20.9531 4.01562 20.4844C3.59375 20.0625 3.59375 19.3125 4.0625 18.8906L4.39062 18.6562C3.125 17.1094 2.28125 15.1875 2.09375 13.125H1.67188C1.0625 13.1719 0.546875 12.6562 0.546875 12C0.546875 11.3906 1.0625 10.875 1.67188 10.9219H2.09375C2.28125 8.85938 3.125 6.9375 4.39062 5.39062L4.0625 5.15625C3.59375 4.6875 3.59375 3.98438 4.0625 3.51562C4.48438 3.09375 5.23438 3.09375 5.65625 3.5625L5.89062 3.84375C7.4375 2.625 9.35938 1.78125 11.4219 1.59375V1.17188ZM7.4375 18.5156C8.60938 19.4062 10.0156 20.0156 11.5156 20.2031L11.7031 16.4531C11.0938 16.3125 10.4844 16.0781 9.96875 15.7031L7.4375 18.5156ZM8.79688 14.5781C8.46875 14.0625 8.23438 13.4531 8.09375 12.8438L4.34375 13.0312C4.53125 14.5312 5.14062 15.9375 6.03125 17.1094L8.79688 14.5781ZM4.34375 11.0156L8.09375 11.2031C8.23438 10.5469 8.46875 9.98438 8.79688 9.46875L6.03125 6.9375C5.14062 8.0625 4.53125 9.51562 4.34375 11.0156ZM9.96875 8.29688C10.4844 7.96875 11.0938 7.6875 11.7031 7.59375L11.5156 3.84375C10.0156 4.03125 8.60938 4.64062 7.4375 5.53125L9.96875 8.29688ZM15.0781 8.29688L17.6094 5.53125C16.4375 4.64062 15.0312 4.03125 13.5312 3.84375L13.3438 7.59375C13.9531 7.6875 14.5625 7.96875 15.0781 8.29688ZM17.6094 18.5156L15.0781 15.7031C14.5625 16.0781 13.9531 16.3125 13.3438 16.4531L13.5312 20.2031C15.0312 20.0156 16.4375 19.4062 17.6094 18.5156ZM19.0156 17.1094C19.9062 15.9375 20.5156 14.5312 20.7031 12.9844L16.9531 12.8438C16.8125 13.4531 16.5781 14.0625 16.25 14.5781L19.0156 17.1094ZM19.0156 6.9375L16.25 9.46875C16.5781 9.98438 16.8125 10.5469 16.9531 11.2031L20.7031 11.0156C20.5156 9.46875 19.9062 8.0625 19.0156 6.9375ZM10.2969 12C10.2969 12.8438 10.7188 13.5469 11.4219 13.9688C12.0781 14.3906 12.9688 14.3906 13.6719 13.9688C14.3281 13.5469 14.7969 12.8438 14.7969 12C14.7969 11.2031 14.3281 10.5 13.6719 10.0781C12.9688 9.65625 12.0781 9.65625 11.4219 10.0781C10.7188 10.5 10.2969 11.2031 10.2969 12Z" fill="#7C8699"/>
</svg>
