<svg width="20" height="19" viewBox="0 0 20 19" fill="none" xmlns="http://www.w3.org/2000/svg">
<path d="M15.2734 14.8125C16.5391 13.5117 17.3125 11.7188 17.3125 9.75C17.3125 5.74219 14.0078 2.4375 10 2.4375C5.95703 2.4375 2.6875 5.74219 2.6875 9.75C2.6875 11.7188 3.42578 13.5117 4.69141 14.8125C5.35938 13.1602 6.97656 12 8.875 12H11.125C12.9883 12 14.6055 13.1602 15.2734 14.8125ZM13.8672 15.9727C13.6211 14.6719 12.4609 13.6875 11.125 13.6875H8.875C7.50391 13.6875 6.34375 14.6719 6.09766 15.9727C7.22266 16.6758 8.55859 17.0625 10 17.0625C11.4062 17.0625 12.7422 16.6758 13.8672 15.9727ZM10 18.75C6.76562 18.75 3.8125 17.0625 2.19531 14.25C0.578125 11.4727 0.578125 8.0625 2.19531 5.25C3.8125 2.47266 6.76562 0.75 10 0.75C13.1992 0.75 16.1523 2.47266 17.7695 5.25C19.3867 8.0625 19.3867 11.4727 17.7695 14.25C16.1523 17.0625 13.1992 18.75 10 18.75ZM10 9.1875C10.4922 9.1875 10.9492 8.94141 11.1953 8.48438C11.4414 8.0625 11.4414 7.53516 11.1953 7.07812C10.9492 6.65625 10.4922 6.375 10 6.375C9.47266 6.375 9.01562 6.65625 8.76953 7.07812C8.52344 7.53516 8.52344 8.0625 8.76953 8.48438C9.01562 8.94141 9.47266 9.1875 10 9.1875ZM6.90625 7.78125C6.90625 6.69141 7.46875 5.67188 8.45312 5.10938C9.40234 4.58203 10.5625 4.58203 11.5469 5.10938C12.4961 5.67188 13.0938 6.69141 13.0938 7.78125C13.0938 8.90625 12.4961 9.92578 11.5469 10.4883C10.5625 11.0156 9.40234 11.0156 8.45312 10.4883C7.46875 9.92578 6.90625 8.90625 6.90625 7.78125Z" fill="#7C8699"/>
</svg>
