<svg width="15" height="22" viewBox="0 0 15 22" fill="none" xmlns="http://www.w3.org/2000/svg">
<path d="M2.82031 6.5C2.82031 7.15625 2.30469 7.625 1.69531 7.625C1.03906 7.625 0.570312 7.15625 0.570312 6.5C0.570312 3.21875 3.24219 0.5 6.57031 0.5H8.02344C11.3516 0.5 14.0234 3.21875 14.0234 6.5V6.73438C14.0234 8.60938 13.0859 10.3906 11.5391 11.4219L9.10156 13.0625C8.67969 13.3438 8.44531 13.8125 8.44531 14.2812V14.375C8.44531 15.0312 7.92969 15.5 7.32031 15.5C6.66406 15.5 6.19531 15.0312 6.19531 14.375V14.2812C6.19531 13.0625 6.80469 11.8906 7.83594 11.1875L10.2734 9.54688C11.2578 8.9375 11.8203 7.85938 11.8203 6.73438V6.5C11.8203 4.4375 10.1328 2.75 8.07031 2.75H6.57031C4.46094 2.75 2.82031 4.4375 2.82031 6.5ZM7.32031 21.5C6.47656 21.5 5.82031 20.8438 5.82031 20C5.82031 19.2031 6.47656 18.5 7.32031 18.5C8.11719 18.5 8.82031 19.2031 8.82031 20C8.82031 20.8438 8.11719 21.5 7.32031 21.5Z" fill="#7C8699"/>
</svg>
