<svg width="82" height="82" viewBox="0 0 82 82" fill="none" xmlns="http://www.w3.org/2000/svg">
<g clip-path="url(#clip0_1_1454)">
<path d="M40.0154 0.726547C39.1331 1.81642 39.3407 10.1721 40.3268 10.9506C41.6761 12.0924 42.0913 10.6911 41.9356 5.44934C41.7799 0.363259 41.3128 -0.830415 40.0154 0.726547Z" fill="#4C87FF"/>
<path d="M8.20094 3.73668C8.09714 4.41136 7.68195 4.93035 7.26676 4.93035C6.85157 4.93035 6.48828 5.29364 6.48828 5.70883C6.48828 6.12402 6.79967 6.43541 7.16296 6.33161C7.52626 6.27971 8.04524 6.7987 8.30474 7.52529C8.56423 8.25187 8.92752 8.82275 9.08322 8.82275C9.23891 8.82275 9.60221 8.25187 9.8617 7.52529C10.1212 6.7987 10.6402 6.27971 10.9516 6.33161C11.263 6.43541 11.6782 6.17592 11.782 5.81263C11.9376 5.44933 11.5744 5.18984 11.0035 5.18984C10.3288 5.18984 9.8617 4.77465 9.7579 4.04807C9.55031 2.49111 8.40853 2.28351 8.20094 3.73668Z" fill="#00E8D9"/>
<path d="M20.1885 9.18604C20.1366 9.39364 20.0847 10.2759 20.0328 11.1582C19.9809 12.5595 19.7215 12.7152 18.1645 12.8709C15.0506 13.1823 14.843 15.5696 17.9569 15.5696C19.6696 15.5696 19.929 15.881 19.7734 17.6455C19.6696 18.8911 20.6037 19.8772 21.486 19.5658C22.005 19.3582 22.3164 18.6316 22.3164 17.4379C22.3164 15.7253 22.4202 15.6215 24.2885 15.4658C25.7936 15.362 26.2088 15.1025 26.2088 14.2721C26.2088 13.4417 25.7936 13.1822 24.2885 13.0785C22.4721 12.9228 22.3683 12.819 22.2126 11.0025C22.1088 9.65313 21.7974 9.03035 21.1746 8.92655C20.6556 8.82275 20.1885 8.92655 20.1885 9.18604Z" fill="#00E8D9"/>
<path d="M64.977 15.2063C61.7592 18.4759 60.9289 20.2405 62.6934 20.2405C63.8871 20.2405 70.063 14.0126 70.063 12.819C70.063 11.1063 68.1947 11.9886 64.977 15.2063Z" fill="#6D8AC4"/>
<path d="M10.8985 24.1329C10.639 24.8594 10.12 25.3784 9.75671 25.3265C9.39342 25.2227 9.08203 25.5341 9.08203 25.9493C9.08203 26.3645 9.39342 26.6759 9.75671 26.5721C10.12 26.5202 10.639 27.0392 10.8985 27.7658C11.158 28.4923 11.5213 29.0632 11.677 29.0632C11.8327 29.0632 12.196 28.4923 12.4554 27.7658C12.7149 27.0392 13.2339 26.5202 13.5972 26.5721C13.9605 26.6759 14.2719 26.3645 14.2719 25.9493C14.2719 25.5341 13.9086 25.1708 13.4934 25.1708C13.0782 25.1708 12.663 24.6518 12.5592 23.9772C12.3517 22.4721 11.5213 22.524 10.8985 24.1329Z" fill="#00CFC1"/>
<mask id="path-6-outside-1_1_1454" maskUnits="userSpaceOnUse" x="22" y="25.5" width="38" height="37" fill="black">
<rect fill="white" x="22" y="25.5" width="38" height="37"/>
<path d="M56.75 28.25H54.5C49.2969 28.25 44.7969 31.2031 42.5469 35.4219C42.0547 34.7891 41.5625 34.1562 41 33.5938C43.8125 29.0234 48.8047 26 54.5 26H56.75C57.9453 26 59 27.0547 59 28.25C59 36.0547 53.3047 42.5234 45.8516 43.7891C45.7812 43.0859 45.6406 42.3125 45.4297 41.6094C51.8281 40.5547 56.75 35 56.75 28.25ZM27.5 32.75H25.25C25.25 40.2031 31.2969 46.25 38.75 46.25H41C41 38.7969 34.9531 32.75 27.5 32.75ZM25.25 30.5H27.5C36.1484 30.5 43.25 37.6016 43.25 46.25V47.375V48.5V60.875C43.25 61.5078 42.6875 62 42.125 62C41.4922 62 41 61.5078 41 60.875V48.5H38.75C30.0312 48.5 23 41.4688 23 32.75C23 31.5547 23.9844 30.5 25.25 30.5Z"/>
</mask>
<path d="M56.75 28.25H54.5C49.2969 28.25 44.7969 31.2031 42.5469 35.4219C42.0547 34.7891 41.5625 34.1562 41 33.5938C43.8125 29.0234 48.8047 26 54.5 26H56.75C57.9453 26 59 27.0547 59 28.25C59 36.0547 53.3047 42.5234 45.8516 43.7891C45.7812 43.0859 45.6406 42.3125 45.4297 41.6094C51.8281 40.5547 56.75 35 56.75 28.25ZM27.5 32.75H25.25C25.25 40.2031 31.2969 46.25 38.75 46.25H41C41 38.7969 34.9531 32.75 27.5 32.75ZM25.25 30.5H27.5C36.1484 30.5 43.25 37.6016 43.25 46.25V47.375V48.5V60.875C43.25 61.5078 42.6875 62 42.125 62C41.4922 62 41 61.5078 41 60.875V48.5H38.75C30.0312 48.5 23 41.4688 23 32.75C23 31.5547 23.9844 30.5 25.25 30.5Z" fill="#00E8D9"/>
<path d="M56.75 28.25H57.05V27.95H56.75V28.25ZM42.5469 35.4219L42.3101 35.6061L42.594 35.9711L42.8116 35.5631L42.5469 35.4219ZM41 33.5938L40.7445 33.4365L40.6203 33.6383L40.7879 33.8059L41 33.5938ZM45.8516 43.7891L45.5531 43.8189L45.585 44.1386L45.9018 44.0848L45.8516 43.7891ZM45.4297 41.6094L45.3809 41.3134L45.0443 41.3688L45.1423 41.6956L45.4297 41.6094ZM25.25 32.75V32.45H24.95V32.75H25.25ZM41 46.25V46.55H41.3V46.25H41ZM41 48.5H41.3V48.2H41V48.5ZM56.75 27.95H54.5V28.55H56.75V27.95ZM54.5 27.95C49.1809 27.95 44.5818 30.9689 42.2822 35.2807L42.8116 35.5631C45.0119 31.4374 49.4129 28.55 54.5 28.55V27.95ZM42.7837 35.2377C42.2935 34.6074 41.7901 33.9596 41.2121 33.3816L40.7879 33.8059C41.3349 34.3529 41.8159 34.9707 42.3101 35.6061L42.7837 35.2377ZM41.2555 33.751C44.0162 29.2648 48.9141 26.3 54.5 26.3V25.7C48.6952 25.7 43.6088 28.7821 40.7445 33.4365L41.2555 33.751ZM54.5 26.3H56.75V25.7H54.5V26.3ZM56.75 26.3C57.7796 26.3 58.7 27.2204 58.7 28.25H59.3C59.3 26.889 58.111 25.7 56.75 25.7V26.3ZM58.7 28.25C58.7 35.9048 53.1137 42.2516 45.8013 43.4933L45.9018 44.0848C53.4956 42.7953 59.3 36.2045 59.3 28.25H58.7ZM46.1501 43.7592C46.0782 43.04 45.9343 42.2474 45.717 41.5232L45.1423 41.6956C45.3469 42.3776 45.4843 43.1318 45.5531 43.8189L46.1501 43.7592ZM45.4785 41.9054C52.0188 40.8273 57.05 35.1499 57.05 28.25H56.45C56.45 34.8501 51.6375 40.2821 45.3809 41.3134L45.4785 41.9054ZM27.5 32.45H25.25V33.05H27.5V32.45ZM24.95 32.75C24.95 40.3688 31.1312 46.55 38.75 46.55V45.95C31.4626 45.95 25.55 40.0374 25.55 32.75H24.95ZM38.75 46.55H41V45.95H38.75V46.55ZM41.3 46.25C41.3 38.6312 35.1188 32.45 27.5 32.45V33.05C34.7874 33.05 40.7 38.9626 40.7 46.25H41.3ZM25.25 30.8H27.5V30.2H25.25V30.8ZM27.5 30.8C35.9828 30.8 42.95 37.7672 42.95 46.25H43.55C43.55 37.4359 36.3141 30.2 27.5 30.2V30.8ZM42.95 46.25V47.375H43.55V46.25H42.95ZM42.95 47.375V48.5H43.55V47.375H42.95ZM42.95 48.5V60.875H43.55V48.5H42.95ZM42.95 60.875C42.95 61.3302 42.534 61.7 42.125 61.7V62.3C42.841 62.3 43.55 61.6854 43.55 60.875H42.95ZM42.125 61.7C41.6579 61.7 41.3 61.3421 41.3 60.875H40.7C40.7 61.6735 41.3265 62.3 42.125 62.3V61.7ZM41.3 60.875V48.5H40.7V60.875H41.3ZM41 48.2H38.75V48.8H41V48.2ZM38.75 48.2C30.1969 48.2 23.3 41.3031 23.3 32.75H22.7C22.7 41.6344 29.8656 48.8 38.75 48.8V48.2ZM23.3 32.75C23.3 31.7143 24.1561 30.8 25.25 30.8V30.2C23.8126 30.2 22.7 31.3951 22.7 32.75H23.3Z" fill="#00E8D9" mask="url(#path-6-outside-1_1_1454)"/>
<path d="M0.156356 40.7405C-0.41453 42.2456 0.779141 42.6089 5.76142 42.4532C10.2247 42.2975 10.6399 42.1937 10.6399 41.2595C10.6399 40.3253 10.2247 40.2215 5.55382 40.0658C1.29813 39.962 0.467749 40.0658 0.156356 40.7405Z" fill="#003399"/>
<path d="M70.7901 40.7406C70.2192 42.2456 71.1534 42.557 76.2914 42.557C81.4813 42.557 82.2597 42.2975 81.6889 40.7924C81.2218 39.6507 71.2053 39.5469 70.7901 40.7406Z" fill="#003399"/>
<path d="M72.1407 53.1962C71.8812 53.9228 71.3622 54.4418 70.9989 54.3899C70.6356 54.2861 70.3242 54.5975 70.3242 55.0127C70.3242 55.4279 70.6356 55.7392 70.9989 55.6354C71.3622 55.5835 71.8812 56.1025 72.1407 56.8291C72.4002 57.5557 72.7635 58.1266 72.9192 58.1266C73.0749 58.1266 73.4381 57.5557 73.6976 56.8291C73.9571 56.1025 74.4761 55.5835 74.8394 55.6354C75.2027 55.7392 75.5141 55.4279 75.5141 55.0127C75.5141 54.5975 75.1508 54.2342 74.7356 54.2342C74.3204 54.2342 73.9052 53.7152 73.8014 53.0405C73.5938 51.5354 72.7635 51.5873 72.1407 53.1962Z" fill="#00E8D9"/>
<path d="M14.999 65.2367C12.3521 67.8317 11.3661 69.1292 11.5737 69.7519C12.1445 71.2051 13.1825 70.6861 16.8673 66.9494C20.2407 63.576 20.3964 63.2646 19.618 62.4342C18.7876 61.6557 18.4762 61.8114 14.999 65.2367Z" fill="#6D8AC4"/>
<path d="M61.9165 62.5899C61.7089 63.1608 62.7469 64.562 65.1861 67.0013C67.1583 68.9734 68.9228 70.5823 69.1823 70.5823C69.3899 70.5823 69.7013 70.219 69.9089 69.7519C70.1165 69.181 69.0785 67.7797 66.6393 65.3405C64.6671 63.3684 62.9026 61.7595 62.6431 61.7595C62.4355 61.7595 62.1241 62.1228 61.9165 62.5899Z" fill="#6D8AC4"/>
<path d="M53.3009 66.7417C53.0933 66.9493 52.9376 67.7797 52.9376 68.6101C52.9376 69.8556 52.73 70.0632 51.4325 70.0632C50.5503 70.0632 49.7199 70.3227 49.5642 70.5822C49.0452 71.4126 50.2908 72.6582 51.5363 72.5025C52.3667 72.4506 52.73 72.762 52.9376 73.9556C53.3009 76.0835 55.2211 76.1873 55.4287 74.0594C55.5844 72.9696 55.8958 72.6582 56.7781 72.6582C58.1794 72.6582 59.4249 71.4126 58.906 70.5822C58.7503 70.3227 57.9199 70.0632 57.0895 70.0632C55.792 70.0632 55.5844 69.8556 55.4287 68.4025C55.273 66.7936 54.1313 65.9113 53.3009 66.7417Z" fill="#00E8D9"/>
<path d="M39.9102 71.4646C39.5988 73.4367 39.495 78.0038 39.7545 79.7684C39.9621 81.5329 40.2216 82 41.052 82C42.038 82 42.0899 81.6886 41.9342 76.7063C41.7785 72.0873 41.6748 71.3608 40.8963 71.2051C40.3773 71.1013 39.9102 71.2051 39.9102 71.4646Z" fill="#003399"/>
</g>
<defs>
<clipPath id="clip0_1_1454">
<rect width="82" height="82" fill="white"/>
</clipPath>
</defs>
</svg>
