<svg width="24" height="24" viewBox="0 0 24 24" fill="none" xmlns="http://www.w3.org/2000/svg">
<path d="M11.8203 0C12.6172 0 13.3672 0.09375 14.1172 0.234375C14.4922 0.328125 15.1484 0.515625 15.5234 1.17188C15.6172 1.35938 15.6641 1.54688 15.7109 1.73438L16.1797 3.5625C16.2266 3.79688 16.6953 4.07812 16.9766 3.98438L18.7578 3.46875C18.9453 3.42188 19.1328 3.375 19.3203 3.375C20.0703 3.375 20.5859 3.84375 20.8203 4.125C21.8516 5.29688 22.6484 6.65625 23.1641 8.15625C23.3047 8.53125 23.4453 9.1875 23.0234 9.79688C22.9297 9.98438 22.7891 10.125 22.6484 10.2656L21.3359 11.5781C21.1016 11.7656 21.1016 12.2812 21.3359 12.4688L22.6484 13.7812C22.7891 13.9219 22.9297 14.0625 23.0234 14.25C23.3984 14.8594 23.2578 15.5156 23.1641 15.8906C22.6484 17.3906 21.8516 18.75 20.8203 19.9219C20.5859 20.2031 20.0703 20.6719 19.3203 20.6719C19.1328 20.6719 18.9453 20.625 18.7578 20.5781L16.9766 20.0156C16.6953 19.9688 16.2266 20.2031 16.1797 20.4844L15.7109 22.3125C15.6641 22.5 15.6172 22.6875 15.5234 22.875C15.1484 23.5312 14.4922 23.7188 14.1172 23.8125C13.3672 23.9531 12.6172 24 11.8203 24C11.0234 24 10.2266 23.9531 9.47656 23.8125C9.10156 23.7188 8.44531 23.5312 8.07031 22.875C7.97656 22.6875 7.92969 22.5 7.88281 22.3125L7.41406 20.4844C7.36719 20.2031 6.89844 19.9688 6.66406 20.0156L4.88281 20.5781C4.69531 20.625 4.46094 20.625 4.27344 20.6719C3.52344 20.6719 3.00781 20.2031 2.77344 19.9219C1.74219 18.75 0.945312 17.3906 0.429688 15.8906C0.335938 15.5156 0.195312 14.8594 0.570312 14.2031C0.664062 14.0625 0.804688 13.875 0.945312 13.7344L2.30469 12.4688C2.49219 12.2812 2.49219 11.7656 2.30469 11.5781L0.945312 10.2656C0.804688 10.125 0.664062 9.98438 0.570312 9.79688C0.195312 9.1875 0.335938 8.53125 0.429688 8.15625C0.945312 6.65625 1.74219 5.29688 2.77344 4.125C3.00781 3.84375 3.52344 3.375 4.27344 3.375C4.46094 3.375 4.69531 3.42188 4.88281 3.46875L6.66406 3.98438C6.89844 4.07812 7.36719 3.79688 7.41406 3.5625L7.88281 1.73438C7.92969 1.54688 7.97656 1.35938 8.07031 1.17188C8.44531 0.515625 9.10156 0.328125 9.47656 0.234375C10.2266 0.09375 11.0234 0 11.8203 0ZM10.0391 2.4375L9.61719 4.07812C9.24219 5.57812 7.50781 6.60938 6.00781 6.1875L4.36719 5.67188C3.61719 6.60938 3.00781 7.64062 2.58594 8.76562L3.85156 9.9375C4.97656 11.0156 4.97656 13.0312 3.85156 14.1094L2.58594 15.2812C3.00781 16.4062 3.61719 17.4375 4.36719 18.375L6.00781 17.8594C7.50781 17.4375 9.24219 18.4688 9.61719 19.9688L10.0391 21.6094C11.1641 21.8438 12.4297 21.8438 13.6016 21.6094L13.9766 19.9688C14.3516 18.4688 16.0859 17.4375 17.5859 17.8594L19.2266 18.375C19.9766 17.4375 20.5859 16.4062 21.0078 15.2812L19.7891 14.1094C18.6641 13.0312 18.6641 11.0156 19.7891 9.9375L21.0078 8.76562C20.5859 7.64062 19.9766 6.60938 19.2266 5.67188L17.5859 6.1875C16.1328 6.60938 14.3516 5.57812 13.9766 4.07812L13.6016 2.4375C12.4297 2.20312 11.1641 2.20312 10.0391 2.4375ZM9.57031 12C9.57031 12.8438 9.99219 13.5469 10.6953 13.9688C11.3516 14.3906 12.2422 14.3906 12.9453 13.9688C13.6016 13.5469 14.0703 12.8438 14.0703 12C14.0703 11.2031 13.6016 10.5 12.9453 10.0781C12.2422 9.65625 11.3516 9.65625 10.6953 10.0781C9.99219 10.5 9.57031 11.2031 9.57031 12ZM11.8203 16.5C10.1797 16.5 8.72656 15.6562 7.88281 14.25C7.08594 12.8906 7.08594 11.1562 7.88281 9.75C8.72656 8.39062 10.1797 7.5 11.8203 7.5C13.4141 7.5 14.8672 8.39062 15.7109 9.75C16.5078 11.1562 16.5078 12.8906 15.7109 14.25C14.8672 15.6562 13.4141 16.5 11.8203 16.5Z" fill="#7C8699"/>
</svg>
