<svg width="25" height="19" viewBox="0 0 25 19" fill="none" xmlns="http://www.w3.org/2000/svg">
<path d="M6.875 4.5V6.0625C6.875 6.60938 6.44531 7 5.9375 7C5.39062 7 5 6.60938 5 6.0625V4.5C5 2.42969 6.67969 0.75 8.75 0.75C10.8203 0.75 12.5 2.42969 12.5 4.5V4.8125C12.5 5.71094 12.4219 6.57031 12.3047 7.42969L17.5 5.82812C17.8516 5.71094 18.2422 5.78906 18.4766 6.0625C18.7109 6.29688 18.7891 6.6875 18.6719 7.03906L17.5781 10.125H21.5625C22.0703 10.125 22.5 10.5547 22.5 11.0625C22.5 11.6094 22.0703 12 21.5625 12H16.25C15.9375 12 15.625 11.8828 15.4688 11.6094C15.2734 11.375 15.2344 11.0625 15.3516 10.75L16.2891 8.17188L11.9531 9.5L11.9141 9.69531C11.4453 11.8828 10.5859 13.9922 9.41406 15.9062L8.82812 16.9219C8.32031 17.7812 7.42188 18.25 6.48438 18.25C4.96094 18.25 3.75 17.0391 3.75 15.5156V12.625C3.75 11.1016 4.72656 9.77344 6.17188 9.34375L10.3516 8.01562C10.5078 6.96094 10.625 5.90625 10.625 4.8125V4.5C10.625 3.48438 9.76562 2.625 8.75 2.625C7.69531 2.625 6.875 3.48438 6.875 4.5ZM6.71875 11.1016C6.05469 11.3359 5.625 11.9219 5.625 12.625V15.5547C5.625 16.0234 5.97656 16.4141 6.48438 16.4141C6.75781 16.4141 7.03125 16.2188 7.1875 15.9844L7.8125 14.9297C8.71094 13.4453 9.41406 11.8438 9.88281 10.125L6.71875 11.1016ZM2.5 13.875V15.5156C2.5 15.5938 2.5 15.6719 2.5 15.75H0.9375C0.390625 15.75 0 15.3594 0 14.8125C0 14.3047 0.390625 13.875 0.9375 13.875H2.5ZM10.9375 15.75C11.2891 15.1641 11.6016 14.5391 11.875 13.875H24.0625C24.5703 13.875 25 14.3047 25 14.8125C25 15.3594 24.5703 15.75 24.0625 15.75H10.9375Z" fill="#7C8699"/>
</svg>
