<svg width="29" height="24" viewBox="0 0 29 24" fill="none" xmlns="http://www.w3.org/2000/svg">
<path d="M24.8125 6.09375L22.375 2.25H6.67188L4.23438 6.09375C4 6.51562 3.95312 7.07812 4.14062 7.5C4.32812 7.92188 4.65625 8.20312 5.07812 8.25C5.17188 8.25 5.26562 8.29688 5.35938 8.29688C5.92188 8.29688 6.39062 8.01562 6.71875 7.64062C7.1875 7.17188 7.75 6.9375 8.40625 6.9375C9.0625 6.9375 9.67188 7.17188 10.0938 7.64062C10.4219 8.01562 10.8906 8.29688 11.4531 8.29688C12.0156 8.29688 12.5312 8.01562 12.8594 7.64062C13.2812 7.17188 13.8906 6.9375 14.5 6.9375C15.1562 6.9375 15.7656 7.17188 16.1875 7.64062C16.5156 8.01562 17.0312 8.29688 17.5938 8.29688C18.1562 8.29688 18.625 8.01562 18.9531 7.64062C19.375 7.17188 19.9844 6.9375 20.6406 6.9375C21.25 6.9375 21.8594 7.17188 22.2812 7.64062C22.6562 8.01562 23.125 8.25 23.6875 8.25C23.7812 8.25 23.875 8.25 23.9688 8.25C24.3906 8.20312 24.7188 7.92188 24.9062 7.5C25.0938 7.03125 25.0469 6.51562 24.8125 6.09375ZM23.6875 10.5C22.75 10.5 21.9062 10.2188 21.25 9.70312C21.0156 9.5625 20.8281 9.375 20.6406 9.14062C20.4531 9.375 20.2656 9.5625 20.0312 9.70312C19.3281 10.2188 18.4844 10.5 17.5938 10.5C16.6562 10.5 15.8125 10.2188 15.1562 9.70312C14.9219 9.5625 14.6875 9.375 14.5 9.14062C14.3125 9.375 14.125 9.5625 13.8906 9.70312C13.2344 10.2188 12.3906 10.5 11.4531 10.5C10.5625 10.5 9.71875 10.2188 9.01562 9.70312C8.78125 9.5625 8.59375 9.375 8.40625 9.1875C8.21875 9.375 8.03125 9.5625 7.79688 9.70312C7.09375 10.2188 6.25 10.5 5.35938 10.5C5.17188 10.5 4.98438 10.5 4.79688 10.5C2.17188 10.125 0.953125 7.07812 2.35938 4.875L5.03125 0.65625C5.26562 0.234375 5.6875 0 6.15625 0H22.8906C23.3594 0 23.7812 0.234375 24.0156 0.65625L26.6875 4.875C28.0938 7.07812 26.875 10.125 24.25 10.5C24.0625 10.5 23.875 10.5 23.6875 10.5ZM6.29688 15.75H22.7969V11.9531C23.0781 12 23.3594 12 23.6875 12C23.9219 12 24.2031 12 24.4375 11.9531C24.6719 11.9531 24.8594 11.9062 25.0469 11.8594V15.75V18V21C25.0469 22.6875 23.6875 24 22.0469 24H7.04688C5.35938 24 4.04688 22.6875 4.04688 21V18V15.75V11.8594C4.1875 11.9062 4.375 11.9531 4.60938 11.9531C4.84375 12 5.07812 12 5.35938 12C5.6875 12 5.96875 12 6.29688 11.9531V15.75ZM22.7969 18H6.29688V21C6.29688 21.4219 6.625 21.75 7.04688 21.75H22.0469C22.4219 21.75 22.7969 21.4219 22.7969 21V18Z" fill="#7C8699"/>
</svg>
