<svg width="24" height="19" viewBox="0 0 24 19" fill="none" xmlns="http://www.w3.org/2000/svg">
<path d="M7 2.625V8.875H9.5V8.25C9.5 7.58594 10.0469 7 10.75 7H13.25C13.9141 7 14.5 7.58594 14.5 8.25V8.875H17V2.625H7ZM2.625 5.75V8.875H5.125V2.70312C3.67969 2.97656 2.625 4.26562 2.625 5.75ZM2.625 16.375H5.125V10.75H2.625V16.375ZM17 10.75H14.5V12C14.5 12.7031 13.9141 13.25 13.25 13.25H10.75C10.0469 13.25 9.5 12.7031 9.5 12V10.75H7V16.375H17V10.75ZM21.375 16.375V10.75H18.875V16.375H21.375ZM21.375 5.75C21.375 4.26562 20.2812 2.97656 18.875 2.70312V8.875H21.375V5.75ZM5.75 0.75H18.25C20.9844 0.75 23.25 3.01562 23.25 5.75V16.375C23.25 17.4297 22.3906 18.25 21.375 18.25H2.625C1.57031 18.25 0.75 17.4297 0.75 16.375V5.75C0.75 3.01562 2.97656 0.75 5.75 0.75ZM12.625 9.5C12.625 9.1875 12.3125 8.875 12 8.875C11.6484 8.875 11.375 9.1875 11.375 9.5V10.75C11.375 11.1016 11.6484 11.375 12 11.375C12.3125 11.375 12.625 11.1016 12.625 10.75V9.5Z" fill="#003399"/>
</svg>
