<svg width="22" height="19" viewBox="0 0 22 19" fill="none" xmlns="http://www.w3.org/2000/svg">
<path d="M7.5625 2.3125L11 5.94531L14.3984 2.3125H7.5625ZM15.9609 3.40625L13.1484 6.375H18.1875L15.9609 3.40625ZM17.9141 8.25H11H4.04688L11 15.9453L17.9141 8.25ZM3.77344 6.375H8.8125L6 3.40625L3.77344 6.375ZM20.7266 7.97656L11.6641 17.9766C11.5078 18.1719 11.2344 18.25 11 18.25C10.7266 18.25 10.4531 18.1719 10.2969 17.9766L1.23438 7.97656C0.921875 7.625 0.882812 7.11719 1.15625 6.76562L5.53125 0.828125C5.72656 0.59375 6 0.4375 6.3125 0.4375H15.6875C15.9609 0.4375 16.2344 0.59375 16.4297 0.828125L20.8047 6.76562C21.0781 7.11719 21.0391 7.625 20.7266 7.97656Z" fill="#003399"/>
</svg>
