<svg width="14" height="15" viewBox="0 0 14 15" fill="none" xmlns="http://www.w3.org/2000/svg">
<path d="M8.39453 6.41016C10.6641 6.16406 12.4414 4.35938 12.6602 2.0625H12.4688C10.3633 2.0625 8.58594 3.42969 7.90234 5.28906C7.68359 4.82422 7.38281 4.38672 7.05469 4.00391C8.09375 2.0625 10.1172 0.75 12.4688 0.75H13.125C13.5898 0.75 14 1.16016 14 1.625C14 4.74219 11.6758 7.3125 8.66797 7.69531C8.61328 7.25781 8.53125 6.84766 8.39453 6.41016ZM1.3125 3.8125V4.25C1.3125 6.92969 3.44531 9.0625 6.125 9.0625H6.34375V8.625C6.34375 5.97266 4.18359 3.8125 1.53125 3.8125H1.3125ZM7.65625 8.625V9.0625V10.375V14.0938C7.65625 14.4766 7.35547 14.75 7 14.75C6.61719 14.75 6.34375 14.4766 6.34375 14.0938V10.375H6.125C2.73438 10.375 0 7.64062 0 4.25V3.375C0 2.91016 0.382812 2.5 0.875 2.5H1.53125C4.89453 2.5 7.65625 5.26172 7.65625 8.625Z" fill="#003399"/>
</svg>
