<svg width="18" height="8" viewBox="0 0 18 8" fill="none" xmlns="http://www.w3.org/2000/svg">
<path d="M16.7812 4.53125H16.75L13.75 7.53125C13.4688 7.84375 13 7.84375 12.7188 7.53125C12.4062 7.25 12.4062 6.78125 12.7188 6.46875L14.4375 4.75H3.53125L5.25 6.46875C5.5625 6.78125 5.5625 7.25 5.25 7.53125C4.96875 7.84375 4.5 7.84375 4.21875 7.53125L1.21875 4.53125C0.90625 4.25 0.90625 3.78125 1.21875 3.46875L4.21875 0.5C4.5 0.1875 4.96875 0.1875 5.25 0.5C5.5625 0.78125 5.5625 1.25 5.25 1.53125L3.53125 3.25H14.4375L12.7188 1.53125C12.4062 1.25 12.4062 0.78125 12.7188 0.5C13 0.1875 13.4688 0.1875 13.7812 0.5L16.7812 3.5C17.0625 3.78125 17.0625 4.25 16.7812 4.53125Z" fill="#7C8699"/>
</svg>
