<svg width="20" height="21" viewBox="0 0 20 21" fill="none" xmlns="http://www.w3.org/2000/svg">
<path d="M9.0625 1.47656C9.02344 0.96875 9.45312 0.5 10 0.5C10.5078 0.5 10.9375 0.96875 10.8984 1.47656V1.82812C12.6172 1.98438 14.2188 2.6875 15.5078 3.70312L15.7031 3.46875C16.0547 3.07812 16.6797 3.07812 17.0312 3.42969C17.4219 3.82031 17.4219 4.44531 17.0312 4.79688L16.7578 4.99219C17.8125 6.28125 18.5156 7.88281 18.6719 9.60156H19.0234C19.5312 9.5625 19.9609 9.99219 19.9609 10.5C19.9609 11.0469 19.5312 11.4766 19.0234 11.4375H18.6719C18.5156 13.1562 17.8125 14.7578 16.7578 16.0469L17.0312 16.2422C17.4219 16.5938 17.4219 17.2188 17.0312 17.5703C16.6797 17.9609 16.0547 17.9609 15.7031 17.5703L15.5078 17.2969C14.2188 18.3516 12.6172 19.0547 10.8984 19.2109V19.5625C10.9375 20.0703 10.5078 20.5 9.96094 20.5C9.45312 20.5 9.02344 20.0703 9.0625 19.5625V19.2109C7.34375 19.0547 5.74219 18.3516 4.45312 17.2969L4.25781 17.5703C3.90625 17.9609 3.28125 17.9609 2.89062 17.5703C2.53906 17.2188 2.53906 16.5938 2.92969 16.2422L3.20312 16.0469C2.14844 14.7578 1.44531 13.1562 1.28906 11.4375H0.9375C0.429688 11.4766 0 11.0469 0 10.5C0 9.99219 0.429688 9.5625 0.9375 9.60156H1.28906C1.44531 7.88281 2.14844 6.28125 3.20312 4.99219L2.92969 4.79688C2.53906 4.40625 2.53906 3.82031 2.92969 3.42969C3.28125 3.07812 3.90625 3.07812 4.25781 3.46875L4.45312 3.70312C5.74219 2.6875 7.34375 1.98438 9.0625 1.82812V1.47656ZM5.74219 15.9297C6.71875 16.6719 7.89062 17.1797 9.14062 17.3359L9.29688 14.2109C8.78906 14.0938 8.28125 13.8984 7.85156 13.5859L5.74219 15.9297ZM6.875 12.6484C6.60156 12.2188 6.40625 11.7109 6.28906 11.2031L3.16406 11.3594C3.32031 12.6094 3.82812 13.7812 4.57031 14.7578L6.875 12.6484ZM3.16406 9.67969L6.28906 9.83594C6.40625 9.28906 6.60156 8.82031 6.875 8.39062L4.57031 6.28125C3.82812 7.21875 3.32031 8.42969 3.16406 9.67969ZM7.85156 7.41406C8.28125 7.14062 8.78906 6.90625 9.29688 6.82812L9.14062 3.70312C7.89062 3.85938 6.71875 4.36719 5.74219 5.10938L7.85156 7.41406ZM12.1094 7.41406L14.2188 5.10938C13.2422 4.36719 12.0703 3.85938 10.8203 3.70312L10.6641 6.82812C11.1719 6.90625 11.6797 7.14062 12.1094 7.41406ZM14.2188 15.9297L12.1094 13.5859C11.6797 13.8984 11.1719 14.0938 10.6641 14.2109L10.8203 17.3359C12.0703 17.1797 13.2422 16.6719 14.2188 15.9297ZM15.3906 14.7578C16.1328 13.7812 16.6406 12.6094 16.7969 11.3203L13.6719 11.2031C13.5547 11.7109 13.3594 12.2188 13.0859 12.6484L15.3906 14.7578ZM15.3906 6.28125L13.0859 8.39062C13.3594 8.82031 13.5547 9.28906 13.6719 9.83594L16.7969 9.67969C16.6406 8.39062 16.1328 7.21875 15.3906 6.28125ZM8.125 10.5C8.125 11.2031 8.47656 11.7891 9.0625 12.1406C9.60938 12.4922 10.3516 12.4922 10.9375 12.1406C11.4844 11.7891 11.875 11.2031 11.875 10.5C11.875 9.83594 11.4844 9.25 10.9375 8.89844C10.3516 8.54688 9.60938 8.54688 9.0625 8.89844C8.47656 9.25 8.125 9.83594 8.125 10.5Z" fill="#003399"/>
</svg>
