<svg width="16" height="17" viewBox="0 0 16 17" fill="none" xmlns="http://www.w3.org/2000/svg">
<path d="M14.5 8.5C14.5 6.1875 13.25 4.0625 11.25 2.875C9.21875 1.71875 6.75 1.71875 4.75 2.875C2.71875 4.0625 1.5 6.1875 1.5 8.5C1.5 10.8438 2.71875 12.9688 4.75 14.1562C6.75 15.3125 9.21875 15.3125 11.25 14.1562C13.25 12.9688 14.5 10.8438 14.5 8.5ZM0 8.5C0 5.65625 1.5 3.03125 4 1.59375C6.46875 0.15625 9.5 0.15625 12 1.59375C14.4688 3.03125 16 5.65625 16 8.5C16 11.375 14.4688 14 12 15.4375C9.5 16.875 6.46875 16.875 4 15.4375C1.5 14 0 11.375 0 8.5ZM5.28125 5.6875C5.53125 4.96875 6.1875 4.5 6.9375 4.5H8.75C9.84375 4.5 10.75 5.40625 10.75 6.5C10.75 7.1875 10.3438 7.84375 9.75 8.1875L8.75 8.78125C8.71875 9.1875 8.40625 9.5 8 9.5C7.5625 9.5 7.25 9.1875 7.25 8.75V8.34375C7.25 8.0625 7.375 7.8125 7.625 7.6875L9 6.90625C9.15625 6.8125 9.25 6.65625 9.25 6.5C9.25 6.21875 9.03125 6.03125 8.75 6.03125H6.9375C6.84375 6.03125 6.75 6.09375 6.71875 6.1875L6.6875 6.21875C6.5625 6.625 6.125 6.8125 5.75 6.6875C5.34375 6.53125 5.15625 6.09375 5.28125 5.71875V5.6875ZM7 11.5C7 10.9688 7.4375 10.5 8 10.5C8.53125 10.5 9 10.9688 9 11.5C9 12.0625 8.53125 12.5 8 12.5C7.4375 12.5 7 12.0625 7 11.5Z" fill="#7C8699"/>
</svg>
