<svg width="12" height="15" viewBox="0 0 12 15" fill="none" xmlns="http://www.w3.org/2000/svg">
<path d="M9.54297 1.98047L7.4375 6.90234H10.5C10.8555 6.90234 11.1836 7.12109 11.3203 7.44922C11.4297 7.80469 11.3477 8.1875 11.0742 8.43359L4.07422 14.5586C3.74609 14.8047 3.30859 14.832 2.98047 14.5859C2.65234 14.3672 2.51562 13.9297 2.67969 13.5469L4.78516 8.625H1.75C1.36719 8.625 1.03906 8.40625 0.929688 8.07812C0.792969 7.72266 0.875 7.33984 1.14844 7.09375L8.14844 0.96875C8.47656 0.722656 8.91406 0.695312 9.24219 0.941406C9.57031 1.16016 9.70703 1.59766 9.54297 1.98047Z" fill="#00CFC1"/>
</svg>
