<svg width="25" height="26" viewBox="0 0 25 26" fill="none" xmlns="http://www.w3.org/2000/svg">
<path d="M18.3984 13.9375L23.6484 16.1875C24.4922 16.5156 24.9609 17.4062 24.7734 18.2969L23.6484 23.5469C23.4609 24.3906 22.6641 25.0469 21.8203 25.0469C21.4922 25.0469 21.2109 25 20.9297 25C20.4609 25 19.9922 24.9531 19.5703 24.9062C9.02344 23.7812 0.820312 14.875 0.820312 4C0.820312 3.15625 1.42969 2.35938 2.27344 2.17188L7.52344 1.04688C8.41406 0.859375 9.30469 1.32812 9.63281 2.17188L11.8828 7.42188C12.2109 8.17188 12.0234 9.0625 11.3672 9.57812L9.44531 11.1719C10.7109 13.3281 12.4922 15.1094 14.6484 16.375L16.2422 14.4531C16.7578 13.7969 17.6484 13.6094 18.3984 13.9375ZM21.4922 22.75L22.4766 18.1094L17.7891 16.0938L16.4297 17.7812C15.7266 18.625 14.5078 18.8594 13.5234 18.2969C11.0391 16.8438 8.97656 14.7812 7.52344 12.2969C6.96094 11.3125 7.19531 10.0938 8.03906 9.39062L9.72656 8.03125L7.71094 3.34375L3.07031 4.32812C3.21094 14.4531 11.3672 22.6094 21.4922 22.75Z" fill="#7C8699"/>
</svg>
