<svg width="20" height="21" viewBox="0 0 20 21" fill="none" xmlns="http://www.w3.org/2000/svg">
<path d="M0 16.125V3C0 1.63281 1.09375 0.5 2.5 0.5H6.25C7.61719 0.5 8.75 1.63281 8.75 3V5.46094L10.7031 3.46875C11.6797 2.49219 13.2812 2.49219 14.2578 3.46875L17.0312 6.24219C18.0078 7.21875 18.0078 8.82031 17.0312 9.79688L15.0391 11.75H17.5C18.8672 11.75 20 12.8828 20 14.25V18C20 19.4062 18.8672 20.5 17.5 20.5H4.375C1.95312 20.5 0 18.5469 0 16.125ZM17.5 18.625C17.8125 18.625 18.125 18.3516 18.125 18V14.25C18.125 13.9375 17.8125 13.625 17.5 13.625H13.1641L8.16406 18.625H17.5ZM15.7031 8.46875C15.9375 8.19531 15.9375 7.80469 15.7031 7.57031L12.9297 4.79688C12.6953 4.52344 12.2656 4.52344 12.0312 4.79688L8.75 8.07812V15.4609L15.7031 8.46875ZM4.375 18.625C5.74219 18.625 6.875 17.5312 6.875 16.125V12.375H1.875V16.125C1.875 17.5312 2.96875 18.625 4.375 18.625ZM1.875 10.5H6.875V7.375H1.875V10.5ZM1.875 5.5H6.875V3C6.875 2.6875 6.5625 2.375 6.25 2.375H2.5C2.14844 2.375 1.875 2.6875 1.875 3V5.5ZM4.375 17.0625C3.82812 17.0625 3.4375 16.6719 3.4375 16.125C3.4375 15.6172 3.82812 15.1875 4.375 15.1875C4.88281 15.1875 5.3125 15.6172 5.3125 16.125C5.3125 16.6719 4.88281 17.0625 4.375 17.0625Z" fill="#003399"/>
</svg>
