<svg width="18" height="19" viewBox="0 0 18 19" fill="none" xmlns="http://www.w3.org/2000/svg">
<path d="M17.4023 9.1875H9.5625V1.34766C9.5625 1.03125 9.80859 0.75 10.125 0.75C14.4492 0.75 18 4.30078 18 8.625C18 8.94141 17.7188 9.1875 17.4023 9.1875ZM6.1875 10.875V3.94922C3.55078 4.89844 1.6875 7.39453 1.6875 10.3125C1.6875 14.0391 4.71094 17.0625 8.4375 17.0625C11.3555 17.0625 13.8516 15.1992 14.8008 12.5625H7.875C6.92578 12.5625 6.1875 11.8242 6.1875 10.875ZM7.875 3.10547V9.1875V10.875H9.5625H15.6445C16.2773 10.875 16.8047 11.4375 16.6641 12.0703C15.8555 15.9023 12.4805 18.75 8.4375 18.75C3.76172 18.75 0 14.9883 0 10.3125C0 6.26953 2.84766 2.89453 6.67969 2.08594C7.3125 1.94531 7.875 2.47266 7.875 3.10547Z" fill="#7C8699"/>
</svg>
