<svg width="25" height="26" viewBox="0 0 25 26" fill="none" xmlns="http://www.w3.org/2000/svg">
<path d="M22.5703 13C22.5703 9.53125 20.6953 6.34375 17.6953 4.5625C14.6484 2.82812 10.9453 2.82812 7.94531 4.5625C4.89844 6.34375 3.07031 9.53125 3.07031 13C3.07031 16.5156 4.89844 19.7031 7.94531 21.4844C10.9453 23.2188 14.6484 23.2188 17.6953 21.4844C20.6953 19.7031 22.5703 16.5156 22.5703 13ZM0.820312 13C0.820312 8.73438 3.07031 4.79688 6.82031 2.64062C10.5234 0.484375 15.0703 0.484375 18.8203 2.64062C22.5234 4.79688 24.8203 8.73438 24.8203 13C24.8203 17.3125 22.5234 21.25 18.8203 23.4062C15.0703 25.5625 10.5234 25.5625 6.82031 23.4062C3.07031 21.25 0.820312 17.3125 0.820312 13ZM15.1641 16.2812L8.41406 18.8594C7.52344 19.2344 6.58594 18.2969 6.96094 17.4062L9.53906 10.6562C9.72656 10.2344 10.0078 9.95312 10.4297 9.76562L17.1797 7.1875C18.1172 6.8125 19.0078 7.70312 18.6328 8.64062L16.0547 15.3906C15.8672 15.8125 15.5859 16.0938 15.1641 16.2812ZM14.3203 13C14.3203 12.2031 13.6172 11.5 12.8203 11.5C11.9766 11.5 11.3203 12.2031 11.3203 13C11.3203 13.8438 11.9766 14.5 12.8203 14.5C13.6172 14.5 14.3203 13.8438 14.3203 13Z" fill="#7C8699"/>
</svg>
