<svg width="20" height="19" viewBox="0 0 20 19" fill="none" xmlns="http://www.w3.org/2000/svg">
<path d="M6.90625 3.28125L10 6.55078L13.0586 3.28125H6.90625ZM14.4648 4.26562L11.9336 6.9375H16.4688L14.4648 4.26562ZM16.2227 8.625H10H3.74219L10 15.5508L16.2227 8.625ZM3.49609 6.9375H8.03125L5.5 4.26562L3.49609 6.9375ZM18.7539 8.37891L10.5977 17.3789C10.457 17.5547 10.2109 17.625 10 17.625C9.75391 17.625 9.50781 17.5547 9.36719 17.3789L1.21094 8.37891C0.929688 8.0625 0.894531 7.60547 1.14062 7.28906L5.07812 1.94531C5.25391 1.73438 5.5 1.59375 5.78125 1.59375H14.2188C14.4648 1.59375 14.7109 1.73438 14.8867 1.94531L18.8242 7.28906C19.0703 7.60547 19.0352 8.0625 18.7539 8.37891Z" fill="#996600"/>
</svg>
