<svg width="25" height="24" viewBox="0 0 25 24" fill="none" xmlns="http://www.w3.org/2000/svg">
<path d="M0.820312 19.5C0.820312 18.8906 1.28906 18.375 1.94531 18.375H4.71094C5.17969 16.875 6.63281 15.75 8.32031 15.75C9.96094 15.75 11.4141 16.875 11.8828 18.375H23.6953C24.3047 18.375 24.8203 18.8906 24.8203 19.5C24.8203 20.1562 24.3047 20.625 23.6953 20.625H11.8828C11.4141 22.1719 9.96094 23.25 8.32031 23.25C6.63281 23.25 5.17969 22.1719 4.71094 20.625H1.94531C1.28906 20.625 0.820312 20.1562 0.820312 19.5ZM6.82031 19.5C6.82031 20.3438 7.47656 21 8.32031 21C9.11719 21 9.82031 20.3438 9.82031 19.5C9.82031 18.7031 9.11719 18 8.32031 18C7.47656 18 6.82031 18.7031 6.82031 19.5ZM15.8203 12C15.8203 12.8438 16.4766 13.5 17.3203 13.5C18.1172 13.5 18.8203 12.8438 18.8203 12C18.8203 11.2031 18.1172 10.5 17.3203 10.5C16.4766 10.5 15.8203 11.2031 15.8203 12ZM17.3203 8.25C18.9609 8.25 20.4141 9.375 20.8828 10.875H23.6953C24.3047 10.875 24.8203 11.3906 24.8203 12C24.8203 12.6562 24.3047 13.125 23.6953 13.125H20.8828C20.4141 14.6719 18.9609 15.75 17.3203 15.75C15.6328 15.75 14.1797 14.6719 13.7109 13.125H1.94531C1.28906 13.125 0.820312 12.6562 0.820312 12C0.820312 11.3906 1.28906 10.875 1.94531 10.875H13.7109C14.1797 9.375 15.6328 8.25 17.3203 8.25ZM9.82031 6C10.6172 6 11.3203 5.34375 11.3203 4.5C11.3203 3.70312 10.6172 3 9.82031 3C8.97656 3 8.32031 3.70312 8.32031 4.5C8.32031 5.34375 8.97656 6 9.82031 6ZM13.3828 3.375H23.6953C24.3047 3.375 24.8203 3.89062 24.8203 4.5C24.8203 5.15625 24.3047 5.625 23.6953 5.625H13.3828C12.9141 7.17188 11.4609 8.25 9.82031 8.25C8.13281 8.25 6.67969 7.17188 6.21094 5.625H1.94531C1.28906 5.625 0.820312 5.15625 0.820312 4.5C0.820312 3.89062 1.28906 3.375 1.94531 3.375H6.21094C6.67969 1.875 8.13281 0.75 9.82031 0.75C11.4609 0.75 12.9141 1.875 13.3828 3.375Z" fill="#7C8699"/>
</svg>
