<svg width="25" height="24" viewBox="0 0 25 24" fill="none" xmlns="http://www.w3.org/2000/svg">
<path d="M3.07031 5.01562C5.22656 2.01562 8.78906 0 12.8203 0C19.4297 0 24.8203 5.39062 24.8203 12C24.8203 18.6562 19.4297 24 12.8203 24C10.3359 24 8.08594 23.2969 6.16406 22.0312C5.64844 21.7031 5.50781 21 5.88281 20.4844C6.21094 19.9688 6.91406 19.8281 7.42969 20.1562C8.97656 21.1875 10.8047 21.75 12.8203 21.75C18.1641 21.75 22.5703 17.3906 22.5703 12C22.5703 6.65625 18.1641 2.25 12.8203 2.25C9.35156 2.25 6.30469 4.07812 4.57031 6.75H7.19531C7.80469 6.75 8.32031 7.26562 8.32031 7.875C8.32031 8.53125 7.80469 9 7.19531 9H1.94531C1.28906 9 0.820312 8.53125 0.820312 7.875V2.625C0.820312 2.01562 1.28906 1.5 1.94531 1.5C2.55469 1.5 3.07031 2.01562 3.07031 2.625V5.01562ZM12.8203 6H12.7734C13.4297 6 13.8984 6.51562 13.8984 7.125V11.5781L16.9453 14.625C17.4141 15.0469 17.4141 15.75 16.9453 16.1719C16.5234 16.6406 15.8203 16.6406 15.3984 16.1719L12.0234 12.7969C11.7891 12.6094 11.6953 12.3281 11.6953 12V7.125C11.6953 6.51562 12.1641 6 12.8203 6Z" fill="#7C8699"/>
</svg>
