<svg width="14" height="15" viewBox="0 0 14 15" fill="none" xmlns="http://www.w3.org/2000/svg">
<path d="M10.9375 5.5C10.9375 3.33984 9.16016 1.5625 7 1.5625C4.8125 1.5625 3.0625 3.33984 3.0625 5.5C3.0625 5.85547 3.17188 6.375 3.47266 7.08594C3.74609 7.74219 4.15625 8.50781 4.62109 9.27344C5.41406 10.5312 6.31641 11.7344 7 12.6094C7.65625 11.7344 8.55859 10.5312 9.35156 9.27344C9.81641 8.50781 10.2266 7.74219 10.5 7.08594C10.8008 6.375 10.9375 5.85547 10.9375 5.5ZM12.25 5.5C12.25 7.90625 9.05078 12.1445 7.62891 13.9219C7.30078 14.332 6.67188 14.332 6.34375 13.9219C4.94922 12.1445 1.75 7.90625 1.75 5.5C1.75 2.60156 4.10156 0.25 7 0.25C9.89844 0.25 12.25 2.60156 12.25 5.5ZM7.875 5.5C7.875 5.03516 7.46484 4.625 7 4.625C6.50781 4.625 6.125 5.03516 6.125 5.5C6.125 5.99219 6.50781 6.375 7 6.375C7.46484 6.375 7.875 5.99219 7.875 5.5ZM4.8125 5.5C4.8125 4.73438 5.22266 4.02344 5.90625 3.61328C6.5625 3.23047 7.41016 3.23047 8.09375 3.61328C8.75 4.02344 9.1875 4.73438 9.1875 5.5C9.1875 6.29297 8.75 7.00391 8.09375 7.41406C7.41016 7.79688 6.5625 7.79688 5.90625 7.41406C5.22266 7.00391 4.8125 6.29297 4.8125 5.5Z" fill="#7C8699"/>
</svg>
