<svg width="16" height="15" viewBox="0 0 16 15" fill="none" xmlns="http://www.w3.org/2000/svg">
<path d="M8 12.9375C8.19141 12.9375 8.73828 12.7461 9.28516 11.625C9.53125 11.1328 9.75 10.5586 9.88672 9.875H6.08594C6.25 10.5586 6.44141 11.1328 6.6875 11.625C7.26172 12.7461 7.78125 12.9375 8 12.9375ZM5.86719 8.5625H10.1055C10.1602 8.15234 10.1875 7.71484 10.1875 7.25C10.1875 6.8125 10.1602 6.375 10.1055 5.9375H5.86719C5.8125 6.375 5.8125 6.8125 5.8125 7.25C5.8125 7.71484 5.8125 8.15234 5.86719 8.5625ZM6.08594 4.625H9.88672C9.75 3.96875 9.53125 3.39453 9.28516 2.90234C8.73828 1.78125 8.19141 1.5625 8 1.5625C7.78125 1.5625 7.26172 1.78125 6.6875 2.90234C6.44141 3.39453 6.25 3.96875 6.08594 4.625ZM11.418 5.9375C11.4727 6.375 11.4727 6.8125 11.4727 7.25C11.4727 7.71484 11.4727 8.15234 11.418 8.5625H13.5234C13.6328 8.15234 13.6875 7.71484 13.6875 7.25C13.6875 6.8125 13.6328 6.375 13.5234 5.9375H11.418ZM13.0312 4.625C12.457 3.50391 11.5 2.60156 10.3516 2.08203C10.7344 2.79297 11.0352 3.66797 11.2266 4.625H13.0312ZM4.74609 4.625C4.9375 3.66797 5.23828 2.79297 5.62109 2.08203C4.47266 2.60156 3.51562 3.50391 2.94141 4.625H4.74609ZM2.44922 5.9375C2.36719 6.375 2.3125 6.8125 2.3125 7.25C2.3125 7.71484 2.33984 8.15234 2.44922 8.5625H4.55469C4.5 8.15234 4.5 7.71484 4.5 7.25C4.5 6.8125 4.5 6.375 4.55469 5.9375H2.44922ZM10.3516 12.4453C11.5 11.9258 12.457 11.0234 13.0312 9.875H11.2266C11.0352 10.8594 10.7344 11.7344 10.3516 12.4453ZM5.62109 12.4453C5.23828 11.7344 4.9375 10.8594 4.74609 9.875H2.94141C3.51562 11.0234 4.47266 11.9258 5.62109 12.4453ZM8 14.25C5.48438 14.25 3.1875 12.9375 1.92969 10.75C0.671875 8.58984 0.671875 5.9375 1.92969 3.75C3.1875 1.58984 5.48438 0.25 8 0.25C10.4883 0.25 12.7852 1.58984 14.043 3.75C15.3008 5.9375 15.3008 8.58984 14.043 10.75C12.7852 12.9375 10.4883 14.25 8 14.25Z" fill="#7C8699"/>
</svg>
