<svg width="20" height="21" viewBox="0 0 20 21" fill="none" xmlns="http://www.w3.org/2000/svg">
<path d="M11.9922 8.58594C15.2344 8.23438 17.7734 5.65625 18.0859 2.375H17.8125C14.8047 2.375 12.2656 4.32812 11.2891 6.98438C10.9766 6.32031 10.5469 5.69531 10.0781 5.14844C11.5625 2.375 14.4531 0.5 17.8125 0.5H18.75C19.4141 0.5 20 1.08594 20 1.75C20 6.20312 16.6797 9.875 12.3828 10.4219C12.3047 9.79688 12.1875 9.21094 11.9922 8.58594ZM1.875 4.875V5.5C1.875 9.32812 4.92188 12.375 8.75 12.375H9.0625V11.75C9.0625 7.96094 5.97656 4.875 2.1875 4.875H1.875ZM10.9375 11.75V12.375V14.25V19.5625C10.9375 20.1094 10.5078 20.5 10 20.5C9.45312 20.5 9.0625 20.1094 9.0625 19.5625V14.25H8.75C3.90625 14.25 0 10.3438 0 5.5V4.25C0 3.58594 0.546875 3 1.25 3H2.1875C6.99219 3 10.9375 6.94531 10.9375 11.75Z" fill="#003399"/>
</svg>
