<svg width="23" height="22" viewBox="0 0 23 22" fill="none" xmlns="http://www.w3.org/2000/svg">
<path d="M1.69531 9.5C1.03906 9.5 0.570312 9.03125 0.570312 8.375V1.625C0.570312 1.01562 1.03906 0.5 1.69531 0.5C2.30469 0.5 2.82031 1.01562 2.82031 1.625V5.42188L3.75781 4.29688C5.67969 2 8.53906 0.5 11.8203 0.5C17.5859 0.5 22.3203 5.23438 22.3203 11C22.3203 16.8125 17.5859 21.5 11.8203 21.5C9.42969 21.5 7.27344 20.75 5.49219 19.4375C5.02344 19.0625 4.88281 18.3594 5.25781 17.8438C5.63281 17.3281 6.33594 17.2344 6.85156 17.6094C8.21094 18.6406 9.94531 19.25 11.8203 19.25C16.3672 19.25 20.0703 15.5938 20.0703 11C20.0703 6.45312 16.3672 2.75 11.8203 2.75C9.24219 2.75 6.99219 3.92188 5.44531 5.75L4.17969 7.25H8.44531C9.05469 7.25 9.57031 7.76562 9.57031 8.375C9.57031 9.03125 9.05469 9.5 8.44531 9.5H1.69531Z" fill="#7C8699"/>
</svg>
