<svg width="18" height="19" viewBox="0 0 18 19" fill="none" xmlns="http://www.w3.org/2000/svg">
<path d="M8.12109 2.33203L9 3.77344L9.84375 2.33203C10.4062 1.34766 11.4258 0.75 12.5508 0.75H12.6562C14.3438 0.75 15.75 2.15625 15.75 3.84375C15.75 4.37109 15.6094 4.82812 15.3984 5.25H16.3125C17.2266 5.25 18 6.02344 18 6.9375V9.1875C18 9.92578 17.5078 10.5586 16.875 10.8047V10.875V16.5C16.875 17.7656 15.8555 18.75 14.625 18.75H3.375C2.10938 18.75 1.125 17.7656 1.125 16.5V10.875V10.8047C0.457031 10.5586 0 9.92578 0 9.1875V6.9375C0 6.02344 0.738281 5.25 1.6875 5.25H2.56641C2.35547 4.82812 2.25 4.37109 2.25 3.84375C2.25 2.15625 3.62109 0.75 5.34375 0.75H5.41406C6.53906 0.75 7.55859 1.34766 8.12109 2.33203ZM16.3125 6.9375H12.6562H10.125V9.1875H15.1875H16.3125V6.9375ZM7.875 6.9375H5.34375H1.6875V9.1875H2.8125H7.875V6.9375ZM7.875 10.875H2.8125V16.5C2.8125 16.8164 3.05859 17.0625 3.375 17.0625H7.875V10.875ZM10.125 17.0625H14.625C14.9062 17.0625 15.1875 16.8164 15.1875 16.5V10.875H10.125V17.0625ZM12.6562 5.25C13.4297 5.25 14.0625 4.65234 14.0625 3.84375C14.0625 3.07031 13.4297 2.4375 12.6562 2.4375H12.5508C12.0234 2.4375 11.5664 2.71875 11.2852 3.17578L10.0547 5.25H10.125H12.6562ZM7.875 5.25H7.91016L6.67969 3.17578C6.43359 2.71875 5.94141 2.4375 5.41406 2.4375H5.34375C4.53516 2.4375 3.9375 3.07031 3.9375 3.84375C3.9375 4.65234 4.53516 5.25 5.34375 5.25H7.875Z" fill="#7C8699"/>
</svg>
