<svg width="25" height="25" viewBox="0 0 25 25" fill="none" xmlns="http://www.w3.org/2000/svg">
<path d="M18.0703 9.75C18.0703 7.07812 16.6172 4.64062 14.3203 3.28125C11.9766 1.92188 9.11719 1.92188 6.82031 3.28125C4.47656 4.64062 3.07031 7.07812 3.07031 9.75C3.07031 12.4688 4.47656 14.9062 6.82031 16.2656C9.11719 17.625 11.9766 17.625 14.3203 16.2656C16.6172 14.9062 18.0703 12.4688 18.0703 9.75ZM16.6172 17.4375C14.9297 18.75 12.8203 19.5 10.5703 19.5C5.17969 19.5 0.820312 15.1406 0.820312 9.75C0.820312 4.40625 5.17969 0 10.5703 0C15.9141 0 20.3203 4.40625 20.3203 9.75C20.3203 12.0469 19.5234 14.1562 18.2109 15.8438L24.4922 22.0781C24.9141 22.5469 24.9141 23.25 24.4922 23.6719C24.0234 24.1406 23.3203 24.1406 22.8984 23.6719L16.6172 17.4375Z" fill="#7C8699"/>
</svg>
