<svg width="26" height="25" viewBox="0 0 26 25" fill="none" xmlns="http://www.w3.org/2000/svg">
<path d="M13.2734 0C13.7422 0 14.1172 0.28125 14.3047 0.65625L17.5391 7.26562L24.7109 8.34375C25.1328 8.39062 25.4609 8.67188 25.6016 9.09375C25.7422 9.51562 25.6484 9.9375 25.3203 10.2656L20.1172 15.4219L21.3359 22.6875C21.4297 23.1094 21.2422 23.5781 20.9141 23.8125C20.5391 24.0469 20.0703 24.0938 19.6953 23.9062L13.2734 20.4375L6.89844 23.9062C6.47656 24.0938 6.05469 24.0469 5.67969 23.8125C5.35156 23.5312 5.16406 23.1094 5.25781 22.6875L6.47656 15.4219L1.27344 10.2656C0.945312 9.9375 0.851562 9.51562 0.992188 9.09375C1.13281 8.71875 1.46094 8.39062 1.88281 8.34375L9.05469 7.26562L12.2891 0.65625C12.4766 0.28125 12.8516 0 13.2734 0ZM13.2734 3.70312L10.8359 8.8125C10.6484 9.14062 10.3672 9.375 9.99219 9.42188L4.46094 10.2188L8.44531 14.2031C8.72656 14.4844 8.86719 14.8594 8.77344 15.1875L7.83594 20.8125L12.7578 18.1875C13.0859 18 13.5078 18 13.8359 18.1875L18.7578 20.8125L17.8203 15.2344C17.7266 14.8594 17.8672 14.4844 18.1484 14.25L22.1328 10.2188L16.6016 9.42188C16.2266 9.375 15.9453 9.14062 15.7578 8.8125L13.2734 3.70312Z" fill="#7C8699"/>
</svg>
