<svg width="22" height="21" viewBox="0 0 22 21" fill="none" xmlns="http://www.w3.org/2000/svg">
<path d="M10.9609 0.5C11.3516 0.5 11.6641 0.734375 11.8203 1.04688L14.5156 6.55469L20.4922 7.45312C20.8438 7.49219 21.1172 7.72656 21.2344 8.07812C21.3516 8.42969 21.2734 8.78125 21 9.05469L16.6641 13.3516L17.6797 19.4062C17.7578 19.7578 17.6016 20.1484 17.3281 20.3438C17.0156 20.5391 16.625 20.5781 16.3125 20.4219L10.9609 17.5312L5.64844 20.4219C5.29688 20.5781 4.94531 20.5391 4.63281 20.3438C4.35938 20.1094 4.20312 19.7578 4.28125 19.4062L5.29688 13.3516L0.960938 9.05469C0.6875 8.78125 0.609375 8.42969 0.726562 8.07812C0.84375 7.76562 1.11719 7.49219 1.46875 7.45312L7.44531 6.55469L10.1406 1.04688C10.2969 0.734375 10.6094 0.5 10.9609 0.5ZM10.9609 3.58594L8.92969 7.84375C8.77344 8.11719 8.53906 8.3125 8.22656 8.35156L3.61719 9.01562L6.9375 12.3359C7.17188 12.5703 7.28906 12.8828 7.21094 13.1562L6.42969 17.8438L10.5312 15.6562C10.8047 15.5 11.1562 15.5 11.4297 15.6562L15.5312 17.8438L14.75 13.1953C14.6719 12.8828 14.7891 12.5703 15.0234 12.375L18.3438 9.01562L13.7344 8.35156C13.4219 8.3125 13.1875 8.11719 13.0312 7.84375L10.9609 3.58594Z" fill="#003399"/>
</svg>
