<svg width="24" height="21" viewBox="0 0 24 21" fill="none" xmlns="http://www.w3.org/2000/svg">
<path d="M20.5547 5.57812L18.5234 2.375H5.4375L3.40625 5.57812C3.21094 5.92969 3.17188 6.39844 3.32812 6.75C3.48438 7.10156 3.75781 7.33594 4.10938 7.375C4.1875 7.375 4.26562 7.41406 4.34375 7.41406C4.8125 7.41406 5.20312 7.17969 5.47656 6.86719C5.86719 6.47656 6.33594 6.28125 6.88281 6.28125C7.42969 6.28125 7.9375 6.47656 8.28906 6.86719C8.5625 7.17969 8.95312 7.41406 9.42188 7.41406C9.89062 7.41406 10.3203 7.17969 10.5938 6.86719C10.9453 6.47656 11.4531 6.28125 11.9609 6.28125C12.5078 6.28125 13.0156 6.47656 13.3672 6.86719C13.6406 7.17969 14.0703 7.41406 14.5391 7.41406C15.0078 7.41406 15.3984 7.17969 15.6719 6.86719C16.0234 6.47656 16.5312 6.28125 17.0781 6.28125C17.5859 6.28125 18.0938 6.47656 18.4453 6.86719C18.7578 7.17969 19.1484 7.375 19.6172 7.375C19.6953 7.375 19.7734 7.375 19.8516 7.375C20.2031 7.33594 20.4766 7.10156 20.6328 6.75C20.7891 6.35938 20.75 5.92969 20.5547 5.57812ZM19.6172 9.25C18.8359 9.25 18.1328 9.01562 17.5859 8.58594C17.3906 8.46875 17.2344 8.3125 17.0781 8.11719C16.9219 8.3125 16.7656 8.46875 16.5703 8.58594C15.9844 9.01562 15.2812 9.25 14.5391 9.25C13.7578 9.25 13.0547 9.01562 12.5078 8.58594C12.3125 8.46875 12.1172 8.3125 11.9609 8.11719C11.8047 8.3125 11.6484 8.46875 11.4531 8.58594C10.9062 9.01562 10.2031 9.25 9.42188 9.25C8.67969 9.25 7.97656 9.01562 7.39062 8.58594C7.19531 8.46875 7.03906 8.3125 6.88281 8.15625C6.72656 8.3125 6.57031 8.46875 6.375 8.58594C5.78906 9.01562 5.08594 9.25 4.34375 9.25C4.1875 9.25 4.03125 9.25 3.875 9.25C1.6875 8.9375 0.671875 6.39844 1.84375 4.5625L4.07031 1.04688C4.26562 0.695312 4.61719 0.5 5.00781 0.5H18.9531C19.3438 0.5 19.6953 0.695312 19.8906 1.04688L22.1172 4.5625C23.2891 6.39844 22.2734 8.9375 20.0859 9.25C19.9297 9.25 19.7734 9.25 19.6172 9.25ZM5.125 13.625H18.875V10.4609C19.1094 10.5 19.3438 10.5 19.6172 10.5C19.8125 10.5 20.0469 10.5 20.2422 10.4609C20.4375 10.4609 20.5938 10.4219 20.75 10.3828V13.625V15.5V18C20.75 19.4062 19.6172 20.5 18.25 20.5H5.75C4.34375 20.5 3.25 19.4062 3.25 18V15.5V13.625V10.3828C3.36719 10.4219 3.52344 10.4609 3.71875 10.4609C3.91406 10.5 4.10938 10.5 4.34375 10.5C4.61719 10.5 4.85156 10.5 5.125 10.4609V13.625ZM18.875 15.5H5.125V18C5.125 18.3516 5.39844 18.625 5.75 18.625H18.25C18.5625 18.625 18.875 18.3516 18.875 18V15.5Z" fill="#003399"/>
</svg>
