<svg width="25" height="24" viewBox="0 0 25 24" fill="none" xmlns="http://www.w3.org/2000/svg">
<path d="M12.8203 0C13.4297 0 13.9453 0.515625 13.9453 1.125V3.09375C17.9766 3.60938 21.2109 6.84375 21.7266 10.875H23.6953C24.3047 10.875 24.8203 11.3906 24.8203 12C24.8203 12.6562 24.3047 13.125 23.6953 13.125H21.7266C21.2109 17.2031 17.9766 20.4375 13.9453 20.9531V22.875C13.9453 23.5312 13.4297 24 12.8203 24C12.1641 24 11.6953 23.5312 11.6953 22.875V20.9531C7.61719 20.4375 4.38281 17.2031 3.86719 13.125H1.94531C1.28906 13.125 0.820312 12.6562 0.820312 12C0.820312 11.3906 1.28906 10.875 1.94531 10.875H3.86719C4.38281 6.84375 7.61719 3.60938 11.6953 3.09375V1.125C11.6953 0.515625 12.1641 0 12.8203 0ZM6.07031 12C6.07031 14.4375 7.33594 16.6406 9.44531 17.8594C11.5078 19.0781 14.0859 19.0781 16.1953 17.8594C18.2578 16.6406 19.5703 14.4375 19.5703 12C19.5703 9.60938 18.2578 7.40625 16.1953 6.1875C14.0859 4.96875 11.5078 4.96875 9.44531 6.1875C7.33594 7.40625 6.07031 9.60938 6.07031 12ZM15.0703 12C15.0703 11.2031 14.6016 10.5 13.9453 10.0781C13.2422 9.65625 12.3516 9.65625 11.6953 10.0781C10.9922 10.5 10.5703 11.2031 10.5703 12C10.5703 12.8438 10.9922 13.5469 11.6953 13.9688C12.3516 14.3906 13.2422 14.3906 13.9453 13.9688C14.6016 13.5469 15.0703 12.8438 15.0703 12ZM8.32031 12C8.32031 10.4062 9.16406 8.95312 10.5703 8.10938C11.9297 7.3125 13.6641 7.3125 15.0703 8.10938C16.4297 8.95312 17.3203 10.4062 17.3203 12C17.3203 13.6406 16.4297 15.0938 15.0703 15.9375C13.6641 16.7344 11.9297 16.7344 10.5703 15.9375C9.16406 15.0938 8.32031 13.6406 8.32031 12Z" fill="#7C8699"/>
</svg>
