<svg width="16" height="17" viewBox="0 0 16 17" fill="none" xmlns="http://www.w3.org/2000/svg">
<path d="M5 0.8125L0.4375 4.59375C0.15625 4.125 0 3.5625 0 3C0 1.34375 1.3125 0 2.96875 0C3.75 0 4.46875 0.3125 5 0.8125ZM8 3.5C6.03125 3.5 4.21875 4.5625 3.21875 6.25C2.25 7.96875 2.25 10.0625 3.21875 11.75C4.21875 13.4688 6.03125 14.5 8 14.5C9.9375 14.5 11.75 13.4688 12.75 11.75C13.7188 10.0625 13.7188 7.96875 12.75 6.25C11.75 4.5625 9.9375 3.5 8 3.5ZM8 16H7.96875C6.3125 16 4.78125 15.4375 3.59375 14.4688L2.25 15.7812C1.96875 16.0938 1.5 16.0938 1.21875 15.7812C0.90625 15.5 0.90625 15.0312 1.21875 14.7188L2.53125 13.4062C1.5625 12.2188 1 10.6875 1 9C1 5.15625 4.125 2 8 2C11.8438 2 15 5.15625 14.9688 9.03125C14.9688 10.6875 14.4062 12.2188 13.4375 13.4062L14.75 14.75C15.0625 15.0312 15.0625 15.5 14.75 15.7812C14.4688 16.0938 14 16.0938 13.7188 15.7812L12.375 14.4688C11.1875 15.4375 9.65625 16 8 16ZM15.5312 4.59375L11 0.8125C11.5312 0.3125 12.2188 0 13 0C14.6562 0 16 1.34375 16 3C16 3.5625 15.8125 4.125 15.5312 4.59375ZM6.25 6H9.75C10.0312 6 10.2812 6.1875 10.4062 6.4375C10.5312 6.6875 10.5 7 10.3438 7.21875L7.78125 10.5312H9.75C10.1562 10.5312 10.5 10.8438 10.5 11.2812C10.5 11.6875 10.1562 12.0312 9.75 12.0312H6.25C5.9375 12.0312 5.6875 11.8438 5.5625 11.5938C5.4375 11.3438 5.46875 11.0312 5.65625 10.8125L8.1875 7.5H6.25C5.8125 7.5 5.5 7.1875 5.5 6.75C5.5 6.34375 5.8125 6 6.25 6Z" fill="#7C8699"/>
</svg>
