<svg width="22" height="20" viewBox="0 0 22 20" fill="none" xmlns="http://www.w3.org/2000/svg">
<path d="M1.14844 10.8438C0.914062 10.6094 0.820312 10.3281 0.820312 10C0.820312 9.71875 0.914062 9.4375 1.14844 9.20312L9.39844 1.32812C9.86719 0.90625 10.5703 0.90625 10.9922 1.375C11.4141 1.79688 11.4141 2.54688 10.9453 2.96875L4.71094 8.875H20.6953C21.3047 8.875 21.8203 9.39062 21.8203 10C21.8203 10.6562 21.3047 11.125 20.6953 11.125H4.71094L10.9453 17.0781C11.4141 17.5 11.4141 18.2031 10.9922 18.6719C10.5703 19.1406 9.86719 19.1406 9.39844 18.7188L1.14844 10.8438Z" fill="#7C8699"/>
</svg>
