<svg width="50" height="45" viewBox="0 0 50 45" fill="none" xmlns="http://www.w3.org/2000/svg">
<path d="M19.1406 0.375H30.7617C32.7148 0.375 34.5703 1.74219 35.1562 3.59766L36.2305 6.625H43.75C47.168 6.625 50 9.45703 50 12.875V37.875C50 41.3906 47.168 44.125 43.75 44.125H6.25C2.73438 44.125 0 41.3906 0 37.875V12.875C0 9.45703 2.73438 6.625 6.25 6.625H13.6719L14.7461 3.59766C15.332 1.74219 17.1875 0.375 19.1406 0.375ZM16.2109 4.08594L15.0391 7.69922C14.9414 7.99219 14.6484 8.1875 14.2578 8.1875H6.25C3.61328 8.1875 1.5625 10.3359 1.5625 12.875V37.875C1.5625 40.5117 3.61328 42.5625 6.25 42.5625H43.75C46.2891 42.5625 48.4375 40.5117 48.4375 37.875V12.875C48.4375 10.3359 46.2891 8.1875 43.75 8.1875H35.6445C35.2539 8.1875 34.9609 7.99219 34.8633 7.69922L33.6914 4.08594C33.3008 2.81641 32.1289 1.9375 30.7617 1.9375H19.1406C17.8711 1.9375 16.6016 2.81641 16.2109 4.08594ZM25 36.3125C20.9961 36.3125 17.4805 34.2617 15.5273 30.8438C13.4766 27.5234 13.4766 23.3242 15.5273 19.9062C17.4805 16.5859 20.9961 14.4375 25 14.4375C28.9062 14.4375 32.4219 16.5859 34.375 19.9062C36.4258 23.3242 36.4258 27.5234 34.375 30.8438C32.4219 34.2617 28.9062 36.3125 25 36.3125ZM15.625 25.375C15.625 28.793 17.3828 31.8203 20.3125 33.5781C23.1445 35.2383 26.7578 35.2383 29.6875 33.5781C32.5195 31.8203 34.375 28.793 34.375 25.375C34.375 22.0547 32.5195 19.0273 29.6875 17.2695C26.7578 15.6094 23.1445 15.6094 20.3125 17.2695C17.3828 19.0273 15.625 22.0547 15.625 25.375Z" fill="#7C8699"/>
</svg>
