<svg width="56" height="93" viewBox="0 0 56 93" fill="none" xmlns="http://www.w3.org/2000/svg">
<g opacity="0.5">
<rect x="18.2268" y="62.0273" width="36.4001" height="29.9766" rx="13" fill="#E0DC5C" stroke="#7C8699" stroke-linecap="round" stroke-linejoin="round"/>
<path d="M25.415 67.3803L30.5386 62.0273H42.3151L46.8268 67.3803L49.2739 73.8039V80.2274L46.8268 86.6509L42.3151 92.0039H30.5386L25.415 86.6509L23.5797 80.2274V73.8039L25.415 67.3803Z" stroke="#7C8699" stroke-linecap="round" stroke-linejoin="round"/>
<path d="M30.0033 67.3803L35.1268 62.0273H38.3386L42.8504 67.3803M30.0033 86.6509L35.1268 92.0039H38.3386L42.8504 86.6509" stroke="#7C8699" stroke-linecap="round" stroke-linejoin="round"/>
<path d="M40.7093 73.8045V80.2281L38.2622 86.6516H33.9798L32.1445 80.2281V73.8045L33.9798 67.381H38.2622" stroke="#7C8699" stroke-linecap="round" stroke-linejoin="round"/>
<path d="M51.4152 86.6503H21.4386" stroke="#7C8699" stroke-linecap="round" stroke-linejoin="round"/>
<path d="M21.4386 67.381H51.4152" stroke="#7C8699" stroke-linecap="round" stroke-linejoin="round"/>
<path d="M54.6269 80.2272H18.2268" stroke="#7C8699" stroke-linecap="round" stroke-linejoin="round"/>
<path d="M18.2268 73.8041H54.6269" stroke="#7C8699" stroke-linecap="round" stroke-linejoin="round"/>
</g>
<path opacity="0.5" d="M0.320068 76.2812L10.2238 66.3775V86.185L0.320068 76.2812Z" fill="#7C8699"/>
<path d="M5.02893 42.9383L5.6411 42.9383L5.6411 43.0704C5.65269 43.6339 5.81965 44.0826 6.14197 44.4165C6.46429 44.7481 6.91878 44.9406 7.50545 44.9939C7.15994 44.6925 6.98719 44.2832 6.98719 43.7661C6.98719 43.2699 7.16226 42.8745 7.5124 42.58C7.86023 42.2855 8.31124 42.1383 8.86545 42.1383C9.44979 42.1383 9.9182 42.2983 10.2707 42.6183C10.6208 42.9359 10.7959 43.3626 10.7959 43.8983C10.7959 44.4432 10.5872 44.8849 10.1698 45.2235C9.7524 45.562 9.21443 45.7313 8.55588 45.7313L8.27762 45.7313C7.23182 45.7313 6.43182 45.5087 5.87762 45.0635C5.32342 44.6159 5.04052 43.9504 5.02893 43.067L5.02893 42.9383ZM7.58893 43.8878C7.58893 44.1336 7.66313 44.3609 7.81153 44.5696C7.95994 44.7783 8.14661 44.9232 8.37153 45.0044L8.63588 45.0044C9.10661 45.0044 9.48574 44.8988 9.77327 44.6878C10.0585 44.4768 10.2011 44.2136 10.2011 43.8983C10.2011 43.5736 10.0817 43.3186 9.84284 43.133C9.60168 42.9452 9.28748 42.8513 8.90023 42.8513C8.50835 42.8513 8.19182 42.9464 7.95066 43.1365C7.70951 43.3244 7.58893 43.5748 7.58893 43.8878ZM8.49327 40.3452L10.7194 40.3452L10.7194 41.093L5.0324 41.093L5.0324 38.9956C5.0324 38.3742 5.19124 37.8872 5.50893 37.5348C5.82661 37.18 6.24748 37.0026 6.77153 37.0026C7.32342 37.0026 7.74893 37.1754 8.04806 37.5209C8.34487 37.8664 8.49327 38.3603 8.49327 39.0026L8.49327 40.3452ZM7.8811 40.3452L7.8811 38.9956C7.8811 38.5945 7.78719 38.2872 7.59936 38.0739C7.40921 37.8606 7.13559 37.7539 6.77849 37.7539C6.43994 37.7539 6.16979 37.8606 5.96806 38.0739C5.764 38.2872 5.65733 38.5806 5.64806 38.9539L5.64806 40.3452L7.8811 40.3452ZM10.7194 33.8583L10.7194 34.5853L5.90197 34.5853L6.43762 36.0427L5.78023 36.0427L5.00458 33.9731L5.00458 33.8583L10.7194 33.8583ZM10.7194 29.3661L10.7194 30.0931L5.90197 30.0931L6.43762 31.5505L5.78023 31.5505L5.00458 29.4809L5.00458 29.3661L10.7194 29.3661ZM5.43936 23.5766L10.7194 25.9348L10.7194 26.6931L5.62719 24.3453L5.62719 27.4235L5.0324 27.4235L5.0324 23.5766L5.43936 23.5766ZM7.52284 21.707L7.52284 21.1644C7.5182 20.8235 7.42892 20.5557 7.25501 20.3609C7.0811 20.1638 6.84574 20.0653 6.54892 20.0653C5.8811 20.0653 5.54719 20.398 5.54719 21.0635C5.54719 21.3742 5.63646 21.6235 5.81501 21.8113C5.99356 21.9968 6.23008 22.0896 6.52458 22.0896L6.52458 22.8131C6.07472 22.8131 5.70023 22.6484 5.4011 22.3192C5.10197 21.9899 4.9524 21.5713 4.9524 21.0635C4.9524 20.5255 5.09501 20.1047 5.38023 19.8009C5.66313 19.4971 6.05733 19.3453 6.56284 19.3453C6.81095 19.3453 7.05095 19.4253 7.28284 19.5853C7.51472 19.7453 7.68748 19.9632 7.8011 20.2392C7.90081 19.9261 8.06545 19.685 8.29501 19.5157C8.52226 19.3441 8.80168 19.2583 9.13327 19.2583C9.64342 19.2583 10.0481 19.4253 10.3472 19.7592C10.6463 20.0908 10.7959 20.5232 10.7959 21.0566C10.7959 21.5922 10.6521 22.027 10.3646 22.3609C10.0747 22.6948 9.69327 22.8618 9.22023 22.8618L9.22023 22.1383C9.51936 22.1383 9.75936 22.0409 9.94023 21.8461C10.1188 21.649 10.2081 21.387 10.2081 21.06C10.2081 20.7099 10.1176 20.4432 9.93675 20.26C9.75356 20.0745 9.49153 19.9818 9.15066 19.9818C8.81907 19.9818 8.56516 20.0838 8.38892 20.2879C8.21037 20.4896 8.11878 20.7818 8.11414 21.1644L8.11414 21.707L7.52284 21.707ZM8.80979 15.2148L8.80979 14.4252L9.39762 14.4252L9.39762 15.2148L10.7194 15.2148L10.7194 15.9418L9.39762 15.9418L9.39762 18.5296L8.97327 18.5296L5.0324 15.9835L5.0324 15.2148L8.80979 15.2148ZM8.80979 17.7122L8.80979 15.9418L6.02023 15.9418L6.17675 16.0287L8.80979 17.7122ZM7.52284 12.7226L7.52284 12.18C7.5182 11.8391 7.42892 11.5713 7.25501 11.3765C7.0811 11.1794 6.84574 11.0809 6.54892 11.0809C5.8811 11.0809 5.54718 11.4136 5.54718 12.0791C5.54718 12.3899 5.63646 12.6391 5.81501 12.827C5.99356 13.0125 6.23008 13.1052 6.52458 13.1052L6.52458 13.8287C6.07472 13.8287 5.70023 13.6641 5.4011 13.3348C5.10197 13.0055 4.9524 12.587 4.9524 12.0791C4.9524 11.5412 5.09501 11.1203 5.38023 10.8165C5.66313 10.5128 6.05733 10.3609 6.56284 10.3609C6.81095 10.3609 7.05095 10.4409 7.28284 10.6009C7.51472 10.7609 7.68747 10.9788 7.8011 11.2548C7.90081 10.9417 8.06545 10.7006 8.29501 10.5313C8.52226 10.3597 8.80168 10.2739 9.13327 10.2739C9.64342 10.2739 10.0481 10.4409 10.3472 10.7748C10.6463 11.1064 10.7959 11.5388 10.7959 12.0722C10.7959 12.6078 10.6521 13.0426 10.3646 13.3765C10.0747 13.7104 9.69327 13.8774 9.22023 13.8774L9.22023 13.1539C9.51936 13.1539 9.75936 13.0565 9.94023 12.8617C10.1188 12.6646 10.2081 12.4026 10.2081 12.0757C10.2081 11.7255 10.1176 11.4588 9.93675 11.2757C9.75356 11.0902 9.49153 10.9974 9.15066 10.9974C8.81907 10.9974 8.56516 11.0994 8.38892 11.3035C8.21037 11.5052 8.11878 11.7974 8.11414 12.18L8.11414 12.7226L7.52284 12.7226ZM10.7194 6.90521L10.7194 7.63217L5.90197 7.63217L6.43762 9.08956L5.78023 9.08956L5.00458 7.01999L5.00458 6.90521L10.7194 6.90521ZM7.86718 4.45824L5.0324 4.16954L5.0324 1.25476L5.70023 1.25476L5.70023 3.55389L7.25153 3.72781C7.08689 3.44723 7.00458 3.1307 7.00458 2.77824C7.00458 2.25882 7.17617 1.84723 7.51936 1.54346C7.86023 1.23737 8.32284 1.08433 8.90718 1.08433C9.49385 1.08433 9.9553 1.24317 10.2915 1.56085C10.6278 1.87621 10.7959 2.31795 10.7959 2.88607C10.7959 3.38925 10.6567 3.79969 10.3785 4.11737C10.1002 4.43505 9.7153 4.61592 9.22371 4.65998L9.22371 3.97824C9.54834 3.93186 9.79414 3.81592 9.9611 3.63041C10.1257 3.44259 10.2081 3.19447 10.2081 2.88607C10.2081 2.54983 10.0933 2.28665 9.86371 2.0965C9.63414 1.90404 9.31762 1.80781 8.91414 1.80781C8.53385 1.80781 8.22892 1.91215 7.99936 2.12085C7.76747 2.32723 7.65153 2.60201 7.65153 2.9452C7.65153 3.26056 7.7211 3.50752 7.86023 3.68607L8.01675 3.87737L7.86718 4.45824Z" fill="#7C8699"/>
</svg>
