<svg width="68" height="64" viewBox="0 0 68 64" fill="none" xmlns="http://www.w3.org/2000/svg">
<path d="M34 6C24.625 6 16.125 11 11.375 19C6.75 27.125 6.75 37 11.375 45C16.125 53.125 24.625 58 34 58C43.25 58 51.75 53.125 56.5 45C61.125 37 61.125 27.125 56.5 19C51.75 11 43.25 6 34 6ZM34 64C22.5 64 12 58 6.25 48C0.5 38.125 0.5 26 6.25 16C12 6.125 22.5 0 34 0C45.375 0 55.875 6.125 61.625 16C67.375 26 67.375 38.125 61.625 48C55.875 58 45.375 64 34 64ZM34 16C35.625 16 37 17.375 37 19V33C37 34.75 35.625 36 34 36C32.25 36 31 34.75 31 33V19C31 17.375 32.25 16 34 16ZM38 44C38 46.25 36.125 48 34 48C31.75 48 30 46.25 30 44C30 41.875 31.75 40 34 40C36.125 40 38 41.875 38 44Z" fill="#E8000F"/>
</svg>
