<svg width="35" height="35" viewBox="0 0 35 35" fill="none" xmlns="http://www.w3.org/2000/svg">
<g opacity="0.5" clip-path="url(#clip0_1_790)">
<path d="M17.801 2.78612C18.268 3.03102 18.7144 3.27394 19.1686 3.5C19.3384 3.56714 19.4402 3.74324 19.4144 3.92535C19.3426 5.61091 19.2836 7.29051 19.2177 8.97408L19.0211 14.0724C18.9556 15.8386 18.89 17.6041 18.8245 19.369C18.8196 19.4969 18.8245 19.6248 18.8245 19.839C19.1843 19.5554 19.4881 19.3432 19.7683 19.0914C20.9117 18.084 21.8939 16.9438 22.5958 15.5715C23.1576 14.4698 23.5214 13.2764 23.6704 12.0467C23.9752 9.61558 23.4443 7.32521 22.5506 5.09533C22.3422 4.57677 22.0846 4.07804 21.8506 3.5694C21.8168 3.49952 21.8201 3.41717 21.8594 3.35028C22.1544 3.64773 22.4729 3.9194 22.7502 4.23173C24.2514 5.92323 25.1559 7.90028 25.5433 10.1351C25.9238 12.3244 25.6977 14.4402 24.7922 16.4698C23.9919 18.2635 22.7462 19.6813 21.1437 20.7878C20.8212 21.0099 20.487 21.2142 20.137 21.4402C20.4545 21.6901 20.8183 21.7297 21.1644 21.7793C21.6491 21.8477 22.1416 21.8666 22.6312 21.8983C23.2477 21.937 23.8651 21.9657 24.5887 22.0054C23.9188 22.354 23.1945 22.5837 22.4474 22.6846C21.4401 22.8232 20.4197 22.8355 19.4095 22.7212C19.1932 22.6984 19.0732 22.7996 18.9464 22.9324L17.6791 24.2571C17.4609 23.9596 17.22 23.6979 17.047 23.3925C16.8051 22.9681 16.4915 22.8382 16.0058 22.8769C15.0093 22.9698 14.0045 22.9028 13.0288 22.6786C12.378 22.52 11.7448 22.3147 11.1471 21.8329C12.5736 21.6911 13.9697 21.9965 15.408 21.4848C15.1878 21.3183 15.0531 21.2132 14.9165 21.112C12.9777 19.6873 11.503 17.8698 10.7352 15.5666C9.46297 11.7562 9.9565 8.18286 12.3711 4.93371C12.8794 4.25156 13.5676 3.63881 14.0592 3.3602C13.7642 3.97691 13.426 4.5966 13.1586 5.24405C12.3564 7.1864 12.1243 9.22394 12.2521 11.3091C12.3741 13.2921 12.8597 15.1759 13.8252 16.9289C14.3168 17.8212 14.9214 18.6144 15.7492 19.2093C15.9586 19.361 16.1847 19.489 16.4866 19.6803C16.4866 19.4384 16.4934 19.2837 16.4915 19.1271C16.4502 14.1695 16.405 9.21369 16.3558 4.25949C16.3509 3.87776 16.4541 3.64674 16.7815 3.46629C17.1354 3.26799 17.4628 3.01416 17.801 2.78612ZM23.1218 3.3255C23.3509 3.37011 23.4767 3.38399 23.5967 3.41771C25.9769 4.10382 27.7328 5.57323 28.8644 7.78031C30.9231 11.7939 29.9586 16.5908 26.5717 19.5653C26.1911 19.8949 25.788 20.197 25.3654 20.4695C27.1517 17.7181 28.0139 14.7525 27.605 11.4637C27.196 8.17493 25.6849 5.52266 23.1218 3.3255ZM12.6523 3.10935C12.0713 3.75878 11.4548 4.3983 10.8993 5.08045C9.47181 6.84136 8.52013 8.83229 8.25861 11.1048C8.0905 12.5516 8.19355 14.0174 8.5624 15.4258C8.98607 17.0026 9.62254 18.5132 10.454 19.9153C10.5117 20.0033 10.5406 20.1073 10.5366 20.2127C10.4176 20.1463 10.2937 20.0878 10.1797 20.0144C8.2419 18.7394 6.88221 17.0251 6.2117 14.7793C5.82775 13.4605 5.73712 12.0724 5.94625 10.7142C6.2106 8.73661 7.09369 6.89569 8.46704 5.45921C9.57901 4.2803 11.0113 3.45871 12.5845 3.09745C12.6077 3.09581 12.631 3.09989 12.6523 3.10935ZM15.0875 25.8494C15.3746 25.8593 15.6479 25.9486 15.8102 26.1994C15.8702 26.3276 15.8769 26.4747 15.8288 26.6079C15.7255 26.8896 15.5209 27.1218 15.2557 27.2584L15.052 27.3711C14.8485 27.4841 14.6459 27.5992 14.4505 27.7293C14.1014 27.9408 13.8167 28.2451 13.6276 28.6088C13.7841 28.726 13.9483 28.8323 14.1191 28.9271C14.3715 29.0325 14.5212 29.2968 14.4829 29.5695C14.3502 30.8228 13.9382 31.9402 12.8912 32.7285C12.531 32.9913 12.1025 33.1423 11.6583 33.1627C11.0842 33.2054 10.6614 32.9407 10.4048 32.3953C10.1266 31.8272 10.1266 31.2194 10.2377 30.6106C10.3665 29.9086 10.6634 29.2642 10.9564 28.6207C11.0704 28.3688 11.1894 28.119 11.3054 27.8671L11.4047 27.9207C11.3575 28.0724 11.3191 28.228 11.2602 28.3758C11.0904 28.8041 10.9157 29.2301 10.7361 29.6538C10.5874 30.0223 10.5343 30.4229 10.5818 30.8178C10.613 31.3484 11.0016 31.7879 11.5207 31.8797C12.3583 32.0215 13.3552 31.733 13.8714 30.8139C14.1054 30.3974 14.0837 30.3181 13.6748 30.0921C13.1026 29.7797 13.02 29.5586 13.2412 28.931C13.4378 28.3897 13.775 27.9534 14.1791 27.5608C14.3069 27.4358 14.4416 27.3169 14.6009 27.1642C14.4131 26.9659 14.3944 26.7676 14.5498 26.5534C14.6156 26.4622 14.6412 26.3412 14.7031 26.246C14.721 26.2175 14.7366 26.186 14.7517 26.1535L14.7667 26.1208L14.7818 26.088C14.8402 25.9622 14.9087 25.8432 15.0875 25.8494ZM17.4088 26.7924C17.3802 27.4864 17.3498 28.1933 17.3232 28.8973C17.3171 29.0116 17.3224 29.1262 17.3389 29.2394C17.4373 29.8343 17.9986 30.099 18.5187 29.8006C18.6308 29.7361 18.7154 29.63 18.8343 29.5676C18.9518 29.4867 19.0865 29.4347 19.2276 29.4159C19.4628 29.435 19.6845 29.3028 19.7811 29.0857C19.8027 29.0431 19.8312 28.9727 19.8607 28.9697C20.1616 28.9439 20.2255 28.6812 20.3523 28.4412C20.4012 28.8729 20.2198 29.2984 19.8755 29.5596C19.7447 29.6528 19.6297 29.7708 19.495 29.8571C19.377 29.9314 19.2404 30.0246 19.1135 30.0237C18.8808 30.0209 18.6611 30.1317 18.5236 30.3211C18.4922 30.3588 18.4597 30.3965 18.4302 30.4361C18.1107 30.8525 17.7597 31.1867 17.1748 30.8674C17.0646 31.153 16.9889 31.4038 16.8729 31.6339C16.7527 31.8857 16.6042 32.1229 16.4305 32.3408C16.0471 32.7969 15.644 32.8038 15.2085 32.3983C15.1495 32.3438 15.0974 32.2803 15.0423 32.2198C15.1682 31.9452 15.3373 31.6923 15.3982 31.4147C15.4693 31.0532 15.499 30.6848 15.487 30.3167L15.4838 30.2378C15.4434 29.396 15.6234 28.6008 15.8977 27.8186C15.9298 27.7139 15.9901 27.6202 16.0717 27.5479C16.0717 27.6758 16.0776 27.8027 16.0717 27.9306C16.0353 28.6554 16.0078 29.3802 15.9547 30.104C15.9104 30.7616 15.7231 31.4014 15.4061 31.9779C16.1464 32.0067 16.6842 31.5525 16.7697 30.8387C16.8149 30.4633 16.8248 30.0846 16.7992 29.7074C16.7382 28.7535 16.7992 27.8235 17.2642 26.9688C17.2853 26.9246 17.31 26.8821 17.338 26.8419C17.359 26.8219 17.3828 26.8052 17.4088 26.7924ZM10.3852 26.8687C10.3915 26.9677 10.3915 27.0671 10.3852 27.1661C10.2868 27.9177 10.2092 28.6732 10.0774 29.4188C9.97374 30 9.67993 30.5043 9.37903 30.9986L9.31451 31.1044L9.20047 31.0618C9.23881 30.9061 9.28207 30.7514 9.31549 30.5948C9.44035 29.9999 9.62223 29.405 9.67139 28.8051C9.7294 28.0872 10.046 27.4904 10.3852 26.8687ZM31.3852 33.2966C31.7086 33.4205 31.9691 33.594 32.0144 33.9282C32.0694 34.3387 31.8433 34.6411 31.4825 34.9237L30.8316 34.3783L31.3852 33.2966ZM27.3356 26.1161C27.3674 26.5223 27.2156 26.8063 27.0646 27.0924L27.0311 27.1561C26.9978 27.2199 26.9653 27.2843 26.9354 27.3506C26.5205 27.2167 26.1971 27.4081 25.91 27.6569C25.6606 27.8689 25.4327 28.1054 25.2297 28.3629C25.0193 28.6365 25.0773 28.7813 25.385 28.935C25.8471 29.165 25.9228 29.3108 25.8638 29.8273C25.7557 30.7802 25.4794 31.6636 24.8403 32.4052C24.3399 32.9833 23.7284 33.3115 22.9517 33.2976C22.175 33.2837 21.6972 32.8018 21.6019 32.0007C21.5267 31.4728 21.5904 30.9343 21.7867 30.4391C22.1249 29.636 22.4857 28.8418 22.8406 28.0456C22.8623 27.996 22.9203 27.9603 23.0058 27.8741C23.0159 28.1096 22.9441 28.2692 22.8757 28.419L22.8543 28.4661C22.8437 28.4895 22.8335 28.5129 22.8239 28.5364C22.6007 29.0857 22.3677 29.6271 22.1524 30.1813C22.0828 30.3664 22.033 30.5586 22.004 30.7544C21.9057 31.3731 22.2498 31.8916 22.8603 31.9908C23.8955 32.1584 24.6644 31.8351 25.2995 30.9715C25.3455 30.9032 25.3841 30.8301 25.4145 30.7534C25.5512 30.4401 25.5128 30.3489 25.2041 30.2339C25.1579 30.216 25.1058 30.214 25.0616 30.1962C24.5946 30.0207 24.4304 29.7708 24.57 29.2761C24.6788 28.8797 24.8413 28.5004 25.0527 28.1487C25.4728 27.4358 26.0586 26.8365 26.7595 26.4027C26.9217 26.3035 27.0986 26.2331 27.3356 26.1161ZM27.7416 29.2374C27.8026 29.3365 27.8537 29.3772 27.8468 29.4079C27.7033 30.0306 27.5676 30.6552 27.4014 31.272C27.2274 31.9184 26.7771 32.2912 26.145 32.4538C25.9611 32.5024 25.7753 32.5431 25.4951 32.6095C25.5934 32.4518 25.621 32.3616 25.6829 32.312C25.8962 32.1346 26.1234 31.9729 26.3406 31.7984C26.8322 31.4018 27.2097 30.916 27.3887 30.2894C27.485 29.9493 27.6118 29.6201 27.7416 29.2374ZM33.6946 25.9902C34.036 26.0325 34.3738 26.1004 34.7052 26.1935C34.9559 26.2639 35.0002 26.4533 34.8252 26.6436C34.7133 26.7637 34.5798 26.8612 34.4319 26.9312C34.1507 27.063 33.8538 27.1582 33.5697 27.2822C33.3052 27.3982 33.0123 27.4745 32.8245 27.7779C32.9611 27.9326 33.1066 28.0813 33.2344 28.2449C33.4262 28.4888 33.438 28.6534 33.3052 28.8775C33.1509 29.1382 33.0182 29.1987 32.7026 29.1521C32.1962 29.0778 31.7853 29.2889 31.5454 29.7748C31.4215 30.0246 31.336 30.2933 31.2288 30.5521C31.1716 30.7216 31.0696 30.872 30.9339 30.9874C30.9526 30.8615 30.9742 30.7355 30.9909 30.6096C31.016 30.4974 31.0272 30.3825 31.0243 30.2676C31.0017 30.0593 30.9024 29.8848 30.6891 29.8254C30.5116 29.7615 30.3136 29.8195 30.1975 29.9691C30.1555 30.0216 30.1114 30.0728 30.0669 30.1236L29.9864 30.2149C29.7987 30.428 29.6167 30.6454 29.5477 30.9398C29.5257 31.0019 29.4977 31.0617 29.4641 31.1183C29.1859 31.732 28.7887 32.201 28.0877 32.3259C27.8203 32.3735 27.5587 32.4558 27.2805 32.4875C27.9186 31.9918 28.7061 31.7003 29.1908 30.9507C29.0116 30.9413 28.8334 30.9178 28.6579 30.8803C28.3826 30.7941 28.1929 30.572 28.3482 30.2785C28.4868 30.0187 28.5802 29.7292 28.7503 29.4932C29.0197 29.1214 29.3776 29.163 29.6076 29.5666C29.6709 29.7048 29.7248 29.8473 29.7689 29.9929C29.9212 29.8283 30.0412 29.7054 30.1533 29.5755C30.2516 29.4644 30.3273 29.3336 30.4325 29.2324C30.7412 28.935 31.0224 28.9548 31.3085 29.28L31.4392 29.4238C31.7784 28.9152 32.1274 28.4412 32.4224 27.9365C32.6996 27.4626 33.0516 27.1017 33.5609 26.8984C33.7005 26.838 33.8371 26.7616 34.075 26.6466C33.4852 26.5048 32.9995 26.2946 32.4922 26.8251C32.8048 26.1161 33.1017 25.9169 33.6946 25.9902ZM21.6717 26.7854C21.5616 27.6093 21.475 28.4373 21.3345 29.2552C21.2131 29.9063 20.9095 30.5087 20.4595 30.9914C20.4616 30.9247 20.4695 30.8583 20.483 30.7931C20.7082 30.0544 20.8591 29.2947 20.9333 28.5255C20.9845 27.88 21.304 27.3258 21.6717 26.7854ZM14.8113 0C15.1239 0.436261 15.3727 0.869547 15.704 1.2245C16.3342 1.89972 16.987 1.84717 17.572 1.12535C17.6968 0.971671 17.7951 0.793201 17.92 0.605807C18.0085 0.731728 18.096 0.857649 18.1864 0.981586C18.7104 1.70142 19.8125 1.90864 20.4477 0.921105C20.605 0.674221 20.7229 0.401558 20.8537 0.152691C21.1722 0.830878 20.952 1.9602 20.3936 2.45595C19.8764 2.91204 18.9641 2.88824 18.3506 2.39547C18.2366 2.30425 18.1373 2.19717 18.0075 2.06926C17.8718 2.17635 17.7361 2.28739 17.5985 2.39448C16.8798 2.94872 16.0048 2.89023 15.3913 2.21799C14.8162 1.59433 14.6491 0.852691 14.8113 0ZM5.21872 26.2093C5.23544 26.2322 5.26592 26.255 5.26297 26.2748C5.24409 26.4411 5.22769 26.6078 5.21199 26.7747L5.19647 26.9417C5.19132 26.9974 5.18619 27.053 5.18101 27.1087L5.16524 27.2756C5.09026 28.0545 4.99191 28.8295 4.68979 29.5666C4.37294 30.3862 3.83902 31.1023 3.14625 31.6368C2.59176 32.0552 1.96648 32.1871 1.29499 32.1187C0.790908 32.0864 0.351811 31.7606 0.171254 31.2848C0.023607 30.9352 -0.0303016 30.5526 0.0149337 30.1754C0.124063 29.1601 0.595973 28.2994 1.09639 27.4457C1.10819 27.4239 1.15047 27.419 1.25468 27.3734C1.1662 27.6014 1.09934 27.7769 1.03052 27.9514C0.85454 28.3946 0.649063 28.8269 0.510439 29.281C0.365887 29.7155 0.477439 30.1951 0.798501 30.5194C1.05019 30.7871 1.38839 30.8734 1.73347 30.8972C3.01156 30.9844 3.9426 30.3409 4.48038 29.2195C4.54493 29.0687 4.58286 28.9076 4.59246 28.7436C4.62392 28.4154 4.6367 28.0853 4.6544 27.7521C4.68684 27.1433 4.81662 26.7864 5.21872 26.2093ZM2.71957 27.3238L2.74325 27.3368L2.79061 27.3628C3.08233 27.5223 3.36309 27.6785 3.39401 28.0416C3.4294 28.466 3.16198 28.7268 2.83165 28.9518L2.1228 28.4561C2.24169 28.041 2.44492 27.6554 2.71957 27.3238ZM9.17195 28.5225L9.16676 28.5547L9.1562 28.6191C9.05983 29.1967 8.92218 29.7414 8.30187 29.979C7.88993 30.1367 7.6412 30.4401 7.49766 30.8516C7.41884 31.0676 7.32893 31.2795 7.22827 31.4861C7.08181 31.8245 6.77891 32.068 6.41915 32.1365C6.08746 32.2289 5.74078 32.2531 5.39962 32.2079C5.73291 31.9729 5.97771 31.7974 6.22547 31.6259C6.40047 31.5059 6.58235 31.3959 6.75538 31.271C7.01484 31.0959 7.21461 30.8446 7.32757 30.5511C7.3846 30.3974 7.46226 30.2537 7.5242 30.101C7.68094 29.6987 7.99173 29.3771 8.38642 29.2086C8.55277 29.1406 8.70765 29.0469 8.84555 28.931C8.96689 28.8055 9.07618 28.6688 9.17195 28.5225ZM6.92547 26.2153C6.82715 27.0263 6.7603 27.8433 6.61676 28.6465C6.5047 29.3371 6.1788 29.9744 5.68572 30.4669C5.72996 30.3062 5.78403 30.1486 5.81549 29.986C5.93544 29.3911 6.08389 28.8011 6.15763 28.2013C6.2471 27.4715 6.52828 26.828 6.92547 26.2153ZM7.87715 34.9812L7.21156 34.4398C7.40819 34.062 7.58516 33.718 7.76999 33.361C8.11409 33.482 8.36774 33.6664 8.40903 34.0035C8.46114 34.421 8.20356 34.7025 7.87715 34.9812ZM6.52533 33.3848C6.64625 33.4652 6.70131 33.4979 6.75243 33.5365C7.2617 33.9262 7.27448 34.4745 6.79176 34.9008C6.67378 35.005 6.56662 35.0218 6.44667 34.9207C6.29724 34.7957 6.15173 34.6688 5.9551 34.5062L6.52533 33.3848Z" fill="black"/>
</g>
<defs>
<clipPath id="clip0_1_790">
<rect width="35" height="35" fill="white"/>
</clipPath>
</defs>
</svg>
