<svg width="54" height="78" viewBox="0 0 54 78" fill="none" xmlns="http://www.w3.org/2000/svg">
<rect x="18.8275" y="49.0273" width="33.9692" height="27.9746" rx="10" fill="#E0DC5C" stroke="#7C8699" stroke-linecap="round" stroke-linejoin="round"/>
<path d="M25.5357 54.0228L30.317 49.0273H41.3071L45.5175 54.0228L47.8012 60.0174V66.0119L45.5175 72.0065L41.3071 77.002H30.317L25.5357 72.0065L23.8229 66.0119V60.0174L25.5357 54.0228Z" stroke="#7C8699" stroke-linecap="round" stroke-linejoin="round"/>
<path d="M29.8176 54.0228L34.5989 49.0273H37.5962L41.8067 54.0228M29.8176 72.0065L34.5989 77.002H37.5962L41.8067 72.0065" stroke="#7C8699" stroke-linecap="round" stroke-linejoin="round"/>
<path d="M39.8085 60.0175V66.0121L37.5248 72.0066H33.5285L31.8157 66.0121V60.0175L33.5285 54.0229H37.5248" stroke="#7C8699" stroke-linecap="round" stroke-linejoin="round"/>
<path d="M49.7994 72.0056H21.8248" stroke="#7C8699" stroke-linecap="round" stroke-linejoin="round"/>
<path d="M21.8248 54.0229H49.7994" stroke="#7C8699" stroke-linecap="round" stroke-linejoin="round"/>
<path d="M52.7967 66.0114H18.8275" stroke="#7C8699" stroke-linecap="round" stroke-linejoin="round"/>
<path d="M18.8275 60.0171H52.7967" stroke="#7C8699" stroke-linecap="round" stroke-linejoin="round"/>
<path d="M0.920776 63.2821L10.8245 53.3784V73.1858L0.920776 63.2821Z" fill="#7C8699"/>
<rect x="0.820068" y="1.00781" width="14" height="47" rx="3.5" stroke="#E8000F"/>
<path d="M4.34094 41.5095L4.87659 41.5095L4.87659 41.6251C4.88673 42.1182 5.03282 42.5108 5.31485 42.8029C5.59688 43.0931 5.99456 43.2615 6.50789 43.3082C6.20558 43.0444 6.05442 42.6863 6.05442 42.2338C6.05442 41.7996 6.2076 41.4537 6.51398 41.196C6.81833 40.9383 7.21297 40.8095 7.69789 40.8095C8.2092 40.8095 8.61905 40.9495 8.92746 41.2295C9.23384 41.5074 9.38702 41.8808 9.38702 42.3495C9.38702 42.8263 9.20442 43.2128 8.8392 43.509C8.47398 43.8053 8.00326 43.9534 7.42702 43.9534L7.18355 43.9534C6.26847 43.9534 5.56847 43.7586 5.08355 43.369C4.59862 42.9774 4.35108 42.3951 4.34094 41.6221L4.34094 41.5095ZM6.58094 42.3403C6.58094 42.5554 6.64587 42.7542 6.77572 42.9369C6.90558 43.1195 7.06891 43.2463 7.26572 43.3173L7.49702 43.3173C7.90891 43.3173 8.24065 43.225 8.49224 43.0403C8.74181 42.8557 8.86659 42.6254 8.86659 42.3495C8.86659 42.0654 8.7621 41.8422 8.55311 41.6799C8.3421 41.5155 8.06717 41.4334 7.72833 41.4334C7.38543 41.4334 7.10847 41.5166 6.89746 41.6829C6.68645 41.8473 6.58094 42.0664 6.58094 42.3403ZM7.37224 39.2405L9.32007 39.2405L9.32007 39.8949L4.34398 39.8949L4.34398 38.0597C4.34398 37.5159 4.48297 37.0898 4.76094 36.7814C5.03891 36.471 5.40717 36.3158 5.86572 36.3158C6.34862 36.3158 6.72094 36.4669 6.98268 36.7692C7.24239 37.0715 7.37224 37.5037 7.37224 38.0658L7.37224 39.2405ZM6.83659 39.2405L6.83659 38.0597C6.83659 37.7087 6.75442 37.4398 6.59007 37.2531C6.42369 37.0665 6.18427 36.9731 5.87181 36.9731C5.57558 36.9731 5.3392 37.0665 5.16268 37.2531C4.98413 37.4398 4.89079 37.6965 4.88268 38.0231L4.88268 39.2405L6.83659 39.2405ZM9.32007 33.5645L9.32007 34.2006L5.10485 34.2006L5.57355 35.4758L4.99833 35.4758L4.31963 33.665L4.31963 33.5645L9.32007 33.5645ZM9.32007 29.6339L9.32007 30.2699L5.10485 30.2699L5.57355 31.5452L4.99833 31.5452L4.31963 29.7343L4.31963 29.6339L9.32007 29.6339ZM4.70007 24.568L9.32007 26.6315L9.32007 27.2949L4.86442 25.2406L4.86442 27.9341L4.34398 27.9341L4.34398 24.568L4.70007 24.568ZM6.52311 22.9321L6.52311 22.4573C6.51905 22.159 6.44094 21.9247 6.28876 21.7543C6.13659 21.5818 5.93065 21.4956 5.67094 21.4956C5.08659 21.4956 4.79442 21.7867 4.79442 22.369C4.79442 22.6409 4.87253 22.859 5.02876 23.0234C5.18499 23.1857 5.39195 23.2669 5.64963 23.2669L5.64963 23.8999C5.25601 23.8999 4.92833 23.7559 4.66659 23.4677C4.40485 23.1796 4.27398 22.8134 4.27398 22.369C4.27398 21.8983 4.39876 21.5301 4.64833 21.2643C4.89586 20.9985 5.24079 20.8656 5.68311 20.8656C5.90021 20.8656 6.11021 20.9356 6.31311 21.0756C6.51601 21.2156 6.66717 21.4063 6.76659 21.6477C6.85384 21.3738 6.99789 21.1628 7.19876 21.0147C7.3976 20.8646 7.6421 20.7895 7.93224 20.7895C8.37862 20.7895 8.73268 20.9356 8.99442 21.2277C9.25615 21.5179 9.38702 21.8963 9.38702 22.363C9.38702 22.8317 9.26123 23.2121 9.00963 23.5043C8.75601 23.7964 8.42224 23.9425 8.00833 23.9425L8.00833 23.3095C8.27007 23.3095 8.48007 23.2243 8.63833 23.0538C8.79456 22.8814 8.87268 22.6521 8.87268 22.366C8.87268 22.0596 8.79355 21.8263 8.63528 21.666C8.47499 21.5037 8.24572 21.4225 7.94746 21.4225C7.65731 21.4225 7.43514 21.5118 7.28094 21.6904C7.12471 21.8669 7.04456 22.1225 7.0405 22.4573L7.0405 22.9321L6.52311 22.9321ZM7.6492 17.2514L7.6492 16.5606L8.16355 16.5606L8.16355 17.2514L9.32007 17.2514L9.32007 17.8875L8.16355 17.8875L8.16355 20.1519L7.79224 20.1519L4.34398 17.924L4.34398 17.2514L7.6492 17.2514ZM7.6492 19.4366L7.6492 17.8875L5.20833 17.8875L5.34528 17.9636L7.6492 19.4366ZM6.52311 15.0708L6.52311 14.596C6.51905 14.2977 6.44094 14.0634 6.28876 13.8929C6.13659 13.7205 5.93065 13.6342 5.67094 13.6342C5.08659 13.6342 4.79441 13.9254 4.79441 14.5077C4.79441 14.7796 4.87253 14.9977 5.02876 15.1621C5.18499 15.3244 5.39195 15.4055 5.64963 15.4055L5.64963 16.0386C5.25601 16.0386 4.92833 15.8945 4.66659 15.6064C4.40485 15.3183 4.27398 14.9521 4.27398 14.5077C4.27398 14.037 4.39876 13.6687 4.64833 13.4029C4.89586 13.1371 5.24079 13.0042 5.68311 13.0042C5.90021 13.0042 6.11021 13.0742 6.31311 13.2142C6.51601 13.3542 6.66717 13.545 6.76659 13.7864C6.85384 13.5125 6.99789 13.3015 7.19876 13.1534C7.3976 13.0032 7.6421 12.9282 7.93224 12.9282C8.37862 12.9282 8.73268 13.0742 8.99441 13.3664C9.25615 13.6566 9.38702 14.035 9.38702 14.5016C9.38702 14.9703 9.26123 15.3508 9.00963 15.6429C8.75601 15.9351 8.42224 16.0812 8.00833 16.0812L8.00833 15.4482C8.27007 15.4482 8.48007 15.3629 8.63833 15.1925C8.79456 15.02 8.87268 14.7908 8.87268 14.5047C8.87268 14.1983 8.79355 13.965 8.63528 13.8047C8.47499 13.6424 8.24572 13.5612 7.94746 13.5612C7.65731 13.5612 7.43514 13.6505 7.28094 13.829C7.1247 14.0055 7.04456 14.2612 7.0405 14.596L7.0405 15.0708L6.52311 15.0708ZM9.32007 9.98054L9.32007 10.6166L5.10485 10.6166L5.57355 11.8918L4.99833 11.8918L4.31963 10.081L4.31963 9.98054L9.32007 9.98054ZM6.82441 7.83944L4.34398 7.58683L4.34398 5.03639L4.92833 5.03639L4.92833 7.04813L6.28572 7.20031C6.14166 6.9548 6.06963 6.67784 6.06963 6.36944C6.06963 5.91494 6.21978 5.5548 6.52007 5.289C6.81833 5.02118 7.22311 4.88726 7.73441 4.88726C8.24775 4.88726 8.65152 5.02625 8.94572 5.30422C9.23992 5.58016 9.38702 5.96668 9.38702 6.46378C9.38702 6.90407 9.26528 7.2632 9.02181 7.54118C8.77833 7.81915 8.44152 7.97741 8.01137 8.01596L8.01137 7.41944C8.29543 7.37886 8.5105 7.27741 8.65659 7.11509C8.80065 6.95074 8.87268 6.73364 8.87268 6.46378C8.87268 6.16958 8.77224 5.93929 8.57137 5.77291C8.3705 5.60451 8.09354 5.52031 7.7405 5.52031C7.40775 5.52031 7.14094 5.61161 6.94007 5.79422C6.73717 5.9748 6.63572 6.21523 6.63572 6.51552C6.63572 6.79147 6.69659 7.00755 6.81833 7.16378L6.95528 7.33118L6.82441 7.83944Z" fill="black"/>
<path d="M18.2929 24.2929C17.9024 24.6834 17.9024 25.3166 18.2929 25.7071L24.6569 32.0711C25.0474 32.4616 25.6805 32.4616 26.0711 32.0711C26.4616 31.6805 26.4616 31.0474 26.0711 30.6569L20.4142 25L26.0711 19.3431C26.4616 18.9526 26.4616 18.3195 26.0711 17.9289C25.6805 17.5384 25.0474 17.5384 24.6569 17.9289L18.2929 24.2929ZM45 25V24L19 24V25V26L45 26V25Z" fill="#E8000F"/>
</svg>
