<svg width="54" height="35" viewBox="0 0 54 35" fill="none" xmlns="http://www.w3.org/2000/svg">
<path fill-rule="evenodd" clip-rule="evenodd" d="M4.78339 0.587443C5.03079 0.586163 5.27677 0.549659 5.52416 0.547738C19.5944 0.549659 33.6638 0.547738 47.7341 0.548378C47.9864 0.552279 48.2424 0.530738 48.4935 0.571783C49.7683 0.592683 51.0033 1.14111 51.8632 1.99251C52.7374 2.84448 53.2372 4.00532 53.2287 5.17395C53.2258 5.86833 53.228 6.56271 53.2273 7.25773C44.7657 7.25709 36.3035 7.25843 27.842 7.25709C27.3828 7.20958 26.9208 7.23491 26.4609 7.21803C26.1371 7.16068 25.8063 7.21739 25.4812 7.17896C25.2145 7.14764 24.945 7.1672 24.6776 7.15288C23.6087 7.09099 22.5349 7.04279 21.4668 6.95225C20.2554 6.87535 19.076 6.58937 17.8753 6.4383C16.5156 6.23761 15.1329 6.2559 13.7675 6.38683C13.1422 6.45652 12.4605 6.55619 11.9871 6.96984C11.7604 7.147 11.6869 7.46359 11.8117 7.7098C12.0484 8.05702 12.4819 8.23808 12.9041 8.32669C13.1857 8.40418 13.4837 8.33123 13.7689 8.3905C14.1511 8.41204 14.5368 8.3749 14.9183 8.42182C16.2253 8.46217 17.538 8.40226 18.8293 8.20944C18.8942 8.2049 18.9598 8.2003 19.0254 8.1964C19.4568 8.12799 19.891 8.07589 20.3238 8.01662C22.0044 7.81402 23.7035 7.77367 25.3913 7.68832C26.09 7.67854 26.7881 7.6499 27.4855 7.61537C36.0661 7.61665 44.6467 7.61537 53.2273 7.61601C53.2273 8.26743 53.2273 8.91884 53.2273 9.5702C44.186 9.56694 35.1449 9.57672 26.1037 9.56566C25.981 9.54347 25.8569 9.53241 25.7343 9.51355C25.4519 9.49335 25.1717 9.45818 24.8908 9.43082C23.1367 9.22822 21.3855 8.96245 19.6158 8.91162C19.0575 8.84257 18.4899 8.9292 17.9316 8.85759C15.6271 8.84909 13.3233 8.85561 11.0188 8.85433C10.38 8.92204 9.73465 8.84909 9.09578 8.91814C8.41128 8.92268 7.65617 8.87646 7.0672 9.2543C6.74136 9.43798 6.48753 9.82293 6.64437 10.1721C6.80624 10.5303 7.22977 10.688 7.61054 10.7838C8.37349 10.9577 9.16632 10.8932 9.94425 10.9049C10.8227 10.9694 11.7061 10.9244 12.5868 10.9381C13.5607 10.9512 14.5368 10.9056 15.5087 10.9714C17.0931 10.9655 18.6789 11.0013 20.2582 10.8821C20.5669 10.8691 20.8764 10.8508 21.1838 10.8176C21.8747 10.7681 22.5627 10.6952 23.2508 10.6229C23.4405 10.604 23.6308 10.5825 23.8205 10.5571C24.2262 10.5206 24.6298 10.4704 25.0341 10.4255C25.0983 10.4196 25.1624 10.4144 25.2273 10.4086C26.2811 10.2457 27.3507 10.3727 28.4096 10.2868C32.8311 10.2861 37.2532 10.2874 41.6755 10.2861C41.8651 10.2828 42.0533 10.2503 42.2445 10.2535C45.9052 10.2555 49.5666 10.2535 53.2273 10.2542C53.2273 10.8944 53.2273 11.5354 53.2273 12.1758C45.5979 12.1758 37.9685 12.1758 30.3391 12.1758C29.919 12.1869 29.4998 12.1628 29.0834 12.1204C27.8042 12.041 26.5279 11.9197 25.248 11.841C24.2041 11.7556 23.1581 11.6905 22.1114 11.6468C20.46 11.5517 18.8044 11.5101 17.1479 11.5257C16.1526 11.4599 15.1522 11.5049 14.1547 11.4918C12.4919 11.4912 10.8284 11.4938 9.16492 11.4905C9.05372 11.4899 8.94245 11.4964 8.83335 11.5172C8.39484 11.5361 7.95563 11.5146 7.51712 11.5276C6.81975 11.6039 6.08605 11.4736 5.4187 11.725C5.0058 11.8631 4.61362 12.1719 4.60228 12.6018C4.63861 12.8226 4.77836 13.0311 4.99299 13.1444C5.47573 13.4206 6.0654 13.4805 6.62366 13.4864C7.2761 13.5431 7.93638 13.4968 8.59163 13.5099C9.77811 13.5737 10.9689 13.5313 12.1575 13.5437C13.2984 13.5437 14.4392 13.5431 15.5801 13.5437C16.8157 13.633 18.0542 13.5307 19.2907 13.5112C22.0144 13.3887 24.7375 13.2122 27.4584 13.0311C28.3704 12.9822 29.2816 12.934 30.1928 12.8917C34.1865 12.893 38.1802 12.8917 42.1738 12.8923C42.6737 12.8871 43.1742 12.9112 43.6719 12.861C46.8571 12.8578 50.0422 12.861 53.2273 12.8598C53.2273 13.4786 53.2273 14.0974 53.2273 14.7162C45.6927 14.7169 38.1581 14.7156 30.6235 14.7169C29.9911 14.7364 29.3685 14.6153 28.7397 14.5762C28.5265 14.5482 28.3126 14.5293 28.0987 14.511C27.8855 14.4837 27.6716 14.4642 27.457 14.4459C27.2437 14.4179 27.0292 14.399 26.8152 14.3814C26.3418 14.3267 25.8662 14.285 25.3898 14.2505C24.2055 14.1449 23.0155 14.0818 21.8262 14.0583C21.3698 13.9906 20.9035 14.0694 20.4458 14.0108C19.7028 13.973 18.9562 14.0362 18.2147 13.9678C15.1736 13.9664 12.1333 13.9678 9.09221 13.9664C9.00516 13.9684 8.91893 13.9769 8.83335 13.9925C8.11036 14.0186 7.3852 13.9691 6.66431 14.0329C6.1652 14.0101 5.66965 14.07 5.17124 14.0662C4.68207 14.0955 4.16441 14.2192 3.82289 14.5612C3.5662 14.782 3.50132 15.1937 3.74024 15.4438C4.07245 15.8047 4.61439 15.9037 5.1021 15.9559C5.59904 16.0216 6.10319 15.9526 6.60091 16.0126C7.40585 16.0412 8.21443 15.9826 9.01803 16.0509C9.8737 16.0542 10.7286 16.0484 11.5842 16.0529C12.0584 16.1011 12.5361 16.0803 13.0124 16.0842C13.9158 16.0835 14.8199 16.0848 15.7241 16.0829C16.7209 16.1461 17.7234 16.1083 18.7231 16.1135C19.2557 16.0484 19.7947 16.1167 20.3288 16.064C22.5164 15.9969 24.7039 15.8666 26.8879 15.7025C27.5731 15.6653 28.2569 15.6008 28.9421 15.5526C29.1119 15.5311 29.2845 15.5299 29.4548 15.5083C30.5066 15.3911 31.5661 15.4432 32.6236 15.4328C36.0696 15.4334 39.5157 15.4315 42.9618 15.4341C44.1233 15.367 45.2899 15.4145 46.4542 15.4002C48.7117 15.4002 50.9698 15.4002 53.2273 15.4002C53.2273 15.9865 53.2273 16.5727 53.2273 17.159C46.0499 17.1596 38.8726 17.1577 31.6945 17.1603C31.3002 17.1701 30.9144 17.0847 30.5237 17.0508C30.3333 17.0261 30.1436 17.0046 29.9532 16.9863C29.5269 16.931 29.0976 16.8997 28.6698 16.8561C28.4331 16.8248 28.1949 16.8046 27.9575 16.7909C27.1069 16.7134 26.2548 16.6626 25.402 16.6287C25.0049 16.5779 24.602 16.6339 24.2055 16.5818C23.735 16.5519 23.2615 16.6014 22.7923 16.5454C21.7427 16.5187 20.6889 16.5779 19.6415 16.507C15.7911 16.5089 11.9415 16.507 8.09181 16.5076C7.86297 16.5102 7.63189 16.4907 7.40732 16.533C6.85187 16.5571 6.29425 16.5128 5.74097 16.5714C5.07998 16.5688 4.36407 16.5356 3.7823 16.873C3.45926 17.0287 3.22322 17.3596 3.28242 17.7003C3.33448 17.985 3.6233 18.1536 3.8821 18.2761C4.36267 18.4663 4.8939 18.5002 5.41079 18.5015C6.08395 18.5732 6.76698 18.4806 7.44084 18.5549C8.08614 18.5673 8.73215 18.5543 9.37739 18.5595C10.4662 18.6448 11.5636 18.54 12.6531 18.624C13.9379 18.6402 15.225 18.5895 16.5084 18.6585C17.7933 18.6526 19.0796 18.6644 20.3652 18.6526C20.8557 18.5888 21.3535 18.6559 21.8454 18.6058C23.8597 18.549 25.8761 18.4618 27.8862 18.3074C28.2869 18.2996 28.6841 18.2468 29.0841 18.224C29.3443 18.194 29.6068 18.1758 29.8691 18.1595C30.0824 18.1309 30.297 18.1113 30.5116 18.0937C30.903 18.054 31.2938 17.9973 31.6866 17.9738C35.5869 17.9719 39.4864 17.9738 43.3867 17.9726C44.0727 17.9139 44.7629 17.9504 45.451 17.9407C48.0435 17.9407 50.6354 17.9407 53.2273 17.9407C53.2266 18.5595 53.228 19.1789 53.2266 19.7978C45.6449 19.7965 38.0633 19.7978 30.4809 19.7972C30.2756 19.7939 30.0724 19.7665 29.8691 19.7418C29.5639 19.7144 29.2588 19.6844 28.9536 19.6571C28.7404 19.6297 28.5265 19.6102 28.3126 19.5919C28.0994 19.5646 27.8848 19.545 27.6708 19.5268C27.2202 19.4773 26.7689 19.4343 26.3168 19.3965C26.0566 19.3639 25.7956 19.3437 25.5339 19.332C24.8701 19.2702 24.2041 19.2272 23.5374 19.2024C22.9927 19.162 22.4444 19.147 21.8974 19.1386C21.4405 19.0715 20.9741 19.1503 20.5163 19.0917C19.9081 19.061 19.2977 19.0975 18.6888 19.0734C18.5106 19.0389 18.3281 19.0467 18.1476 19.0473C15.0795 19.0513 12.0113 19.0434 8.94315 19.0513C8.21443 19.1262 7.47863 19.0369 6.7499 19.1073C6.39908 19.134 6.04329 19.0806 5.69604 19.1392C5.16697 19.1347 4.60655 19.1444 4.14166 19.4063C3.86075 19.5691 3.5655 19.8238 3.59762 20.1561C3.5762 20.3788 3.74878 20.5631 3.93053 20.6895C4.31844 20.941 4.80334 21.0231 5.26964 21.0458C5.72809 21.1013 6.19375 21.0329 6.65291 21.0947C7.29891 21.1077 7.94492 21.096 8.59099 21.0993C9.56277 21.1657 10.5404 21.1195 11.5151 21.1312C13.2 21.2198 14.8927 21.1091 16.5776 21.1989C17.2692 21.1937 17.9609 21.2035 18.6525 21.1944C19.2086 21.1279 19.7719 21.1989 20.3288 21.1449C22.2547 21.0862 24.1806 20.9833 26.1037 20.8491C26.7218 20.8113 27.34 20.769 27.9575 20.7189C28.2427 20.7006 28.5279 20.685 28.8125 20.6537C29.4156 20.6166 30.0167 20.5567 30.62 20.5144C34.5915 20.513 38.5631 20.513 42.5346 20.5144C43.5059 20.4498 44.4812 20.4935 45.4545 20.4811C48.0456 20.4811 50.6361 20.4811 53.2273 20.4811C53.2273 21.0674 53.2273 21.6536 53.2273 22.2399C45.4788 22.2406 37.7303 22.2392 29.9818 22.2406C29.7336 22.2379 29.4884 22.2047 29.241 22.1975C29.0698 22.1747 28.8973 22.1741 28.7269 22.1519C25.4063 21.9298 22.0836 21.7019 18.7573 21.6093C18.2118 21.5553 17.6613 21.6171 17.1159 21.5755C16.8664 21.5455 16.6139 21.5566 16.3637 21.5559C14.1297 21.5559 11.8958 21.5559 9.66264 21.5559C8.94889 21.5422 8.23871 21.6119 7.52426 21.5891C6.8583 21.664 6.16877 21.5448 5.52276 21.7507C5.13702 21.8777 4.71278 22.1096 4.63077 22.5076C4.52664 22.8333 4.81475 23.1297 5.10994 23.2724C5.54634 23.4639 6.03615 23.5446 6.51812 23.5433C7.32746 23.6019 8.14031 23.5661 8.95175 23.5739C10.2309 23.6417 11.5144 23.5935 12.7957 23.6078C14.0314 23.6215 15.2699 23.5746 16.5034 23.6417C17.6835 23.6319 18.8678 23.6697 20.0436 23.5817C20.5192 23.57 20.9962 23.5544 21.4696 23.5186C21.8262 23.5016 22.1834 23.4892 22.5385 23.4534C23.2051 23.4254 23.8704 23.3727 24.5357 23.3245C26.1193 23.2235 27.7008 23.0873 29.2859 23.0007C30.1822 22.9342 31.0813 22.961 31.9797 22.9564C35.2119 22.9564 38.444 22.9564 41.6762 22.9564C41.9043 22.9538 42.1354 22.9727 42.3614 22.931C45.9829 22.9134 49.6051 22.9291 53.2266 22.9232C53.228 23.542 53.2266 24.1615 53.2273 24.7803C44.2417 24.7803 35.2554 24.7803 26.2697 24.7803C25.5674 24.8018 24.8736 24.6728 24.1777 24.6077C23.889 24.5712 23.5995 24.5393 23.3121 24.497C23.0775 24.4683 22.8437 24.4331 22.6076 24.4123C21.993 24.3315 21.3748 24.2618 20.756 24.2162C20.0985 24.1615 19.439 24.1204 18.7787 24.1256C18.3773 24.0807 17.9723 24.099 17.5687 24.0963C15.4788 24.0963 13.3896 24.0963 11.2997 24.0963C11.0388 24.097 10.7778 24.0859 10.5182 24.1159C10.0533 24.1602 9.58208 24.0898 9.11929 24.1543C8.55384 24.1739 7.96774 24.1133 7.43013 24.3126C7.05363 24.4344 6.69 24.7002 6.60301 25.0722C6.5424 25.3392 6.74136 25.588 6.96524 25.7405C7.44867 26.016 8.03548 26.0818 8.5945 26.087C9.56564 26.1639 10.544 26.0656 11.5144 26.1476C13.6541 26.1489 15.7939 26.1476 17.9338 26.1482C18.3987 26.1333 18.8685 26.1802 19.3306 26.1228C19.7348 26.1176 20.1399 26.1053 20.5413 26.0597C21.2565 26.0199 21.9688 25.9431 22.6804 25.8649C22.87 25.8466 23.0604 25.8245 23.2494 25.7998C23.4398 25.7821 23.6301 25.7594 23.8198 25.7346C24.2255 25.6988 24.6291 25.6467 25.0333 25.6043C25.248 25.5861 25.4626 25.5678 25.6758 25.5353C26.6597 25.5066 27.6466 25.5666 28.6284 25.4962C32.8581 25.4975 37.0886 25.4969 41.3182 25.4969C41.791 25.4923 42.2659 25.5157 42.7371 25.4656C46.2331 25.4616 49.7298 25.4662 53.2258 25.463C53.2287 26.1255 53.2266 26.7886 53.2273 27.4511C45.6691 27.4511 38.1103 27.4511 30.5522 27.4511C29.2117 27.4458 27.8705 27.4725 26.5322 27.412C25.9874 27.3709 25.4391 27.3592 24.8922 27.3462C23.464 27.2706 22.0294 27.2081 20.6062 27.0498C19.8204 26.939 19.0368 26.814 18.2496 26.7117C17.9915 26.6791 17.7341 26.6486 17.4753 26.6264C17.1052 26.5795 16.7323 26.5684 16.3594 26.5678C15.7191 26.4837 15.0788 26.6023 14.437 26.571C13.9514 26.614 13.4638 26.5912 12.9797 26.6413C12.5283 26.7482 12.0285 26.9267 11.8081 27.3305C11.6227 27.6413 11.7639 28.0412 12.0569 28.2523C12.5297 28.6118 13.155 28.7453 13.7547 28.7968C13.99 28.8307 14.2274 28.8522 14.4663 28.8613C15.7312 28.9688 17.0139 28.9056 18.2603 28.679C19.0525 28.5421 19.8439 28.4028 20.634 28.2574C21.6465 28.1467 22.6647 28.0848 23.68 28.0126C25.1874 27.9344 26.6947 27.8855 28.2028 27.8412C36.5438 27.8432 44.8855 27.8412 53.2273 27.8419C53.2059 28.7415 53.2743 29.6443 53.1837 30.5406C52.9655 32.0688 51.8597 33.4739 50.3159 34.107C49.7904 34.3552 49.2022 34.4529 48.621 34.5128C34.2093 34.5278 19.7976 34.5135 5.38588 34.52C4.35056 34.518 3.31734 34.2139 2.48888 33.6445C1.25314 32.827 0.492361 31.4715 0.435325 30.082C0.416079 21.8015 0.433859 13.5196 0.426722 5.2384C0.431756 4.12321 0.834642 2.99696 1.64749 2.15342C2.42821 1.29486 3.56836 0.722919 4.78339 0.587443Z" fill="white"/>
</svg>
