<svg width="12" height="17" viewBox="0 0 12 17" fill="none" xmlns="http://www.w3.org/2000/svg">
<path d="M0 1.25C0 0.84375 0.3125 0.5 0.75 0.5H11.25C11.6562 0.5 12 0.84375 12 1.25C12 1.6875 11.6562 2 11.25 2H11V2.59375C11 3.875 10.5 5.0625 9.59375 5.96875L7.03125 8.5L9.59375 11.0625C10.5 11.9375 11 13.1562 11 14.4062V15H11.25C11.6562 15 12 15.3438 12 15.75C12 16.1875 11.6562 16.5 11.25 16.5H0.75C0.3125 16.5 0 16.1875 0 15.75C0 15.3438 0.3125 15 0.75 15H1V14.4062C1 13.1562 1.5 11.9375 2.375 11.0625L4.9375 8.5L2.375 5.96875C1.5 5.0625 1 3.875 1 2.59375V2H0.75C0.3125 2 0 1.6875 0 1.25ZM3.4375 12.125C3.3125 12.25 3.21875 12.375 3.09375 12.5H8.875C8.78125 12.375 8.65625 12.25 8.53125 12.125L6 9.5625L3.4375 12.125ZM8.875 4.5C9.28125 3.96875 9.5 3.28125 9.5 2.59375V2H2.5V2.59375C2.5 3.3125 2.71875 3.96875 3.09375 4.5H8.875Z" fill="#7C8699"/>
</svg>
