<svg width="28" height="29" viewBox="0 0 28 29" fill="none" xmlns="http://www.w3.org/2000/svg">
<path d="M11.375 22.7727V23.6477L15.3125 20.6946C15.75 20.3665 16.2969 20.1477 16.8984 20.1477H24.5C24.9375 20.1477 25.375 19.7649 25.375 19.2727L25.375 3.52271C25.375 3.08521 24.9375 2.64771 24.5 2.64771L3.5 2.64771C3.00781 2.64771 2.625 3.08521 2.625 3.52271L2.625 19.2727C2.625 19.7649 3.00781 20.1477 3.5 20.1477H8.75C10.1719 20.1477 11.375 21.3508 11.375 22.7727ZM11.3203 26.9836L11.0469 27.1477L10.1172 27.8586C9.84375 28.0774 9.51563 28.0774 9.1875 27.968C8.91406 27.804 8.75 27.5305 8.75 27.1477V25.9993V25.6711V25.6165V25.3977V22.7727H6.125H3.5C1.53125 22.7727 0 21.2415 0 19.2727L0 3.52271C0 1.60864 1.53125 0.0227051 3.5 0.0227051L24.5 0.0227051C26.4141 0.0227051 28 1.60864 28 3.52271L28 19.2727C28 21.2415 26.4141 22.7727 24.5 22.7727H16.8984L11.375 26.929L11.3203 26.9836ZM14 4.39771C14.7109 4.39771 15.3125 4.99927 15.3125 5.71021V11.8352C15.3125 12.6008 14.7109 13.1477 14 13.1477C13.2344 13.1477 12.6875 12.6008 12.6875 11.8352V5.71021C12.6875 4.99927 13.2344 4.39771 14 4.39771ZM15.75 16.6477C15.75 17.6321 14.9297 18.3977 14 18.3977C13.0156 18.3977 12.25 17.6321 12.25 16.6477C12.25 15.718 13.0156 14.8977 14 14.8977C14.9297 14.8977 15.75 15.718 15.75 16.6477Z" fill="#996600"/>
</svg>
