<svg width="18" height="17" viewBox="0 0 18 17" fill="none" xmlns="http://www.w3.org/2000/svg">
<path d="M9.75 0.75V1.09375C9.9375 1.125 10.125 1.1875 10.3125 1.21875C10.7188 1.34375 10.9375 1.75 10.8438 2.15625C10.7188 2.53125 10.3125 2.78125 9.90625 2.6875C9.5625 2.59375 9.25 2.53125 8.96875 2.53125C8.75 2.5 8.5 2.5625 8.375 2.65625C8.3125 2.6875 8.28125 2.71875 8.25 2.75C8.25 2.75 8.25 2.78125 8.25 2.84375C8.25 2.875 8.25 2.90625 8.34375 2.9375C8.53125 3.03125 8.78125 3.125 9.1875 3.25H9.21875C9.5625 3.375 10.0312 3.5 10.4062 3.75C10.8438 4 11.2188 4.46875 11.2188 5.15625C11.25 5.84375 10.875 6.34375 10.4062 6.65625C10.1875 6.78125 9.96875 6.875 9.71875 6.9375V7.25C9.71875 7.6875 9.40625 8 8.96875 8C8.5625 8 8.21875 7.6875 8.21875 7.25V6.90625C7.9375 6.84375 7.65625 6.75 7.4375 6.65625C7.375 6.65625 7.3125 6.625 7.25 6.59375C6.84375 6.46875 6.625 6.03125 6.78125 5.65625C6.90625 5.25 7.3125 5.03125 7.71875 5.1875C7.8125 5.21875 7.875 5.21875 7.9375 5.25C8.375 5.40625 8.6875 5.5 9 5.5C9.25 5.53125 9.46875 5.46875 9.59375 5.375C9.65625 5.34375 9.6875 5.3125 9.71875 5.28125C9.71875 5.28125 9.75 5.25 9.71875 5.15625C9.71875 5.125 9.71875 5.09375 9.59375 5.03125C9.4375 4.90625 9.15625 4.8125 8.75 4.6875H8.6875C8.375 4.5625 7.90625 4.4375 7.5625 4.21875C7.15625 3.96875 6.75 3.53125 6.71875 2.84375C6.71875 2.125 7.125 1.65625 7.59375 1.375C7.8125 1.25 8 1.15625 8.21875 1.125V0.75C8.21875 0.34375 8.5625 0 8.96875 0C9.40625 0 9.71875 0.34375 9.71875 0.75H9.75ZM5.84375 11C5.59375 11 5.34375 11.0938 5.15625 11.2188L2.65625 12.875C2.53125 12.9688 2.375 13 2.25 13H0.75C0.3125 13 0 12.6875 0 12.25C0 11.8438 0.3125 11.5 0.75 11.5H2L4.3125 9.96875C4.78125 9.6875 5.3125 9.5 5.84375 9.5H10.75C11.8438 9.5 12.75 10.4062 12.75 11.5C12.75 11.5312 12.75 11.5625 12.75 11.5625L14.75 10.3125C15.0938 10.125 15.4688 10 15.875 10H16.0938C17.1562 10 18 10.8438 18 11.9062C18 12.5312 17.6562 13.125 17.125 13.4688L14.1562 15.4062C13.5312 15.8125 12.8125 16.0312 12.0938 16.0312H0.75C0.3125 16.0312 0 15.6875 0 15.2812C0 14.8438 0.3125 14.5312 0.75 14.5312H12.0938C12.5312 14.5312 12.9688 14.4062 13.3125 14.1562L16.3125 12.2188C16.4062 12.1562 16.5 12.0312 16.5 11.9062C16.5 11.6875 16.3125 11.5 16.0938 11.5H15.875C15.75 11.5 15.6562 11.5312 15.5625 11.5938L12.625 13.4062C12.5 13.4688 12.375 13.5 12.2188 13.5H10.75H10H8C7.5625 13.5 7.25 13.1875 7.25 12.75C7.25 12.3438 7.5625 12 8 12H10H10.75C11 12 11.25 11.7812 11.25 11.5C11.25 11.25 11 11 10.75 11H5.84375Z" fill="#7C8699"/>
</svg>
