<svg width="334" height="216" viewBox="0 0 334 216" fill="none" xmlns="http://www.w3.org/2000/svg">
<g filter="url(#filter0_d_1_1790)">
<mask id="mask0_1_1790" style="mask-type:alpha" maskUnits="userSpaceOnUse" x="8" y="4" width="318" height="200">
<rect x="8" y="4" width="318" height="200" rx="16" fill="#003399"/>
</mask>
<g mask="url(#mask0_1_1790)">
<rect x="8" y="4" width="318" height="200" rx="16" fill="#003399"/>
<line opacity="0.3" x1="248.933" y1="4.35929" x2="171.933" y2="204.359" stroke="#00E8D9" stroke-width="2"/>
<line opacity="0.5" x1="211.178" y1="4.92908" x2="54.1777" y2="203.929" stroke="#00E8D9" stroke-width="3"/>
<line opacity="0.4" x1="326.307" y1="38.3944" x2="113.307" y2="204.394" stroke="#00E8D9"/>
<path d="M27.4844 55.9131V69.4471L20.7003 62.6801L27.4844 55.9131Z" fill="white"/>
</g>
<g clip-path="url(#clip0_1_1790)">
<path d="M308.542 46.8215C311.118 51.4364 312.474 56.6713 312.474 62.0001C312.474 67.3289 311.118 72.5638 308.542 77.1787M302.086 50.1608C304.095 53.7604 305.153 57.8436 305.153 62.0001C305.153 66.1566 304.095 70.2398 302.086 73.8394M295.923 53.2269C297.376 55.8574 298.14 58.8413 298.14 61.8787C298.14 64.9161 297.376 67.9 295.923 70.5305M289.76 56.5358C290.807 58.1749 291.362 60.0681 291.362 62.0001C291.362 63.9321 290.807 65.8253 289.76 67.4644" stroke="white" stroke-width="3" stroke-linecap="round"/>
</g>
<g clip-path="url(#clip1_1_1790)">
<path fill-rule="evenodd" clip-rule="evenodd" d="M35.9687 45.0647C36.1935 45.0635 36.417 45.027 36.6418 45.025C49.4256 45.027 62.2087 45.025 74.9925 45.0257C75.2218 45.0296 75.4544 45.008 75.6825 45.0491C76.8408 45.07 77.9628 45.6184 78.7442 46.4698C79.5384 47.3218 79.9925 48.4826 79.9847 49.6512C79.9821 50.3456 79.9841 51.04 79.9835 51.735C72.2955 51.7344 64.607 51.7357 56.9192 51.7344C56.5019 51.6869 56.0821 51.7122 55.6643 51.6953C55.3701 51.638 55.0696 51.6947 54.7742 51.6563C54.5318 51.6249 54.287 51.6445 54.044 51.6302C53.0729 51.5683 52.0973 51.5201 51.1268 51.4295C50.0261 51.3526 48.9546 51.0667 47.8637 50.9156C46.6283 50.7149 45.3721 50.7332 44.1315 50.8641C43.5633 50.9338 42.944 51.0335 42.5138 51.4471C42.3078 51.6243 42.2411 51.9409 42.3544 52.1871C42.5695 52.5343 42.9634 52.7154 43.347 52.804C43.6028 52.8815 43.8736 52.8085 44.1327 52.8678C44.48 52.8893 44.8305 52.8522 45.177 52.8991C46.3645 52.9395 47.5572 52.8796 48.7304 52.6867C48.7894 52.6822 48.849 52.6776 48.9087 52.6737C49.3006 52.6053 49.6951 52.5532 50.0883 52.4939C51.6153 52.2913 53.1591 52.251 54.6925 52.1656C55.3273 52.1558 55.9616 52.1272 56.5953 52.0927C64.3913 52.0939 72.1874 52.0927 79.9835 52.0933C79.9835 52.7447 79.9835 53.3961 79.9835 54.0475C71.7689 54.0442 63.5543 54.054 55.3397 54.043C55.2283 54.0208 55.1155 54.0097 55.0041 53.9908C54.7476 53.9706 54.493 53.9355 54.2378 53.9081C52.6441 53.7055 51.053 53.4397 49.4451 53.3889C48.9378 53.3199 48.4221 53.4065 47.9148 53.3349C45.821 53.3264 43.7279 53.3329 41.6341 53.3316C41.0536 53.3993 40.4673 53.3264 39.8869 53.3954C39.2649 53.4 38.5789 53.3538 38.0437 53.7316C37.7477 53.9153 37.5171 54.3002 37.6596 54.6494C37.8066 55.0076 38.1915 55.1653 38.5374 55.2611C39.2306 55.435 39.951 55.3705 40.6578 55.3822C41.4559 55.4467 42.2585 55.4017 43.0587 55.4154C43.9436 55.4285 44.8305 55.3829 45.7135 55.4487C47.153 55.4428 48.5938 55.4786 50.0287 55.3594C50.3092 55.3464 50.5904 55.3281 50.8696 55.2949C51.4974 55.2454 52.1225 55.1725 52.7477 55.1002C52.92 55.0813 53.093 55.0597 53.2653 55.0344C53.634 54.9979 54.0007 54.9477 54.368 54.9028C54.4263 54.8969 54.4845 54.8917 54.5435 54.8858C55.501 54.723 56.4727 54.85 57.4348 54.7641C61.4521 54.7634 65.4699 54.7647 69.4879 54.7634C69.6602 54.7601 69.8312 54.7275 70.0048 54.7308C73.3308 54.7328 76.6575 54.7308 79.9835 54.7315C79.9835 55.3717 79.9835 56.0127 79.9835 56.6531C73.0516 56.6531 66.1198 56.6531 59.1879 56.6531C58.8063 56.6642 58.4253 56.64 58.0471 56.5977C56.8848 56.5183 55.7252 56.397 54.5623 56.3183C53.6139 56.2329 52.6635 56.1678 51.7125 56.1241C50.2121 56.029 48.7078 55.9874 47.2028 56.003C46.2985 55.9372 45.3895 55.9822 44.4833 55.9691C42.9725 55.9685 41.4611 55.9711 39.9497 55.9678C39.8486 55.9672 39.7475 55.9737 39.6484 55.9945C39.25 56.0134 38.8509 55.9919 38.4525 56.0049C37.8189 56.0811 37.1523 55.9509 36.546 56.2023C36.1708 56.3404 35.8145 56.6492 35.8042 57.0791C35.8372 57.2999 35.9642 57.5084 36.1592 57.6217C36.5978 57.8979 37.1335 57.9578 37.6408 57.9637C38.2335 58.0204 38.8335 57.9741 39.4288 57.9872C40.5068 58.051 41.5887 58.0086 42.6687 58.021C43.7052 58.021 44.7417 58.0204 45.7783 58.021C46.901 58.1103 48.0262 58.008 49.1496 57.9885C51.6244 57.866 54.0984 57.6895 56.5706 57.5084C57.3992 57.4595 58.2271 57.4113 59.055 57.369C62.6836 57.3703 66.3121 57.369 69.9406 57.3696C70.3948 57.3644 70.8496 57.3885 71.3018 57.3383C74.1957 57.3351 77.0896 57.3383 79.9835 57.337C79.9835 57.9559 79.9835 58.5747 79.9835 59.1935C73.1378 59.1942 66.2921 59.1929 59.4464 59.1942C58.8718 59.2137 58.3061 59.0926 57.7348 59.0535C57.5411 59.0255 57.3467 59.0066 57.1524 58.9883C56.9587 58.961 56.7643 58.9415 56.5693 58.9232C56.3756 58.8952 56.1806 58.8763 55.9863 58.8587C55.5561 58.804 55.124 58.7623 54.6912 58.7278C53.6151 58.6222 52.5339 58.5591 51.4534 58.5356C51.0387 58.4679 50.615 58.5467 50.1992 58.4881C49.5241 58.4503 48.8458 58.5135 48.172 58.4451C45.409 58.4437 42.6467 58.4451 39.8836 58.4437C39.8045 58.4457 39.7262 58.4542 39.6484 58.4698C38.9915 58.4959 38.3327 58.4464 37.6777 58.5102C37.2242 58.4874 36.774 58.5473 36.3211 58.5435C35.8767 58.5728 35.4064 58.6965 35.0961 59.0385C34.8628 59.2593 34.8039 59.671 35.021 59.9211C35.3228 60.282 35.8152 60.381 36.2583 60.4331C36.7098 60.4989 37.1679 60.4299 37.6201 60.4899C38.3514 60.5185 39.0861 60.4599 39.8162 60.5282C40.5937 60.5315 41.3704 60.5257 42.1478 60.5302C42.5786 60.5784 43.0126 60.5576 43.4454 60.5615C44.2662 60.5608 45.0876 60.5621 45.9091 60.5602C46.8148 60.6233 47.7257 60.5856 48.634 60.5908C49.1179 60.5257 49.6076 60.594 50.0928 60.5413C52.0804 60.4742 54.068 60.3439 56.0523 60.1798C56.6749 60.1426 57.2961 60.0781 57.9187 60.0299C58.073 60.0084 58.2297 60.0072 58.3845 59.9856C59.3401 59.8684 60.3028 59.9205 61.2635 59.91C64.3945 59.9107 67.5255 59.9088 70.6565 59.9114C71.7118 59.8443 72.7718 59.8918 73.8296 59.8775C75.8807 59.8775 77.9324 59.8775 79.9835 59.8775C79.9835 60.4638 79.9835 61.05 79.9835 61.6363C73.4623 61.6369 66.9412 61.635 60.4194 61.6376C60.0612 61.6474 59.7107 61.562 59.3556 61.5281C59.1827 61.5034 59.0103 61.4819 58.8374 61.4636C58.45 61.4083 58.06 61.377 57.6713 61.3334C57.4562 61.3021 57.2398 61.2819 57.0241 61.2682C56.2512 61.1907 55.4771 61.1399 54.7022 61.106C54.3414 61.0552 53.9753 61.1112 53.6151 61.0591C53.1876 61.0292 52.7574 61.0787 52.3311 61.0227C51.3775 60.9959 50.42 61.0552 49.4684 60.9842C45.97 60.9862 42.4724 60.9842 38.9747 60.9849C38.7668 60.9875 38.5568 60.9679 38.3528 61.0103C37.8481 61.0344 37.3415 60.9901 36.8388 61.0487C36.2382 61.0461 35.5878 61.0129 35.0592 61.3503C34.7657 61.506 34.5512 61.8369 34.605 62.1776C34.6523 62.4623 34.9147 62.6309 35.1499 62.7534C35.5865 62.9436 36.0691 62.9775 36.5388 62.9788C37.1504 63.0504 37.771 62.9579 38.3832 63.0322C38.9695 63.0446 39.5565 63.0316 40.1427 63.0368C41.132 63.1221 42.129 63.0173 43.1189 63.1013C44.2863 63.1175 45.4557 63.0667 46.6217 63.1358C47.7891 63.1299 48.9579 63.1417 50.1259 63.1299C50.5716 63.066 51.0238 63.1332 51.4708 63.083C53.301 63.0263 55.133 62.9391 56.9593 62.7847C57.3234 62.7769 57.6843 62.7241 58.0476 62.7013C58.2841 62.6713 58.5226 62.6531 58.7609 62.6368C58.9547 62.6082 59.1497 62.5886 59.3447 62.571C59.7003 62.5312 60.0553 62.4746 60.4123 62.4511C63.9559 62.4492 67.499 62.4511 71.0426 62.4499C71.6659 62.3912 72.293 62.4277 72.9182 62.418C75.2737 62.418 77.6286 62.418 79.9835 62.418C79.9828 63.0368 79.9841 63.6562 79.9828 64.2751C73.0943 64.2737 66.2059 64.2751 59.3168 64.2744C59.1302 64.2712 58.9456 64.2438 58.7609 64.2191C58.4836 64.1917 58.2064 64.1617 57.9291 64.1344C57.7354 64.107 57.5411 64.0874 57.3467 64.0692C57.153 64.0419 56.958 64.0223 56.7636 64.0041C56.3542 63.9546 55.9442 63.9116 55.5334 63.8738C55.2969 63.8412 55.0598 63.821 54.8221 63.8093C54.2189 63.7474 53.6139 63.7045 53.0081 63.6797C52.5132 63.6393 52.015 63.6243 51.5181 63.6159C51.1029 63.5487 50.6792 63.6276 50.2633 63.5689C49.7106 63.5383 49.1561 63.5748 48.6028 63.5507C48.4409 63.5162 48.275 63.524 48.1111 63.5246C45.3235 63.5286 42.5358 63.5207 39.7482 63.5286C39.0861 63.6035 38.4176 63.5142 37.7555 63.5846C37.4367 63.6113 37.1135 63.5579 36.7979 63.6165C36.3173 63.612 35.8081 63.6217 35.3857 63.8836C35.1305 64.0464 34.8622 64.3011 34.8914 64.6334C34.8719 64.8561 35.0287 65.0404 35.1939 65.1668C35.5463 65.4183 35.9869 65.5004 36.4105 65.5231C36.8271 65.5786 37.2502 65.5101 37.6673 65.572C38.2543 65.585 38.8412 65.5733 39.4282 65.5766C40.3112 65.643 41.1994 65.5968 42.085 65.6085C43.6158 65.6971 45.1538 65.5864 46.6846 65.6762C47.313 65.671 47.9414 65.6808 48.5698 65.6716C49.0751 65.6052 49.5869 65.6762 50.0928 65.6222C51.8427 65.5635 53.5925 65.4606 55.3397 65.3264C55.9014 65.2886 56.4631 65.2463 57.0241 65.1962C57.2832 65.1779 57.5423 65.1623 57.8009 65.131C58.3489 65.0939 58.895 65.034 59.4431 64.9916C63.0516 64.9903 66.66 64.9903 70.2684 64.9916C71.1509 64.9271 72.0371 64.9707 72.9213 64.9584C75.2756 64.9584 77.6292 64.9584 79.9835 64.9584C79.9835 65.5447 79.9835 66.1309 79.9835 66.7171C72.9434 66.7178 65.9034 66.7165 58.8633 66.7178C58.6378 66.7152 58.415 66.682 58.1902 66.6748C58.0347 66.652 57.8779 66.6514 57.7231 66.6292C54.7061 66.4071 51.6872 66.1791 48.665 66.0866C48.1694 66.0325 47.6693 66.0944 47.1737 66.0528C46.947 66.0228 46.7176 66.0339 46.4902 66.0332C44.4606 66.0332 42.4309 66.0332 40.4019 66.0332C39.7534 66.0195 39.1081 66.0892 38.459 66.0664C37.8539 66.1413 37.2275 66.0221 36.6405 66.228C36.29 66.355 35.9046 66.5869 35.8301 66.9849C35.7355 67.3106 35.9972 67.607 36.2654 67.7497C36.6619 67.9411 37.107 68.0219 37.5449 68.0206C38.2802 68.0792 39.0187 68.0434 39.756 68.0512C40.9182 68.119 42.0843 68.0708 43.2485 68.0851C44.3712 68.0987 45.4965 68.0519 46.6172 68.1189C47.6894 68.1092 48.7655 68.147 49.8337 68.059C50.2659 68.0473 50.6992 68.0317 51.1294 67.9959C51.4534 67.9789 51.7779 67.9665 52.1005 67.9307C52.7062 67.9027 53.3106 67.85 53.9151 67.8018C55.354 67.7008 56.7908 67.5646 58.231 67.478C59.0453 67.4115 59.8623 67.4383 60.6786 67.4337C63.6152 67.4337 66.5518 67.4337 69.4885 67.4337C69.6958 67.4311 69.9057 67.45 70.111 67.4083C73.4014 67.3907 76.6924 67.4063 79.9828 67.4005C79.9841 68.0193 79.9828 68.6388 79.9835 69.2576C71.8194 69.2576 63.6547 69.2576 55.4906 69.2576C54.8525 69.2791 54.2222 69.1501 53.5899 69.085C53.3276 69.0485 53.0645 69.0166 52.8034 68.9742C52.5903 68.9456 52.3778 68.9104 52.1633 68.8896C51.6049 68.8088 51.0432 68.7391 50.481 68.6935C49.8837 68.6388 49.2844 68.5977 48.6845 68.6029C48.3197 68.558 47.9518 68.5763 47.5851 68.5736C45.6863 68.5736 43.7881 68.5736 41.8893 68.5736C41.6522 68.5743 41.4151 68.5632 41.1793 68.5932C40.7569 68.6374 40.3287 68.5671 39.9082 68.6316C39.3945 68.6512 38.8619 68.5906 38.3735 68.7899C38.0314 68.9117 37.701 69.1775 37.622 69.5495C37.5669 69.8165 37.7477 70.0653 37.9511 70.2178C38.3903 70.4933 38.9235 70.5591 39.4314 70.5643C40.3138 70.6412 41.2027 70.5428 42.0843 70.6249C44.0284 70.6262 45.9726 70.6249 47.9168 70.6255C48.3392 70.6106 48.7661 70.6575 49.1859 70.6001C49.5532 70.5949 49.9212 70.5826 50.2859 70.537C50.9357 70.4972 51.5829 70.4204 52.2295 70.3422C52.4018 70.3239 52.5747 70.3018 52.7465 70.2771C52.9194 70.2594 53.0924 70.2367 53.2647 70.2119C53.6333 70.1761 54 70.124 54.3673 70.0816C54.5623 70.0634 54.7573 70.0451 54.951 70.0126C55.845 69.9839 56.7416 70.0439 57.6337 69.9735C61.4767 69.9748 65.3203 69.9742 69.1633 69.9742C69.5928 69.9696 70.0243 69.993 70.4524 69.9429C73.6288 69.9389 76.8058 69.9435 79.9821 69.9403C79.9847 70.6028 79.9828 71.2659 79.9835 71.9283C73.1163 71.9283 66.2486 71.9283 59.3816 71.9283C58.1636 71.9231 56.945 71.9498 55.7291 71.8893C55.2341 71.8482 54.7359 71.8365 54.239 71.8235C52.9414 71.7479 51.6379 71.6854 50.3449 71.5271C49.631 71.4163 48.919 71.2913 48.2038 71.189C47.9693 71.1564 47.7354 71.1259 47.5002 71.1037C47.164 71.0567 46.8252 71.0457 46.4864 71.045C45.9046 70.961 45.3228 71.0796 44.7398 71.0483C44.2986 71.0913 43.8555 71.0685 43.4156 71.1186C43.0055 71.2255 42.5514 71.404 42.3512 71.8078C42.1828 72.1185 42.311 72.5185 42.5773 72.7296C43.0068 73.0891 43.575 73.2226 44.1198 73.2741C44.3336 73.308 44.5493 73.3295 44.7664 73.3386C45.9156 73.4461 47.0811 73.3829 48.2135 73.1562C48.9333 73.0194 49.6523 72.8801 50.3702 72.7347C51.2901 72.624 52.2152 72.5621 53.1377 72.4899C54.5072 72.4117 55.8768 72.3628 57.2469 72.3185C64.8254 72.3205 72.4044 72.3185 79.9835 72.3192C79.964 73.2188 80.0262 74.1216 79.9439 75.0179C79.7457 76.5461 78.7409 77.9512 77.3383 78.5843C76.8609 78.8325 76.3264 78.9302 75.7984 78.9901C62.7043 79.0051 49.6102 78.9908 36.5161 78.9973C35.5755 78.9953 34.6367 78.6911 33.884 78.1218C32.7613 77.3043 32.07 75.9488 32.0182 74.5593C32.0007 66.2788 32.0169 57.9969 32.0104 49.7157C32.015 48.6005 32.381 47.4743 33.1196 46.6307C33.8289 45.7722 34.8648 45.2002 35.9687 45.0647Z" fill="white"/>
</g>
</g>
<defs>
<filter id="filter0_d_1_1790" x="0" y="0" width="334" height="216" filterUnits="userSpaceOnUse" color-interpolation-filters="sRGB">
<feFlood flood-opacity="0" result="BackgroundImageFix"/>
<feColorMatrix in="SourceAlpha" type="matrix" values="0 0 0 0 0 0 0 0 0 0 0 0 0 0 0 0 0 0 127 0" result="hardAlpha"/>
<feOffset dy="4"/>
<feGaussianBlur stdDeviation="4"/>
<feComposite in2="hardAlpha" operator="out"/>
<feColorMatrix type="matrix" values="0 0 0 0 0 0 0 0 0 0 0 0 0 0 0 0 0 0 0.25 0"/>
<feBlend mode="normal" in2="BackgroundImageFix" result="effect1_dropShadow_1_1790"/>
<feBlend mode="normal" in="SourceGraphic" in2="effect1_dropShadow_1_1790" result="shape"/>
</filter>
<clipPath id="clip0_1_1790">
<rect width="26" height="34" fill="white" transform="translate(288 45)"/>
</clipPath>
<clipPath id="clip1_1_1790">
<rect width="48" height="34" fill="white" transform="translate(32 45)"/>
</clipPath>
</defs>
</svg>
