<svg width="143" height="132" viewBox="0 0 143 132" fill="none" xmlns="http://www.w3.org/2000/svg">
<g opacity="0.2">
<path d="M71.9997 9.08496L32.6362 31.8115C26.4482 35.3841 22.6362 41.9867 22.6362 49.132V94.585" stroke="#E84E00" stroke-width="4"/>
<path d="M121.363 37.585V83.038C121.363 90.1833 117.551 96.7858 111.363 100.358L71.9995 123.085" stroke="#996A00" stroke-width="4"/>
</g>
<g opacity="0.1">
<path d="M76.9676 9.30231L35.7732 28.5116C29.2973 31.5313 24.9244 37.7765 24.3017 44.8946L20.3402 90.1746" stroke="#E84E00" stroke-width="20"/>
<path d="M123.659 41.9957L119.698 87.2757C119.075 94.3938 114.702 100.639 108.226 103.659L67.0316 122.868" stroke="#996A00" stroke-width="20"/>
</g>
<path d="M74.25 49.335V76.335C74.25 77.6475 73.2188 78.585 72 78.585C70.6875 78.585 69.75 77.6475 69.75 76.335V49.335C69.75 48.1162 70.6875 47.085 72 47.085C73.2188 47.085 74.25 48.1162 74.25 49.335ZM72 89.085C70.3125 89.085 69 87.7725 69 86.085C69 84.4912 70.3125 83.085 72 83.085C73.5938 83.085 75 84.4912 75 86.085C75 87.7725 73.5938 89.085 72 89.085Z" fill="#E84E00"/>
<ellipse opacity="0.4" cx="126.476" cy="21.328" rx="3.5" ry="2.5" transform="rotate(-45 126.476 21.328)" fill="#E84E00"/>
<ellipse opacity="0.5" cx="137.976" cy="64.8271" rx="5" ry="4" fill="#E84E00"/>
<ellipse opacity="0.5" cx="113.698" cy="109.339" rx="3" ry="2.5" transform="rotate(37 113.698 109.339)" fill="#E84E00"/>
<ellipse opacity="0.3" cx="24.2969" cy="98.8975" rx="3.5" ry="2.5" transform="rotate(135 24.2969 98.8975)" fill="#996A00"/>
<ellipse opacity="0.5" cx="6.83079" cy="73.657" rx="6" ry="4" transform="rotate(165 6.83079 73.657)" fill="#996A00"/>
<ellipse opacity="0.4" cx="14.0753" cy="30.8867" rx="3" ry="2.5" transform="rotate(-150 14.0753 30.8867)" fill="#996A00"/>
</svg>
