<svg width="80" height="169" viewBox="0 0 80 169" fill="none" xmlns="http://www.w3.org/2000/svg">
<g clip-path="url(#clip0_2185_54931)">
<path fill-rule="evenodd" clip-rule="evenodd" d="M1.45312 64.1607C1.45312 54.3456 5.42026 45.4579 11.8376 39.0134L50.7626 0.0742188L67.4845 16.8022L28.5595 55.7414C26.4396 57.8872 25.1015 60.906 25.1015 64.1607V119.229H1.45312V64.1607Z" fill="#00E8D9"/>
<path fill-rule="evenodd" clip-rule="evenodd" d="M79.1153 104.557C79.1153 114.372 75.1482 123.259 68.7309 129.704L29.8059 168.643L13.084 151.915L52.009 112.976C54.1289 110.83 55.4669 107.812 55.4669 104.557V49.4883H79.1153V104.557Z" fill="#003399"/>
<path fill-rule="evenodd" clip-rule="evenodd" d="M13.2775 0.0742188C15.5816 0.0742188 17.6705 1.00846 19.1837 2.52289L19.1843 2.52423L19.1857 2.52533C20.6995 4.03867 21.6335 6.12819 21.6335 8.43315C21.6335 10.7388 20.6978 12.8291 19.1843 14.3424L19.1857 14.3441C17.6743 15.8561 15.5848 16.7928 13.2775 16.7928C10.9706 16.7928 8.8805 15.8561 7.36868 14.3441C5.85735 12.8319 4.9209 10.7409 4.9209 8.43315C4.9209 6.12503 5.85735 4.03478 7.36868 2.52289L7.37038 2.52423C8.88317 1.01028 10.9728 0.0742188 13.2775 0.0742188ZM18.404 3.30248C17.0941 1.99109 15.2816 1.1805 13.2775 1.1805C11.2735 1.1805 9.46 1.99182 8.15042 3.30248V3.30492C6.8389 4.61691 6.02678 6.42971 6.02678 8.43315C6.02678 10.4362 6.8389 12.2501 8.15042 13.5621C9.46206 14.8742 11.2752 15.6865 13.2775 15.6865C15.2802 15.6865 17.0924 14.8742 18.404 13.5621H18.4064C19.7166 12.2522 20.5277 10.4379 20.5277 8.43315C20.5277 6.42838 19.7172 4.61558 18.4064 3.30492L18.404 3.30248Z" fill="#003399"/>
<path fill-rule="evenodd" clip-rule="evenodd" d="M9.97656 12.5399V3.76562H13.8637C14.6451 3.76562 15.2394 3.84526 15.6456 4.00308C16.0521 4.16028 16.3763 4.43773 16.6195 4.8358C16.8624 5.23422 16.9834 5.67532 16.9834 6.15752C16.9834 6.78027 16.7811 7.30514 16.3787 7.73214C15.9767 8.15853 15.3559 8.42869 14.5144 8.54516C14.8229 8.69204 15.0558 8.83952 15.2152 8.98189C15.5536 9.29241 15.8743 9.68245 16.1744 10.1502L17.6917 12.5399H16.2422L15.0823 10.7143C14.7454 10.1846 14.4659 9.78275 14.2472 9.50263C14.0267 9.22311 13.8303 9.02906 13.657 8.91672C13.4854 8.80608 13.3083 8.72888 13.1285 8.68377C12.9979 8.65714 12.7833 8.64304 12.4832 8.64304H11.1399V12.5399H9.97656ZM11.1399 7.63767H13.6305C14.1614 7.63767 14.5738 7.58332 14.8721 7.47268C15.1701 7.36447 15.3964 7.18867 15.5498 6.94599C15.7048 6.70477 15.7827 6.44385 15.7827 6.15983C15.7827 5.74523 15.6332 5.40164 15.3331 5.13453C15.033 4.8668 14.5597 4.73415 13.9123 4.73415H11.1399V7.63767Z" fill="#003399"/>
</g>
<defs>
<clipPath id="clip0_2185_54931">
<rect width="79" height="169" fill="white" transform="translate(0.5)"/>
</clipPath>
</defs>
</svg>
