<svg width="140" height="140" viewBox="0 0 140 140" fill="none" xmlns="http://www.w3.org/2000/svg">
<mask id="mask0_1534_6864" style="mask-type:alpha" maskUnits="userSpaceOnUse" x="9" y="3" width="122" height="134">
<path d="M60 5.7735C66.188 2.20085 73.812 2.20085 80 5.7735L120.622 29.2265C126.81 32.7992 130.622 39.4017 130.622 46.547V93.453C130.622 100.598 126.81 107.201 120.622 110.774L80 134.227C73.812 137.799 66.188 137.799 60 134.227L19.3782 110.774C13.1902 107.201 9.37822 100.598 9.37822 93.453V46.547C9.37822 39.4017 13.1902 32.7992 19.3782 29.2265L60 5.7735Z" fill="#EDEFF5"/>
</mask>
<g mask="url(#mask0_1534_6864)">
<path d="M60 5.7735C66.188 2.20085 73.812 2.20085 80 5.7735L120.622 29.2265C126.81 32.7992 130.622 39.4017 130.622 46.547V93.453C130.622 100.598 126.81 107.201 120.622 110.774L80 134.227C73.812 137.799 66.188 137.799 60 134.227L19.3782 110.774C13.1902 107.201 9.37822 100.598 9.37822 93.453V46.547C9.37822 39.4017 13.1902 32.7992 19.3782 29.2265L60 5.7735Z" fill="#EDEFF5"/>
<path opacity="0.5" d="M93.5312 58.1875L88.6562 50.5H57.25L52.375 58.1875C51.9062 59.0312 51.8125 60.1562 52.1875 61C52.5625 61.8438 53.2188 62.4062 54.0625 62.5C54.25 62.5 54.4375 62.5938 54.625 62.5938C55.75 62.5938 56.6875 62.0312 57.3438 61.2812C58.2812 60.3438 59.4062 59.875 60.7188 59.875C62.0312 59.875 63.25 60.3438 64.0938 61.2812C64.75 62.0312 65.6875 62.5938 66.8125 62.5938C67.9375 62.5938 68.9688 62.0312 69.625 61.2812C70.4688 60.3438 71.6875 59.875 72.9062 59.875C74.2188 59.875 75.4375 60.3438 76.2812 61.2812C76.9375 62.0312 77.9688 62.5938 79.0938 62.5938C80.2188 62.5938 81.1562 62.0312 81.8125 61.2812C82.6562 60.3438 83.875 59.875 85.1875 59.875C86.4062 59.875 87.625 60.3438 88.4688 61.2812C89.2188 62.0312 90.1562 62.5 91.2812 62.5C91.4688 62.5 91.6562 62.5 91.8438 62.5C92.6875 62.4062 93.3438 61.8438 93.7188 61C94.0938 60.0625 94 59.0312 93.5312 58.1875ZM91.2812 67C89.4062 67 87.7188 66.4375 86.4062 65.4062C85.9375 65.125 85.5625 64.75 85.1875 64.2812C84.8125 64.75 84.4375 65.125 83.9688 65.4062C82.5625 66.4375 80.875 67 79.0938 67C77.2188 67 75.5312 66.4375 74.2188 65.4062C73.75 65.125 73.2812 64.75 72.9062 64.2812C72.5312 64.75 72.1562 65.125 71.6875 65.4062C70.375 66.4375 68.6875 67 66.8125 67C65.0312 67 63.3438 66.4375 61.9375 65.4062C61.4688 65.125 61.0938 64.75 60.7188 64.375C60.3438 64.75 59.9688 65.125 59.5 65.4062C58.0938 66.4375 56.4062 67 54.625 67C54.25 67 53.875 67 53.5 67C48.25 66.25 45.8125 60.1562 48.625 55.75L53.9688 47.3125C54.4375 46.4688 55.2812 46 56.2188 46H89.6875C90.625 46 91.4688 46.4688 91.9375 47.3125L97.2812 55.75C100.094 60.1562 97.6562 66.25 92.4062 67C92.0312 67 91.6562 67 91.2812 67ZM56.5 77.5H89.5V69.9062C90.0625 70 90.625 70 91.2812 70C91.75 70 92.3125 70 92.7812 69.9062C93.25 69.9062 93.625 69.8125 94 69.7188V77.5V82V88C94 91.375 91.2812 94 88 94H58C54.625 94 52 91.375 52 88V82V77.5V69.7188C52.2812 69.8125 52.6562 69.9062 53.125 69.9062C53.5938 70 54.0625 70 54.625 70C55.2812 70 55.8438 70 56.5 69.9062V77.5ZM89.5 82H56.5V88C56.5 88.8438 57.1562 89.5 58 89.5H88C88.75 89.5 89.5 88.8438 89.5 88V82Z" fill="#6D8AC4"/>
</g>
</svg>
