<svg width="143" height="132" viewBox="0 0 143 132" fill="none" xmlns="http://www.w3.org/2000/svg">
<g opacity="0.2">
<path d="M71.9997 9.08496L32.6362 31.8115C26.4482 35.3841 22.6362 41.9867 22.6362 49.132V94.585" stroke="#00E8D9" stroke-width="4"/>
<path d="M121.363 37.585V83.038C121.363 90.1833 117.551 96.7858 111.363 100.358L71.9995 123.085" stroke="#003399" stroke-width="4"/>
</g>
<g opacity="0.1">
<path d="M76.9676 9.30231L35.7732 28.5116C29.2973 31.5313 24.9244 37.7765 24.3017 44.8946L20.3402 90.1746" stroke="#00E8D9" stroke-width="20"/>
<path d="M123.659 41.9957L119.698 87.2757C119.075 94.3938 114.702 100.639 108.226 103.659L67.0316 122.868" stroke="#003399" stroke-width="20"/>
</g>
<path d="M92.3438 50.6562C93.1875 51.5938 93.1875 53 92.3438 53.8438L67.5938 78.5938C66.6562 79.5312 65.25 79.5312 64.4062 78.5938L51.6562 65.8438C50.7188 65 50.7188 63.5938 51.6562 62.75C52.5 61.8125 53.9062 61.8125 54.75 62.75L65.9062 73.9062L89.1562 50.6562C90 49.8125 91.4062 49.8125 92.25 50.6562H92.3438Z" fill="#00E8D9"/>
<ellipse opacity="0.4" cx="126.476" cy="21.328" rx="3.5" ry="2.5" transform="rotate(-45 126.476 21.328)" fill="#00E8D9"/>
<ellipse opacity="0.5" cx="137.976" cy="64.8271" rx="5" ry="4" fill="#00E8D9"/>
<ellipse opacity="0.5" cx="113.698" cy="109.339" rx="3" ry="2.5" transform="rotate(37 113.698 109.339)" fill="#00E8D9"/>
<ellipse opacity="0.3" cx="24.2969" cy="98.8975" rx="3.5" ry="2.5" transform="rotate(135 24.2969 98.8975)" fill="#003399"/>
<ellipse opacity="0.5" cx="6.83079" cy="73.657" rx="6" ry="4" transform="rotate(165 6.83079 73.657)" fill="#003399"/>
<ellipse opacity="0.4" cx="14.0753" cy="30.8867" rx="3" ry="2.5" transform="rotate(-150 14.0753 30.8867)" fill="#003399"/>
</svg>
